<?xml version="1.0" encoding="UTF-8"?>
<svg version="1.1" xmlns="http://www.w3.org/2000/svg" width="689" height="697">
<path d="M0 0 C227.37 0 454.74 0 689 0 C689 230.01 689 460.02 689 697 C461.63 697 234.26 697 0 697 C0 466.99 0 236.98 0 0 Z " fill="#F5F4F4" transform="translate(0,0)"/>
<path d="M0 0 C0.99 0.33 1.98 0.66 3 1 C2.21625 1.70125 1.4325 2.4025 0.625 3.125 C-4.53878752 8.7805768 -4.38583635 15.14566511 -4.61691284 22.440979 C-4.6545285 23.45540203 -4.69214416 24.46982506 -4.73089969 25.51498818 C-5.10084913 36.32422275 -5.14090104 47.12997447 -5.12939453 57.94433594 C-5.13075509 60.1386213 -5.13253865 62.33290644 -5.13470459 64.52719116 C-5.13922379 70.44192163 -5.13750618 76.35663443 -5.1343255 82.27136517 C-5.13174638 88.60068996 -5.13415698 94.93001351 -5.13571167 101.25933838 C-5.13764454 112.65523292 -5.13455839 124.05111807 -5.12945233 135.44701102 C-5.12507683 145.51545996 -5.12577661 155.58389423 -5.13037109 165.65234375 C-5.16251793 237.77398134 -4.83160039 309.88298892 -4 382 C-3.38640625 382.30679687 -2.7728125 382.61359375 -2.140625 382.9296875 C-0.09375 383.953125 1.953125 384.9765625 4 386 C4 386.66 4 387.32 4 388 C4.99 387.67 5.98 387.34 7 387 C8.7265625 387.9609375 8.7265625 387.9609375 10.625 389.375 C14.48010913 391.95935093 17.52370582 392.63530272 22.1171875 392.859375 C24 393 24 393 26 394 C25.99555878 392.93812973 25.99111755 391.87625946 25.98654175 390.7822113 C25.94595378 380.76271063 25.91599547 370.74322669 25.89637566 360.72366238 C25.88594976 355.57282007 25.87181231 350.42204427 25.84912109 345.27124023 C25.82735022 340.29808462 25.81542239 335.32499289 25.81024551 330.35179329 C25.80655739 328.45683856 25.79935541 326.56188722 25.78853989 324.66695976 C25.7739686 322.00763335 25.77202442 319.34856906 25.77294922 316.68920898 C25.76575867 315.9102124 25.75856812 315.13121582 25.75115967 314.32861328 C25.76916523 309.5265702 26.33541637 305.52470498 28 301 C30.79887327 299.60056337 32.12138828 300.45246424 35.0625 301.375 C35.96097656 301.65085937 36.85945313 301.92671875 37.78515625 302.2109375 C40 303 40 303 41 304 C41.09523905 306.89143151 41.12553027 309.75892064 41.11352539 312.65063477 C41.11367142 313.55786285 41.11381744 314.46509094 41.1139679 315.39981079 C41.11326841 318.41369985 41.10547434 321.42752793 41.09765625 324.44140625 C41.0957922 326.52505967 41.09436824 328.60871354 41.09336853 330.69236755 C41.08954234 336.18823446 41.0797112 341.68407513 41.06866455 347.17993164 C41.0584526 352.78336227 41.05387137 358.38679713 41.04882812 363.99023438 C41.03808902 374.99350114 41.02101139 385.99674839 41 397 C47.70366991 397.05026452 54.4072658 397.08597397 61.11108398 397.10986328 C63.38519175 397.11983673 65.65928699 397.13342032 67.93334961 397.15087891 C89.36610005 397.81734007 89.36610005 397.81734007 110 393 C112.18448835 392.85818553 114.37361724 392.77988236 116.5625 392.75 C123.24811345 392.39070992 127.89178932 390.56148334 133.671875 387.27734375 C136 386 136 386 138 386 C138 385.34 138 384.68 138 384 C140.5 382.375 140.5 382.375 143 381 C143.31766791 409.13125825 143.31766791 409.13125825 137 416 C136.34 416 135.68 416 135 416 C134.67 416.99 134.34 417.98 134 419 C131.9375 419.6875 131.9375 419.6875 130 420 C130 420.66 130 421.32 130 422 C129.34 422 128.68 422 128 422 C128 422.66 128 423.32 128 424 C111.63462496 429.31976211 111.63462496 429.31976211 103.72265625 430.640625 C101.97665285 430.84074747 101.97665285 430.84074747 101 432 C92.36261795 433.36139924 83.53001183 433.16332078 74.8125 433.16796875 C73.37809212 433.17118972 71.94368456 433.17455439 70.50927734 433.17805481 C67.52749874 433.18399468 64.54574893 433.18589956 61.56396484 433.18530273 C57.74300234 433.18520027 53.92222213 433.19896173 50.1013031 433.21607494 C47.15023951 433.2271735 44.19922075 433.22922277 41.24813843 433.22869301 C39.83832153 433.22987215 38.42850344 433.23429023 37.01870728 433.24202538 C35.05676668 433.25180085 33.09477165 433.24768931 31.1328125 433.24291992 C30.01793457 433.24434494 28.90305664 433.24576996 27.75439453 433.24723816 C25 433 25 433 22 431 C22 430.01 22 429.02 22 428 C17.02319844 426.93753675 12.00728791 426.33043669 6.9609375 425.6953125 C3.90558751 424.97782926 2.70798033 424.60436716 1 422 C1 420.68 1 419.36 1 418 C0.1646875 417.690625 0.1646875 417.690625 -0.6875 417.375 C-3.85127214 415.49383819 -6.06324622 413.09537869 -8 410 C-8.61918312 406.70561469 -8.61918312 406.70561469 -8.61079502 403.05272865 C-8.61607425 402.37454126 -8.62135349 401.69635386 -8.6267927 400.99761534 C-8.63835904 398.72600944 -8.61422584 396.45621079 -8.59022522 394.1847229 C-8.59113932 392.53944821 -8.59424349 390.89417352 -8.59934896 389.24890649 C-8.60696488 384.72843701 -8.58325998 380.20858977 -8.55442131 375.68822575 C-8.52874012 370.81289302 -8.53191559 365.93756802 -8.53143311 361.06217957 C-8.52582176 351.51100732 -8.49319659 341.96010863 -8.45115448 332.40903451 C-8.4175519 324.64657268 -8.39410712 316.88414126 -8.3779583 309.12162399 C-8.37566038 308.01737758 -8.37336246 306.91313117 -8.37099491 305.77542274 C-8.36638393 303.53223486 -8.36180229 301.28904691 -8.35724967 299.0458589 C-8.31595683 279.20235313 -8.24934984 259.35901015 -8.16967773 239.515625 C-8.09236144 220.25880227 -8.03675568 201.00206696 -8.00366211 181.74511719 C-7.96761125 160.78096216 -7.91890884 139.81690601 -7.84873861 118.85283506 C-7.84127756 116.61722592 -7.83382585 114.38161674 -7.82638359 112.14600754 C-7.82270739 111.04602316 -7.81903119 109.94603879 -7.81524359 108.81272156 C-7.79014939 101.06036126 -7.77391171 93.30801118 -7.76094246 85.5556221 C-7.74481418 76.10671458 -7.71427281 66.65798213 -7.6654017 57.20918514 C-7.64080196 52.38797389 -7.62253234 47.56696255 -7.62148857 42.74568367 C-7.6203402 38.33142475 -7.60078994 33.91764284 -7.56659978 29.5035197 C-7.55743817 27.90736049 -7.55496338 26.31114584 -7.55988146 24.71496792 C-7.60414157 7.78550686 -7.60414157 7.78550686 -1.36543995 1.30105174 C-0.68954718 0.65703113 -0.68954718 0.65703113 0 0 Z " fill="#97B1C4" transform="translate(280,159)"/>
<path d="M0 0 C0.33 0 0.66 0 1 0 C0.77053076 19.52574597 0.77053076 19.52574597 -5 26 C-5.66 26 -6.32 26 -7 26 C-7.33 26.99 -7.66 27.98 -8 29 C-10.0625 29.6875 -10.0625 29.6875 -12 30 C-12 30.66 -12 31.32 -12 32 C-12.66 32 -13.32 32 -14 32 C-14 32.66 -14 33.32 -14 34 C-30.36537504 39.31976211 -30.36537504 39.31976211 -38.27734375 40.640625 C-40.02334715 40.84074747 -40.02334715 40.84074747 -41 42 C-49.63738205 43.36139924 -58.46998817 43.16332078 -67.1875 43.16796875 C-68.62190788 43.17118972 -70.05631544 43.17455439 -71.49072266 43.17805481 C-74.47250126 43.18399468 -77.45425107 43.18589956 -80.43603516 43.18530273 C-84.25699766 43.18520027 -88.07777787 43.19896173 -91.8986969 43.21607494 C-94.84976049 43.2271735 -97.80077925 43.22922277 -100.75186157 43.22869301 C-102.16167847 43.22987215 -103.57149656 43.23429023 -104.98129272 43.24202538 C-106.94323332 43.25180085 -108.90522835 43.24768931 -110.8671875 43.24291992 C-111.98206543 43.24434494 -113.09694336 43.24576996 -114.24560547 43.24723816 C-117 43 -117 43 -120 41 C-120 40.01 -120 39.02 -120 38 C-124.97680156 36.93753675 -129.99271209 36.33043669 -135.0390625 35.6953125 C-138.09441249 34.97782926 -139.29201967 34.60436716 -141 32 C-141 30.68 -141 29.36 -141 28 C-141.8353125 27.690625 -141.8353125 27.690625 -142.6875 27.375 C-145.90882031 25.45962036 -148.23526954 23.29186055 -150 20 C-150.45689314 16.65089049 -150.16322213 13.47578413 -149.8125 10.125 C-149.74224609 9.24585938 -149.67199219 8.36671875 -149.59960938 7.4609375 C-149.42386897 5.30518853 -149.21521664 3.15216638 -149 1 C-147 2.375 -147 2.375 -145 4 C-145 4.66 -145 5.32 -145 6 C-144.0925 6.28875 -143.185 6.5775 -142.25 6.875 C-139.67797092 7.76531776 -137.38653234 8.71494413 -135 10 C-135 10.66 -135 11.32 -135 12 C-128.8535064 14.25371432 -122.98301731 15.62699365 -116.50390625 16.5703125 C-114 17 -114 17 -112 18 C-109.36997428 18.11224914 -106.76747718 18.16386965 -104.13671875 18.16796875 C-102.92500504 18.17411697 -102.92500504 18.17411697 -101.68881226 18.1803894 C-99.02166631 18.19005125 -96.35466112 18.18989957 -93.6875 18.1875 C-92.78071503 18.18789276 -91.87393005 18.18828552 -90.93966675 18.18869019 C-77.2918966 18.18163816 -63.68924702 17.81557635 -50.0625 17.0625 C-49.25855804 17.01902435 -48.45461609 16.97554871 -47.62631226 16.93075562 C-39.55921257 16.9593119 -39.55921257 16.9593119 -32 15 C-30.27200515 14.78216079 -28.54255887 14.57578956 -26.8125 14.375 C-21.49685521 13.51473865 -16.9298525 11.96762325 -12.0625 9.75 C-11.43641846 9.47462402 -10.81033691 9.19924805 -10.1652832 8.91552734 C-5.47560842 6.67431003 -3.08712232 4.02519817 0 0 Z " fill="#C8C7C3" transform="translate(422,549)"/>
<path d="M0 0 C5.875 0.875 5.875 0.875 7 2 C7.04063832 3.66617115 7.042721 5.33388095 7 7 C10.27773504 6.24849977 10.27773504 6.24849977 12 3 C12.66 3 13.32 3 14 3 C14 3.66 14 4.32 14 5 C15.32 5 16.64 5 18 5 C18.33 5.66 18.66 6.32 19 7 C19 6.34 19 5.68 19 5 C21.01822917 4.51171875 23.03645833 4.0234375 25.0546875 3.53515625 C27.0585657 3.05153008 27.0585657 3.05153008 29 2 C30.67889021 2.63525576 32.34416775 3.30686092 34 4 C35.65919896 4.36871088 37.3247643 4.71281674 39 5 C39 5.99 39 6.98 39 8 C39.66 8 40.32 8 41 8 C41.33 6.68 41.66 5.36 42 4 C43.98 4 45.96 4 48 4 C48 5.32 48 6.64 48 8 C48.66 8 49.32 8 50 8 C50 7.34 50 6.68 50 6 C51.32 6.33 52.64 6.66 54 7 C54.33 6.01 54.66 5.02 55 4 C58.46941546 4.45822468 61.67395049 4.89131683 65 6 C65.99 6 66.98 6 68 6 C68 7.65 68 9.3 68 11 C63.05 11 58.1 11 53 11 C52.34 12.98 51.68 14.96 51 17 C52.98 17.33 54.96 17.66 57 18 C57 17.34 57 16.68 57 16 C58.98 15.67 60.96 15.34 63 15 C63 15.66 63 16.32 63 17 C63.66 17 64.32 17 65 17 C65 18.65 65 20.3 65 22 C57.25 23.125 57.25 23.125 55 22 C55 22.66 55 23.32 55 24 C47.375 25 47.375 25 44 25 C44.495 25.99 44.495 25.99 45 27 C47.32156597 27.40729228 49.6568787 27.74438677 52 28 C52 28.66 52 29.32 52 30 C51.34 30 50.68 30 50 30 C50.495 33.465 50.495 33.465 51 37 C54.9589232 36.89049976 58.91686326 36.75978332 62.875 36.625 C64.00292969 36.5940625 65.13085938 36.563125 66.29296875 36.53125 C67.36933594 36.49257813 68.44570313 36.45390625 69.5546875 36.4140625 C70.54968262 36.3826416 71.54467773 36.3512207 72.56982422 36.31884766 C75.17854517 36.22752917 75.17854517 36.22752917 77 34 C79.6015625 33.5859375 79.6015625 33.5859375 82.625 33.375 C83.62789063 33.30023438 84.63078125 33.22546875 85.6640625 33.1484375 C86.43492187 33.09945312 87.20578125 33.05046875 88 33 C87.67 34.98 87.34 36.96 87 39 C84.25294422 39.91568526 81.86046005 40.01755019 79 39.9375 C75.82056787 39.89605489 73.66098896 40.08408795 71 42 C70.505 42.99 70.505 42.99 70 44 C74.95 43.67 79.9 43.34 85 43 C85 43.99 85 44.98 85 46 C82.08493545 47.94337637 81.17028308 48.27674667 77.875 48.5625 C74.22536034 48.56686899 74.22536034 48.56686899 73 50 C70.5625 50.1875 70.5625 50.1875 68 50 C67.34 49.34 66.68 48.68 66 48 C65.505 48.99 65.505 48.99 65 50 C56.78301272 51.42943214 48.43803596 51.11332959 40.125 51.0625 C38.69791824 51.05747278 37.27083477 51.05291204 35.84375 51.04882812 C32.22913586 51.03754987 28.61458271 51.01884709 25 51 C24.01 51 23.02 51 22 51 C15.37209302 50.18604651 15.37209302 50.18604651 13 49 C13 48.34 13 47.68 13 47 C12.34 47 11.68 47 11 47 C10.67 47.66 10.34 48.32 10 49 C9.34 47.68 8.68 46.36 8 45 C7.67 49.62 7.34 54.24 7 59 C7.66 59 8.32 59 9 59 C9.33 57.68 9.66 56.36 10 55 C10.96486328 55.09087891 10.96486328 55.09087891 11.94921875 55.18359375 C19.29416058 55.86465112 26.64413091 56.45035636 34 57 C34.495 59.97 34.495 59.97 35 63 C25.62597411 65.27249112 16.17528124 63.37877662 7 61 C6.67 61.66 6.34 62.32 6 63 C3.125 62.3125 3.125 62.3125 0 61 C-1.82556411 57.52359575 -2.25008874 54.64188146 -2.1875 50.75 C-2.17783203 49.44289063 -2.17783203 49.44289063 -2.16796875 48.109375 C-2.03548309 45.65684967 -1.80668886 43.28674883 -1.50927734 40.8527832 C-0.99712521 36.31313694 -0.78655321 31.81114669 -0.68359375 27.24609375 C-0.66281265 26.45977066 -0.64203156 25.67344757 -0.62062073 24.86329651 C-0.55601412 22.38810693 -0.49666054 19.9128251 -0.4375 17.4375 C-0.39422989 15.74413165 -0.35061313 14.05077213 -0.30664062 12.35742188 C-0.20042609 8.23837218 -0.09891753 4.11923113 0 0 Z " fill="#D8D4D0" transform="translate(305,261)"/>
<path d="M0 0 C5.875 0.875 5.875 0.875 7 2 C7.04063832 3.66617115 7.042721 5.33388095 7 7 C10.27773504 6.24849977 10.27773504 6.24849977 12 3 C12.66 3 13.32 3 14 3 C14 3.66 14 4.32 14 5 C15.32 5 16.64 5 18 5 C18.33 5.66 18.66 6.32 19 7 C19 6.34 19 5.68 19 5 C21.01822917 4.51171875 23.03645833 4.0234375 25.0546875 3.53515625 C27.0585657 3.05153008 27.0585657 3.05153008 29 2 C29.66 2.33 30.32 2.66 31 3 C31.495 4.485 31.495 4.485 32 6 C33.98 6 35.96 6 38 6 C37.67 7.65 37.34 9.3 37 11 C33.72918529 11.02902429 30.4584037 11.04680684 27.1875 11.0625 C26.25873047 11.07087891 25.32996094 11.07925781 24.37304688 11.08789062 C23.48037109 11.09111328 22.58769531 11.09433594 21.66796875 11.09765625 C20.84578857 11.10289307 20.0236084 11.10812988 19.17651367 11.11352539 C17 11 17 11 14 10 C14.33 11.65 14.66 13.3 15 15 C14.01 15 13.02 15 12 15 C12 16.32 12 17.64 12 19 C13.65 19 15.3 19 17 19 C17 18.34 17 17.68 17 17 C19.97 16.67 22.94 16.34 26 16 C26.33 16.66 26.66 17.32 27 18 C26.67 18.99 26.34 19.98 26 21 C26.66 21 27.32 21 28 21 C28 20.01 28 19.02 28 18 C31.32561865 16.23937836 32.59173995 15.89215772 36.3125 16.875 C37.199375 17.24625 38.08625 17.6175 39 18 C38.01 18.33 37.02 18.66 36 19 C36 19.99 36 20.98 36 22 C31.74433453 23.16063604 28.3164922 22.76173392 24 22 C24 21.01 24 20.02 24 19 C23.34 19 22.68 19 22 19 C22 19.99 22 20.98 22 22 C19.69 22 17.38 22 15 22 C15 23.32 15 24.64 15 26 C15.598125 25.79375 16.19625 25.5875 16.8125 25.375 C19 25 19 25 22 27 C22.33 26.67 22.66 26.34 23 26 C24.66617115 25.95936168 26.33388095 25.957279 28 26 C28 26.99 28 27.98 28 29 C26.68 28.67 25.36 28.34 24 28 C24 28.99 24 29.98 24 31 C25.32 31 26.64 31 28 31 C27.67 31.99 27.34 32.98 27 34 C26.21625 33.835 25.4325 33.67 24.625 33.5 C22.11791961 32.9376293 22.11791961 32.9376293 20 33 C17.99787771 32.67966043 15.99760305 32.34740923 14 32 C13.67 32.66 13.34 33.32 13 34 C14.65 34.33 16.3 34.66 18 35 C18 35.66 18 36.32 18 37 C18.804375 36.979375 19.60875 36.95875 20.4375 36.9375 C23 37 23 37 24 38 C24.33 37.34 24.66 36.68 25 36 C26.0725 36.309375 27.145 36.61875 28.25 36.9375 C30.82866222 37.66812096 33.39512102 38.37482904 36 39 C36.495 40.98 36.495 40.98 37 43 C34.98177083 42.96744792 32.96354167 42.93489583 30.9453125 42.90234375 C28.91814596 42.87350758 28.91814596 42.87350758 27 44 C28.98 44.66 30.96 45.32 33 46 C33 47.65 33 49.3 33 51 C17 51 17 51 13 49 C13 48.34 13 47.68 13 47 C12.34 47 11.68 47 11 47 C10.67 47.66 10.34 48.32 10 49 C9.34 47.68 8.68 46.36 8 45 C7.67 49.62 7.34 54.24 7 59 C7.66 59 8.32 59 9 59 C9.33 57.68 9.66 56.36 10 55 C10.96486328 55.09087891 10.96486328 55.09087891 11.94921875 55.18359375 C19.29416058 55.86465112 26.64413091 56.45035636 34 57 C34.495 59.97 34.495 59.97 35 63 C25.62597411 65.27249112 16.17528124 63.37877662 7 61 C6.67 61.66 6.34 62.32 6 63 C3.125 62.3125 3.125 62.3125 0 61 C-1.82556411 57.52359575 -2.25008874 54.64188146 -2.1875 50.75 C-2.17783203 49.44289063 -2.17783203 49.44289063 -2.16796875 48.109375 C-2.03548309 45.65684967 -1.80668886 43.28674883 -1.50927734 40.8527832 C-0.99712521 36.31313694 -0.78655321 31.81114669 -0.68359375 27.24609375 C-0.66281265 26.45977066 -0.64203156 25.67344757 -0.62062073 24.86329651 C-0.55601412 22.38810693 -0.49666054 19.9128251 -0.4375 17.4375 C-0.39422989 15.74413165 -0.35061313 14.05077213 -0.30664062 12.35742188 C-0.20042609 8.23837218 -0.09891753 4.11923113 0 0 Z " fill="#C8C7C2" transform="translate(305,261)"/>
<path d="M0 0 C0.99 0.33 1.98 0.66 3 1 C2.21625 1.70125 1.4325 2.4025 0.625 3.125 C-4.53878752 8.7805768 -4.38583635 15.14566511 -4.61691284 22.440979 C-4.6545285 23.45540203 -4.69214416 24.46982506 -4.73089969 25.51498818 C-5.10084913 36.32422275 -5.14090104 47.12997447 -5.12939453 57.94433594 C-5.13075509 60.1386213 -5.13253865 62.33290644 -5.13470459 64.52719116 C-5.13922379 70.44192163 -5.13750618 76.35663443 -5.1343255 82.27136517 C-5.13174638 88.60068996 -5.13415698 94.93001351 -5.13571167 101.25933838 C-5.13764454 112.65523292 -5.13455839 124.05111807 -5.12945233 135.44701102 C-5.12507683 145.51545996 -5.12577661 155.58389423 -5.13037109 165.65234375 C-5.16251793 237.77398134 -4.83160039 309.88298892 -4 382 C-3.38640625 382.30679687 -2.7728125 382.61359375 -2.140625 382.9296875 C-0.09375 383.953125 1.953125 384.9765625 4 386 C4 386.66 4 387.32 4 388 C4.99 387.67 5.98 387.34 7 387 C8.8671875 387.9609375 8.8671875 387.9609375 10.875 389.375 C13.92110387 391.40386254 16.28215593 392.65145212 20 393 C20 393.66 20 394.32 20 395 C22.64 395.33 25.28 395.66 28 396 C28.09765625 402.15234375 28.09765625 402.15234375 28 404 C27 405 27 405 23.90234375 405.203125 C14.70171177 404.72421323 1.4095328 400.49356696 -5.17557096 393.78296834 C-7.39517253 390.39720722 -7.50108801 388.49731596 -7.50336456 384.47250652 C-7.50917833 383.82755207 -7.51499209 383.18259762 -7.52098203 382.5180991 C-7.53559706 380.3537832 -7.52169117 378.19059879 -7.50793457 376.02629089 C-7.51254296 374.46024712 -7.51889545 372.89420766 -7.52684355 371.32817727 C-7.54356928 367.02220345 -7.53527581 362.71658341 -7.52289867 358.41060817 C-7.51386351 353.76766661 -7.52781043 349.12478669 -7.53881836 344.4818573 C-7.55662584 335.38449341 -7.55275331 326.28726136 -7.5411678 317.18989225 C-7.53214084 309.7959036 -7.53090628 302.40195195 -7.53526306 295.00795937 C-7.53587599 293.95630933 -7.53648893 292.90465929 -7.53712043 291.82114107 C-7.53839932 289.68481458 -7.53969617 287.5484881 -7.5410108 285.41216163 C-7.55242356 265.3680558 -7.53929285 245.32402309 -7.51780933 225.27992926 C-7.49994554 208.0807072 -7.5030352 190.88159315 -7.52148438 173.68237305 C-7.54289226 153.71552368 -7.55131662 133.74873848 -7.53903532 113.78187925 C-7.53776112 111.65241548 -7.53650363 109.52295171 -7.53526306 107.39348793 C-7.53464596 106.34572666 -7.53402886 105.2979654 -7.53339306 104.21845379 C-7.52993933 96.83477514 -7.53576916 89.45113718 -7.54518127 82.06746483 C-7.55640205 73.06689951 -7.55335983 64.06647371 -7.5320583 55.06592437 C-7.52154778 50.47354116 -7.517426 45.88139056 -7.53065491 41.28900909 C-7.54258506 37.08384949 -7.53600606 32.87913782 -7.5147447 28.67401878 C-7.51028117 27.15385202 -7.51253936 25.63364733 -7.52224785 24.11350503 C-7.61838661 7.80768638 -7.61838661 7.80768638 -1.36526537 1.29826039 C-0.9147278 0.86983446 -0.46419023 0.44140853 0 0 Z " fill="#7693A7" transform="translate(280,159)"/>
<path d="M0 0 C0.66 0 1.32 0 2 0 C2 2.64 2 5.28 2 8 C2.99 8 3.98 8 5 8 C5 7.34 5 6.68 5 6 C5.99 6 6.98 6 8 6 C8 6.66 8 7.32 8 8 C12.62 7.67 17.24 7.34 22 7 C22.495 8.98 22.495 8.98 23 11 C26.9589232 10.89049976 30.91686326 10.75978332 34.875 10.625 C36.00292969 10.5940625 37.13085938 10.563125 38.29296875 10.53125 C39.36933594 10.49257813 40.44570313 10.45390625 41.5546875 10.4140625 C43.04718018 10.36693115 43.04718018 10.36693115 44.56982422 10.31884766 C47.17854517 10.22752917 47.17854517 10.22752917 49 8 C51.6015625 7.5859375 51.6015625 7.5859375 54.625 7.375 C56.12933594 7.26285156 56.12933594 7.26285156 57.6640625 7.1484375 C58.82035156 7.07496094 58.82035156 7.07496094 60 7 C59.67 8.98 59.34 10.96 59 13 C56.25294422 13.91568526 53.86046005 14.01755019 51 13.9375 C47.82056787 13.89605489 45.66098896 14.08408795 43 16 C42.67 16.66 42.34 17.32 42 18 C46.95 17.67 51.9 17.34 57 17 C57 17.99 57 18.98 57 20 C54.08493545 21.94337637 53.17028308 22.27674667 49.875 22.5625 C46.22536034 22.56686899 46.22536034 22.56686899 45 24 C42.5625 24.1875 42.5625 24.1875 40 24 C39.34 23.34 38.68 22.68 38 22 C37.67 22.66 37.34 23.32 37 24 C30.35600766 25.05715085 23.77832454 25.1533169 17.0625 25.125 C15.64614258 25.13080078 15.64614258 25.13080078 14.20117188 25.13671875 C13.30076172 25.13542969 12.40035156 25.13414062 11.47265625 25.1328125 C10.66062744 25.13168457 9.84859863 25.13055664 9.01196289 25.12939453 C7 25 7 25 5 24 C5 22.68 5 21.36 5 20 C2.69 19.67 0.38 19.34 -2 19 C-0.9375 17.5 -0.9375 17.5 1 16 C4.6875 15.8125 4.6875 15.8125 8 16 C8 15.01 8 14.02 8 13 C7.01 13 6.02 13 5 13 C4.67 13.66 4.34 14.32 4 15 C4 14.01 4 13.02 4 12 C3.21625 11.855625 2.4325 11.71125 1.625 11.5625 C-1 11 -1 11 -3 10 C-3.33 10.99 -3.66 11.98 -4 13 C-5.98 12.34 -7.96 11.68 -10 11 C-10 10.34 -10 9.68 -10 9 C-11.65 9 -13.3 9 -15 9 C-15 6 -15 6 -13 3 C-12.67 3.99 -12.34 4.98 -12 6 C-10.02 5.67 -8.04 5.34 -6 5 C-5.67 5.66 -5.34 6.32 -5 7 C-3.68 7 -2.36 7 -1 7 C-0.67 6.34 -0.34 5.68 0 5 C-1.32 5 -2.64 5 -4 5 C-4 4.01 -4 3.02 -4 2 C-2.68 2.33 -1.36 2.66 0 3 C0 2.01 0 1.02 0 0 Z " fill="#E9E7E4" transform="translate(333,287)"/>
<path d="M0 0 C0.99 0.33 1.98 0.66 3 1 C2.21625 1.70125 1.4325 2.4025 0.625 3.125 C-4.54098393 8.7829824 -4.38698621 15.15484597 -4.61889648 22.45344543 C-4.656566 23.46818461 -4.69423552 24.48292379 -4.73304653 25.52841264 C-5.10008404 36.26718973 -5.12623856 47.00115734 -5.09765625 57.74487305 C-5.09572911 59.91783107 -5.0942691 62.09078954 -5.0932312 64.26374817 C-5.09009679 68.91163162 -5.0838653 73.55949634 -5.07516479 78.20737267 C-5.06134457 85.68657141 -5.05568158 93.16576447 -5.05102539 100.64497375 C-5.04370406 111.25900715 -5.03363613 121.87303306 -5.02050781 132.48706055 C-5.01968 133.1574908 -5.01885219 133.82792106 -5.01799929 134.51866738 C-5.00886611 141.87814766 -4.99928679 149.23762733 -4.98962402 156.59710693 C-4.96592491 174.79780804 -4.94756341 192.99850474 -4.9375 211.19921875 C-4.9367107 212.47918149 -4.9359214 213.75914424 -4.93510818 215.07789373 C-4.90346866 270.38943067 -5.3566317 325.69251634 -6 381 C-6.33 381 -6.66 381 -7 381 C-7.09153673 334.00038158 -7.16202918 287.0007726 -7.20426132 240.00108263 C-7.2092642 234.45352109 -7.21444148 228.90595972 -7.21972656 223.35839844 C-7.2207758 222.25396946 -7.22182505 221.14954047 -7.22290608 220.01164395 C-7.24031576 202.12414248 -7.27185656 184.23669239 -7.30861118 166.34922141 C-7.34600492 147.9977846 -7.36823254 129.64637471 -7.37635398 111.29490137 C-7.38184499 99.96921049 -7.39919378 88.64366481 -7.43166587 77.31801862 C-7.45279439 69.55372567 -7.4592038 61.78950789 -7.45400551 54.02518827 C-7.45144115 49.54420794 -7.45539808 45.06348152 -7.4768219 40.58254623 C-7.4962982 36.47898826 -7.49726313 32.37585476 -7.48359558 28.27227718 C-7.48190657 26.78895979 -7.4869718 25.30561584 -7.49953273 23.82235068 C-7.62714864 7.82032306 -7.62714864 7.82032306 -1.36516023 1.29690886 C-0.68940591 0.65493897 -0.68940591 0.65493897 0 0 Z " fill="#B6B4AE" transform="translate(280,159)"/>
<path d="M0 0 C0.495 1.485 0.495 1.485 1 3 C1.495 2.67 1.99 2.34 2.5 2 C6.09090894 0.56363642 9.14456127 0.87148538 13 1 C13.495 2.485 13.495 2.485 14 4 C9.545 4.495 9.545 4.495 5 5 C7.97 5.33 10.94 5.66 14 6 C13.67 7.98 13.34 9.96 13 12 C8.05 12 3.1 12 -2 12 C-2 12.66 -2 13.32 -2 14 C3.28 14 8.56 14 14 14 C13.67 15.65 13.34 17.3 13 19 C11.58460938 19.05607422 11.58460938 19.05607422 10.140625 19.11328125 C1.75418336 19.54270748 -5.90231011 20.60235998 -14 23 C-14 23.66 -14 24.32 -14 25 C-14.61875 25.103125 -15.2375 25.20625 -15.875 25.3125 C-18.36526484 25.87525373 -18.36526484 25.87525373 -20 29 C-19.01 29.66 -18.02 30.32 -17 31 C-18.32 31 -19.64 31 -21 31 C-21 37.6 -21 44.2 -21 51 C-27.75 53.25 -27.75 53.25 -32 53 C-31.67 52.34 -31.34 51.68 -31 51 C-28.35139573 50.40644386 -25.70802678 50.25790731 -23 50 C-23.01047363 49.35450195 -23.02094727 48.70900391 -23.03173828 48.04394531 C-23.07337272 45.11266998 -23.09934975 42.18145696 -23.125 39.25 C-23.14175781 38.23421875 -23.15851563 37.2184375 -23.17578125 36.171875 C-23.18222656 35.1921875 -23.18867188 34.2125 -23.1953125 33.203125 C-23.20578613 32.30239258 -23.21625977 31.40166016 -23.22705078 30.47363281 C-22.98075898 27.79037635 -22.46481875 26.25030127 -21 24 C-15.76063448 20.25759606 -11.37683303 19.28919878 -5 19 C-5.020625 17.700625 -5.04125 16.40125 -5.0625 15.0625 C-5.07004972 10.30617675 -4.59887117 5.71611047 -4 1 C-2.68 0.67 -1.36 0.34 0 0 Z " fill="#DEDDDA" transform="translate(317,105)"/>
<path d="M0 0 C0.66 0 1.32 0 2 0 C2 2.64 2 5.28 2 8 C2.99 8 3.98 8 5 8 C5 7.34 5 6.68 5 6 C5.99 6 6.98 6 8 6 C8 6.66 8 7.32 8 8 C12.62 7.67 17.24 7.34 22 7 C22.495 8.98 22.495 8.98 23 11 C23.99 11.33 24.98 11.66 26 12 C21.49646738 13.75747614 17.82360189 14.19294408 13 14 C12.67 14.99 12.34 15.98 12 17 C14.64 17 17.28 17 20 17 C20.33 16.34 20.66 15.68 21 15 C25.35771181 13.34217485 28.66544125 14.77187502 33 16 C33 16.33 33 16.66 33 17 C29.04 17.495 29.04 17.495 25 18 C25.66 18.66 26.32 19.32 27 20 C22.56288099 22.32625657 18.96213185 21.92001047 14.1875 21.125 C13.49462891 21.02058594 12.80175781 20.91617187 12.08789062 20.80859375 C10.39007386 20.55099396 8.69473891 20.27712712 7 20 C7 21.32 7 22.64 7 24 C6.34 24 5.68 24 5 24 C5 22.68 5 21.36 5 20 C2.69 19.67 0.38 19.34 -2 19 C-0.9375 17.5 -0.9375 17.5 1 16 C4.6875 15.8125 4.6875 15.8125 8 16 C8 15.01 8 14.02 8 13 C7.01 13 6.02 13 5 13 C4.67 13.66 4.34 14.32 4 15 C4 14.01 4 13.02 4 12 C3.21625 11.855625 2.4325 11.71125 1.625 11.5625 C-1 11 -1 11 -3 10 C-3.33 10.99 -3.66 11.98 -4 13 C-5.98 12.34 -7.96 11.68 -10 11 C-10 10.34 -10 9.68 -10 9 C-11.65 9 -13.3 9 -15 9 C-15 6 -15 6 -13 3 C-12.67 3.99 -12.34 4.98 -12 6 C-10.02 5.67 -8.04 5.34 -6 5 C-5.67 5.66 -5.34 6.32 -5 7 C-3.68 7 -2.36 7 -1 7 C-0.67 6.34 -0.34 5.68 0 5 C-1.32 5 -2.64 5 -4 5 C-4 4.01 -4 3.02 -4 2 C-2.68 2.33 -1.36 2.66 0 3 C0 2.01 0 1.02 0 0 Z " fill="#E0DCD8" transform="translate(333,287)"/>
<path d="M0 0 C1.65 0.33 3.3 0.66 5 1 C5 20.8 5 40.6 5 61 C3.35 61 1.7 61 0 61 C-1.62726913 57.42386706 -2.25057665 54.67222076 -2.1875 50.75 C-2.17783203 49.44289063 -2.17783203 49.44289063 -2.16796875 48.109375 C-2.03548309 45.65684967 -1.80668886 43.28674883 -1.50927734 40.8527832 C-0.99712521 36.31313694 -0.78655321 31.81114669 -0.68359375 27.24609375 C-0.66281265 26.45977066 -0.64203156 25.67344757 -0.62062073 24.86329651 C-0.55601412 22.38810693 -0.49666054 19.9128251 -0.4375 17.4375 C-0.39422989 15.74413165 -0.35061313 14.05077213 -0.30664062 12.35742188 C-0.20042609 8.23837218 -0.09891753 4.11923113 0 0 Z " fill="#90A6B2" transform="translate(305,261)"/>
<path d="M0 0 C0.66 0 1.32 0 2 0 C2.33 1.65 2.66 3.3 3 5 C3.598125 4.484375 4.19625 3.96875 4.8125 3.4375 C5.534375 2.963125 6.25625 2.48875 7 2 C7.99 2.33 8.98 2.66 10 3 C7.03 5.475 7.03 5.475 4 8 C6.31232422 10.56249975 6.31232422 10.56249975 9 13 C9.99 13 10.98 13 12 13 C12.2475 11.741875 12.495 10.48375 12.75 9.1875 C13.45497692 6.40210169 13.84944952 5.16612467 15.8125 3 C18.5765142 1.73645065 19.99480597 1.41362068 23 2 C25.82869762 4.01151831 27.66763776 5.52729146 28.453125 9.0078125 C28.62074613 12.25247869 28.4192679 14.44656637 26.4375 17.0625 C22.12989406 18.71927151 18.24234813 17.41411604 14 16 C11.3430809 16.87914688 11.3430809 16.87914688 9 18 C9 17.34 9 16.68 9 16 C8.01 15.67 7.02 15.34 6 15 C4.3125 13.4375 4.3125 13.4375 3 12 C2.67 12.99 2.34 13.98 2 15 C1.34 15 0.68 15 0 15 C0 10.05 0 5.1 0 0 Z " fill="#DCD8D4" transform="translate(306,230)"/>
<path d="M0 0 C0.99 0.33 1.98 0.66 3 1 C2.21625 1.70125 1.4325 2.4025 0.625 3.125 C-8.48392297 13.10143944 -5.05883321 34.34905914 -5.00976562 47.01123047 C-4.9836249 61.19867701 -5.09291794 75.38352 -5.21875 89.5703125 C-5.24126691 92.20116088 -5.26368521 94.8320101 -5.28601074 97.46286011 C-5.33824914 103.59958923 -5.39159733 109.73630813 -5.4453826 115.87302387 C-5.50673424 122.87953186 -5.56679028 129.88605078 -5.62675762 136.89257073 C-5.74976821 151.26172607 -5.8743404 165.63086759 -6 180 C-6.33 180 -6.66 180 -7 180 C-7.09348788 158.10334407 -7.16400108 136.2067211 -7.20724869 114.30990601 C-7.22786405 104.14257125 -7.25596508 93.97536058 -7.30175781 83.80810547 C-7.34165693 74.94516192 -7.36744027 66.08230825 -7.37635398 57.21927738 C-7.38156351 52.52738886 -7.39378646 47.83575745 -7.42292023 43.14395142 C-7.45013791 38.72477396 -7.45843218 34.30595872 -7.45243073 29.8867054 C-7.45352813 28.26781303 -7.46144422 26.64890813 -7.4768219 25.03008842 C-7.63233306 7.80977265 -7.63233306 7.80977265 -1.36505508 1.3024292 C-0.91458691 0.87262756 -0.46411873 0.44282593 0 0 Z " fill="#CFCDCC" transform="translate(280,159)"/>
<path d="M0 0 C0 0.66 0 1.32 0 2 C-6.97666866 4.09719499 -13.82748839 5.54040084 -21.0546875 6.47265625 C-23.95400707 6.87789321 -23.95400707 6.87789321 -26.3125 7.98828125 C-30.17761633 9.44331777 -34.03157697 9.73382925 -38.125 10.125 C-39.38836182 10.25128784 -39.38836182 10.25128784 -40.67724609 10.38012695 C-53.00244706 11.54871229 -53.00244706 11.54871229 -59 11 C-59.33 10.67 -59.66 10.34 -60 10 C-62.3306218 9.64820803 -64.66435067 9.31669821 -67 9 C-67.721875 8.79375 -68.44375 8.5875 -69.1875 8.375 C-71.39750957 7.91775664 -72.87346879 8.31647211 -75 9 C-75.99 7.68 -76.98 6.36 -78 5 C-77.38549484 5.00222061 -76.77098969 5.00444122 -76.13786316 5.00672913 C-69.69681382 5.02898718 -63.25577555 5.04399157 -56.81469727 5.05493164 C-54.41625524 5.05993613 -52.01781624 5.06674175 -49.61938477 5.07543945 C-46.15640516 5.08767613 -42.69346616 5.09326731 -39.23046875 5.09765625 C-38.17168015 5.10281754 -37.11289154 5.10797882 -36.02201843 5.11329651 C-23.60544041 5.51315404 -23.60544041 5.51315404 -12 2 C-10.49192748 1.57658969 -8.96945469 1.20160963 -7.4375 0.875 C-6.67308594 0.70742188 -5.90867187 0.53984375 -5.12109375 0.3671875 C-3 0 -3 0 0 0 Z " fill="#E4E4E2" transform="translate(397,586)"/>
<path d="M0 0 C1.07765625 0.01804687 2.1553125 0.03609375 3.265625 0.0546875 C4.49539063 0.08949219 4.49539063 0.08949219 5.75 0.125 C5.75 0.785 5.75 1.445 5.75 2.125 C4.64591797 2.30675781 4.64591797 2.30675781 3.51953125 2.4921875 C2.54371094 2.65976562 1.56789063 2.82734375 0.5625 3 C-0.40042969 3.16242187 -1.36335938 3.32484375 -2.35546875 3.4921875 C-5.16967575 4.10743923 -7.58720391 5.04629154 -10.25 6.125 C-21.51252604 8.74813052 -33.34323345 8.22677831 -44.8125 7.8125 C-46.11896484 7.77705078 -47.42542969 7.74160156 -48.77148438 7.70507812 C-57.0625084 7.42829755 -65.08499256 6.59166924 -73.25 5.125 C-73.25 4.795 -73.25 4.465 -73.25 4.125 C-72.68196152 4.12944122 -72.11392303 4.13388245 -71.52867126 4.13845825 C-65.54119418 4.18318912 -59.55376561 4.21306957 -53.56616211 4.23486328 C-51.34055651 4.2448342 -49.11496372 4.25841579 -46.8894043 4.27587891 C-31.09153698 4.39660884 -14.94135855 -0.32481214 0 0 Z " fill="#C3CED6" transform="translate(395.25,551.875)"/>
<path d="M0 0 C0.33 0 0.66 0 1 0 C1.33 48.18 1.66 96.36 2 146 C1.67 146 1.34 146 1 146 C0.67 143.36 0.34 140.72 0 138 C-1.98 138.99 -1.98 138.99 -4 140 C-4 140.66 -4 141.32 -4 142 C-9.2734375 145.22265625 -9.2734375 145.22265625 -11 146 C-11.66 145.67 -12.32 145.34 -13 145 C-11.33333333 143.66666667 -9.66666667 142.33333333 -8 141 C-7.154375 140.278125 -6.30875 139.55625 -5.4375 138.8125 C-3.09677462 137.07196061 -1.77333756 136.580466 1 136 C0.83734146 134.77652359 0.67468292 133.55304718 0.50709534 132.29249573 C-0.15410426 126.30004383 -0.13227016 120.34289036 -0.11352539 114.32006836 C-0.11374443 112.46004181 -0.11374443 112.46004181 -0.1139679 110.56243896 C-0.11339383 107.18908808 -0.10840573 103.81579967 -0.10139394 100.44245982 C-0.09510932 96.90708144 -0.09455258 93.37170208 -0.09336853 89.83631897 C-0.0902702 83.15361775 -0.08207715 76.47093304 -0.07201904 69.78823906 C-0.0608112 62.17511825 -0.05533572 54.56199661 -0.05032361 46.94886959 C-0.03989317 31.29923685 -0.02232295 15.64962056 0 0 Z " fill="#EDEBEB" transform="translate(422,403)"/>
<path d="M0 0 C-0.50603992 2.16874252 -0.99983813 3.99967627 -2 6 C-1.34 6 -0.68 6 0 6 C0 7.32 0 8.64 0 10 C-6.03933757 11.71183038 -12.32426477 11.92941173 -18 9 C-18 6.69 -18 4.38 -18 2 C-16.66961551 1.6550855 -15.33542939 1.32483418 -14 1 C-13.278125 0.814375 -12.55625 0.62875 -11.8125 0.4375 C-7.87005491 -0.17576924 -3.98140326 -0.07806673 0 0 Z " fill="#F0F1F0" transform="translate(357,106)"/>
<path d="M0 0 C0.33 0.99 0.66 1.98 1 3 C1.495 2.67 1.99 2.34 2.5 2 C6.09090894 0.56363642 9.14456127 0.87148538 13 1 C13.33 1.99 13.66 2.98 14 4 C9.545 4.495 9.545 4.495 5 5 C7.97 5.33 10.94 5.66 14 6 C13.67 7.98 13.34 9.96 13 12 C4.585 12.495 4.585 12.495 -4 13 C-5.03159626 9.90521121 -4.97482862 8.47368607 -4.5625 5.3125 C-4.46066406 4.50425781 -4.35882813 3.69601563 -4.25390625 2.86328125 C-4.17011719 2.24839844 -4.08632813 1.63351563 -4 1 C-2.68 0.67 -1.36 0.34 0 0 Z " fill="#E2E2E1" transform="translate(317,105)"/>
<path d="M0 0 C0.33 0 0.66 0 1 0 C1.33 35.31 1.66 70.62 2 107 C3.32 107.66 4.64 108.32 6 109 C7.33333333 109.66666667 8.66666667 110.33333333 10 111 C10 111.66 10 112.32 10 113 C11.485 112.505 11.485 112.505 13 112 C15.04296875 112.99609375 15.04296875 112.99609375 17.1875 114.4375 C17.90292969 114.91058594 18.61835938 115.38367188 19.35546875 115.87109375 C19.89816406 116.24363281 20.44085938 116.61617187 21 117 C17.16545846 118.27818051 16.2032874 117.45581372 12.625 115.75 C11.22121094 115.09257813 11.22121094 115.09257813 9.7890625 114.421875 C1.70831964 110.3022806 1.70831964 110.3022806 -1 106 C-1.35352612 103.8523674 -1.35352612 103.8523674 -1.32279968 101.49481201 C-1.31850952 100.59741302 -1.31421936 99.70001404 -1.30979919 98.77542114 C-1.28966263 97.79862396 -1.26952606 96.82182678 -1.2487793 95.81542969 C-1.23946381 94.7809671 -1.23014832 93.74650452 -1.22055054 92.68069458 C-1.1861703 89.26075555 -1.13027644 85.84152176 -1.07421875 82.421875 C-1.04618715 80.05106102 -1.01949658 77.68023083 -0.99409485 75.30938721 C-0.92361979 69.0686213 -0.83490377 62.82824212 -0.74243164 56.58776855 C-0.6512885 50.22010386 -0.57733678 43.85224231 -0.50195312 37.484375 C-0.35149345 24.98932997 -0.18176933 12.49462602 0 0 Z " fill="#9B9892" transform="translate(274,434)"/>
<path d="M0 0 C4.98770821 0.42268714 9.28723333 1.2327125 14 3 C14 2.34 14 1.68 14 1 C15.98 0.67 17.96 0.34 20 0 C20 0.66 20 1.32 20 2 C20.66 2 21.32 2 22 2 C22 3.65 22 5.3 22 7 C14.31395526 7.97159933 6.74136601 8.10920422 -1 8 C-1.04241723 5.66705225 -1.04092937 3.33297433 -1 1 C-0.67 0.67 -0.34 0.34 0 0 Z " fill="#C9C8C4" transform="translate(348,276)"/>
<path d="M0 0 C0.99 0.33 1.98 0.66 3 1 C3.33 1.99 3.66 2.98 4 4 C5.98 4 7.96 4 10 4 C9.67 5.65 9.34 7.3 9 9 C5.72918529 9.02902429 2.4584037 9.04680684 -0.8125 9.0625 C-1.74126953 9.07087891 -2.67003906 9.07925781 -3.62695312 9.08789062 C-4.51962891 9.09111328 -5.41230469 9.09433594 -6.33203125 9.09765625 C-7.15421143 9.10289307 -7.9763916 9.10812988 -8.82348633 9.11352539 C-11 9 -11 9 -14 8 C-14 7.34 -14 6.68 -14 6 C-15.32 6.33 -16.64 6.66 -18 7 C-17.67 5.35 -17.34 3.7 -17 2 C-16.01 1.67 -15.02 1.34 -14 1 C-14 1.66 -14 2.32 -14 3 C-12.68 3 -11.36 3 -10 3 C-9.67 3.66 -9.34 4.32 -9 5 C-9 4.34 -9 3.68 -9 3 C-8.43410156 2.86722656 -7.86820312 2.73445313 -7.28515625 2.59765625 C-6.18494141 2.33275391 -6.18494141 2.33275391 -5.0625 2.0625 C-4.33160156 1.88847656 -3.60070312 1.71445312 -2.84765625 1.53515625 C-1.00030102 1.16112431 -1.00030102 1.16112431 0 0 Z " fill="#BCB9B4" transform="translate(333,263)"/>
<path d="M0 0 C1.10859375 0.08378906 2.2171875 0.16757812 3.359375 0.25390625 C4.82289328 0.35710305 6.28643631 0.45994926 7.75 0.5625 C8.84441406 0.64661133 8.84441406 0.64661133 9.9609375 0.73242188 C13.56748053 0.97832254 16.53062091 0.93584277 20 0 C21.58211573 -0.06548492 23.16670081 -0.08578381 24.75 -0.0625 C25.54921875 -0.05347656 26.3484375 -0.04445313 27.171875 -0.03515625 C27.77515625 -0.02355469 28.3784375 -0.01195312 29 0 C29.33 1.32 29.66 2.64 30 4 C23.26815587 4.87686585 16.7214632 5.12387197 9.9375 5.0625 C8.97650391 5.05798828 8.01550781 5.05347656 7.02539062 5.04882812 C4.68352578 5.03717706 2.34179819 5.02082025 0 5 C0 3.35 0 1.7 0 0 Z " fill="#C0BCB8" transform="translate(340,307)"/>
<path d="M0 0 C0.99 0.33 1.98 0.66 3 1 C3 1.66 3 2.32 3 3 C3.70125 3.268125 4.4025 3.53625 5.125 3.8125 C8.1649824 5.0681449 11.0727774 6.50235123 14 8 C14 8.66 14 9.32 14 10 C13.01 10.33 12.02 10.66 11 11 C10.26676204 13.01508358 10.26676204 13.01508358 10 15 C12.97 15.495 12.97 15.495 16 16 C16.33 16.99 16.66 17.98 17 19 C11.05660702 18.25707588 5.97347866 15.72679383 1.5 11.8125 C-0.60835951 7.85932592 -0.34423104 4.38894582 0 0 Z " fill="#597687" transform="translate(273,541)"/>
<path d="M0 0 C0 2.62113708 -0.31292445 4.50935112 -1 7 C-4.10256512 7.8393758 -7.20729444 8.6704505 -10.3125 9.5 C-11.19357422 9.73847656 -12.07464844 9.97695313 -12.98242188 10.22265625 C-13.82998047 10.44824219 -14.67753906 10.67382812 -15.55078125 10.90625 C-16.33106689 11.11572266 -17.11135254 11.32519531 -17.9152832 11.54101562 C-20 12 -20 12 -23 12 C-22.67 10.35 -22.34 8.7 -22 7 C-20.95199219 6.83564453 -20.95199219 6.83564453 -19.8828125 6.66796875 C-18.51769531 6.43013672 -18.51769531 6.43013672 -17.125 6.1875 C-15.76761719 5.96126953 -15.76761719 5.96126953 -14.3828125 5.73046875 C-11.65587522 5.16948699 -11.65587522 5.16948699 -10 2 C-6.55837447 0.23267878 -3.8461125 -0.21977786 0 0 Z " fill="#D1CFCD" transform="translate(415,296)"/>
<path d="M0 0 C0.88365234 0.00902344 1.76730469 0.01804687 2.67773438 0.02734375 C4.84777359 0.05080363 7.01767247 0.08667135 9.1875 0.125 C9.1875 0.785 9.1875 1.445 9.1875 2.125 C5.62815993 4.49789338 2.81524759 4.56130297 -1.3125 4.75 C-1.98925781 4.78867187 -2.66601562 4.82734375 -3.36328125 4.8671875 C-6.18339349 5.02293334 -8.98778228 5.125 -11.8125 5.125 C-12.369375 5.29 -12.92625 5.455 -13.5 5.625 C-16.95310809 6.37161797 -20.28316706 6.18382222 -23.8125 6.125 C-23.4825 4.805 -23.1525 3.485 -22.8125 2.125 C-19.93164062 2.22265625 -19.93164062 2.22265625 -17.05078125 2.3203125 C-14.75756774 2.24811007 -14.75756774 2.24811007 -12.65625 1.125 C-8.452584 -0.35321222 -4.4184393 -0.08566698 0 0 Z " fill="#BFBDB9" transform="translate(368.8125,297.875)"/>
<path d="M0 0 C0.99 0 1.98 0 3 0 C3 1.32 3 2.64 3 4 C3.66 4 4.32 4 5 4 C5 3.34 5 2.68 5 2 C6.32 2.33 7.64 2.66 9 3 C9.33 2.01 9.66 1.02 10 0 C13.46941546 0.45822468 16.67395049 0.89131683 20 2 C20.99 2 21.98 2 23 2 C23 3.65 23 5.3 23 7 C20.06281233 7.19461488 17.12550068 7.38097593 14.1875 7.5625 C13.35412109 7.61857422 12.52074219 7.67464844 11.66210938 7.73242188 C10.85966797 7.78076172 10.05722656 7.82910156 9.23046875 7.87890625 C8.49207764 7.9260376 7.75368652 7.97316895 6.99291992 8.02172852 C5 8 5 8 2 7 C2 6.34 2 5.68 2 5 C1.01 5 0.02 5 -1 5 C-1.33 5.66 -1.66 6.32 -2 7 C-2 5.02 -2 3.04 -2 1 C-1.67 1.66 -1.34 2.32 -1 3 C-0.01 3 0.98 3 2 3 C2 2.34 2 1.68 2 1 C1.34 0.67 0.68 0.34 0 0 Z " fill="#AAA8A4" transform="translate(350,265)"/>
<path d="M0 0 C2.03125 0.3046875 2.03125 0.3046875 4.5 0.875 C5.72203125 1.14957031 5.72203125 1.14957031 6.96875 1.4296875 C9 2 9 2 10 3 C10.09525367 5.92194665 10.12552736 8.82020329 10.11352539 11.74243164 C10.11367142 12.6594133 10.11381744 13.57639496 10.1139679 14.52116394 C10.1132684 17.56751836 10.10547428 20.61381245 10.09765625 23.66015625 C10.0957922 25.76622993 10.09436824 27.87230403 10.09336853 29.9783783 C10.08954231 35.53342883 10.07971114 41.08845341 10.06866455 46.64349365 C10.05845267 52.3072474 10.05387139 57.97100533 10.04882812 63.63476562 C10.03808896 74.75652185 10.0210113 85.87825877 10 97 C9.67 97 9.34 97 9 97 C8.67 66.31 8.34 35.62 8 4 C6.35 4 4.7 4 3 4 C3 3.34 3 2.68 3 2 C1.68 1.67 0.36 1.34 -1 1 C-0.67 0.67 -0.34 0.34 0 0 Z " fill="#99ACBA" transform="translate(309,459)"/>
<path d="M0 0 C2.0625 0.4375 2.0625 0.4375 4 1 C3.01 1 2.02 1 1 1 C1 2.32 1 3.64 1 5 C2.65 5 4.3 5 6 5 C6 4.34 6 3.68 6 3 C10.455 2.505 10.455 2.505 15 2 C15.33 2.66 15.66 3.32 16 4 C15.67 4.99 15.34 5.98 15 7 C15.66 7 16.32 7 17 7 C17 6.01 17 5.02 17 4 C20.32561865 2.23937836 21.59173995 1.89215772 25.3125 2.875 C26.199375 3.24625 27.08625 3.6175 28 4 C27.01 4.33 26.02 4.66 25 5 C25 5.99 25 6.98 25 8 C20.74433453 9.16063604 17.3164922 8.76173392 13 8 C13 7.01 13 6.02 13 5 C12.34 5 11.68 5 11 5 C11 5.99 11 6.98 11 8 C7.37 7.67 3.74 7.34 0 7 C-0.38133299 5.0085944 -0.71325582 3.00720923 -1 1 C-0.67 0.67 -0.34 0.34 0 0 Z " fill="#9A9791" transform="translate(316,275)"/>
<path d="M0 0 C1.97986082 0.11347619 3.95891598 0.2410935 5.9375 0.375 C7.03964844 0.44460938 8.14179688 0.51421875 9.27734375 0.5859375 C10.62505859 0.79089844 10.62505859 0.79089844 12 1 C12.33 1.66 12.66 2.32 13 3 C15.31 3 17.62 3 20 3 C19.6875 4.9375 19.6875 4.9375 19 7 C15.85069107 8.04976964 13.61185544 8.10131595 10.3125 8.0625 C9.31863281 8.05347656 8.32476562 8.04445313 7.30078125 8.03515625 C6.16189453 8.01775391 6.16189453 8.01775391 5 8 C5 7.34 5 6.68 5 6 C3.35 6.33 1.7 6.66 0 7 C0 4.69 0 2.38 0 0 Z " fill="#C9C5C2" transform="translate(336,287)"/>
<path d="M0 0 C-3.65850625 2.43900416 -6.74304486 2.58708518 -11 3 C-13.18245553 3.23808606 -15.36473295 3.47780774 -17.546875 3.71875 C-21.17810729 4.11336251 -24.80947958 4.50635708 -28.44140625 4.89453125 C-29.61058594 5.02214844 -30.77976562 5.14976562 -31.984375 5.28125 C-33.04366211 5.39533203 -34.10294922 5.50941406 -35.19433594 5.62695312 C-37.54235476 5.93915055 -39.71299947 6.41142218 -42 7 C-43.770302 7.04337647 -45.54211996 7.04006518 -47.3125 7 C-51.67656172 6.95320041 -55.70831273 7.23703337 -60 8 C-60.66 7.01 -61.32 6.02 -62 5 C-50.78 4.67 -39.56 4.34 -28 4 C-28 3.34 -28 2.68 -28 2 C-27.01257813 1.93941406 -26.02515625 1.87882813 -25.0078125 1.81640625 C-23.72648437 1.73261719 -22.44515625 1.64882813 -21.125 1.5625 C-19.84882813 1.48128906 -18.57265625 1.40007813 -17.2578125 1.31640625 C-14.11699848 1.20793973 -14.11699848 1.20793973 -12 0 C-10.52755177 -0.25146175 -9.04649504 -0.45442586 -7.5625 -0.625 C-6.78003906 -0.72039063 -5.99757813 -0.81578125 -5.19140625 -0.9140625 C-3 -1 -3 -1 0 0 Z " fill="#CBD6DB" transform="translate(402,564)"/>
<path d="M0 0 C1.32 0.99 2.64 1.98 4 3 C4.33 2.01 4.66 1.02 5 0 C5.94875 0.165 6.8975 0.33 7.875 0.5 C10.80168901 1.0526635 10.80168901 1.0526635 13 1 C14.66666667 1 16.33333333 1 18 1 C18 1.99 18 2.98 18 4 C16.68 3.67 15.36 3.34 14 3 C14 3.99 14 4.98 14 6 C15.32 6 16.64 6 18 6 C17.67 6.99 17.34 7.98 17 9 C16.21625 8.835 15.4325 8.67 14.625 8.5 C12.11791961 7.9376293 12.11791961 7.9376293 10 8 C8.45721239 7.84405035 6.91562095 7.67607097 5.375 7.5 C4.55773437 7.4071875 3.74046875 7.314375 2.8984375 7.21875 C2.27195312 7.1465625 1.64546875 7.074375 1 7 C0.67 4.69 0.34 2.38 0 0 Z " fill="#B2AEA8" transform="translate(315,286)"/>
<path d="M0 0 C2.97 0 5.94 0 9 0 C9 1.98 9 3.96 9 6 C7.68 6.33 6.36 6.66 5 7 C5.825 7.78375 6.65 8.5675 7.5 9.375 C10 12 10 12 10 14 C7.50638429 12.79618552 5.31856917 11.54571278 3 10 C2.67 11.65 2.34 13.3 2 15 C1.34 15 0.68 15 0 15 C0 10.05 0 5.1 0 0 Z " fill="#AFAFAD" transform="translate(386,232)"/>
<path d="M0 0 C0 0.99 0 1.98 0 3 C-9.40551762 4.1302932 -18.73387522 4.11666086 -28.1875 4.0625 C-29.72721208 4.05747197 -31.26692575 4.05291138 -32.80664062 4.04882812 C-36.53779428 4.03793264 -40.26888654 4.02074082 -44 4 C-44 3.34 -44 2.68 -44 2 C-42.88310791 1.96241577 -42.88310791 1.96241577 -41.74365234 1.92407227 C-23.55952705 1.34337511 -23.55952705 1.34337511 -5.40625 0.18359375 C-3 0 -3 0 0 0 Z " fill="#BEBCBA" transform="translate(381,588)"/>
<path d="M0 0 C0.99 0.33 1.98 0.66 3 1 C2.34 1 1.68 1 1 1 C1.33 20.8 1.66 40.6 2 61 C1.34 61 0.68 61 0 61 C-1.62726913 57.42386706 -2.25057665 54.67222076 -2.1875 50.75 C-2.17783203 49.44289063 -2.17783203 49.44289063 -2.16796875 48.109375 C-2.03548309 45.65684967 -1.80668886 43.28674883 -1.50927734 40.8527832 C-0.99712521 36.31313694 -0.78655321 31.81114669 -0.68359375 27.24609375 C-0.66281265 26.45977066 -0.64203156 25.67344757 -0.62062073 24.86329651 C-0.55601412 22.38810693 -0.49666054 19.9128251 -0.4375 17.4375 C-0.39422989 15.74413165 -0.35061313 14.05077213 -0.30664062 12.35742188 C-0.20042609 8.23837218 -0.09891753 4.11923113 0 0 Z " fill="#C0C6C7" transform="translate(305,261)"/>
<path d="M0 0 C0.66 0 1.32 0 2 0 C2 1.98 2 3.96 2 6 C6.29 6 10.58 6 15 6 C10.78370866 8.10814567 8.60209225 8.17700355 4 8 C4.33 8.66 4.66 9.32 5 10 C7.32156597 10.40729228 9.6568787 10.74438677 12 11 C11.67 11.66 11.34 12.32 11 13 C8.36 13 5.72 13 3 13 C3 12.01 3 11.02 3 10 C-0.96 9.67 -4.92 9.34 -9 9 C-9 8.34 -9 7.68 -9 7 C-7.35 7 -5.7 7 -4 7 C-3.67 5.68 -3.34 4.36 -3 3 C-3 3.99 -3 4.98 -3 6 C-2.34 5.67 -1.68 5.34 -1 5 C-0.34444881 2.47266765 -0.34444881 2.47266765 0 0 Z " fill="#E4E0DD" transform="translate(345,278)"/>
<path d="M0 0 C5.77759884 -0.12036664 11.27959989 0.1679418 17 1 C17.33 2.32 17.66 3.64 18 5 C15.2889923 6.35550385 13.08660831 6.16917207 10.0625 6.1875 C9.00160156 6.20167969 7.94070313 6.21585937 6.84765625 6.23046875 C4 6 4 6 1 4 C0.3125 1.875 0.3125 1.875 0 0 Z " fill="#DCDCD9" transform="translate(370,117)"/>
<path d="M0 0 C15.18 0.33 30.36 0.66 46 1 C46 1.33 46 1.66 46 2 C41.08869825 2.80449538 36.45113349 3.10781796 31.45703125 3.0625 C30.42070808 3.05682007 30.42070808 3.05682007 29.3634491 3.05102539 C27.17973235 3.03892202 24.99615506 3.02028836 22.8125 3 C19.92318062 2.97334986 17.03392751 2.95340241 14.14453125 2.9375 C12.23184448 2.92009766 12.23184448 2.92009766 10.28051758 2.90234375 C7.61944037 2.98156016 5.51473996 3.1969273 3 4 C2.01 2.68 1.02 1.36 0 0 Z " fill="#D6D5D4" transform="translate(319,591)"/>
<path d="M0 0 C2.82869762 2.01151831 4.66763776 3.52729146 5.453125 7.0078125 C5.62074613 10.25247869 5.4192679 12.44656637 3.4375 15.0625 C-0.05826706 16.40702579 -2.41014435 15.91378144 -6 15 C-7.9375 13.4375 -7.9375 13.4375 -9 12 C-8.67 11.01 -8.34 10.02 -8 9 C-7.62875 9.66 -7.2575 10.32 -6.875 11 C-5.09664711 13.33639809 -5.09664711 13.33639809 -1.875 13.3125 C0.89350443 13.31534788 0.89350443 13.31534788 2 12 C2.24733137 7.85723125 2.24733137 7.85723125 1 4 C-4.32170494 3.70437633 -4.32170494 3.70437633 -9 6 C-8.6875 4.125 -8.6875 4.125 -8 2 C-4.72942857 -0.18038095 -3.79480531 -0.63246755 0 0 Z " fill="#7D7A75" transform="translate(329,232)"/>
<path d="M0 0 C0.66 0 1.32 0 2 0 C2 2.31 2 4.62 2 7 C4.64 7 7.28 7 10 7 C10 5.02 10 3.04 10 1 C10.66 1 11.32 1 12 1 C12 5.95 12 10.9 12 16 C11.34 16 10.68 16 10 16 C10 13.69 10 11.38 10 9 C7.36 9 4.72 9 2 9 C2 11.31 2 13.62 2 16 C1.34 16 0.68 16 0 16 C0 10.72 0 5.44 0 0 Z " fill="#84827E" transform="translate(339,233)"/>
<path d="M0 0 C2.41674224 -0.02705308 4.8331794 -0.04686438 7.25 -0.0625 C7.93191406 -0.07087891 8.61382812 -0.07925781 9.31640625 -0.08789062 C12.74691295 -0.10454357 15.69590443 0.17223128 19 1 C20.34210855 1.10825106 21.68806019 1.17472864 23.03417969 1.20532227 C24.20494049 1.2352401 24.20494049 1.2352401 25.39935303 1.26576233 C26.23178528 1.28247482 27.06421753 1.29918732 27.921875 1.31640625 C29.21185394 1.3475779 29.21185394 1.3475779 30.52789307 1.37937927 C33.26851598 1.44463739 36.00923275 1.50364917 38.75 1.5625 C40.6106867 1.60570781 42.47136398 1.64932282 44.33203125 1.69335938 C48.88792523 1.80029442 53.4439134 1.90162851 58 2 C58 2.33 58 2.66 58 3 C48.07714633 3.90628024 38.39749876 4.04726245 28.4375 3.6875 C27.13103516 3.65205078 25.82457031 3.61660156 24.47851562 3.58007812 C16.1874916 3.30329755 8.16500744 2.46666924 0 1 C0 0.67 0 0.34 0 0 Z " fill="#B5C3CD" transform="translate(322,556)"/>
<path d="M0 0 C0.33 0.99 0.66 1.98 1 3 C-1.91506455 4.94337637 -2.82971692 5.27674667 -6.125 5.5625 C-9.77463966 5.56686899 -9.77463966 5.56686899 -11 7 C-13.4375 7.25 -13.4375 7.25 -16 7 C-16.66 6.01 -17.32 5.02 -18 4 C-17.67 3.34 -17.34 2.68 -17 2 C-14.12817413 1.52381188 -11.32879853 1.15832403 -8.4375 0.875 C-7.63119141 0.78863281 -6.82488281 0.70226562 -5.99414062 0.61328125 C-3.99695936 0.40056372 -1.99857263 0.19922145 0 0 Z " fill="#C3C1C0" transform="translate(389,304)"/>
<path d="M0 0 C2.97 0 5.94 0 9 0 C9 0.66 9 1.32 9 2 C6.69 2 4.38 2 2 2 C2 3.32 2 4.64 2 6 C4.31 6 6.62 6 9 6 C9 6.33 9 6.66 9 7 C6.69 7 4.38 7 2 7 C2 9.31 2 11.62 2 14 C5.465 13.505 5.465 13.505 9 13 C8.67 13.99 8.34 14.98 8 16 C5.36 16 2.72 16 0 16 C0 10.72 0 5.44 0 0 Z " fill="#7F7E7B" transform="translate(372,233)"/>
<path d="M0 0 C2.97 0.33 5.94 0.66 9 1 C9 1.66 9 2.32 9 3 C10.65 3 12.3 3 14 3 C14 4.32 14 5.64 14 7 C7.07 6.505 7.07 6.505 0 6 C0 4.02 0 2.04 0 0 Z " fill="#B2B0A9" transform="translate(314,295)"/>
<path d="M0 0 C0.66 0 1.32 0 2 0 C2.33 1.65 2.66 3.3 3 5 C3.598125 4.484375 4.19625 3.96875 4.8125 3.4375 C5.534375 2.963125 6.25625 2.48875 7 2 C7.99 2.33 8.98 2.66 10 3 C7.03 5.475 7.03 5.475 4 8 C5.2065625 9.1446875 5.2065625 9.1446875 6.4375 10.3125 C9 13 9 13 10 16 C6.73045798 15.43628586 5.17424117 14.50037734 3 12 C2.67 12.99 2.34 13.98 2 15 C1.34 15 0.68 15 0 15 C0 10.05 0 5.1 0 0 Z " fill="#7A766F" transform="translate(306,230)"/>
<path d="M0 0 C7.42332896 0.75491481 7.42332896 0.75491481 10.5 2.0625 C13.01311182 3.00491693 14.42709095 3.07280135 17.0625 3 C20.96861014 3 21.75703793 3.35689922 25 5 C27.35564596 5.44811137 27.35564596 5.44811137 29.75 5.625 C30.94882812 5.73714844 30.94882812 5.73714844 32.171875 5.8515625 C32.77515625 5.90054688 33.3784375 5.94953125 34 6 C34 6.33 34 6.66 34 7 C32.02145742 7.19397476 30.0421352 7.38001321 28.0625 7.5625 C26.40927734 7.71912109 26.40927734 7.71912109 24.72265625 7.87890625 C23.37494141 7.93884766 23.37494141 7.93884766 22 8 C21.67 7.67 21.34 7.34 21 7 C19.17118904 6.70014625 17.33654532 6.43561913 15.5 6.1875 C9.81409637 5.29652706 5.08882172 3.64721534 0 1 C0 0.67 0 0.34 0 0 Z " fill="#9DAAB1" transform="translate(287,560)"/>
<path d="M0 0 C1 3 1 3 0 6 C-3.49029418 7.47666292 -7.27436386 7.07164685 -11 7 C-11.042721 5.33388095 -11.04063832 3.66617115 -11 2 C-9.33657163 0.33657163 -7.2174291 0.63951903 -4.9375 0.4375 C-3.55884766 0.31181641 -3.55884766 0.31181641 -2.15234375 0.18359375 C-1.44207031 0.12300781 -0.73179687 0.06242187 0 0 Z " fill="#CFCDCB" transform="translate(392,294)"/>
<path d="M0 0 C0 1.32 0 2.64 0 4 C-2.90040319 4.83057001 -5.48572102 5.13532287 -8.5 5.125 C-9.2528125 5.12757812 -10.005625 5.13015625 -10.78125 5.1328125 C-12.973535 5.00158417 -14.89319137 4.60331338 -17 4 C-17 3.01 -17 2.02 -17 1 C-14.72926348 0.83201949 -12.45840707 0.66565887 -10.1875 0.5 C-8.29064453 0.36078125 -8.29064453 0.36078125 -6.35546875 0.21875 C-4.24021483 0.08085219 -2.11974408 0 0 0 Z " fill="#393939" transform="translate(357,112)"/>
<path d="M0 0 C5.61 0 11.22 0 17 0 C16.34 1.32 15.68 2.64 15 4 C13.06257659 4.02703381 11.12504521 4.04641125 9.1875 4.0625 C8.10855469 4.07410156 7.02960938 4.08570312 5.91796875 4.09765625 C3 4 3 4 0 3 C0 2.01 0 1.02 0 0 Z " fill="#494949" transform="translate(314,112)"/>
<path d="M0 0 C0.76570313 0.24556641 0.76570313 0.24556641 1.546875 0.49609375 C4.81291828 1.16698481 7.9186747 1.0933456 11.25 1.0625 C12.51328125 1.05347656 13.7765625 1.04445313 15.078125 1.03515625 C16.52445312 1.01775391 16.52445312 1.01775391 18 1 C17.67 2.32 17.34 3.64 17 5 C14.54159395 5.02691685 12.08348118 5.04679802 9.625 5.0625 C8.92632812 5.07087891 8.22765625 5.07925781 7.5078125 5.08789062 C2.2265625 5.11328125 2.2265625 5.11328125 0 4 C0 2.68 0 1.36 0 0 Z " fill="#282827" transform="translate(313,118)"/>
<path d="M0 0 C1.32 0.99 2.64 1.98 4 3 C4 3.66 4 4.32 4 5 C4.9075 5.268125 5.815 5.53625 6.75 5.8125 C9.71471963 6.89576294 11.6169754 7.98359457 14 10 C9.72213252 9.50639991 6.90432869 8.95216435 3 7 C2.34 10.3 1.68 13.6 1 17 C0.67 17 0.34 17 0 17 C0 11.39 0 5.78 0 0 Z " fill="#9EA0A0" transform="translate(273,550)"/>
<path d="M0 0 C2.9983016 0.57710672 5.86133617 1.58545194 8.75 2.5625 C9.94882812 2.96662109 9.94882812 2.96662109 11.171875 3.37890625 C11.77515625 3.58386719 12.3784375 3.78882813 13 4 C10.44931155 6.35448165 9.28982642 6.98327924 5.75 7.1875 C4.8425 7.125625 3.935 7.06375 3 7 C3 6.34 3 5.68 3 5 C2.34 5 1.68 5 1 5 C0.67 5.66 0.34 6.32 0 7 C-1 6 -1 6 -1.125 3.5 C-1 1 -1 1 0 0 Z " fill="#B1AEA8" transform="translate(315,303)"/>
<path d="M0 0 C0 0.99 0 1.98 0 3 C0.99 3.33 1.98 3.66 3 4 C0.4375 5.1875 0.4375 5.1875 -3 6 C-6.5625 4.625 -6.5625 4.625 -10 3 C-12.79340157 2.74609778 -12.79340157 2.74609778 -15 3 C-15 2.34 -15 1.68 -15 1 C-13.25215171 0.63536268 -11.50159498 0.2836922 -9.75 -0.0625 C-8.28820312 -0.35833984 -8.28820312 -0.35833984 -6.796875 -0.66015625 C-4.131881 -0.98397535 -2.51128277 -0.85503199 0 0 Z " fill="#E3E0DC" transform="translate(356,295)"/>
<path d="M0 0 C5.94 0 11.88 0 18 0 C18 0.66 18 1.32 18 2 C14.79619983 4.13586678 13.98060033 4.23132175 10.3125 4.125 C9.50425781 4.10695313 8.69601562 4.08890625 7.86328125 4.0703125 C6.94095703 4.03550781 6.94095703 4.03550781 6 4 C6 3.34 6 2.68 6 2 C4.35 2 2.7 2 1 2 C0.67 1.34 0.34 0.68 0 0 Z " fill="#C6C4C1" transform="translate(360,298)"/>
<path d="M0 0 C0.66 0 1.32 0 2 0 C2 0.66 2 1.32 2 2 C3.32 2 4.64 2 6 2 C6.33 2.66 6.66 3.32 7 4 C7 3.34 7 2.68 7 2 C7.99 2.33 8.98 2.66 10 3 C9.67 4.65 9.34 6.3 9 8 C6.69 7.67 4.38 7.34 2 7 C2 6.34 2 5.68 2 5 C0.68 5.33 -0.64 5.66 -2 6 C-1.125 1.125 -1.125 1.125 0 0 Z " fill="#A6A39D" transform="translate(317,264)"/>
<path d="M0 0 C1.32 0.33 2.64 0.66 4 1 C4 3.97 4 6.94 4 10 C2.02 10.99 2.02 10.99 0 12 C-0.99 11.67 -1.98 11.34 -3 11 C-2.690625 10.29875 -2.38125 9.5975 -2.0625 8.875 C-0.96697322 5.91063343 -0.43577008 3.12301892 0 0 Z " fill="#DCDBD7" transform="translate(353,144)"/>
<path d="M0 0 C0.66 0.33 1.32 0.66 2 1 C1.67 1.66 1.34 2.32 1 3 C0.34 3 -0.32 3 -1 3 C-1 3.66 -1 4.32 -1 5 C-3.62394306 5.83679277 -6.24904384 6.66956942 -8.875 7.5 C-9.62136719 7.73847656 -10.36773437 7.97695313 -11.13671875 8.22265625 C-16.7734375 10 -16.7734375 10 -19 10 C-18.67 8.68 -18.34 7.36 -18 6 C-17.24074219 5.87882813 -16.48148437 5.75765625 -15.69921875 5.6328125 C-14.70535156 5.46523438 -13.71148437 5.29765625 -12.6875 5.125 C-11.70136719 4.96257813 -10.71523438 4.80015625 -9.69921875 4.6328125 C-6.79940173 4.11914546 -6.79940173 4.11914546 -4 2 C-1.9375 0.8125 -1.9375 0.8125 0 0 Z " fill="#D1CFCD" transform="translate(409,578)"/>
<path d="M0 0 C5.61 0 11.22 0 17 0 C17 0.99 17 1.98 17 3 C14.28344597 4.35827701 12.09210594 4.1323445 9.0625 4.125 C8.00160156 4.12757812 6.94070313 4.13015625 5.84765625 4.1328125 C3 4 3 4 0 3 C0 2.01 0 1.02 0 0 Z " fill="#191918" transform="translate(340,120)"/>
<path d="M0 0 C0 1.65 0 3.3 0 5 C-3.63 5.66 -7.26 6.32 -11 7 C-10.67 5.35 -10.34 3.7 -10 2 C-8.7090864 1.66376204 -7.41723903 1.33110751 -6.125 1 C-5.40570313 0.814375 -4.68640625 0.62875 -3.9453125 0.4375 C-2 0 -2 0 0 0 Z " fill="#BBB9B7" transform="translate(403,301)"/>
<path d="M0 0 C1.18851562 0.10183594 2.37703125 0.20367187 3.6015625 0.30859375 C4.51679688 0.39238281 5.43203125 0.47617187 6.375 0.5625 C6.705 2.5425 7.035 4.5225 7.375 6.5625 C5.725 6.8925 4.075 7.2225 2.375 7.5625 C2.045 5.9125 1.715 4.2625 1.375 2.5625 C2.695 2.2325 4.015 1.9025 5.375 1.5625 C2.405 1.5625 -0.565 1.5625 -3.625 1.5625 C-3.625 2.5525 -3.625 3.5425 -3.625 4.5625 C-4.285 4.5625 -4.945 4.5625 -5.625 4.5625 C-5.625 3.5725 -5.625 2.5825 -5.625 1.5625 C-6.615 1.2325 -7.605 0.9025 -8.625 0.5625 C-5.68113377 -0.90943312 -3.25109964 -0.28686173 0 0 Z " fill="#CBC7C4" transform="translate(332.625,317.4375)"/>
<path d="M0 0 C0.33 0 0.66 0 1 0 C1 2.31 1 4.62 1 7 C0.2575 7.103125 -0.485 7.20625 -1.25 7.3125 C-3.98836441 7.79807989 -3.98836441 7.79807989 -5.75 9.375 C-9.11336618 11.80409779 -12.9485047 13.13448719 -17 14 C-17.99 13.67 -18.98 13.34 -20 13 C-18.46279297 12.34644531 -18.46279297 12.34644531 -16.89453125 11.6796875 C-15.53348902 11.07895162 -14.17283203 10.47734237 -12.8125 9.875 C-12.13896484 9.59140625 -11.46542969 9.3078125 -10.77148438 9.015625 C-5.82199149 6.79438917 -3.25502582 4.32777444 0 0 Z " fill="#D0D9DC" transform="translate(422,549)"/>
<path d="M0 0 C0.99 0.33 1.98 0.66 3 1 C2.21625 1.70125 1.4325 2.4025 0.625 3.125 C-4.8510418 9.12256959 -4.39664856 16.14910955 -4.625 23.875 C-4.66367187 24.94492188 -4.70234375 26.01484375 -4.7421875 27.1171875 C-4.83602452 29.74462408 -4.92171557 32.37206171 -5 35 C-5.33 35 -5.66 35 -6 35 C-6.11651725 30.62522526 -6.18736 26.25085173 -6.25 21.875 C-6.28351563 20.6375 -6.31703125 19.4 -6.3515625 18.125 C-6.47346291 6.78826215 -6.47346291 6.78826215 -2 2 C-1.34 1.34 -0.68 0.68 0 0 Z " fill="#CBCAC6" transform="translate(280,159)"/>
<path d="M0 0 C1.39456452 0.00667256 2.78911118 0.01863093 4.18359375 0.03515625 C4.89451172 0.03966797 5.60542969 0.04417969 6.33789062 0.04882812 C8.09899388 0.06064761 9.86005411 0.07858362 11.62109375 0.09765625 C11.62109375 0.75765625 11.62109375 1.41765625 11.62109375 2.09765625 C9.05215537 3.38212544 6.85533038 3.42742769 3.99609375 3.66015625 C2.99320312 3.74394531 1.9903125 3.82773438 0.95703125 3.9140625 C0.18617188 3.97464844 -0.5846875 4.03523438 -1.37890625 4.09765625 C-1.37890625 4.75765625 -1.37890625 5.41765625 -1.37890625 6.09765625 C-2.03890625 6.09765625 -2.69890625 6.09765625 -3.37890625 6.09765625 C-3.70890625 6.75765625 -4.03890625 7.41765625 -4.37890625 8.09765625 C-4.42132348 5.7647085 -4.41983562 3.43063058 -4.37890625 1.09765625 C-3.37890625 0.09765625 -3.37890625 0.09765625 0 0 Z " fill="#D6D6D5" transform="translate(343.37890625,106.90234375)"/>
<path d="M0 0 C0.33 0.66 0.66 1.32 1 2 C1.5775 1.649375 2.155 1.29875 2.75 0.9375 C5.35801776 -0.14917407 6.39417629 0.06934867 9 1 C8.69381595 4.67420866 8.24228216 5.78135513 5.4375 8.3125 C4.633125 8.869375 3.82875 9.42625 3 10 C2.34 9.34 1.68 8.68 1 8 C2.98 6.35 4.96 4.7 7 3 C6.401875 3.309375 5.80375 3.61875 5.1875 3.9375 C3 5 3 5 0 6 C0 4.02 0 2.04 0 0 Z " fill="#CFCBC4" transform="translate(308,230)"/>
<path d="M0 0 C0.33 0.66 0.66 1.32 1 2 C2.84971696 3.05021103 2.84971696 3.05021103 5 4 C7 5 7 5 9 6 C9 6.66 9 7.32 9 8 C9.99 7.67 10.98 7.34 12 7 C14.04296875 7.99609375 14.04296875 7.99609375 16.1875 9.4375 C16.90292969 9.91058594 17.61835938 10.38367188 18.35546875 10.87109375 C18.89816406 11.24363281 19.44085938 11.61617187 20 12 C16.16545846 13.27818051 15.2032874 12.45581372 11.625 10.75 C10.68914062 10.31171875 9.75328125 9.8734375 8.7890625 9.421875 C6.09450327 8.04817814 3.50183522 6.70195895 1 5 C0.1875 2.3125 0.1875 2.3125 0 0 Z " fill="#969CA1" transform="translate(275,539)"/>
<path d="M0 0 C1.32 0 2.64 0 4 0 C4 0.66 4 1.32 4 2 C4.66 2.33 5.32 2.66 6 3 C6 4.32 6 5.64 6 7 C3.69 7.33 1.38 7.66 -1 8 C-1.04241723 5.66705225 -1.04092937 3.33297433 -1 1 C-0.67 0.67 -0.34 0.34 0 0 Z " fill="#B0ACA9" transform="translate(348,276)"/>
<path d="M0 0 C0.66 0 1.32 0 2 0 C2 4.29 2 8.58 2 13 C4.64 13 7.28 13 10 13 C10 13.66 10 14.32 10 15 C6.7 15 3.4 15 0 15 C0 10.05 0 5.1 0 0 Z " fill="#95938F" transform="translate(357,234)"/>
<path d="M0 0 C0.33 1.32 0.66 2.64 1 4 C-8.41002278 5.14806378 -8.41002278 5.14806378 -13 5 C-11.68 4.67 -10.36 4.34 -9 4 C-9 3.01 -9 2.02 -9 1 C-5.8035914 -0.06546953 -3.34252724 -0.07427838 0 0 Z " fill="#C6C5C1" transform="translate(369,307)"/>
<path d="M0 0 C0 0.99 0 1.98 0 3 C1.32 3.33 2.64 3.66 4 4 C2.35 4 0.7 4 -1 4 C-1 5.32 -1 6.64 -1 8 C-1.66 8 -2.32 8 -3 8 C-3 6.68 -3 5.36 -3 4 C-5.31 3.67 -7.62 3.34 -10 3 C-7.29536552 -0.8183075 -4.37912428 -0.24787496 0 0 Z " fill="#DDD9D6" transform="translate(341,303)"/>
<path d="M0 0 C0.66 0 1.32 0 2 0 C2.33 0.66 2.66 1.32 3 2 C4.98 2 6.96 2 9 2 C8.67 3.65 8.34 5.3 8 7 C5.36 7 2.72 7 0 7 C0 4.69 0 2.38 0 0 Z " fill="#A6A29F" transform="translate(334,265)"/>
<path d="M0 0 C8.415 1.485 8.415 1.485 17 3 C13.23623515 4.88188242 11.922567 5.27404264 7.9375 5.25 C7.08027344 5.25515625 6.22304688 5.2603125 5.33984375 5.265625 C3 5 3 5 0 3 C0 2.01 0 1.02 0 0 Z " fill="#D2D3D1" transform="translate(302,587)"/>
<path d="M0 0 C1.2065625 0.0309375 1.2065625 0.0309375 2.4375 0.0625 C2.4375 1.0525 2.4375 2.0425 2.4375 3.0625 C1.1175 2.7325 -0.2025 2.4025 -1.5625 2.0625 C-1.5625 3.0525 -1.5625 4.0425 -1.5625 5.0625 C-0.2425 5.0625 1.0775 5.0625 2.4375 5.0625 C2.1075 6.0525 1.7775 7.0425 1.4375 8.0625 C0.65375 7.8975 -0.13 7.7325 -0.9375 7.5625 C-3.44458039 7.0001293 -3.44458039 7.0001293 -5.5625 7.0625 C-6.5525 6.7325 -7.5425 6.4025 -8.5625 6.0625 C-2.5625 0.0625 -2.5625 0.0625 0 0 Z " fill="#A5A19C" transform="translate(330.5625,286.9375)"/>
<path d="M0 0 C5.77759884 -0.12036664 11.27959989 0.1679418 17 1 C17.33 2.32 17.66 3.64 18 5 C17.34 4.34 16.68 3.68 16 3 C13.10116917 2.75660449 13.10116917 2.75660449 9.875 2.875 C8.23144531 2.90207031 8.23144531 2.90207031 6.5546875 2.9296875 C5.71164062 2.95289062 4.86859375 2.97609375 4 3 C4 3.66 4 4.32 4 5 C3.01 4.67 2.02 4.34 1 4 C0.3125 1.9375 0.3125 1.9375 0 0 Z " fill="#E7E8E6" transform="translate(370,117)"/>
<path d="M0 0 C0.99 0 1.98 0 3 0 C3 1.32 3 2.64 3 4 C-1.455 4.495 -1.455 4.495 -6 5 C-5.67 4.01 -5.34 3.02 -5 2 C-5.66 2 -6.32 2 -7 2 C-7 2.66 -7 3.32 -7 4 C-7.66 4 -8.32 4 -9 4 C-9 3.34 -9 2.68 -9 2 C-9.66 1.67 -10.32 1.34 -11 1 C-10.28972656 1.01160156 -9.57945312 1.02320313 -8.84765625 1.03515625 C-7.92855469 1.04417969 -7.00945312 1.05320312 -6.0625 1.0625 C-4.68771484 1.07990234 -4.68771484 1.07990234 -3.28515625 1.09765625 C-1.03406673 1.25949049 -1.03406673 1.25949049 0 0 Z " fill="#B3B1AD" transform="translate(357,307)"/>
<path d="M0 0 C0.66 0.66 1.32 1.32 2 2 C0.35 2.33 -1.3 2.66 -3 3 C-3.33 3.99 -3.66 4.98 -4 6 C-4.66 6 -5.32 6 -6 6 C-6.33 4.68 -6.66 3.36 -7 2 C-7.99 2 -8.98 2 -10 2 C-10.33 2.66 -10.66 3.32 -11 4 C-11 3.01 -11 2.02 -11 1 C-12.32 0.67 -13.64 0.34 -15 0 C-12.98177083 0.03255208 -10.96354167 0.06510417 -8.9453125 0.09765625 C-1.08058043 -0.29715962 -1.08058043 -0.29715962 0 0 Z " fill="#D1CDCA" transform="translate(348,298)"/>
<path d="M0 0 C3.5 0.3125 3.5 0.3125 7 1 C7.33 1.66 7.66 2.32 8 3 C7.01 3 6.02 3 5 3 C5 3.99 5 4.98 5 6 C2.625 6.625 2.625 6.625 0 7 C-0.66 6.34 -1.32 5.68 -2 5 C-1.46428571 1.46428571 -1.46428571 1.46428571 0 0 Z " fill="#BFBBB8" transform="translate(336,277)"/>
<path d="M0 0 C0 0.66 0 1.32 0 2 C-2.18652739 2.33965474 -4.37428025 2.67142477 -6.5625 3 C-8.38974609 3.2784375 -8.38974609 3.2784375 -10.25390625 3.5625 C-13.87627848 3.98555077 -17.35712046 4.07501425 -21 4 C-21 3.67 -21 3.34 -21 3 C-13.92444501 -0.0017506 -7.62951555 -0.34855655 0 0 Z " fill="#CCD4DC" transform="translate(401,552)"/>
<path d="M0 0 C2.00720923 0.28674418 4.0085944 0.61866701 6 1 C6 2.65 6 4.3 6 6 C3.36 6 0.72 6 -2 6 C-1.125 1.125 -1.125 1.125 0 0 Z " fill="#B6B2AF" transform="translate(332,306)"/>
<path d="M0 0 C0.99 0 1.98 0 3 0 C3 0.66 3 1.32 3 2 C5.97 2.495 5.97 2.495 9 3 C8.34 4.32 7.68 5.64 7 7 C4.69 6.67 2.38 6.34 0 6 C0 4.02 0 2.04 0 0 Z " fill="#E5E3DF" transform="translate(349,270)"/>
<path d="M0 0 C0.99 0.33 1.98 0.66 3 1 C2.34 1 1.68 1 1 1 C1 1.99 1 2.98 1 4 C6.61 4 12.22 4 18 4 C17.67 4.66 17.34 5.32 17 6 C14.20865148 6.19425873 11.41716313 6.38069517 8.625 6.5625 C7.8309375 6.61857422 7.036875 6.67464844 6.21875 6.73242188 C0.2265625 7.11328125 0.2265625 7.11328125 -2 6 C-2 5.34 -2 4.68 -2 4 C-3.32 3.67 -4.64 3.34 -6 3 C-4.35 3 -2.7 3 -1 3 C-0.67 2.01 -0.34 1.02 0 0 Z " fill="#B8B8B6" transform="translate(339,119)"/>
<path d="M0 0 C0 3.3 0 6.6 0 10 C-0.33 10 -0.66 10 -1 10 C-1.33 7.36 -1.66 4.72 -2 2 C-3.98 2.99 -3.98 2.99 -6 4 C-6 4.66 -6 5.32 -6 6 C-11.2734375 9.22265625 -11.2734375 9.22265625 -13 10 C-13.66 9.67 -14.32 9.34 -15 9 C-13.33333333 7.66666667 -11.66666667 6.33333333 -10 5 C-9.113125 4.278125 -8.22625 3.55625 -7.3125 2.8125 C-4.47686768 0.58997737 -3.63400404 0 0 0 Z " fill="#D3DAE0" transform="translate(424,539)"/>
<path d="M0 0 C4.95 0.99 4.95 0.99 10 2 C10.33 3.32 10.66 4.64 11 6 C7.37 5.67 3.74 5.34 0 5 C0 3.35 0 1.7 0 0 Z " fill="#B0ACA9" transform="translate(331,298)"/>
<path d="M0 0 C0.99 0.33 1.98 0.66 3 1 C3.144375 2.0725 3.28875 3.145 3.4375 4.25 C3.83749442 6.91662949 4.27591924 9.41399729 5 12 C1.125 10.125 1.125 10.125 0 9 C-0.07179964 7.48071962 -0.08392007 5.95832518 -0.0625 4.4375 C-0.05347656 3.61121094 -0.04445313 2.78492188 -0.03515625 1.93359375 C-0.02355469 1.29550781 -0.01195312 0.65742187 0 0 Z " fill="#3D5A6F" transform="translate(273,541)"/>
<path d="M0 0 C0.33 0 0.66 0 1 0 C1 6.6 1 13.2 1 20 C-5.75 22.25 -5.75 22.25 -10 22 C-9.67 21.34 -9.34 20.68 -9 20 C-6.03 19.67 -3.06 19.34 0 19 C0 12.73 0 6.46 0 0 Z " fill="#CBC9C3" transform="translate(295,136)"/>
<path d="M0 0 C1.98 0 3.96 0 6 0 C6 0.66 6 1.32 6 2 C5.505 2.474375 5.01 2.94875 4.5 3.4375 C2.65373409 4.99969942 2.65373409 4.99969942 3 8 C3.99 8.33 4.98 8.66 6 9 C4.33388095 9.042721 2.66617115 9.04063832 1 9 C0 8 0 8 -0.09765625 6.15234375 C-0.06510417 4.1015625 -0.03255208 2.05078125 0 0 Z " fill="#D8D8D5" transform="translate(331,123)"/>
<path d="M0 0 C1.32 0.33 2.64 0.66 4 1 C4 1.66 4 2.32 4 3 C3.01 3.33 2.02 3.66 1 4 C0.26676204 6.01508358 0.26676204 6.01508358 0 8 C2.97 8.495 2.97 8.495 6 9 C6.33 9.99 6.66 10.98 7 12 C3.17902761 11.46930939 0.93828597 10.50298434 -2 8 C-1.34 5.36 -0.68 2.72 0 0 Z " fill="#667F91" transform="translate(283,548)"/>
<path d="M0 0 C0.33 0 0.66 0 1 0 C1.78774617 8.03501094 1.78774617 8.03501094 -1.5 12.0625 C-2.325 12.701875 -3.15 13.34125 -4 14 C-4.66 13.67 -5.32 13.34 -6 13 C-5.360625 12.319375 -4.72125 11.63875 -4.0625 10.9375 C-1.66906372 7.52866651 -1.39352024 5.09261048 -1 1 C-0.67 0.67 -0.34 0.34 0 0 Z " fill="#8CA4BB" transform="translate(422,540)"/>
<path d="M0 0 C0.33 0 0.66 0 1 0 C1 1.65 1 3.3 1 5 C3.31 5 5.62 5 8 5 C7.67 5.99 7.34 6.98 7 8 C3.7 7.67 0.4 7.34 -3 7 C-3 6.34 -3 5.68 -3 5 C-2.01 5 -1.02 5 0 5 C0 3.35 0 1.7 0 0 Z " fill="#EAE7E3" transform="translate(344,299)"/>
<path d="M0 0 C0.99 0.33 1.98 0.66 3 1 C2.34 1 1.68 1 1 1 C1 1.99 1 2.98 1 4 C6.28 4 11.56 4 17 4 C17 4.66 17 5.32 17 6 C8.585 6.495 8.585 6.495 0 7 C-1.04449911 3.86650268 -0.93423645 3.01031744 0 0 Z " fill="#BCBCBC" transform="translate(313,111)"/>
<path d="M0 0 C0.66 0.33 1.32 0.66 2 1 C3.54023996 1.06950541 5.08334988 1.08452357 6.625 1.0625 C7.44226563 1.05347656 8.25953125 1.04445313 9.1015625 1.03515625 C9.72804688 1.02355469 10.35453125 1.01195312 11 1 C10.67 1.66 10.34 2.32 10 3 C7.36 3 4.72 3 2 3 C2 3.66 2 4.32 2 5 C0.35 5 -1.3 5 -3 5 C-3 3.68 -3 2.36 -3 1 C-2.01 0.67 -1.02 0.34 0 0 Z " fill="#C4C1BB" transform="translate(320,275)"/>
<path d="M0 0 C0.66 0 1.32 0 2 0 C2 1.65 2 3.3 2 5 C5.465 4.505 5.465 4.505 9 4 C8.67 4.99 8.34 5.98 8 7 C5.36 7 2.72 7 0 7 C0 4.69 0 2.38 0 0 Z " fill="#9F9E9B" transform="translate(372,242)"/>
<path d="M0 0 C1.134375 0.020625 2.26875 0.04125 3.4375 0.0625 C3.1075 1.3825 2.7775 2.7025 2.4375 4.0625 C0.4575 4.3925 -1.5225 4.7225 -3.5625 5.0625 C-4.125 3.125 -4.125 3.125 -4.5625 1.0625 C-3.5625 0.0625 -3.5625 0.0625 0 0 Z " fill="#A6A3A0" transform="translate(352.5625,289.9375)"/>
<path d="M0 0 C0.99 0 1.98 0 3 0 C3.19859326 3.57467872 3.13637125 6.04977304 1 9 C-1.625 10.25 -1.625 10.25 -4 11 C-3.625 9.0625 -3.625 9.0625 -3 7 C-2.34 6.67 -1.68 6.34 -1 6 C-0.34227572 2.97065509 -0.34227572 2.97065509 0 0 Z " fill="#BAB6B1" transform="translate(319,237)"/>
<path d="M0 0 C0 0.66 0 1.32 0 2 C-0.78375 2.4125 -1.5675 2.825 -2.375 3.25 C-5.6733333 5.44888887 -6.07871568 7.23110958 -7 11 C-7.66 11 -8.32 11 -9 11 C-9.375 8.3125 -9.375 8.3125 -9 5 C-6.48922213 1.91533005 -4.09455239 0 0 0 Z " fill="#DAD7D1" transform="translate(326,230)"/>
<path d="M0 0 C2.64 0 5.28 0 8 0 C8 1.98 8 3.96 8 6 C7.01 6.33 6.02 6.66 5 7 C5.33 5.35 5.66 3.7 6 2 C4.02 2 2.04 2 0 2 C0 1.34 0 0.68 0 0 Z " fill="#828280" transform="translate(387,232)"/>
<path d="M0 0 C4.571279 0.54855348 8.67435795 1.41744803 13 3 C13 3.33 13 3.66 13 4 C11.39592672 4.02708567 9.7917215 4.04643483 8.1875 4.0625 C6.84751953 4.07990234 6.84751953 4.07990234 5.48046875 4.09765625 C3 4 3 4 0 3 C0 2.01 0 1.02 0 0 Z " fill="#141414" transform="translate(314,112)"/>
<path d="M0 0 C1.37562854 1.28965176 2.70766393 2.62689293 4 4 C4 4.66 4 5.32 4 6 C4.598125 6.2475 5.19625 6.495 5.8125 6.75 C8.28647521 8.16370012 9.43370255 9.65055383 11 12 C8.525 11.01 8.525 11.01 6 10 C6 9.34 6 8.68 6 8 C5.38125 7.731875 4.7625 7.46375 4.125 7.1875 C2 6 2 6 0 3 C0 2.01 0 1.02 0 0 Z " fill="#B5B4AE" transform="translate(275,569)"/>
<path d="M0 0 C1.65 0 3.3 0 5 0 C4.67 0.99 4.34 1.98 4 3 C4.99 3.33 5.98 3.66 7 4 C6 5 6 5 3.5625 5.25 C2.716875 5.1675 1.87125 5.085 1 5 C0.34 4.01 -0.32 3.02 -1 2 C-0.67 1.34 -0.34 0.68 0 0 Z " fill="#CDCCC9" transform="translate(372,306)"/>
<path d="M0 0 C2.64 0.33 5.28 0.66 8 1 C6.68 1.33 5.36 1.66 4 2 C4.33 3.65 4.66 5.3 5 7 C3.35 7 1.7 7 0 7 C0.66 6.67 1.32 6.34 2 6 C1.67 5.195625 1.34 4.39125 1 3.5625 C0 1 0 1 0 0 Z " fill="#C6C4C0" transform="translate(352,277)"/>
<path d="M0 0 C-0.33 0.99 -0.66 1.98 -1 3 C-4.375 4.3125 -4.375 4.3125 -8 5 C-8.99 4.34 -9.98 3.68 -11 3 C-11 2.34 -11 1.68 -11 1 C-9.88625 1.020625 -8.7725 1.04125 -7.625 1.0625 C-4.58237918 1.01004102 -2.83730029 0 0 0 Z " fill="#D6D3CE" transform="translate(334,246)"/>
<path d="M0 0 C-0.33 1.65 -0.66 3.3 -1 5 C-2.65 5 -4.3 5 -6 5 C-6 3.68 -6 2.36 -6 1 C-4 0 -4 0 0 0 Z " fill="#ACA8A4" transform="translate(347,289)"/>
<path d="M0 0 C1.65 0 3.3 0 5 0 C4.75 2.375 4.75 2.375 4 5 C1.9375 6.3125 1.9375 6.3125 0 7 C0 4.69 0 2.38 0 0 Z " fill="#AEAAA7" transform="translate(336,287)"/>
<path d="M0 0 C3.375 -0.1875 3.375 -0.1875 7 0 C9 3 9 3 9 6 C8.01 5.67 7.02 5.34 6 5 C6.33 4.34 6.66 3.68 7 3 C5.68 3 4.36 3 3 3 C3 2.34 3 1.68 3 1 C2.01 1.33 1.02 1.66 0 2 C0 1.34 0 0.68 0 0 Z " fill="#CDC9C3" transform="translate(316,263)"/>
<path d="M0 0 C5.94 0.33 11.88 0.66 18 1 C18 1.33 18 1.66 18 2 C12.06 2.33 6.12 2.66 0 3 C0 2.01 0 1.02 0 0 Z " fill="#C8C8C6" transform="translate(312,122)"/>
<path d="M0 0 C0 2.31 0 4.62 0 7 C-2.31 7.33 -4.62 7.66 -7 8 C-5.84316054 5.30070793 -3.38550714 0 0 0 Z " fill="#D9E0E4" transform="translate(423,549)"/>
<path d="M0 0 C0.33 1.32 0.66 2.64 1 4 C-2.375 4.625 -2.375 4.625 -6 5 C-6.66 4.34 -7.32 3.68 -8 3 C-5.36 2.01 -2.72 1.02 0 0 Z " fill="#C4C0BA" transform="translate(328,307)"/>
<path d="M0 0 C1.32 0 2.64 0 4 0 C4 0.66 4 1.32 4 2 C4.66 2 5.32 2 6 2 C6 2.66 6 3.32 6 4 C3.69 4 1.38 4 -1 4 C-0.67 2.68 -0.34 1.36 0 0 Z " fill="#B8B4B1" transform="translate(346,300)"/>
<path d="M0 0 C0.66 0 1.32 0 2 0 C2.66 1.98 3.32 3.96 4 6 C2.02 6 0.04 6 -2 6 C-1.125 1.125 -1.125 1.125 0 0 Z " fill="#908E87" transform="translate(317,264)"/>
<path d="M0 0 C0 0.99 0 1.98 0 3 C-4.52092968 4.45606519 -7.51648796 3.27032841 -12 2 C-12 1.67 -12 1.34 -12 1 C-10.37512529 0.83211627 -8.75009558 0.66573213 -7.125 0.5 C-6.22007812 0.4071875 -5.31515625 0.314375 -4.3828125 0.21875 C-2 0 -2 0 0 0 Z " fill="#3C3C3A" transform="translate(357,120)"/>
<path d="M0 0 C0.66 0.33 1.32 0.66 2 1 C1.67 1.66 1.34 2.32 1 3 C0.34 3 -0.32 3 -1 3 C-1 3.66 -1 4.32 -1 5 C-2.65 5.33 -4.3 5.66 -6 6 C-6.33 5.01 -6.66 4.02 -7 3 C-6.01 2.67 -5.02 2.34 -4 2 C-3.319375 1.62875 -2.63875 1.2575 -1.9375 0.875 C-1.298125 0.58625 -0.65875 0.2975 0 0 Z " fill="#D9D7D6" transform="translate(409,578)"/>
<path d="M0 0 C3.96 0 7.92 0 12 0 C8.55549263 2.29633824 6.06187717 2.54016485 2 3 C1.34 2.01 0.68 1.02 0 0 Z " fill="#C7D2D6" transform="translate(340,569)"/>
<path d="M0 0 C1.31602523 0.61754259 2.62773556 1.24428742 3.9375 1.875 C4.66839844 2.22304688 5.39929688 2.57109375 6.15234375 2.9296875 C8 4 8 4 9 6 C5.08406554 5.21681311 1.63593365 3.60820142 -2 2 C-1.34 1.34 -0.68 0.68 0 0 Z " fill="#9DA2A7" transform="translate(286,546)"/>
<path d="M0 0 C0.33 0.66 0.66 1.32 1 2 C1.598125 1.649375 2.19625 1.29875 2.8125 0.9375 C5 0 5 0 8 1 C6.8562364 1.83617182 5.70992861 2.66886459 4.5625 3.5 C3.60537109 4.19609375 3.60537109 4.19609375 2.62890625 4.90625 C1 6 1 6 0 6 C0 4.02 0 2.04 0 0 Z " fill="#D7D4CC" transform="translate(308,230)"/>
<path d="M0 0 C-6.39130435 4.26086957 -6.39130435 4.26086957 -10.3125 3.625 C-10.869375 3.41875 -11.42625 3.2125 -12 3 C-4.71428571 -1.71428571 -4.71428571 -1.71428571 0 0 Z " fill="#A9C3CF" transform="translate(407,560)"/>
<path d="M0 0 C1.5625 1.0625 1.5625 1.0625 3 3 C2.6875 6.6875 2.6875 6.6875 2 10 C0 9 0 9 -0.6875 7.25 C-1.05449975 4.60760177 -0.64331769 2.57327078 0 0 Z " fill="#4B697F" transform="translate(277,544)"/>
<path d="M0 0 C0.66 0.33 1.32 0.66 2 1 C1.01 1.66 0.02 2.32 -1 3 C0.32 3.66 1.64 4.32 3 5 C0.69 5.33 -1.62 5.66 -4 6 C-3.67 4.35 -3.34 2.7 -3 1 C-2.01 0.67 -1.02 0.34 0 0 Z " fill="#CFCDCB" transform="translate(396,302)"/>
<path d="M0 0 C0 0.99 0 1.98 0 3 C-2.31 3 -4.62 3 -7 3 C-6.67 2.01 -6.34 1.02 -6 0 C-3 -1 -3 -1 0 0 Z " fill="#B7B5B3" transform="translate(383,306)"/>
<path d="M0 0 C2.475 0.495 2.475 0.495 5 1 C4.67 2.32 4.34 3.64 4 5 C2.68 4.67 1.36 4.34 0 4 C0 2.68 0 1.36 0 0 Z " fill="#ACABA7" transform="translate(356,279)"/>
<path d="M0 0 C-0.33 1.32 -0.66 2.64 -1 4 C-3.64 3.34 -6.28 2.68 -9 2 C-9 1.67 -9 1.34 -9 1 C-5.94152152 0.45627049 -3.11227195 0 0 0 Z " fill="#4C4C4B" transform="translate(331,119)"/>
<path d="M0 0 C2.31 0.33 4.62 0.66 7 1 C7 2.32 7 3.64 7 5 C4.0625 4.1875 4.0625 4.1875 1 3 C0.67 2.01 0.34 1.02 0 0 Z " fill="#A39F99" transform="translate(321,297)"/>
<path d="M0 0 C0.33 0.66 0.66 1.32 1 2 C1.66 2 2.32 2 3 2 C3.33 3.32 3.66 4.64 4 6 C1.36 6.33 -1.28 6.66 -4 7 C-4 6.34 -4 5.68 -4 5 C-2.68 5 -1.36 5 0 5 C0 3.35 0 1.7 0 0 Z " fill="#A7A5A1" transform="translate(366,277)"/>
<path d="M0 0 C1.134375 0.020625 2.26875 0.04125 3.4375 0.0625 C3.1075 0.7225 2.7775 1.3825 2.4375 2.0625 C1.633125 2.18625 0.82875 2.31 0 2.4375 C-2.72233399 2.78817164 -2.72233399 2.78817164 -3.875 5.125 C-4.2153125 6.0840625 -4.2153125 6.0840625 -4.5625 7.0625 C-4.60504356 5.06295254 -4.60330783 3.06208364 -4.5625 1.0625 C-3.5625 0.0625 -3.5625 0.0625 0 0 Z " fill="#E9E5E0" transform="translate(326.5625,234.9375)"/>
<path d="M0 0 C3.07536854 0.65900754 5.07735566 1.53867783 8 3 C3.545 3.495 3.545 3.495 -1 4 C-0.67 2.68 -0.34 1.36 0 0 Z " fill="#A4A19B" transform="translate(320,305)"/>
<path d="M0 0 C0.99 0 1.98 0 3 0 C3.33 1.32 3.66 2.64 4 4 C0.37 3.67 -3.26 3.34 -7 3 C-7 2.67 -7 2.34 -7 2 C-4.69 2 -2.38 2 0 2 C0 1.34 0 0.68 0 0 Z " fill="#B7B3B0" transform="translate(338,300)"/>
<path d="M0 0 C1 3 1 3 0 6 C-0.66 6 -1.32 6 -2 6 C-2 5.01 -2 4.02 -2 3 C-2.99 3 -3.98 3 -5 3 C-5 2.34 -5 1.68 -5 1 C-3.35 0.67 -1.7 0.34 0 0 Z " fill="#C1BFBE" transform="translate(392,294)"/>
<path d="M0 0 C1.98 0 3.96 0 6 0 C5.01 0.33 4.02 0.66 3 1 C3 1.99 3 2.98 3 4 C1.35 4.33 -0.3 4.66 -2 5 C-2 4.34 -2 3.68 -2 3 C-1.34 3 -0.68 3 0 3 C0 2.01 0 1.02 0 0 Z " fill="#A19D9A" transform="translate(338,279)"/>
<path d="M0 0 C1.98 0.99 1.98 0.99 4 2 C4 3.66666667 4 5.33333333 4 7 C3.01 7 2.02 7 1 7 C0.67 4.69 0.34 2.38 0 0 Z " fill="#CFCECA" transform="translate(362,265)"/>
<path d="M0 0 C1.29585916 0.42492126 2.5866044 0.86545882 3.875 1.3125 C4.59429687 1.55613281 5.31359375 1.79976563 6.0546875 2.05078125 C8 3 8 3 10 6 C8.5164999 5.57742724 7.03823576 5.13643678 5.5625 4.6875 C4.73878906 4.44386719 3.91507812 4.20023437 3.06640625 3.94921875 C2.04353516 3.47935547 2.04353516 3.47935547 1 3 C0.67 2.01 0.34 1.02 0 0 Z " fill="#E7E7E4" transform="translate(388,123)"/>
<path d="M0 0 C7.50769231 -0.36923077 7.50769231 -0.36923077 10 1.5 C10.495 2.2425 10.495 2.2425 11 3 C3.57142857 3.28571429 3.57142857 3.28571429 0 1 C0 0.67 0 0.34 0 0 Z " fill="#B8B7B5" transform="translate(299,585)"/>
<path d="M0 0 C1.2065625 0.0309375 1.2065625 0.0309375 2.4375 0.0625 C2.7675 1.0525 3.0975 2.0425 3.4375 3.0625 C2.1175 3.3925 0.7975 3.7225 -0.5625 4.0625 C-0.5625 3.4025 -0.5625 2.7425 -0.5625 2.0625 C-1.5525 1.7325 -2.5425 1.4025 -3.5625 1.0625 C-2.5625 0.0625 -2.5625 0.0625 0 0 Z " fill="#EBEAE6" transform="translate(360.5625,303.9375)"/>
<path d="M0 0 C0.66 0 1.32 0 2 0 C2.33 2.31 2.66 4.62 3 7 C2.01 7 1.02 7 0 7 C-0.38133299 5.0085944 -0.71325582 3.00720923 -1 1 C-0.67 0.67 -0.34 0.34 0 0 Z " fill="#B9B7B3" transform="translate(360,265)"/>
<path d="M0 0 C1.17219543 0.78345715 2.33763668 1.57702836 3.5 2.375 C4.47453125 3.03628906 4.47453125 3.03628906 5.46875 3.7109375 C5.9740625 4.13632813 6.479375 4.56171875 7 5 C7 5.66 7 6.32 7 7 C3.76509224 6.44225728 2.02144994 5.62788492 0 3 C0 2.01 0 1.02 0 0 Z " fill="#87837C" transform="translate(309,239)"/>
<path d="M0 0 C1.65 0 3.3 0 5 0 C5.33 0.66 5.66 1.32 6 2 C3.69 2.33 1.38 2.66 -1 3 C-0.67 2.01 -0.34 1.02 0 0 Z " fill="#A9C0CE" transform="translate(384,563)"/>
<path d="M0 0 C7.75 0.75 7.75 0.75 10 3 C3.47692308 3.36923077 3.47692308 3.36923077 1.0625 1.5 C0.5365625 0.7575 0.5365625 0.7575 0 0 Z " fill="#909C9E" transform="translate(287,560)"/>
<path d="M0 0 C0.99 0.33 1.98 0.66 3 1 C3 2.32 3 3.64 3 5 C1.68 5 0.36 5 -1 5 C-0.67 3.35 -0.34 1.7 0 0 Z " fill="#AAA29C" transform="translate(315,316)"/>
<path d="M0 0 C1.65 1.32 3.3 2.64 5 4 C4.67 4.99 4.34 5.98 4 7 C3.01 7 2.02 7 1 7 C0.67 4.69 0.34 2.38 0 0 Z " fill="#999991" transform="translate(315,286)"/>
<path d="M0 0 C0 0.66 0 1.32 0 2 C-0.66 2 -1.32 2 -2 2 C-2 2.66 -2 3.32 -2 4 C-3.98 4 -5.96 4 -8 4 C-5.57415142 1.34311822 -3.76063134 0 0 0 Z " fill="#E4E0DC" transform="translate(335,283)"/>
<path d="M0 0 C0.99 0.33 1.98 0.66 3 1 C0.69 2.65 -1.62 4.3 -4 6 C-3 2 -3 2 0 0 Z " fill="#74706B" transform="translate(324,232)"/>
<path d="M0 0 C0 0.66 0 1.32 0 2 C-5.625 3.125 -5.625 3.125 -9 2 C-5.62902617 0.50178941 -3.79557881 0 0 0 Z " fill="#D8D6D3" transform="translate(294,155)"/>
</svg>
