<?xml version="1.0" encoding="UTF-8"?>
<svg version="1.1" xmlns="http://www.w3.org/2000/svg" width="696" height="699">
<path d="M0 0 C229.68 0 459.36 0 696 0 C696 230.67 696 461.34 696 699 C466.32 699 236.64 699 0 699 C0 468.33 0 237.66 0 0 Z " fill="#F4F4F4" transform="translate(0,0)"/>
<path d="M0 0 C0.99 0.33 1.98 0.66 3 1 C2.21625 1.70125 1.4325 2.4025 0.625 3.125 C-4.5383384 8.78008492 -4.38582708 15.14429955 -4.61691284 22.43899536 C-4.67333633 23.96054912 -4.67333633 23.96054912 -4.73089969 25.51284134 C-5.10121302 36.33335822 -5.140895 47.15042689 -5.12939453 57.97607422 C-5.13075506 60.17360462 -5.13253861 62.37113479 -5.13470459 64.56866455 C-5.13922353 70.49152493 -5.13750644 76.41436765 -5.1343255 82.3372283 C-5.13174692 88.67282748 -5.13415678 95.0084254 -5.13571167 101.34402466 C-5.13764441 112.74884146 -5.13455843 124.15364886 -5.12945233 135.55846407 C-5.1250746 145.64005497 -5.12579799 155.72163117 -5.13037109 165.80322266 C-5.14264811 194.51470255 -5.12525743 223.22577334 -5.04629898 251.93716049 C-5.00887263 266.13056449 -5.0022617 280.32340199 -5.03260005 294.51682603 C-5.05214823 304.47794375 -5.04339794 314.4387794 -5.01289403 324.39986861 C-4.99613514 330.2126745 -4.99285812 336.02472674 -5.0239296 341.83749008 C-5.05225629 347.18794821 -5.04388186 352.53704584 -5.0063405 357.88743544 C-4.99927321 359.83401434 -5.00587269 361.78069858 -5.02721357 363.72717333 C-5.56957219 373.61381622 -5.56957219 373.61381622 -2.15262222 382.43651962 C-0.15272381 383.91349025 1.7770672 384.91851584 4 386 C4 386.66 4 387.32 4 388 C5.15628906 388.30744141 5.15628906 388.30744141 6.3359375 388.62109375 C7.84027344 389.02521484 7.84027344 389.02521484 9.375 389.4375 C10.37273437 389.70433594 11.37046875 389.97117187 12.3984375 390.24609375 C15 391 15 391 17 392 C18.53668865 392.22467831 20.07968054 392.40796805 21.625 392.5625 C22.44226563 392.64628906 23.25953125 392.73007812 24.1015625 392.81640625 C24.72804688 392.87699219 25.35453125 392.93757813 26 393 C26.02316156 382.37761522 26.04093459 371.75523645 26.05181217 361.13283157 C26.05703263 356.20052448 26.06411515 351.26823466 26.07543945 346.3359375 C26.08629799 341.57676778 26.09228315 336.81761468 26.09487724 332.05843353 C26.09672613 330.24194833 26.10033648 328.42546404 26.10573006 326.6089859 C26.11297981 324.06645231 26.11398927 321.52398756 26.11352539 318.98144531 C26.1189183 317.85287613 26.1189183 317.85287613 26.12442017 316.70150757 C26.11769148 313.29738441 25.92517971 310.27510228 25 307 C25.72727063 304.49778218 26.86447968 302.36188227 28 300 C29.39683082 300.03347525 30.79280637 300.10331784 32.1875 300.1875 C33.35345703 300.23970703 33.35345703 300.23970703 34.54296875 300.29296875 C38.20520401 301.34680751 39.64115895 303.02148737 42 306 C42.70251831 308.94983634 42.63354797 311.809166 42.56762695 314.8293457 C42.56835709 315.70789719 42.56908722 316.58644867 42.56983948 317.49162292 C42.56636423 320.3869769 42.5275064 323.28070937 42.48828125 326.17578125 C42.47895289 328.18644838 42.47183689 330.19712689 42.46684265 332.20780945 C42.44777472 337.49349481 42.39867523 342.77849048 42.34332275 348.06390381 C42.29212613 353.45982534 42.2693277 358.85585859 42.24414062 364.25195312 C42.19055667 374.83493803 42.10524596 385.41741161 42 396 C45.94685924 396.14472587 49.89379821 396.28703047 53.84082031 396.42724609 C55.83142469 396.4984415 57.82196338 396.57146592 59.8125 396.64453125 C69.99136231 397.00439002 79.94374021 397.31512961 90.0625 396.0625 C91.55338542 395.88671875 93.04427083 395.7109375 94.53515625 395.53515625 C95.2636377 395.44637207 95.99211914 395.35758789 96.74267578 395.26611328 C99.84217866 394.90071655 102.94689175 394.58804849 106.05249023 394.27905273 C108.21064442 394.02893576 108.21064442 394.02893576 111 393 C113.06145107 392.931009 115.12501401 392.91532273 117.1875 392.9375 C118.27417969 392.94652344 119.36085938 392.95554687 120.48046875 392.96484375 C121.31191406 392.97644531 122.14335937 392.98804688 123 393 C123 392.34 123 391.68 123 391 C124.375 390.54166667 125.75 390.08333333 127.125 389.625 C127.94226563 389.34914063 128.75953125 389.07328125 129.6015625 388.7890625 C131.55325209 388.1469757 133.52445604 387.56444113 135.5 387 C136.325 386.67 137.15 386.34 138 386 C138.33 385.01 138.66 384.02 139 383 C141.0625 382.3125 141.0625 382.3125 143 382 C143 409.14710145 143 409.14710145 138.40234375 414.59765625 C136.3835507 416.6164493 134.36712978 418.40058798 132 420 C131.34 420 130.68 420 130 420 C130 420.66 130 421.32 130 422 C129.34 422 128.68 422 128 422 C128 422.66 128 423.32 128 424 C120.45948214 426.88411048 113.33572767 429.43229298 105.3046875 430.54296875 C102.90846123 431.0181526 101.16096932 431.8923902 99 433 C96.25 433.125 96.25 433.125 94 433 C93.67 433.99 93.34 434.98 93 436 C80.9398414 437.00957508 69.08529463 436.96741967 57 436.5625 C55.24220787 436.50909091 53.48439522 436.45635301 51.7265625 436.40429688 C47.48409953 436.27723437 43.24201471 436.14120837 39 436 C38.505 434.515 38.505 434.515 38 433 C35.03 433 32.06 433 29 433 C29 432.01 29 431.02 29 430 C27.35 430.33 25.7 430.66 24 431 C24 430.34 24 429.68 24 429 C23.071875 428.731875 22.14375 428.46375 21.1875 428.1875 C20.55457031 428.00316406 19.92164063 427.81882812 19.26953125 427.62890625 C17.60844167 427.16860432 15.93739684 426.7438232 14.26171875 426.33984375 C4.72055732 423.97714748 4.72055732 423.97714748 1 420 C1 419.34 1 418.68 1 418 C0.0409375 417.5978125 0.0409375 417.5978125 -0.9375 417.1875 C-3 416 -3 416 -4 413 C-4.66 413 -5.32 413 -6 413 C-8.33310379 404.70766841 -8.27034265 396.59183881 -8.22946167 388.05174255 C-8.22906706 386.42863004 -8.22954549 384.80551712 -8.23081791 383.18240505 C-8.23171991 378.73732091 -8.22005087 374.29234627 -8.20622444 369.84728682 C-8.19346175 365.04766265 -8.1922878 360.24803319 -8.18952942 355.44839478 C-8.18214886 346.05213794 -8.16357271 336.6559355 -8.14056377 327.25970512 C-8.1219133 319.62316855 -8.10648536 311.98663227 -8.09332657 304.3500843 C-8.05565377 282.69610642 -8.00958925 261.04217017 -7.95265304 239.38823425 C-7.94958613 238.2215354 -7.94651922 237.05483656 -7.94335938 235.8527832 C-7.940287 234.68465959 -7.93721462 233.51653599 -7.93404914 232.31301469 C-7.88473406 213.36884325 -7.85538182 194.42470017 -7.83507679 175.48047744 C-7.81399892 156.02581638 -7.77811331 136.57123157 -7.7267276 117.11662632 C-7.69818356 106.19532474 -7.67576555 95.27408977 -7.66924667 84.35275078 C-7.66357984 75.0576466 -7.64416536 65.76269753 -7.60686211 56.46766429 C-7.58822455 51.72540343 -7.57601457 46.98335626 -7.58111382 42.24105644 C-7.58562016 37.89910293 -7.57173002 33.55760984 -7.54323794 29.21575106 C-7.53615887 27.64591754 -7.5357896 26.07603626 -7.54284512 24.50620263 C-7.61013912 7.79424133 -7.61013912 7.79424133 -1.36536109 1.3000831 C-0.91479193 0.87105568 -0.46422277 0.44202825 0 0 Z " fill="#C9C9C2" transform="translate(279,160)"/>
<path d="M0 0 C1.39683082 0.03347525 2.79280637 0.10331784 4.1875 0.1875 C4.96480469 0.22230469 5.74210937 0.25710938 6.54296875 0.29296875 C10.20520401 1.34680751 11.64115895 3.02148737 14 6 C14.70251831 8.94983634 14.63354797 11.809166 14.56762695 14.8293457 C14.56835709 15.70789719 14.56908722 16.58644867 14.56983948 17.49162292 C14.56636423 20.3869769 14.5275064 23.28070937 14.48828125 26.17578125 C14.47895289 28.18644838 14.47183689 30.19712689 14.46684265 32.20780945 C14.44777472 37.49349481 14.39867523 42.77849048 14.34332275 48.06390381 C14.29212613 53.45982534 14.2693277 58.85585859 14.24414062 64.25195312 C14.19055667 74.83493803 14.10524596 85.41741161 14 96 C17.94685924 96.14472587 21.89379821 96.28703047 25.84082031 96.42724609 C27.83142469 96.4984415 29.82196338 96.57146592 31.8125 96.64453125 C41.99136231 97.00439002 51.94374021 97.31512961 62.0625 96.0625 C63.55338542 95.88671875 65.04427083 95.7109375 66.53515625 95.53515625 C67.2636377 95.44637207 67.99211914 95.35758789 68.74267578 95.26611328 C71.84217866 94.90071655 74.94689175 94.58804849 78.05249023 94.27905273 C80.21064442 94.02893576 80.21064442 94.02893576 83 93 C85.06145107 92.931009 87.12501401 92.91532273 89.1875 92.9375 C90.27417969 92.94652344 91.36085938 92.95554687 92.48046875 92.96484375 C93.72763672 92.98224609 93.72763672 92.98224609 95 93 C95 92.34 95 91.68 95 91 C96.375 90.54166667 97.75 90.08333333 99.125 89.625 C99.94226563 89.34914063 100.75953125 89.07328125 101.6015625 88.7890625 C103.55325209 88.1469757 105.52445604 87.56444113 107.5 87 C108.325 86.67 109.15 86.34 110 86 C110.33 85.01 110.66 84.02 111 83 C113.0625 82.3125 113.0625 82.3125 115 82 C115.70978342 88.74294249 115.70978342 88.74294249 113.83984375 92.0546875 C111.43879411 95.01454921 109.79448525 96.74092872 106.125 97.9375 C105.42375 97.958125 104.7225 97.97875 104 98 C104 98.66 104 99.32 104 100 C91.05851101 104.90884065 78.7998821 108.19429077 64.921875 108.7890625 C62.11015199 108.67172934 62.11015199 108.67172934 61 110 C59.35054744 110.10399569 57.6966593 110.1385305 56.04394531 110.14526367 C54.98483948 110.15164352 53.92573364 110.15802338 52.83453369 110.16459656 C51.67741882 110.16570938 50.52030396 110.1668222 49.328125 110.16796875 C47.54532135 110.17296135 47.54532135 110.17296135 45.72650146 110.17805481 C43.19771716 110.18313356 40.66892612 110.18546285 38.14013672 110.18530273 C34.30815152 110.18746715 30.47646458 110.20555119 26.64453125 110.22460938 C24.18489681 110.22754768 21.72526101 110.22952955 19.265625 110.23046875 C17.56638885 110.24124702 17.56638885 110.24124702 15.83282471 110.25224304 C5.94087155 110.22449849 -4.23716228 109.97888507 -13 105 C-15.9729795 103.91352909 -18.97979162 102.94633196 -22 102 C-22 101.34 -22 100.68 -22 100 C-22.99 100 -23.98 100 -25 100 C-25 99.34 -25 98.68 -25 98 C-25.9075 97.773125 -26.815 97.54625 -27.75 97.3125 C-31.6465524 95.7388923 -32.96688822 94.67524052 -35 91 C-35.31543486 87.96775518 -35.23809056 85.03565462 -35 82 C-32.88609666 83.04725487 -30.78715021 84.1129407 -28.703125 85.21875 C-23.48495396 87.94416417 -18.75056979 89.76773504 -13 91 C-12.34 91.33 -11.68 91.66 -11 92 C-9.46331135 92.22467831 -7.92031946 92.40796805 -6.375 92.5625 C-5.14910156 92.68818359 -5.14910156 92.68818359 -3.8984375 92.81640625 C-3.27195312 92.87699219 -2.64546875 92.93757812 -2 93 C-1.97683844 82.37761522 -1.95906541 71.75523645 -1.94818783 61.13283157 C-1.94296737 56.20052448 -1.93588485 51.26823466 -1.92456055 46.3359375 C-1.91370201 41.57676778 -1.90771685 36.81761468 -1.90512276 32.05843353 C-1.90327387 30.24194833 -1.89966352 28.42546404 -1.89426994 26.6089859 C-1.88702019 24.06645231 -1.88601073 21.52398756 -1.88647461 18.98144531 C-1.8810817 17.85287613 -1.8810817 17.85287613 -1.87557983 16.70150757 C-1.88230852 13.29738441 -2.07482029 10.27510228 -3 7 C-2.27272937 4.49778218 -1.13552032 2.36188227 0 0 Z " fill="#75B26B" transform="translate(307,460)"/>
<path d="M0 0 C1.65 0.33 3.3 0.66 5 1 C5.33 2.65 5.66 4.3 6 6 C6.66 6 7.32 6 8 6 C8.33 4.68 8.66 3.36 9 2 C10.32 2 11.64 2 13 2 C13.33 2.66 13.66 3.32 14 4 C18.34920539 4.08875929 22.44522765 4.09246206 26.75 3.375 C30.28678522 2.9669094 31.84145444 3.5084646 35 5 C35.99 5 36.98 5 38 5 C38 5.99 38 6.98 38 8 C38.66 8 39.32 8 40 8 C40.33 6.68 40.66 5.36 41 4 C43.31 4 45.62 4 48 4 C48 4.66 48 5.32 48 6 C50.475 6.495 50.475 6.495 53 7 C53.33 6.01 53.66 5.02 54 4 C58.29 4.33 62.58 4.66 67 5 C68 9 68 9 67 11 C62.05 11 57.1 11 52 11 C51.690625 12.959375 51.38125 14.91875 51.0625 16.9375 C50.125 22.875 50.125 22.875 49 24 C47.21676795 24.28752439 45.4221113 24.50590214 43.625 24.6875 C42.64789063 24.79449219 41.67078125 24.90148437 40.6640625 25.01171875 C38 25 38 25 35 23 C35 22.01 35 21.02 35 20 C34.34 20 33.68 20 33 20 C32.67 21.98 32.34 23.96 32 26 C33.32 26.33 34.64 26.66 36 27 C36.495 28.98 36.495 28.98 37 31 C35.02 31.99 35.02 31.99 33 33 C34.65 33.66 36.3 34.32 38 35 C37.67 36.65 37.34 38.3 37 40 C33.13204718 40.06668884 29.62515768 40.11032194 25.8125 39.4375 C23.06900568 38.82690916 23.06900568 38.82690916 20.6875 39.5625 C17.16803575 40.13543604 14.41201079 39.34153551 10.98828125 38.47265625 C9.01631883 37.92290801 9.01631883 37.92290801 7 38 C7 39.65 7 41.3 7 43 C8.98 43.33 10.96 43.66 13 44 C13 44.99 13 45.98 13 47 C13.66 47 14.32 47 15 47 C15 46.34 15 45.68 15 45 C17.97953359 45.14017826 20.95849304 45.28686342 23.9375 45.4375 C25.21270508 45.49647461 25.21270508 45.49647461 26.51367188 45.55664062 C27.72700195 45.61948242 27.72700195 45.61948242 28.96484375 45.68359375 C30.08814087 45.73858032 30.08814087 45.73858032 31.23413086 45.79467773 C33 46 33 46 34 47 C34.04063832 48.66617115 34.042721 50.33388095 34 52 C32.68 52 31.36 52 30 52 C29.38125 52.185625 28.7625 52.37125 28.125 52.5625 C25.19646508 53.16543366 22.88247432 52.70460483 20 52 C19.67 51.34 19.34 50.68 19 50 C18.67 50.66 18.34 51.32 18 52 C14.37 51.34 10.74 50.68 7 50 C7.020625 51.60875 7.04125 53.2175 7.0625 54.875 C7.125 59.75 7.125 59.75 6 62 C4.1875 62.75 4.1875 62.75 2 63 C0.64605972 62.37624689 -0.69110087 61.71344607 -2 61 C-2.02547169 54.0440347 -2.04291782 47.08808154 -2.05493164 40.13208008 C-2.05994306 37.76846873 -2.06675396 35.40486046 -2.07543945 33.04125977 C-2.08764526 29.63296752 -2.09326037 26.22471646 -2.09765625 22.81640625 C-2.10281754 21.76916885 -2.10797882 20.72193146 -2.11329651 19.64295959 C-2.11446033 4.22892066 -2.11446033 4.22892066 0 0 Z " fill="#C2CAB9" transform="translate(305,262)"/>
<path d="M0 0 C2.31 0 4.62 0 7 0 C7 0.66 7 1.32 7 2 C9.475 2.495 9.475 2.495 12 3 C12.33 2.01 12.66 1.02 13 0 C17.29 0.33 21.58 0.66 26 1 C27 5 27 5 26 7 C21.05 7 16.1 7 11 7 C10.690625 8.959375 10.38125 10.91875 10.0625 12.9375 C9.125 18.875 9.125 18.875 8 20 C6.21676795 20.28752439 4.4221113 20.50590214 2.625 20.6875 C1.64789063 20.79449219 0.67078125 20.90148437 -0.3359375 21.01171875 C-3 21 -3 21 -6 19 C-6 18.01 -6 17.02 -6 16 C-6.66 16 -7.32 16 -8 16 C-8.33 17.98 -8.66 19.96 -9 22 C-24.92938497 22.55353075 -24.92938497 22.55353075 -31 19 C-25.70858159 15.47238773 -18.89510757 16.82097849 -13 18 C-13.33 16.02 -13.66 14.04 -14 12 C-15.5159375 12.061875 -15.5159375 12.061875 -17.0625 12.125 C-21.18076052 11.99426157 -24.11830533 11.26749214 -28 10 C-28 11.65 -28 13.3 -28 15 C-28.33 15 -28.66 15 -29 15 C-29 13.02 -29 11.04 -29 9 C-29.66 9 -30.32 9 -31 9 C-30.67 7.35 -30.34 5.7 -30 4 C-28.02 4.66 -26.04 5.32 -24 6 C-24.33 5.01 -24.66 4.02 -25 3 C-24.01 3.33 -23.02 3.66 -22 4 C-22.33 4.99 -22.66 5.98 -23 7 C-22.01 6.67 -21.02 6.34 -20 6 C-17.4191074 6.08744008 -14.88308522 6.22868495 -12.3125 6.4375 C-11.2596582 6.51581055 -11.2596582 6.51581055 -10.18554688 6.59570312 C-8.45661946 6.72507865 -6.72824645 6.86182531 -5 7 C-4.67 5.35 -4.34 3.7 -4 2 C-4.66 1.67 -5.32 1.34 -6 1 C-5.01 1 -4.02 1 -3 1 C-3 1.99 -3 2.98 -3 4 C-2.34 4 -1.68 4 -1 4 C-0.67 2.68 -0.34 1.36 0 0 Z " fill="#D9D7D2" transform="translate(346,266)"/>
<path d="M0 0 C0.99 0.33 1.98 0.66 3 1 C2.21625 1.70125 1.4325 2.4025 0.625 3.125 C-4.5383384 8.78008492 -4.38582708 15.14429955 -4.61691284 22.43899536 C-4.67333633 23.96054912 -4.67333633 23.96054912 -4.73089969 25.51284134 C-5.10121302 36.33335822 -5.140895 47.15042689 -5.12939453 57.97607422 C-5.13075506 60.17360462 -5.13253861 62.37113479 -5.13470459 64.56866455 C-5.13922353 70.49152493 -5.13750644 76.41436765 -5.1343255 82.3372283 C-5.13174692 88.67282748 -5.13415678 95.0084254 -5.13571167 101.34402466 C-5.13764441 112.74884146 -5.13455843 124.15364886 -5.12945233 135.55846407 C-5.1250746 145.64005497 -5.12579799 155.72163117 -5.13037109 165.80322266 C-5.14264811 194.51470255 -5.12525743 223.22577334 -5.04629898 251.93716049 C-5.00887263 266.13056449 -5.0022617 280.32340199 -5.03260005 294.51682603 C-5.05214823 304.47794375 -5.04339794 314.4387794 -5.01289403 324.39986861 C-4.99613514 330.2126745 -4.99285812 336.02472674 -5.0239296 341.83749008 C-5.05225629 347.18794821 -5.04388186 352.53704584 -5.0063405 357.88743544 C-4.99927321 359.83401434 -5.00587269 361.78069858 -5.02721357 363.72717333 C-5.55038103 373.63149804 -5.55038103 373.63149804 -2.15262222 382.50683212 C-0.13729905 384.04495527 1.63168866 385.11750242 4 386 C3.67 386.66 3.34 387.32 3 388 C-4.52255904 384.40968773 -4.52255904 384.40968773 -7 382 C-7.50139666 379.25774699 -7.50139666 379.25774699 -7.50336456 375.85915852 C-7.51379555 374.5657792 -7.52422654 373.27239989 -7.53497362 371.93982726 C-7.52632446 370.49604086 -7.5172978 369.05225668 -7.50793457 367.60847473 C-7.51254053 366.08128011 -7.5188914 364.55408992 -7.52684355 363.02690905 C-7.54360302 358.81902834 -7.53526061 354.61150865 -7.52289867 350.40362632 C-7.51387703 345.86971598 -7.52780378 341.33586928 -7.53881836 336.80197144 C-7.55664128 327.91421937 -7.55274623 319.02660214 -7.5411678 310.13884471 C-7.53214571 302.91500249 -7.53090417 295.69119814 -7.53526306 288.46735191 C-7.53587599 287.44040915 -7.53648893 286.41346638 -7.53712043 285.35540413 C-7.53839931 283.26932757 -7.53969616 281.18325103 -7.5410108 279.09717449 C-7.55242838 259.51613996 -7.53928593 239.93518021 -7.51780933 220.35415795 C-7.49995061 203.5517416 -7.50303008 186.74943582 -7.52148438 169.94702148 C-7.54289327 150.44530357 -7.55131558 130.94365135 -7.53903532 111.44192332 C-7.53776111 109.36185786 -7.53650363 107.28179239 -7.53526306 105.20172691 C-7.53464596 104.17825266 -7.53402886 103.15477842 -7.53339306 102.1002898 C-7.52993922 94.88745451 -7.53576951 87.67466088 -7.54518127 80.46183205 C-7.55640342 71.66799461 -7.55335719 62.87429998 -7.5320583 54.08047888 C-7.52154876 49.59342161 -7.51742423 45.10660238 -7.53065491 40.61954689 C-7.54258748 36.5105257 -7.53600212 32.40196284 -7.5147447 28.29298314 C-7.51028211 26.80774974 -7.51253725 25.32247752 -7.52224785 23.83726916 C-7.61897376 7.81192019 -7.61897376 7.81192019 -1.36526537 1.29697829 C-0.9147278 0.86897546 -0.46419023 0.44097262 0 0 Z " fill="#B6B4AE" transform="translate(279,160)"/>
<path d="M0 0 C3.38030453 3.38030453 3.3484609 4.50611796 3.3732605 9.08477783 C3.36247467 9.91555847 3.35168884 10.74633911 3.34057617 11.60229492 C3.34123329 12.91968407 3.34123329 12.91968407 3.34190369 14.26368713 C3.33981201 17.16950637 3.31646306 20.07475018 3.29296875 22.98046875 C3.28737415 24.99400009 3.28310341 27.00753551 3.28010559 29.02107239 C3.26864616 34.323021 3.23916945 39.62472343 3.20599365 44.92657471 C3.17531647 50.33578155 3.16160528 55.74502813 3.14648438 61.15429688 C3.11430088 71.76963947 3.06309119 82.38479927 3 93 C6.94685924 93.14472587 10.89379821 93.28703047 14.84082031 93.42724609 C16.83142469 93.4984415 18.82196338 93.57146592 20.8125 93.64453125 C30.99136231 94.00439002 40.94374021 94.31512961 51.0625 93.0625 C53.29882812 92.79882812 53.29882812 92.79882812 55.53515625 92.53515625 C56.2636377 92.44637207 56.99211914 92.35758789 57.74267578 92.26611328 C60.84217866 91.90071655 63.94689175 91.58804849 67.05249023 91.27905273 C69.21064442 91.02893576 69.21064442 91.02893576 72 90 C74.06145107 89.931009 76.12501401 89.91532273 78.1875 89.9375 C79.27417969 89.94652344 80.36085938 89.95554687 81.48046875 89.96484375 C82.72763672 89.98224609 82.72763672 89.98224609 84 90 C84 89.34 84 88.68 84 88 C88.455 87.01 88.455 87.01 93 86 C93 86.66 93 87.32 93 88 C92.01 88 91.02 88 90 88 C90 88.66 90 89.32 90 90 C72.65497285 97.58844938 51.63243232 98.35987415 32.92871094 98.20581055 C30.5773675 98.1871214 28.22641124 98.18530476 25.875 98.18554688 C24.36718408 98.18064456 22.85937081 98.17482195 21.3515625 98.16796875 C20.65479401 98.16685593 19.95802551 98.1657431 19.24014282 98.16459656 C16.21812852 98.1347342 13.8913397 97.9637799 11 97 C7.37 96.67 3.74 96.34 0 96 C0 64.32 0 32.64 0 0 Z " fill="#AEBFA7" transform="translate(318,463)"/>
<path d="M0 0 C0.99 0 1.98 0 3 0 C3 19.47 3 38.94 3 59 C1.68 59 0.36 59 -1 59 C-1.0231666 51.75032602 -1.04093714 44.50066003 -1.05181217 37.25095654 C-1.05703154 33.8846576 -1.06411203 30.51838398 -1.07543945 27.15209961 C-1.08753899 23.28238245 -1.09323604 19.41270134 -1.09765625 15.54296875 C-1.10281754 14.33352097 -1.10797882 13.12407318 -1.11329651 11.87797546 C-1.11337204 10.75703995 -1.11344757 9.63610443 -1.11352539 8.48120117 C-1.115746 7.49302902 -1.11796661 6.50485687 -1.12025452 5.48674011 C-1 3 -1 3 0 0 Z " fill="#77A96D" transform="translate(306,264)"/>
<path d="M0 0 C1.65 0.33 3.3 0.66 5 1 C1.63810342 3.24126438 -1.58135418 4.09014492 -5.4375 5.0625 C-6.10587891 5.23587891 -6.77425781 5.40925781 -7.46289062 5.58789062 C-9.30697321 6.06490307 -11.15340947 6.53279035 -13 7 C-13.98613281 7.29197266 -13.98613281 7.29197266 -14.9921875 7.58984375 C-18.85814329 8.3795818 -22.84118785 8.40673447 -26.77539062 8.60546875 C-30.17877167 8.51170272 -30.17877167 8.51170272 -33 10 C-34.64945256 10.10399569 -36.3033407 10.1385305 -37.95605469 10.14526367 C-39.01516052 10.15164352 -40.07426636 10.15802338 -41.16546631 10.16459656 C-42.32258118 10.16570938 -43.47969604 10.1668222 -44.671875 10.16796875 C-46.45467865 10.17296135 -46.45467865 10.17296135 -48.27349854 10.17805481 C-50.80228284 10.18313356 -53.33107388 10.18546285 -55.85986328 10.18530273 C-59.69184848 10.18746715 -63.52353542 10.20555119 -67.35546875 10.22460938 C-69.81510319 10.22754768 -72.27473899 10.22952955 -74.734375 10.23046875 C-76.43361115 10.24124702 -76.43361115 10.24124702 -78.16717529 10.25224304 C-98.73593903 10.19455261 -98.73593903 10.19455261 -107 5 C-103.03262511 3.54427071 -99.25890154 4.30552149 -95.1875 4.875 C-81.7600287 6.71722312 -68.36193752 7.16640995 -54.8293457 7.13037109 C-52.43629652 7.1249973 -50.04343428 7.13036272 -47.65039062 7.13671875 C-38.3846169 7.14029337 -29.23533052 6.81996362 -20 6 C-20 5.67 -20 5.34 -20 5 C-18.97519531 4.86722656 -17.95039063 4.73445312 -16.89453125 4.59765625 C-15.5338426 4.41935912 -14.17316615 4.24096877 -12.8125 4.0625 C-12.13896484 3.97548828 -11.46542969 3.88847656 -10.77148438 3.79882812 C-7.14918834 3.32174523 -3.57196415 2.76987965 0 2 C0 1.34 0 0.68 0 0 Z " fill="#83B47B" transform="translate(401,560)"/>
<path d="M0 0 C0.84365112 0.04543945 0.84365112 0.04543945 1.7043457 0.09179688 C24.13110841 1.24381867 46.55091437 1.10078675 69 1 C69 1.33 69 1.66 69 2 C67.35 2 65.7 2 64 2 C63.67 2.99 63.34 3.98 63 5 C50.9398414 6.00957508 39.08529463 5.96741967 27 5.5625 C25.24220787 5.50909091 23.48439522 5.45635301 21.7265625 5.40429688 C17.48409953 5.27723437 13.24201471 5.14120837 9 5 C8.67 4.01 8.34 3.02 8 2 C5.03 2 2.06 2 -1 2 C-0.67 1.34 -0.34 0.68 0 0 Z " fill="#D6D4D2" transform="translate(309,591)"/>
<path d="M0 0 C0.99 0.33 1.98 0.66 3 1 C2.21625 1.70125 1.4325 2.4025 0.625 3.125 C-8.48392297 13.10143944 -5.05883321 34.34905914 -5.00976562 47.01123047 C-4.9836249 61.19867701 -5.09291794 75.38352 -5.21875 89.5703125 C-5.24126691 92.20116088 -5.26368521 94.8320101 -5.28601074 97.46286011 C-5.33824914 103.59958923 -5.39159733 109.73630813 -5.4453826 115.87302387 C-5.50673424 122.87953186 -5.56679028 129.88605078 -5.62675762 136.89257073 C-5.74976821 151.26172607 -5.8743404 165.63086759 -6 180 C-6.33 180 -6.66 180 -7 180 C-7.09348788 158.10334407 -7.16400108 136.2067211 -7.20724869 114.30990601 C-7.22786405 104.14257125 -7.25596508 93.97536058 -7.30175781 83.80810547 C-7.34165693 74.94516192 -7.36744027 66.08230825 -7.37635398 57.21927738 C-7.38156351 52.52738886 -7.39378646 47.83575745 -7.42292023 43.14395142 C-7.45013791 38.72477396 -7.45843218 34.30595872 -7.45243073 29.8867054 C-7.45352813 28.26781303 -7.46144422 26.64890813 -7.4768219 25.03008842 C-7.63233306 7.80977265 -7.63233306 7.80977265 -1.36505508 1.3024292 C-0.91458691 0.87262756 -0.46411873 0.44282593 0 0 Z " fill="#CFCDCC" transform="translate(279,160)"/>
<path d="M0 0 C6.27 0 12.54 0 19 0 C19 3.66666667 19 7.33333333 19 11 C15.79299911 12.0690003 13.43007931 12.13332529 10.0625 12.125 C8.50208984 12.12886719 8.50208984 12.12886719 6.91015625 12.1328125 C4.42334029 12.01932023 2.36907593 11.71928571 0 11 C-0.72795155 6.79405774 -1.04973814 4.19895255 0 0 Z " fill="#A5A5A4" transform="translate(338,113)"/>
<path d="M0 0 C1.45922693 0.11409593 2.91740598 0.24165544 4.375 0.375 C5.59316406 0.47941406 5.59316406 0.47941406 6.8359375 0.5859375 C9 1 9 1 11 3 C5.555 2.505 5.555 2.505 0 2 C0 33.02 0 64.04 0 96 C-6 95 -6 95 -9 93 C-6.69 93 -4.38 93 -2 93 C-1.97683844 82.37761522 -1.95906541 71.75523645 -1.94818783 61.13283157 C-1.94296737 56.20052448 -1.93588485 51.26823466 -1.92456055 46.3359375 C-1.91370201 41.57676778 -1.90771685 36.81761468 -1.90512276 32.05843353 C-1.90327387 30.24194833 -1.89966352 28.42546404 -1.89426994 26.6089859 C-1.88702019 24.06645231 -1.88601073 21.52398756 -1.88647461 18.98144531 C-1.88287933 18.22906586 -1.87928406 17.4766864 -1.87557983 16.70150757 C-1.88230852 13.29738441 -2.07482029 10.27510228 -3 7 C-2.27272937 4.49778218 -1.13552032 2.36188227 0 0 Z " fill="#A6B99A" transform="translate(307,460)"/>
<path d="M0 0 C3.78345012 0.94586253 5.21642245 2.4932365 7.5 5.625 C8.18146602 8.64459943 7.96082318 10.45044029 7.5 13.625 C5.9375 15.6875 5.9375 15.6875 3.5 16.625 C0.09911697 16.50567077 -2.43097259 16.26641645 -5.375 14.5 C-7.19441423 11.46764294 -7.5 9.14633145 -7.5 5.625 C-5.2473603 2.51105689 -3.75999106 0.93999776 0 0 Z " fill="#DFDCD7" transform="translate(325.5,232.375)"/>
<path d="M0 0 C0.33 0 0.66 0 1 0 C1.33 43.89 1.66 87.78 2 133 C1.67 133 1.34 133 1 133 C1 130.36 1 127.72 1 125 C-1.12002275 125.95035503 -2.76643623 126.75923958 -4.39453125 128.4375 C-7.81786069 131.76920749 -12.26486447 133.85540537 -17 134.25 C-17.66 134.1675 -18.32 134.085 -19 134 C-19 134.66 -19 135.32 -19 136 C-20.32 136 -21.64 136 -23 136 C-23 135.34 -23 134.68 -23 134 C-18 132.33333333 -13 130.66666667 -8 129 C-8 128.34 -8 127.68 -8 127 C-7.071875 126.5978125 -7.071875 126.5978125 -6.125 126.1875 C-3.7004767 125.04443152 -3.7004767 125.04443152 -2 122 C-1.34 122 -0.68 122 0 122 C0 81.74 0 41.48 0 0 Z " fill="#ECEAEB" transform="translate(421,417)"/>
<path d="M0 0 C5.94 0.33 11.88 0.66 18 1 C17.67 2.65 17.34 4.3 17 6 C17.30404678 7.67225729 17.63128912 9.34080104 18 11 C17 12 17 12 13.18359375 12.09765625 C11.60153318 12.09098089 10.01948841 12.07901875 8.4375 12.0625 C7.63119141 12.05798828 6.82488281 12.05347656 5.99414062 12.04882812 C3.99606244 12.03700518 1.99802217 12.01906914 0 12 C-1.125 4.5 -1.125 4.5 0 0 Z M-1 12 C-0.34 12.66 0.32 13.32 1 14 C0.34 14 -0.32 14 -1 14 C-1 13.34 -1 12.68 -1 12 Z " fill="#C0C0C0" transform="translate(312,112)"/>
<path d="M0 0 C0 0.66 0 1.32 0 2 C-0.99 2 -1.98 2 -3 2 C-3 2.66 -3 3.32 -3 4 C-20.3300582 11.58190046 -41.37845824 12.36472456 -60.07128906 12.26074219 C-62.42277463 12.24977723 -64.77353378 12.26084728 -67.125 12.2734375 C-68.63281417 12.27211957 -70.1406279 12.26956482 -71.6484375 12.265625 C-72.69359024 12.27169769 -72.69359024 12.27169769 -73.75985718 12.27789307 C-77.40065751 12.24234204 -78.88157006 12.07895329 -82 10 C-80.91283691 9.98018066 -79.82567383 9.96036133 -78.70556641 9.93994141 C-74.57890902 9.86248356 -70.45254206 9.77401464 -66.32617188 9.68261719 C-64.55767651 9.6448944 -62.78911903 9.60995602 -61.02050781 9.578125 C-51.68730874 9.40823742 -42.4241566 9.08445491 -33.140625 8.0625 C-32.41944489 7.98327301 -31.69826477 7.90404602 -30.95523071 7.82241821 C-25.63230198 7.18462663 -20.52974584 6.0669639 -15.3828125 4.5859375 C-13 4 -13 4 -9 4 C-9 3.34 -9 2.68 -9 2 C-2.25 0 -2.25 0 0 0 Z " fill="#97C28F" transform="translate(411,549)"/>
<path d="M0 0 C1.093125 0.185625 2.18625 0.37125 3.3125 0.5625 C6.87124708 1.03573764 10.00667944 0.83175596 13.5625 0.375 C18.68318727 -0.20268199 21.52512904 0.51396058 26 3 C25.67 4.65 25.34 6.3 25 8 C19.06 8 13.12 8 7 8 C6.67 7.01 6.34 6.02 6 5 C6 5.66 6 6.32 6 7 C3.36 6.67 0.72 6.34 -2 6 C-1.34 4.02 -0.68 2.04 0 0 Z " fill="#B2B0AC" transform="translate(316,265)"/>
<path d="M0 0 C0.33 0.99 0.66 1.98 1 3 C1.66 3 2.32 3 3 3 C3 2.34 3 1.68 3 1 C5.97953359 1.14017826 8.95849304 1.28686342 11.9375 1.4375 C12.78763672 1.47681641 13.63777344 1.51613281 14.51367188 1.55664062 C15.72700195 1.61948242 15.72700195 1.61948242 16.96484375 1.68359375 C18.08814087 1.73858032 18.08814087 1.73858032 19.23413086 1.79467773 C21 2 21 2 22 3 C22.04063832 4.66617115 22.042721 6.33388095 22 8 C20.68 8 19.36 8 18 8 C17.38125 8.185625 16.7625 8.37125 16.125 8.5625 C13.19646508 9.16543366 10.88247432 8.70460483 8 8 C7.67 7.34 7.34 6.68 7 6 C6.67 6.66 6.34 7.32 6 8 C2.7 7.34 -0.6 6.68 -4 6 C-4 4.35 -4 2.7 -4 1 C-2.68 0.67 -1.36 0.34 0 0 Z " fill="#B9B8B1" transform="translate(317,306)"/>
<path d="M0 0 C1.98 0 3.96 0 6 0 C6 0.66 6 1.32 6 2 C7.65 2.33 9.3 2.66 11 3 C11.33 2.01 11.66 1.02 12 0 C16.29 0.33 20.58 0.66 25 1 C26 5 26 5 25 7 C22.06281233 7.19461488 19.12550068 7.38097593 16.1875 7.5625 C15.35412109 7.61857422 14.52074219 7.67464844 13.66210938 7.73242188 C12.85966797 7.78076172 12.05722656 7.82910156 11.23046875 7.87890625 C10.49207764 7.9260376 9.75368652 7.97316895 8.99291992 8.02172852 C7 8 7 8 4 7 C4 5.35 4 3.7 4 2 C3.34 2 2.68 2 2 2 C1.67 3.65 1.34 5.3 1 7 C0.67 7 0.34 7 0 7 C0 4.69 0 2.38 0 0 Z " fill="#B4B2AE" transform="translate(347,266)"/>
<path d="M0 0 C0.33 0 0.66 0 1 0 C0.99476318 1.30212433 0.98952637 2.60424866 0.98413086 3.9458313 C0.93998411 16.21742574 0.93778566 28.48840637 0.97665405 40.76002693 C0.99528894 47.06910597 0.99914577 53.37747294 0.96923828 59.68652344 C0.94091848 65.77530792 0.9514063 71.86290266 0.98880005 77.95162582 C0.99624642 80.27443061 0.98971022 82.59732369 0.96896362 84.92004776 C0.94228152 88.17476246 0.96532141 91.42561651 1 94.68017578 C0.98058853 95.64043167 0.96117706 96.60068756 0.94117737 97.59004211 C1.04630877 102.77663527 1.04630877 102.77663527 3.84765625 106.96953964 C5.83917672 108.47605301 7.81714102 109.79111588 10 111 C9.505 111.99 9.505 111.99 9 113 C1.79853642 109.56293784 1.79853642 109.56293784 -1 107 C-1.47657394 104.95979786 -1.47657394 104.95979786 -1.4430542 102.57710266 C-1.4401387 101.67266418 -1.43722321 100.76822571 -1.43421936 99.83638 C-1.41048752 98.84663681 -1.38675568 97.85689362 -1.36230469 96.8371582 C-1.35313522 95.79308807 -1.34396576 94.74901794 -1.33451843 93.67330933 C-1.29938957 90.21528109 -1.23572158 86.7583888 -1.171875 83.30078125 C-1.14198409 80.90612375 -1.11386928 78.51144346 -1.08746338 76.116745 C-1.0131144 69.80844765 -0.91458076 63.5007488 -0.81109619 57.19287109 C-0.70978468 50.75832517 -0.63122544 44.32350653 -0.55078125 37.88867188 C-0.38952088 25.25874678 -0.20349516 12.62931155 0 0 Z " fill="#9B9991" transform="translate(273,435)"/>
<path d="M0 0 C1.258125 -0.020625 2.51625 -0.04125 3.8125 -0.0625 C4.52019531 -0.07410156 5.22789062 -0.08570313 5.95703125 -0.09765625 C8 0 8 0 11 1 C11.33 1.66 11.66 2.32 12 3 C14.31 3 16.62 3 19 3 C19.042721 4.66611905 19.04063832 6.33382885 19 8 C17.28093353 9.71906647 14.97167136 9.45036917 12.625 9.6875 C11.64789063 9.79449219 10.67078125 9.90148437 9.6640625 10.01171875 C7 10 7 10 4 8 C4 7.01 4 6.02 4 5 C3.01 5 2.02 5 1 5 C0.67 5.66 0.34 6.32 0 7 C0 4.69 0 2.38 0 0 Z " fill="#B2B1AD" transform="translate(336,277)"/>
<path d="M0 0 C1.79379098 0.44994757 3.58498928 0.91024143 5.375 1.375 C6.37273437 1.63023438 7.37046875 1.88546875 8.3984375 2.1484375 C11 3 11 3 13 5 C13 8 13 8 10.9375 10.125 C7.5286257 12.30087721 5.0093116 12.76869356 1 13 C0 12 0 12 -0.09765625 9.27734375 C-0.08605469 8.17519531 -0.07445312 7.07304687 -0.0625 5.9375 C-0.05347656 4.83277344 -0.04445313 3.72804687 -0.03515625 2.58984375 C-0.02355469 1.73519531 -0.01195312 0.88054687 0 0 Z " fill="#DCDCD9" transform="translate(387,126)"/>
<path d="M0 0 C1.8871875 0.0309375 1.8871875 0.0309375 3.8125 0.0625 C3.8125 0.3925 3.8125 0.7225 3.8125 1.0625 C-12.82136618 5.95481358 -29.61515744 6.35837723 -46.8125 6.1875 C-48.6093699 6.17743077 -50.40624539 6.16831202 -52.203125 6.16015625 C-56.5313925 6.13849937 -60.8593811 6.10419671 -65.1875 6.0625 C-65.1875 5.4025 -65.1875 4.7425 -65.1875 4.0625 C-63.920271 4.07821045 -63.920271 4.07821045 -62.62744141 4.09423828 C-46.9995236 4.26223468 -31.69456595 4.2894057 -16.1875 2.0625 C-13.85298774 1.81130609 -11.51797029 1.57029433 -9.18115234 1.34155273 C-5.93988901 0.88787113 -3.32595781 -0.0545239 0 0 Z " fill="#C5D3BE" transform="translate(394.1875,552.9375)"/>
<path d="M0 0 C0.66 0 1.32 0 2 0 C2 1.65 2 3.3 2 5 C2.66 5 3.32 5 4 5 C4 3.35 4 1.7 4 0 C8.66666667 0.66666667 13.33333333 1.33333333 18 2 C18.33 3.98 18.66 5.96 19 8 C6.33029613 8.18451025 6.33029613 8.18451025 1 7 C0.67 4.69 0.34 2.38 0 0 Z " fill="#A1A09A" transform="translate(314,276)"/>
<path d="M0 0 C1.65 0.33 3.3 0.66 5 1 C1.63810342 3.24126438 -1.58135418 4.09014492 -5.4375 5.0625 C-6.10587891 5.23587891 -6.77425781 5.40925781 -7.46289062 5.58789062 C-9.30697321 6.06490307 -11.15340947 6.53279035 -13 7 C-13.65742188 7.19464844 -14.31484375 7.38929688 -14.9921875 7.58984375 C-18.85814329 8.3795818 -22.84118785 8.40673447 -26.77539062 8.60546875 C-30.17877167 8.51170272 -30.17877167 8.51170272 -33 10 C-35.8843382 10.08865208 -38.74462158 10.11521296 -41.62890625 10.09765625 C-42.92525246 10.09553383 -42.92525246 10.09553383 -44.24778748 10.09336853 C-47.01939292 10.08775239 -49.7909188 10.07519719 -52.5625 10.0625 C-54.4368478 10.05748708 -56.31119685 10.05292381 -58.18554688 10.04882812 C-62.79039544 10.03777772 -67.39518421 10.0205023 -72 10 C-72 9.67 -72 9.34 -72 9 C-71.02651611 8.97494385 -70.05303223 8.9498877 -69.05004883 8.92407227 C-65.42508653 8.82962722 -61.80029934 8.72949833 -58.17553711 8.62768555 C-56.60917264 8.58447661 -55.04276533 8.54279209 -53.47631836 8.50268555 C-51.2197582 8.44464129 -48.96341092 8.38104698 -46.70703125 8.31640625 C-46.01100296 8.29969376 -45.31497467 8.28298126 -44.59785461 8.26576233 C-40.95268112 8.15565631 -37.55598156 7.79366284 -34 7 C-31.56494763 6.78301513 -29.12698616 6.59709255 -26.6875 6.4375 C-24.80611328 6.31181641 -24.80611328 6.31181641 -22.88671875 6.18359375 C-21.93410156 6.12300781 -20.98148437 6.06242188 -20 6 C-20 5.67 -20 5.34 -20 5 C-18.97519531 4.86722656 -17.95039063 4.73445312 -16.89453125 4.59765625 C-15.5338426 4.41935912 -14.17316615 4.24096877 -12.8125 4.0625 C-12.13896484 3.97548828 -11.46542969 3.88847656 -10.77148438 3.79882812 C-7.14918834 3.32174523 -3.57196415 2.76987965 0 2 C0 1.34 0 0.68 0 0 Z " fill="#9DC693" transform="translate(401,560)"/>
<path d="M0 0 C-0.33 0.99 -0.66 1.98 -1 3 C-0.34 3.66 0.32 4.32 1 5 C-2.39768868 6.03158741 -5.52139963 6.13377596 -9.0625 6.125 C-10.62677734 6.12886719 -10.62677734 6.12886719 -12.22265625 6.1328125 C-15 6 -15 6 -18 5 C-17.67 3.35 -17.34 1.7 -17 0 C-15.88625 0.020625 -14.7725 0.04125 -13.625 0.0625 C-1.06164384 -0.15410959 -1.06164384 -0.15410959 0 0 Z " fill="#EBEBEA" transform="translate(356,108)"/>
<path d="M0 0 C3.40219909 1.62840299 6.16821057 3.48285384 9 6 C9 6.66 9 7.32 9 8 C8.01 8.495 8.01 8.495 7 9 C7.19584825 10.94446582 7.19584825 10.94446582 8 13 C9.81017323 14.27186799 9.81017323 14.27186799 12 15.125 C15.90660592 16.81321185 15.90660592 16.81321185 17 19 C14.69 18.67 12.38 18.34 10 18 C10 17.34 10 16.68 10 16 C9.0925 15.773125 8.185 15.54625 7.25 15.3125 C3.3534476 13.7388923 2.03311178 12.67524052 0 9 C-0.31543486 5.96775518 -0.23809056 3.03565462 0 0 Z " fill="#33762D" transform="translate(272,542)"/>
<path d="M0 0 C1.45922693 0.11409593 2.91740598 0.24165544 4.375 0.375 C5.59316406 0.47941406 5.59316406 0.47941406 6.8359375 0.5859375 C9 1 9 1 11 3 C7.37 2.67 3.74 2.34 0 2 C0.01160156 3.37285156 0.02320313 4.74570312 0.03515625 6.16015625 C0.12974758 23.12747691 -0.36863718 40.04723659 -1 57 C-1.33 57 -1.66 57 -2 57 C-1.99777939 56.43259094 -1.99555878 55.86518188 -1.99327087 55.28057861 C-1.97115016 49.3758609 -1.95606499 43.47115495 -1.94506836 37.56640625 C-1.94003912 35.36262534 -1.93321495 33.15884778 -1.92456055 30.95507812 C-1.9124334 27.78775204 -1.90675759 24.62047006 -1.90234375 21.453125 C-1.89718246 20.46757629 -1.89202118 19.48202759 -1.88670349 18.46661377 C-1.88659019 17.08563507 -1.88659019 17.08563507 -1.88647461 15.67675781 C-1.884254 14.8684552 -1.88203339 14.06015259 -1.87974548 13.22735596 C-1.99854304 11.02698577 -2.46652206 9.12907731 -3 7 C-2.27272937 4.49778218 -1.13552032 2.36188227 0 0 Z " fill="#B4BCA7" transform="translate(307,460)"/>
<path d="M0 0 C0.33 0.99 0.66 1.98 1 3 C1.66 3 2.32 3 3 3 C3 2.34 3 1.68 3 1 C5.60444348 0.94605295 8.20776998 0.90635531 10.8125 0.875 C11.55048828 0.85824219 12.28847656 0.84148437 13.04882812 0.82421875 C16.91246426 0.78925372 18.70903668 0.80602445 22 3 C22 3.99 22 4.98 22 6 C19.45826023 6.02716824 16.91681585 6.04691969 14.375 6.0625 C13.30572266 6.07506836 13.30572266 6.07506836 12.21484375 6.08789062 C8.02655562 6.10710296 4.1271538 5.8267327 0 5 C0 3.35 0 1.7 0 0 Z " fill="#B1B0AA" transform="translate(314,286)"/>
<path d="M0 0 C0.33 0 0.66 0 1 0 C1.144375 0.763125 1.28875 1.52625 1.4375 2.3125 C1.9632594 5.08172908 1.9632594 5.08172908 3 8 C2.67 8.66 2.34 9.32 2 10 C1.84824451 11.59262066 1.75099675 13.19064856 1.68359375 14.7890625 C1.64169922 15.73007812 1.59980469 16.67109375 1.55664062 17.640625 C1.51732422 18.62546875 1.47800781 19.6103125 1.4375 20.625 C1.39431641 21.61757813 1.35113281 22.61015625 1.30664062 23.6328125 C1.20038931 26.08839838 1.09835036 28.54408703 1 31 C1.66 31 2.32 31 3 31 C2.67 34.3 2.34 37.6 2 41 C3.32 41.33 4.64 41.66 6 42 C4.515 42.495 4.515 42.495 3 43 C1.67713754 47.96073422 1.91106803 52.91111512 2 58 C1.34 58 0.68 58 0 58 C0 38.86 0 19.72 0 0 Z " fill="#D2D1C6" transform="translate(310,264)"/>
<path d="M0 0 C3.78345012 0.94586253 5.21642245 2.4932365 7.5 5.625 C8.18146602 8.64459943 7.96082318 10.45044029 7.5 13.625 C5.9375 15.6875 5.9375 15.6875 3.5 16.625 C0.09911697 16.50567077 -2.43097259 16.26641645 -5.375 14.5 C-7.19441423 11.46764294 -7.5 9.14633145 -7.5 5.625 C-5.2473603 2.51105689 -3.75999106 0.93999776 0 0 Z M-4.5 4.625 C-4.72918242 8.64157143 -4.72918242 8.64157143 -4.5 12.625 C-2.61499729 14.94063087 -2.61499729 14.94063087 0.5 14.875 C3.61499729 14.94063087 3.61499729 14.94063087 5.5 12.625 C5.84490322 8.57238713 5.80163882 7.07745824 3.5 3.625 C-0.80733607 2.99698361 -0.80733607 2.99698361 -4.5 4.625 Z " fill="#777570" transform="translate(325.5,232.375)"/>
<path d="M0 0 C-0.33 0.99 -0.66 1.98 -1 3 C-13.0601586 4.00957508 -24.91470537 3.96741967 -37 3.5625 C-38.75779213 3.50909091 -40.51560478 3.45635301 -42.2734375 3.40429688 C-46.51590047 3.27723437 -50.75798529 3.14120837 -55 3 C-55 2.67 -55 2.34 -55 2 C-47.64936382 1.71436229 -40.29869332 1.42962066 -32.94799805 1.14550781 C-30.4463624 1.04871012 -27.94473475 0.9517058 -25.44311523 0.85449219 C-21.85142046 0.7149536 -18.2596978 0.57615336 -14.66796875 0.4375 C-12.98503975 0.37187866 -12.98503975 0.37187866 -11.26811218 0.30493164 C-9.70683342 0.24486938 -9.70683342 0.24486938 -8.11401367 0.18359375 C-6.7383448 0.13029907 -6.7383448 0.13029907 -5.33488464 0.07592773 C-3.55734927 0.01812435 -1.77847498 0 0 0 Z " fill="#E0DEDE" transform="translate(373,593)"/>
<path d="M0 0 C0.33 0.99 0.66 1.98 1 3 C1.99 2.34 2.98 1.68 4 1 C6.26171875 0.8046875 6.26171875 0.8046875 8.6875 0.875 C9.89986328 0.90207031 9.89986328 0.90207031 11.13671875 0.9296875 C12.05904297 0.96449219 12.05904297 0.96449219 13 1 C13.33 1.99 13.66 2.98 14 4 C13.01 4.33 12.02 4.66 11 5 C11.99 5.66 12.98 6.32 14 7 C11.56242587 7.02698422 9.12515085 7.04683099 6.6875 7.0625 C5.99720703 7.07087891 5.30691406 7.07925781 4.59570312 7.08789062 C1.4516975 7.10307906 -0.99420019 7.00193327 -4 6 C-4 4.35 -4 2.7 -4 1 C-2.68 0.67 -1.36 0.34 0 0 Z " fill="#E2E3E1" transform="translate(316,106)"/>
<path d="M0 0 C0.66 0 1.32 0 2 0 C2 2.31 2 4.62 2 7 C4.64 7 7.28 7 10 7 C10 5.02 10 3.04 10 1 C10.66 1 11.32 1 12 1 C12 5.95 12 10.9 12 16 C11.34 16 10.68 16 10 16 C10 13.69 10 11.38 10 9 C7.36 9 4.72 9 2 9 C2 11.31 2 13.62 2 16 C1.34 16 0.68 16 0 16 C0 10.72 0 5.44 0 0 Z " fill="#84837F" transform="translate(338,234)"/>
<path d="M0 0 C0.66 0.33 1.32 0.66 2 1 C1.505 1.45375 1.01 1.9075 0.5 2.375 C-1.22609337 3.87635519 -1.22609337 3.87635519 -1 6 C-0.01 6.66 0.98 7.32 2 8 C0.68 8 -0.64 8 -2 8 C-2 14.6 -2 21.2 -2 28 C-8.75 30.25 -8.75 30.25 -13 30 C-10.23776722 27.23776722 -7.79293383 27.42143709 -4 27 C-4.01047363 26.35450195 -4.02094727 25.70900391 -4.03173828 25.04394531 C-4.07337272 22.11266998 -4.09934975 19.18145696 -4.125 16.25 C-4.14175781 15.23421875 -4.15851563 14.2184375 -4.17578125 13.171875 C-4.18222656 12.1921875 -4.18867188 11.2125 -4.1953125 10.203125 C-4.20578613 9.30239258 -4.21625977 8.40166016 -4.22705078 7.47363281 C-3.98381993 4.82372419 -3.42939958 3.23159444 -2 1 C-1.34 0.67 -0.68 0.34 0 0 Z " fill="#D7D5D2" transform="translate(297,129)"/>
<path d="M0 0 C2.64 0.66 5.28 1.32 8 2 C7.33333333 4.66666667 6.66666667 7.33333333 6 10 C6 9.34 6 8.68 6 8 C3.69 8 1.38 8 -1 8 C-1.33 8.66 -1.66 9.32 -2 10 C-2 8.68 -2 7.36 -2 6 C-3.32 5.67 -4.64 5.34 -6 5 C-6 4.34 -6 3.68 -6 3 C-4.02 2.67 -2.04 2.34 0 2 C0 1.34 0 0.68 0 0 Z " fill="#E3E2DE" transform="translate(349,272)"/>
<path d="M0 0 C0.33 0.99 0.66 1.98 1 3 C9.35263176 3.95458649 17.59784035 4.11039334 26 4 C25.67 4.66 25.34 5.32 25 6 C14.605 6.495 14.605 6.495 4 7 C3.34 8.65 2.68 10.3 2 12 C2.99 12.33 3.98 12.66 5 13 C3.35 12.67 1.7 12.34 0 12 C-0.19573608 10.56359829 -0.38127816 9.12580496 -0.5625 7.6875 C-0.66691406 6.88699219 -0.77132813 6.08648437 -0.87890625 5.26171875 C-1 3 -1 3 0 0 Z " fill="#CACBC8" transform="translate(330,120)"/>
<path d="M0 0 C0.71027344 0.08378906 1.42054688 0.16757813 2.15234375 0.25390625 C3.53099609 0.40666016 3.53099609 0.40666016 4.9375 0.5625 C5.85402344 0.66691406 6.77054687 0.77132812 7.71484375 0.87890625 C8.84599609 0.93884766 8.84599609 0.93884766 10 1 C10.33 0.67 10.66 0.34 11 0 C12.99958364 -0.04080783 15.00045254 -0.04254356 17 0 C17.33 1.65 17.66 3.3 18 5 C12.65370398 6.0024305 8.37625234 5.84888195 3 5 C3 4.34 3 3.68 3 3 C1.68 3.33 0.36 3.66 -1 4 C-0.67 2.68 -0.34 1.36 0 0 Z " fill="#E0E0DD" transform="translate(368,119)"/>
<path d="M0 0 C2.97 0 5.94 0 9 0 C9 0.66 9 1.32 9 2 C6.69 2 4.38 2 2 2 C2 3.32 2 4.64 2 6 C4.31 6 6.62 6 9 6 C9 6.33 9 6.66 9 7 C6.69 7 4.38 7 2 7 C2 9.31 2 11.62 2 14 C5.465 13.505 5.465 13.505 9 13 C9 13.99 9 14.98 9 16 C6.03 16 3.06 16 0 16 C0 10.72 0 5.44 0 0 Z " fill="#7E7D7A" transform="translate(371,234)"/>
<path d="M0 0 C11.36783648 -0.16938829 22.65384417 0.36077995 34 1 C34 1.66 34 2.32 34 3 C6.97547617 3.24685133 6.97547617 3.24685133 1 2 C0.67 1.34 0.34 0.68 0 0 Z " fill="#BBB9B6" transform="translate(322,590)"/>
<path d="M0 0 C2.12472576 -0.05386629 4.24983652 -0.09273071 6.375 -0.125 C7.55835938 -0.14820313 8.74171875 -0.17140625 9.9609375 -0.1953125 C13 0 13 0 15 2 C13.824375 2.0928125 13.824375 2.0928125 12.625 2.1875 C11.75875 2.455625 10.8925 2.72375 10 3 C9.67 3.825 9.34 4.65 9 5.5 C8 8 8 8 5.9375 8.9375 C1.77996575 9.02595818 -1.99692134 8.05527782 -6 7 C-6 6.67 -6 6.34 -6 6 C-2.7 5.67 0.6 5.34 4 5 C4 5.66 4 6.32 4 7 C4.99 7 5.98 7 7 7 C7 5.68 7 4.36 7 3 C4.69 2.67 2.38 2.34 0 2 C0 1.34 0 0.68 0 0 Z " fill="#DDDBD6" transform="translate(320,293)"/>
<path d="M0 0 C1.32 0 2.64 0 4 0 C4 3.63 4 7.26 4 11 C3.67 11 3.34 11 3 11 C3 8.36 3 5.72 3 3 C0.87997725 3.95035503 -0.76643623 4.75923958 -2.39453125 6.4375 C-5.81786069 9.76920749 -10.26486447 11.85540537 -15 12.25 C-15.66 12.1675 -16.32 12.085 -17 12 C-17 12.66 -17 13.32 -17 14 C-18.32 14 -19.64 14 -21 14 C-21 13.34 -21 12.68 -21 12 C-16 10.33333333 -11 8.66666667 -6 7 C-6 6.34 -6 5.68 -6 5 C-5.38125 4.731875 -4.7625 4.46375 -4.125 4.1875 C-1.7004767 3.04443152 -1.7004767 3.04443152 0 0 Z " fill="#CCDEC5" transform="translate(419,539)"/>
<path d="M0 0 C0.66 0 1.32 0 2 0 C2.33 1.65 2.66 3.3 3 5 C3.598125 4.484375 4.19625 3.96875 4.8125 3.4375 C5.534375 2.963125 6.25625 2.48875 7 2 C7.99 2.33 8.98 2.66 10 3 C7.03 5.475 7.03 5.475 4 8 C5.2065625 9.1446875 5.2065625 9.1446875 6.4375 10.3125 C9 13 9 13 10 16 C7.50638429 14.79618552 5.31856917 13.54571278 3 12 C2.67 12.99 2.34 13.98 2 15 C1.34 15 0.68 15 0 15 C0 10.05 0 5.1 0 0 Z " fill="#7B7871" transform="translate(305,231)"/>
<path d="M0 0 C0 1.32 0 2.64 0 4 C-2.9331358 4.97771193 -4.88178994 5.13419011 -7.9375 5.125 C-9.21947266 5.12886719 -9.21947266 5.12886719 -10.52734375 5.1328125 C-12.82680852 5.00930254 -14.79640348 4.64420687 -17 4 C-17 3.01 -17 2.02 -17 1 C-14.72926348 0.83201949 -12.45840707 0.66565887 -10.1875 0.5 C-8.29064453 0.36078125 -8.29064453 0.36078125 -6.35546875 0.21875 C-4.24021483 0.08085219 -2.11974408 0 0 0 Z " fill="#4B4B4B" transform="translate(356,113)"/>
<path d="M0 0 C0.66 0.33 1.32 0.66 2 1 C1.67 1.66 1.34 2.32 1 3 C0.34 3 -0.32 3 -1 3 C-1 3.66 -1 4.32 -1 5 C-3.22582389 5.84334329 -5.45496026 6.67478551 -7.6875 7.5 C-8.62625977 7.85771484 -8.62625977 7.85771484 -9.58398438 8.22265625 C-13.18192299 9.5412725 -16.16520253 10.29329235 -20 10 C-20 8.68 -20 7.36 -20 6 C-19.34 6 -18.68 6 -18 6 C-17.67 6.33 -17.34 6.66 -17 7 C-16.01 6.34 -15.02 5.68 -14 5 C-8.47887324 3.76056338 -8.47887324 3.76056338 -6 5 C-6 4.34 -6 3.68 -6 3 C-4.03533587 1.93224776 -2.03144641 0.93446535 0 0 Z " fill="#D4D5D2" transform="translate(408,579)"/>
<path d="M0 0 C5.61 0 11.22 0 17 0 C16.34 1.32 15.68 2.64 15 4 C13.06257659 4.02703381 11.12504521 4.04641125 9.1875 4.0625 C8.10855469 4.07410156 7.02960938 4.08570312 5.91796875 4.09765625 C3 4 3 4 0 3 C0 2.01 0 1.02 0 0 Z " fill="#181818" transform="translate(313,113)"/>
<path d="M0 0 C5.61 0 11.22 0 17 0 C16.67 1.32 16.34 2.64 16 4 C11.05 4 6.1 4 1 4 C0.67 2.68 0.34 1.36 0 0 Z " fill="#333332" transform="translate(313,120)"/>
<path d="M0 0 C0.33 0.66 0.66 1.32 1 2 C0.34 2 -0.32 2 -1 2 C-1.33 3.32 -1.66 4.64 -2 6 C0.475 6.99 0.475 6.99 3 8 C3 6.35 3 4.7 3 3 C3.99 3 4.98 3 6 3 C6.33 5.64 6.66 8.28 7 11 C3.25 14 3.25 14 1 14 C1 12.68 1 11.36 1 10 C-0.28118697 8.45039499 -0.28118697 8.45039499 -2 7.25 C-2.99 6.5075 -3.98 5.765 -5 5 C-3.35 3.35 -1.7 1.7 0 0 Z " fill="#D1CEC8" transform="translate(313,235)"/>
<path d="M0 0 C2.64 0 5.28 0 8 0 C8 1.98 8 3.96 8 6 C6.68 6.33 5.36 6.66 4 7 C4.825 7.78375 5.65 8.5675 6.5 9.375 C9 12 9 12 9 14 C6.50638429 12.79618552 4.31856917 11.54571278 2 10 C1.34 11.32 0.68 12.64 0 14 C0 11.69 0 9.38 0 7 C0.804375 6.731875 1.60875 6.46375 2.4375 6.1875 C3.283125 5.795625 4.12875 5.40375 5 5 C5.33 4.01 5.66 3.02 6 2 C4.02 2 2.04 2 0 2 C0 1.34 0 0.68 0 0 Z " fill="#838381" transform="translate(386,233)"/>
<path d="M0 0 C1.68814237 0.11600255 3.37550887 0.24331025 5.0625 0.375 C6.00222656 0.44460938 6.94195312 0.51421875 7.91015625 0.5859375 C11 1 11 1 14.3125 2 C18.57612689 3.1562378 22.54398806 3.44429 26.9375 3.625 C27.71673828 3.66367187 28.49597656 3.70234375 29.29882812 3.7421875 C31.19887379 3.83544127 33.09940278 3.91875962 35 4 C35 4.33 35 4.66 35 5 C10.12317518 7.36313869 10.12317518 7.36313869 0 1 C0 0.67 0 0.34 0 0 Z " fill="#A3B598" transform="translate(294,564)"/>
<path d="M0 0 C-6.67629145 5.87513647 -18.38176293 7.21778938 -27 7 C-27 6.34 -27 5.68 -27 5 C-23.43955555 4.15771542 -19.87634656 3.32776097 -16.3125 2.5 C-14.80139648 2.14228516 -14.80139648 2.14228516 -13.25976562 1.77734375 C-12.28330078 1.55175781 -11.30683594 1.32617188 -10.30078125 1.09375 C-9.40528564 0.88427734 -8.50979004 0.67480469 -7.5871582 0.45898438 C-5.00030935 0.00005488 -2.62111026 -0.08261971 0 0 Z " fill="#D7E3D0" transform="translate(406,563)"/>
<path d="M0 0 C2.31 0 4.62 0 7 0 C7.042721 1.66611905 7.04063832 3.33382885 7 5 C5.26043342 6.73956658 2.8063378 6.37190386 0.4375 6.5625 C-1.08037109 6.68818359 -1.08037109 6.68818359 -2.62890625 6.81640625 C-3.41136719 6.87699219 -4.19382812 6.93757813 -5 7 C-5.33 6.34 -5.66 5.68 -6 5 C-5.34 5 -4.68 5 -4 5 C-3.67 3.68 -3.34 2.36 -3 1 C-3 2.32 -3 3.64 -3 5 C-2.34 5 -1.68 5 -1 5 C-0.67 3.35 -0.34 1.7 0 0 Z " fill="#D3D2CE" transform="translate(348,280)"/>
<path d="M0 0 C1.8871875 0.0309375 1.8871875 0.0309375 3.8125 0.0625 C3.8125 0.3925 3.8125 0.7225 3.8125 1.0625 C1.95953165 1.54627991 0.10505559 2.02428636 -1.75 2.5 C-2.78253906 2.76683594 -3.81507813 3.03367187 -4.87890625 3.30859375 C-11.69677749 4.86213466 -18.17070791 5.19374966 -25.125 5.125 C-25.99962891 5.12048828 -26.87425781 5.11597656 -27.77539062 5.11132812 C-29.91279047 5.09964834 -32.05015463 5.08171689 -34.1875 5.0625 C-34.1875 4.7325 -34.1875 4.4025 -34.1875 4.0625 C-31.375 3.75 -28.5625 3.4375 -25.75 3.125 C-24.5753418 2.99448242 -24.5753418 2.99448242 -23.37695312 2.86132812 C-22.20229492 2.73081055 -22.20229492 2.73081055 -21.00390625 2.59765625 C-20.21258301 2.50887207 -19.42125977 2.42008789 -18.60595703 2.32861328 C-16.96704614 2.14827683 -15.32734698 1.9749898 -13.68701172 1.80810547 C-12.49422607 1.68459717 -12.49422607 1.68459717 -11.27734375 1.55859375 C-10.56312256 1.48697021 -9.84890137 1.41534668 -9.11303711 1.34155273 C-5.89233064 0.87480144 -3.30743173 -0.05422019 0 0 Z " fill="#D2E2CE" transform="translate(394.1875,552.9375)"/>
<path d="M0 0 C0.99 1.485 0.99 1.485 2 3 C4.3942528 6.19233706 6.60980832 8.8528786 10 11 C10.66 11 11.32 11 12 11 C12 11.66 12 12.32 12 13 C12.8971875 13.1546875 12.8971875 13.1546875 13.8125 13.3125 C16.29983964 14.09423531 17.24696028 15.1264074 19 17 C17.5608866 16.71640113 16.12374482 16.42278601 14.6875 16.125 C13.88699219 15.96257813 13.08648437 15.80015625 12.26171875 15.6328125 C10 15 10 15 7 13 C7 12.34 7 11.68 7 11 C6.360625 10.731875 5.72125 10.46375 5.0625 10.1875 C3 9 3 9 2 6 C1.34 6 0.68 6 0 6 C0 4.02 0 2.04 0 0 Z " fill="#B5B4AF" transform="translate(273,567)"/>
<path d="M0 0 C0.99 0.33 1.98 0.66 3 1 C2.67 1.99 2.34 2.98 2 4 C2.66 4 3.32 4 4 4 C3.67 5.32 3.34 6.64 3 8 C0.03 7.505 0.03 7.505 -3 7 C-3 8.65 -3 10.3 -3 12 C-3.33 12 -3.66 12 -4 12 C-4 10.02 -4 8.04 -4 6 C-4.66 6 -5.32 6 -6 6 C-5.67 4.35 -5.34 2.7 -5 1 C-3.02 1.66 -1.04 2.32 1 3 C0.67 2.01 0.34 1.02 0 0 Z " fill="#D4D3CF" transform="translate(321,269)"/>
<path d="M0 0 C7.75 0.75 7.75 0.75 10 3 C9.625 5.625 9.625 5.625 9 8 C8.34 8 7.68 8 7 8 C6.67 7.01 6.34 6.02 6 5 C6 5.66 6 6.32 6 7 C3.36 6.67 0.72 6.34 -2 6 C-1.34 4.02 -0.68 2.04 0 0 Z " fill="#A5A49D" transform="translate(316,265)"/>
<path d="M0 0 C2.31 0 4.62 0 7 0 C7.33 1.98 7.66 3.96 8 6 C4.04 6 0.08 6 -4 6 C-3.67 4.68 -3.34 3.36 -3 2 C-2.360625 2.185625 -1.72125 2.37125 -1.0625 2.5625 C-0.381875 2.706875 0.29875 2.85125 1 3 C1.33 2.67 1.66 2.34 2 2 C1.34 1.34 0.68 0.68 0 0 Z " fill="#BBBAB4" transform="translate(325,278)"/>
<path d="M0 0 C5.61 0 11.22 0 17 0 C17 0.99 17 1.98 17 3 C14.28344597 4.35827701 12.09210594 4.1323445 9.0625 4.125 C8.00160156 4.12757812 6.94070313 4.13015625 5.84765625 4.1328125 C3 4 3 4 0 3 C0 2.01 0 1.02 0 0 Z " fill="#191917" transform="translate(339,121)"/>
<path d="M0 0 C0.33 0 0.66 0 1 0 C1 4.62 1 9.24 1 14 C1.66 14 2.32 14 3 14 C3 12.35 3 10.7 3 9 C3.33 9.66 3.66 10.32 4 11 C6.01669827 12.13350534 6.01669827 12.13350534 8 13 C8 13.99 8 14.98 8 16 C5.36 15.67 2.72 15.34 0 15 C-1.64361263 10.84262689 -2.24838516 8.3126033 -1 4 C-0.814375 3.236875 -0.62875 2.47375 -0.4375 1.6875 C-0.293125 1.130625 -0.14875 0.57375 0 0 Z " fill="#C8C4BC" transform="translate(304,232)"/>
<path d="M0 0 C0.99 0.33 1.98 0.66 3 1 C2.21625 1.70125 1.4325 2.4025 0.625 3.125 C-4.8510418 9.12256959 -4.39664856 16.14910955 -4.625 23.875 C-4.66367187 24.94492188 -4.70234375 26.01484375 -4.7421875 27.1171875 C-4.83602452 29.74462408 -4.92171557 32.37206171 -5 35 C-5.33 35 -5.66 35 -6 35 C-6.11651725 30.62522526 -6.18736 26.25085173 -6.25 21.875 C-6.28351563 20.6375 -6.31703125 19.4 -6.3515625 18.125 C-6.47346291 6.78826215 -6.47346291 6.78826215 -2 2 C-1.34 1.34 -0.68 0.68 0 0 Z " fill="#CBCAC6" transform="translate(279,160)"/>
<path d="M0 0 C0.33 0.99 0.66 1.98 1 3 C0.09636719 3.13277344 -0.80726563 3.26554687 -1.73828125 3.40234375 C-3.50751953 3.66724609 -3.50751953 3.66724609 -5.3125 3.9375 C-7.07013672 4.19853516 -7.07013672 4.19853516 -8.86328125 4.46484375 C-12.01641403 4.92093031 -12.01641403 4.92093031 -15 6 C-14.67 4.35 -14.34 2.7 -14 1 C-12.88625 1.020625 -11.7725 1.04125 -10.625 1.0625 C-6.80898902 0.99670671 -3.88602231 -0.10226374 0 0 Z " fill="#E1E1E0" transform="translate(353,107)"/>
<path d="M0 0 C1.76537109 0.13535156 1.76537109 0.13535156 3.56640625 0.2734375 C6.4375 0.625 6.4375 0.625 7.4375 1.625 C7.47813832 3.29117115 7.480221 4.95888095 7.4375 6.625 C5.4375 6.625 3.4375 6.625 1.4375 6.625 C1.7675 4.975 2.0975 3.325 2.4375 1.625 C1.179375 1.83125 -0.07875 2.0375 -1.375 2.25 C-4.9639758 2.83835669 -5.31323878 2.79117415 -8.5625 0.625 C-5.63604643 -0.83822678 -3.23644481 -0.26289453 0 0 Z " fill="#C4C3BE" transform="translate(331.5625,307.375)"/>
<path d="M0 0 C4.455 0.99 4.455 0.99 9 2 C8.67 3.65 8.34 5.3 8 7 C3.52599758 7.36275695 3.52599758 7.36275695 1.1875 5.75 C0 4 0 4 0 0 Z " fill="#B1B0AC" transform="translate(333,266)"/>
<path d="M0 0 C0.66 0 1.32 0 2 0 C2 3.96 2 7.92 2 12 C4.64 12 7.28 12 10 12 C10 12.66 10 13.32 10 14 C6.7 14 3.4 14 0 14 C0 9.38 0 4.76 0 0 Z " fill="#92918D" transform="translate(356,236)"/>
<path d="M0 0 C0 0.66 0 1.32 0 2 C-0.99 2 -1.98 2 -3 2 C-3 2.66 -3 3.32 -3 4 C-8.93661416 6.41862058 -14.68878497 7.9007105 -21 9 C-21 8.34 -21 7.68 -21 7 C-20.38511719 6.86722656 -19.77023437 6.73445312 -19.13671875 6.59765625 C-18.32847656 6.42105469 -17.52023437 6.24445312 -16.6875 6.0625 C-15.88699219 5.88847656 -15.08648437 5.71445312 -14.26171875 5.53515625 C-11.854599 5.00113841 -11.854599 5.00113841 -9 4 C-9 3.34 -9 2.68 -9 2 C-2.25 0 -2.25 0 0 0 Z " fill="#92C08B" transform="translate(411,549)"/>
<path d="M0 0 C0.33 1.32 0.66 2.64 1 4 C1.66 4 2.32 4 3 4 C3 3.01 3 2.02 3 1 C6.3 1.33 9.6 1.66 13 2 C13 3.32 13 4.64 13 6 C12.01 6 11.02 6 10 6 C10 5.34 10 4.68 10 4 C9.01 4.495 9.01 4.495 8 5 C5.3276379 5.13415472 2.67749512 5.04318541 0 5 C0 3.35 0 1.7 0 0 Z " fill="#A4A39D" transform="translate(314,294)"/>
<path d="M0 0 C-0.33 1.98 -0.66 3.96 -1 6 C-6.75 6.125 -6.75 6.125 -9 5 C-8.625 3.0625 -8.625 3.0625 -8 1 C-5.29120665 -0.35439668 -2.99066732 -0.06501451 0 0 Z " fill="#BAB9B4" transform="translate(334,309)"/>
<path d="M0 0 C0.33 0.66 0.66 1.32 1 2 C2.98 2 4.96 2 7 2 C6.67 3.32 6.34 4.64 6 6 C4.35 6.33 2.7 6.66 1 7 C1.33 9.64 1.66 12.28 2 15 C1.34 15 0.68 15 0 15 C0 10.05 0 5.1 0 0 Z " fill="#A7A7A5" transform="translate(385,233)"/>
<path d="M0 0 C1.953125 0.6796875 1.953125 0.6796875 4 2 C4.609375 4.3828125 4.609375 4.3828125 4.75 7.125 C4.80671875 8.03507813 4.8634375 8.94515625 4.921875 9.8828125 C4.94765625 10.58148437 4.9734375 11.28015625 5 12 C1.125 10.125 1.125 10.125 0 9 C-0.07179964 7.48071962 -0.08392007 5.95832518 -0.0625 4.4375 C-0.05347656 3.61121094 -0.04445313 2.78492188 -0.03515625 1.93359375 C-0.02355469 1.29550781 -0.01195312 0.65742187 0 0 Z " fill="#286223" transform="translate(272,542)"/>
<path d="M0 0 C2.97 0.495 2.97 0.495 6 1 C6 1.66 6 2.32 6 3 C7.32 3 8.64 3 10 3 C9.67 3.66 9.34 4.32 9 5 C5.7 5 2.4 5 -1 5 C-0.67 3.35 -0.34 1.7 0 0 Z " fill="#B0AEAA" transform="translate(330,295)"/>
<path d="M0 0 C2.31 0 4.62 0 7 0 C6.67 1.65 6.34 3.3 6 5 C1.48382401 5.07654536 -2.59085217 5.10228696 -7 4 C-7 3.67 -7 3.34 -7 3 C-6.28972656 2.93941406 -5.57945312 2.87882812 -4.84765625 2.81640625 C-3.46900391 2.69072266 -3.46900391 2.69072266 -2.0625 2.5625 C-1.14597656 2.48128906 -0.22945313 2.40007812 0.71484375 2.31640625 C2.96159732 2.23955024 2.96159732 2.23955024 4 1 C2.68 0.67 1.36 0.34 0 0 Z " fill="#C4C3BF" transform="translate(336,297)"/>
<path d="M0 0 C-0.33 0.99 -0.66 1.98 -1 3 C-2.65 3.33 -4.3 3.66 -6 4 C-6.33 5.98 -6.66 7.96 -7 10 C-7.99 9.67 -8.98 9.34 -10 9 C-9.51578947 3.55263158 -9.51578947 3.55263158 -7.25 1.125 C-4.63695229 -0.18152386 -2.88466476 -0.24038873 0 0 Z " fill="#8D8A84" transform="translate(328,233)"/>
<path d="M0 0 C0.66 0 1.32 0 2 0 C2.36666667 7.33333333 2.36666667 7.33333333 0.625 10.5 C-1 12 -1 12 -3 12 C-2.88541307 10.56163249 -2.75790884 9.12429034 -2.625 7.6875 C-2.55539062 6.88699219 -2.48578125 6.08648438 -2.4140625 5.26171875 C-2 3 -2 3 0 0 Z " fill="#6EA864" transform="translate(420,542)"/>
<path d="M0 0 C1.32 0.99 2.64 1.98 4 3 C4 3.66 4 4.32 4 5 C5.98 5.66 7.96 6.32 10 7 C9.67 7.99 9.34 8.98 9 10 C8.34 9.67 7.68 9.34 7 9 C7 8.34 7 7.68 7 7 C5.35 6.67 3.7 6.34 2 6 C2 8.64 2 11.28 2 14 C1.67 14 1.34 14 1 14 C0.67 9.38 0.34 4.76 0 0 Z " fill="#949E8A" transform="translate(272,551)"/>
<path d="M0 0 C1.7492214 -0.08142927 3.49954542 -0.13938541 5.25 -0.1875 C6.22453125 -0.22230469 7.1990625 -0.25710938 8.203125 -0.29296875 C11.37468742 0.03924798 12.67040307 0.88672279 15 3 C13.2507786 3.08142927 11.50045458 3.13938541 9.75 3.1875 C8.28820312 3.23970703 8.28820312 3.23970703 6.796875 3.29296875 C3.62531258 2.96075202 2.32959693 2.11327721 0 0 Z " fill="#779A69" transform="translate(285,561)"/>
<path d="M0 0 C-0.33 0.99 -0.66 1.98 -1 3 C-3.62450086 3.22119939 -6.24870486 3.42746669 -8.875 3.625 C-9.62136719 3.68945312 -10.36773437 3.75390625 -11.13671875 3.8203125 C-13.0870047 3.96087365 -15.04469467 3.98759849 -17 4 C-17.66 3.34 -18.32 2.68 -19 2 C-16.39610703 1.66440045 -13.7919239 1.33143142 -11.1875 1 C-10.44951172 0.90460937 -9.71152344 0.80921875 -8.95117188 0.7109375 C-5.94569605 0.33015323 -3.03285559 0 0 0 Z " fill="#E9E8E7" transform="translate(373,593)"/>
<path d="M0 0 C0.66 0 1.32 0 2 0 C2 1.65 2 3.3 2 5 C5.465 4.505 5.465 4.505 9 4 C9 4.99 9 5.98 9 7 C6.03 7 3.06 7 0 7 C0 4.69 0 2.38 0 0 Z " fill="#A2A09D" transform="translate(371,243)"/>
<path d="M0 0 C1.32 0.33 2.64 0.66 4 1 C4 3.97 4 6.94 4 10 C3.34 8.68 2.68 7.36 2 6 C0.02 6.99 0.02 6.99 -2 8 C-1.34 5.36 -0.68 2.72 0 0 Z M1 10 C3 11 3 11 3 11 Z " fill="#DFDDD9" transform="translate(352,145)"/>
<path d="M0 0 C0.33 0 0.66 0 1 0 C1.06058594 0.62648438 1.12117188 1.25296875 1.18359375 1.8984375 C1.26738281 2.71570313 1.35117187 3.53296875 1.4375 4.375 C1.55931641 5.59316406 1.55931641 5.59316406 1.68359375 6.8359375 C1.89090114 9.04272805 1.89090114 9.04272805 3 11 C0.69 10.67 -1.62 10.34 -4 10 C-4 9.34 -4 8.68 -4 8 C-3.01 8 -2.02 8 -1 8 C-1.020625 6.865625 -1.04125 5.73125 -1.0625 4.5625 C-1 1 -1 1 0 0 Z " fill="#E2E1DD" transform="translate(334,277)"/>
<path d="M0 0 C4.95 0 9.9 0 15 0 C14.34 1.32 13.68 2.64 13 4 C11.35 3.67 9.7 3.34 8 3 C8 2.34 8 1.68 8 1 C5.36 1 2.72 1 0 1 C0 0.67 0 0.34 0 0 Z " fill="#4C4C4C" transform="translate(315,113)"/>
<path d="M0 0 C1.0625 1.8125 1.0625 1.8125 2 4 C1.67 4.99 1.34 5.98 1 7 C-0.65 6.67 -2.3 6.34 -4 6 C-4 4.35 -4 2.7 -4 1 C-2.68 0.67 -1.36 0.34 0 0 Z " fill="#AEACA7" transform="translate(317,306)"/>
<path d="M0 0 C6.93 0.495 6.93 0.495 14 1 C14 1.66 14 2.32 14 3 C12.04174127 3.02694851 10.08337774 3.04637218 8.125 3.0625 C7.03445313 3.07410156 5.94390625 3.08570312 4.8203125 3.09765625 C2 3 2 3 0 2 C0 1.34 0 0.68 0 0 Z " fill="#F9F9F8" transform="translate(339,118)"/>
<path d="M0 0 C0 4.95 0 9.9 0 15 C-0.66 15 -1.32 15 -2 15 C-1.97679687 14.22914063 -1.95359375 13.45828125 -1.9296875 12.6640625 C-1.91164063 11.66117188 -1.89359375 10.65828125 -1.875 9.625 C-1.85179687 8.62726562 -1.82859375 7.62953125 -1.8046875 6.6015625 C-1.72783152 3.83737827 -1.72783152 3.83737827 -4 2 C-1 0 -1 0 0 0 Z " fill="#EDECEB" transform="translate(423,553)"/>
<path d="M0 0 C0.66 0.33 1.32 0.66 2 1 C-1.79692186 3.82561627 -4.18569279 5.56638908 -9 5 C-9 5.66 -9 6.32 -9 7 C-10.32 7 -11.64 7 -13 7 C-13 6.34 -13 5.68 -13 5 C-12.39671875 4.80664062 -11.7934375 4.61328125 -11.171875 4.4140625 C-10.37265625 4.15367187 -9.5734375 3.89328125 -8.75 3.625 C-7.96109375 3.36976563 -7.1721875 3.11453125 -6.359375 2.8515625 C-3.98216847 2.05806266 -3.98216847 2.05806266 -1.828125 0.8359375 C-1.22484375 0.56007813 -0.6215625 0.28421875 0 0 Z " fill="#DEE9DB" transform="translate(411,546)"/>
<path d="M0 0 C0.33 0 0.66 0 1 0 C1 2.31 1 4.62 1 7 C-2.75 8.125 -2.75 8.125 -5 7 C-4.67 5.35 -4.34 3.7 -4 2 C-4.66 1.67 -5.32 1.34 -6 1 C-5.01 1 -4.02 1 -3 1 C-3 1.99 -3 2.98 -3 4 C-2.34 4 -1.68 4 -1 4 C-0.67 2.68 -0.34 1.36 0 0 Z " fill="#D0CECA" transform="translate(346,266)"/>
<path d="M0 0 C0.33 1.32 0.66 2.64 1 4 C-3.95346987 5.59789351 -8.13282415 4.28306814 -13 3 C-13 2.67 -13 2.34 -13 2 C-9.7 1.67 -6.4 1.34 -3 1 C-3 1.66 -3 2.32 -3 3 C-2.01 3 -1.02 3 0 3 C0 2.01 0 1.02 0 0 Z " fill="#C5C4BE" transform="translate(327,297)"/>
<path d="M0 0 C0.33 0.99 0.66 1.98 1 3 C1.66 3 2.32 3 3 3 C3 2.34 3 1.68 3 1 C4.65 1 6.3 1 8 1 C8.33 1.99 8.66 2.98 9 4 C4.545 4.495 4.545 4.495 0 5 C0 3.35 0 1.7 0 0 Z " fill="#A3A19C" transform="translate(314,286)"/>
<path d="M0 0 C4.55712436 0.5425148 8.02568234 1.6893502 12 4 C12.33 4.66 12.66 5.32 13 6 C10.69 5.67 8.38 5.34 6 5 C6 4.34 6 3.68 6 3 C4.02 2.34 2.04 1.68 0 1 C0 0.67 0 0.34 0 0 Z " fill="#54844A" transform="translate(276,555)"/>
<path d="M0 0 C6.0546875 -0.1953125 6.0546875 -0.1953125 8 0 C8.66 0.66 9.32 1.32 10 2 C10.33 1.34 10.66 0.68 11 0 C11 0.99 11 1.98 11 3 C9.02 3.66 7.04 4.32 5 5 C5 4.34 5 3.68 5 3 C2.525 2.01 2.525 2.01 0 1 C0 0.67 0 0.34 0 0 Z " fill="#BAB9B4" transform="translate(298,586)"/>
<path d="M0 0 C1.32 0.66 2.64 1.32 4 2 C2.02 2.66 0.04 3.32 -2 4 C-2 4.66 -2 5.32 -2 6 C-3.65 6.33 -5.3 6.66 -7 7 C-7 6.01 -7 5.02 -7 4 C-6.401875 3.896875 -5.80375 3.79375 -5.1875 3.6875 C-2.71756736 2.91123545 -1.67748765 1.92911079 0 0 Z " fill="#89B881" transform="translate(413,554)"/>
<path d="M0 0 C0.66 0 1.32 0 2 0 C2.28875 0.639375 2.5775 1.27875 2.875 1.9375 C3.82823451 4.15206079 3.82823451 4.15206079 6 5 C6 5.66 6 6.32 6 7 C3.36 6.67 0.72 6.34 -2 6 C-1.34 4.02 -0.68 2.04 0 0 Z " fill="#908E89" transform="translate(316,265)"/>
<path d="M0 0 C0.66 0 1.32 0 2 0 C2 0.66 2 1.32 2 2 C2.8971875 2.1546875 2.8971875 2.1546875 3.8125 2.3125 C6 3 6 3 9 6 C4.545 5.01 4.545 5.01 0 4 C0 2.68 0 1.36 0 0 Z " fill="#9E9C98" transform="translate(283,578)"/>
<path d="M0 0 C2.31 0 4.62 0 7 0 C7 0.66 7 1.32 7 2 C4.66785852 3.20628008 2.50357861 4.1654738 0 5 C0 3.35 0 1.7 0 0 Z " fill="#A19F9B" transform="translate(348,280)"/>
<path d="M0 0 C0.33 1.32 0.66 2.64 1 4 C-1.31 4 -3.62 4 -6 4 C-6 3.01 -6 2.02 -6 1 C-3 0 -3 0 0 0 Z " fill="#FCFAF9" transform="translate(380,242)"/>
<path d="M0 0 C0.33 1.32 0.66 2.64 1 4 C2.98 4 4.96 4 7 4 C6.67 4.99 6.34 5.98 6 7 C4.02 7 2.04 7 0 7 C0 4.69 0 2.38 0 0 Z " fill="#E1DFDB" transform="translate(340,234)"/>
<path d="M0 0 C0 0.99 0 1.98 0 3 C-4.52092968 4.45606519 -7.51648796 3.27032841 -12 2 C-12 1.67 -12 1.34 -12 1 C-10.37512529 0.83211627 -8.75009558 0.66573213 -7.125 0.5 C-6.22007812 0.4071875 -5.31515625 0.314375 -4.3828125 0.21875 C-2 0 -2 0 0 0 Z " fill="#3C3C3A" transform="translate(356,121)"/>
<path d="M0 0 C0.33 1.32 0.66 2.64 1 4 C0.01 4.33 -0.98 4.66 -2 5 C-3.21869929 7.50447516 -3.21869929 7.50447516 -4 10 C-4.66 9.67 -5.32 9.34 -6 9 C-4.47291037 5.56404834 -2.40072955 2.88087546 0 0 Z " fill="#D5E2CF" transform="translate(421,550)"/>
<path d="M0 0 C4.455 2.97 4.455 2.97 9 6 C8.67 6.66 8.34 7.32 8 8 C2.25 5.25 2.25 5.25 0 3 C0 2.01 0 1.02 0 0 Z " fill="#9EA790" transform="translate(274,540)"/>
<path d="M0 0 C0.66 0 1.32 0 2 0 C2.33 0.66 2.66 1.32 3 2 C3.66 2 4.32 2 5 2 C5 3.65 5 5.3 5 7 C3.0625 6.3125 3.0625 6.3125 1 5 C0.25 2.375 0.25 2.375 0 0 Z " fill="#A09F9B" transform="translate(333,266)"/>
<path d="M0 0 C2.475 0.495 2.475 0.495 5 1 C5 2.98 5 4.96 5 7 C4.67 7 4.34 7 4 7 C4 5.35 4 3.7 4 2 C3.34 2 2.68 2 2 2 C1.67 3.65 1.34 5.3 1 7 C0.67 7 0.34 7 0 7 C0 4.69 0 2.38 0 0 Z " fill="#999793" transform="translate(347,266)"/>
<path d="M0 0 C0.33 0.66 0.66 1.32 1 2 C3.01669827 3.13350534 3.01669827 3.13350534 5 4 C5 4.99 5 5.98 5 7 C3.35 6.67 1.7 6.34 0 6 C0 4.02 0 2.04 0 0 Z " fill="#D1D0C9" transform="translate(307,241)"/>
<path d="M0 0 C0 0.66 0 1.32 0 2 C-3.47325181 3.1577506 -6.36067448 3.06866652 -10 3 C-10 2.34 -10 1.68 -10 1 C-6.56484998 0.37542727 -3.50935186 0 0 0 Z " fill="#C3C1BE" transform="translate(366,590)"/>
<path d="M0 0 C0.99 0.33 1.98 0.66 3 1 C0.28817788 3.60334924 -0.89133813 3.99456691 -4.75 4.1875 C-5.8225 4.125625 -6.895 4.06375 -8 4 C-8.33 3.01 -8.66 2.02 -9 1 C-7.88625 1.020625 -6.7725 1.04125 -5.625 1.0625 C-2.16784079 1.26380718 -2.16784079 1.26380718 0 0 Z " fill="#D0CEC9" transform="translate(331,247)"/>
<path d="M0 0 C1.65 0 3.3 0 5 0 C4.67 1.32 4.34 2.64 4 4 C2.68 4.33 1.36 4.66 0 5 C0 3.35 0 1.7 0 0 Z " fill="#F2F3F0" transform="translate(387,235)"/>
<path d="M0 0 C1.98 0.495 1.98 0.495 4 1 C4 2.32 4 3.64 4 5 C2.35 5 0.7 5 -1 5 C-0.67 3.35 -0.34 1.7 0 0 Z " fill="#9D9C97" transform="translate(329,279)"/>
<path d="M0 0 C0.99 0.33 1.98 0.66 3 1 C2.67 1.99 2.34 2.98 2 4 C2.66 4 3.32 4 4 4 C3.67 5.32 3.34 6.64 3 8 C2.34 8 1.68 8 1 8 C1 7.34 1 6.68 1 6 C0.34 5.67 -0.32 5.34 -1 5 C-0.67 3.35 -0.34 1.7 0 0 Z " fill="#CFCEC7" transform="translate(321,269)"/>
<path d="M0 0 C2.97 0.495 2.97 0.495 6 1 C5.01 1.66 4.02 2.32 3 3 C3.33 4.32 3.66 5.64 4 7 C3.01 7 2.02 7 1 7 C0.67 4.69 0.34 2.38 0 0 Z " fill="#CFCDC9" transform="translate(361,266)"/>
<path d="M0 0 C-2 2 -2 2 -5 3 C-5.33 3.66 -5.66 4.32 -6 5 C-6.99 5 -7.98 5 -9 5 C-9.33 4.01 -9.66 3.02 -10 2 C-6.49223216 0.39644899 -3.85645121 -0.22036864 0 0 Z " fill="#CDCBC6" transform="translate(335,265)"/>
<path d="M0 0 C0.99 0 1.98 0 3 0 C2.01 2.97 1.02 5.94 0 9 C0.66 9.33 1.32 9.66 2 10 C1.34 10.66 0.68 11.32 0 12 C-1.49498913 9.01002175 -1.11577446 6.29957225 -1 3 C-0.67 2.01 -0.34 1.02 0 0 Z " fill="#DCDCD7" transform="translate(358,123)"/>
<path d="M0 0 C0.99 0.33 1.98 0.66 3 1 C2.34 1 1.68 1 1 1 C1 1.99 1 2.98 1 4 C1.66 4.33 2.32 4.66 3 5 C2.34 5 1.68 5 1 5 C1 5.66 1 6.32 1 7 C1.66 7.33 2.32 7.66 3 8 C2.34 8 1.68 8 1 8 C0.67 8.99 0.34 9.98 0 11 C-1.28571429 3.57142857 -1.28571429 3.57142857 0 0 Z " fill="#B6B6B5" transform="translate(338,113)"/>
<path d="M0 0 C2.6875 0.3125 2.6875 0.3125 5 1 C5 1.66 5 2.32 5 3 C2.36 3 -0.28 3 -3 3 C-1.8125 1.4375 -1.8125 1.4375 0 0 Z " fill="#F9F9F9" transform="translate(347,111)"/>
<path d="M0 0 C1.45922693 0.11409593 2.91740598 0.24165544 4.375 0.375 C5.59316406 0.47941406 5.59316406 0.47941406 6.8359375 0.5859375 C9 1 9 1 11 3 C6.78121808 3.19622241 3.82989106 2.80230168 0 1 C0 0.67 0 0.34 0 0 Z " fill="#B5C4AB" transform="translate(307,460)"/>
<path d="M0 0 C0.66 0 1.32 0 2 0 C2.33 2.31 2.66 4.62 3 7 C2.01 7 1.02 7 0 7 C-0.38133299 5.0085944 -0.71325582 3.00720923 -1 1 C-0.67 0.67 -0.34 0.34 0 0 Z " fill="#B7B6B2" transform="translate(359,266)"/>
<path d="M0 0 C0 0.99 0 1.98 0 3 C-0.598125 2.79375 -1.19625 2.5875 -1.8125 2.375 C-4.28450846 1.69328085 -4.28450846 1.69328085 -7 4 C-6.625 2.0625 -6.625 2.0625 -6 0 C-3.50907189 -1.24546405 -2.58919267 -0.7767578 0 0 Z " fill="#C8C4BF" transform="translate(316,232)"/>
<path d="M0 0 C1.32 0 2.64 0 4 0 C3 2 3 2 1 3 C0.34786708 5.02463255 0.34786708 5.02463255 0 7 C0.99 7.33 1.98 7.66 3 8 C1.68 8 0.36 8 -1 8 C-1.04241723 5.66705225 -1.04092937 3.33297433 -1 1 C-0.67 0.67 -0.34 0.34 0 0 Z " fill="#D6D6D4" transform="translate(332,125)"/>
<path d="M0 0 C0.33 0.99 0.66 1.98 1 3 C1.66 3 2.32 3 3 3 C3 3.99 3 4.98 3 6 C4.65 6 6.3 6 8 6 C8 6.33 8 6.66 8 7 C5.125 7.125 5.125 7.125 2 7 C0 5 0 5 -0.125 2.375 C-0.08375 1.59125 -0.0425 0.8075 0 0 Z " fill="#D8D6D0" transform="translate(321,240)"/>
<path d="M0 0 C4.95 0.99 4.95 0.99 10 2 C10 2.33 10 2.66 10 3 C6.7 3 3.4 3 0 3 C0 2.01 0 1.02 0 0 Z " fill="#101010" transform="translate(339,114)"/>
</svg>
