<?xml version="1.0" encoding="UTF-8"?>
<svg version="1.1" xmlns="http://www.w3.org/2000/svg" width="698" height="699">
<path d="M0 0 C230.34 0 460.68 0 698 0 C698 230.67 698 461.34 698 699 C467.66 699 237.32 699 0 699 C0 468.33 0 237.66 0 0 Z " fill="#F5F5F4" transform="translate(0,0)"/>
<path d="M0 0 C0.99 0.33 1.98 0.66 3 1 C2.071875 1.495 1.14375 1.99 0.1875 2.5 C-3.68058744 5.10619504 -4.85371956 8.61123965 -6 13 C-6.4766179 16.28540889 -6.59910728 19.5408841 -6.68040466 22.85743713 C-6.71353553 23.84477138 -6.7466664 24.83210563 -6.78080124 25.8493591 C-7.19305474 39.83991487 -7.13437063 53.84161135 -7.11606562 67.83684075 C-7.11168279 72.05392639 -7.11321301 76.27101086 -7.1139679 80.48809814 C-7.11448824 87.76686411 -7.11139306 95.045621 -7.10573006 102.32438469 C-7.09754805 112.84781325 -7.09499303 123.37123749 -7.09374207 133.89466888 C-7.09156199 150.97478499 -7.08493042 168.05489627 -7.07543945 185.13500977 C-7.06623818 201.7111814 -7.05917068 218.28735171 -7.05493164 234.86352539 C-7.05466892 235.88799622 -7.05440619 236.91246706 -7.05413551 237.96798246 C-7.05283032 243.10826245 -7.05156665 248.24854244 -7.05032361 253.38882244 C-7.03998356 295.92588496 -7.02239391 338.46294223 -7 381 C-6.01 381 -5.02 381 -4 381 C-3.505 382.485 -3.505 382.485 -3 384 C3.15647309 388.32052486 9.60541502 390.89414315 17 392 C19.00023941 392.33189365 21.00026319 392.66509138 23 393 C22.99777939 392.2013855 22.99555878 391.402771 22.99327087 390.57995605 C22.97296605 382.9350379 22.95787562 375.29013339 22.94818783 367.64519501 C22.94303936 363.71787842 22.93609433 359.79058469 22.92456055 355.86328125 C22.88170062 340.8506094 22.84041336 325.84744342 23.44140625 310.84375 C23.49988991 309.34418762 23.49988991 309.34418762 23.55955505 307.81433105 C23.87039843 301.12960157 23.87039843 301.12960157 25 300 C30.28975394 300.03918336 36.04917538 300.17662133 40 304 C41.05203772 309.22822468 41.11088545 314.2969961 41.02172852 319.59741211 C41.01212097 320.42748779 41.00251343 321.25756348 40.99261475 322.11279297 C40.95984664 324.83440232 40.9194311 327.55583979 40.87890625 330.27734375 C40.8545834 332.17305408 40.83074095 334.06877064 40.80735779 335.9644928 C40.74473221 340.93754193 40.67560532 345.91047999 40.60510254 350.88342285 C40.53422389 355.96454846 40.46952407 361.04575238 40.40429688 366.12695312 C40.27556224 376.08472395 40.13938466 386.04237255 40 396 C46.27 396.33 52.54 396.66 59 397 C59 397.33 59 397.66 59 398 C64.10047346 398.07544507 69.20060619 398.12919726 74.30151367 398.16479492 C76.0284594 398.17966998 77.75536885 398.19997636 79.48217773 398.22631836 C89.99662772 398.3824281 99.89164091 397.87282491 110.20532227 395.74731445 C114.13841377 394.97274113 118.01938734 394.45635661 122 394 C122 393.34 122 392.68 122 392 C123.134375 391.62875 124.26875 391.2575 125.4375 390.875 C129.800106 389.26526838 133.35094096 386.90376875 137.1171875 384.20703125 C139 383 139 383 141 383 C143.39060874 405.47172212 143.39060874 405.47172212 139.13671875 411.75 C137 414 137 414 134 416 C133.690625 416.680625 133.38125 417.36125 133.0625 418.0625 C132 420 132 420 129.875 420.75 C129.25625 420.8325 128.6375 420.915 128 421 C128 421.66 128 422.32 128 423 C119.62668471 426.93214958 111.9939417 429.74625719 102.86328125 431.359375 C99.82045605 431.85995087 99.82045605 431.85995087 97 434 C94.67793475 434.70491267 92.34406932 435.37212429 90 436 C89.01 436.33 88.02 436.66 87 437 C85.29225402 437.04479334 83.58288979 437.03892626 81.875 437 C76.82274147 436.946181 72.00687456 437.34336071 67 438 C67 437.34 67 436.68 67 436 C66.01 436.33 65.02 436.66 64 437 C60.21227558 437.23190945 56.41908123 437.18516948 52.625 437.1875 C51.5834375 437.19974609 50.541875 437.21199219 49.46875 437.22460938 C48.46070313 437.22654297 47.45265625 437.22847656 46.4140625 437.23046875 C45.4957666 437.23457764 44.5774707 437.23868652 43.63134766 437.24291992 C40.7681679 436.9785978 38.60499404 436.18775254 36 435 C36 434.34 36 433.68 36 433 C35.43152344 433.08378906 34.86304688 433.16757812 34.27734375 433.25390625 C29.30340729 433.90990121 24.95838399 434.11310661 20 433 C19.34 432.34 18.68 431.68 18 431 C20.97 431 23.94 431 27 431 C26.25234375 430.86722656 25.5046875 430.73445313 24.734375 430.59765625 C23.74953125 430.42105469 22.7646875 430.24445313 21.75 430.0625 C20.77546875 429.88847656 19.8009375 429.71445312 18.796875 429.53515625 C17.11065529 429.21251365 15.42979682 428.85545549 13.765625 428.43359375 C11.97929921 427.9205036 11.97929921 427.9205036 10 428 C10 427.34 10 426.68 10 426 C9.29875 426.103125 8.5975 426.20625 7.875 426.3125 C3.63680749 425.8518269 2.02666471 423.95627716 -1 421 C-1 420.34 -1 419.68 -1 419 C-1.86625 418.6596875 -1.86625 418.6596875 -2.75 418.3125 C-5.69770653 416.59300453 -7.10841757 414.84658316 -9 412 C-9.50139666 408.82340115 -9.50139666 408.82340115 -9.50336456 405.16015911 C-9.50917833 404.48143719 -9.51499209 403.80271526 -9.52098203 403.10342601 C-9.53560483 400.82426165 -9.5216872 398.54617043 -9.50793457 396.26701355 C-9.51254264 394.61847406 -9.51889492 392.96993868 -9.52684355 391.32141191 C-9.54357359 386.78741256 -9.53527382 382.25374909 -9.52289867 377.71974838 C-9.51386529 372.83140696 -9.52780954 367.94312416 -9.53881836 363.05479431 C-9.55662768 353.47616319 -9.55275251 343.89765727 -9.5411678 334.31902119 C-9.53214165 326.53411006 -9.53090593 318.74923408 -9.53526306 310.96431923 C-9.53587599 309.85716197 -9.53648893 308.7500047 -9.53712043 307.60929722 C-9.53839931 305.36023073 -9.53969617 303.11116425 -9.5410108 300.86209778 C-9.55242407 279.75929091 -9.53929199 258.65655348 -9.51780933 237.553758 C-9.4999451 219.44490216 -9.50303547 201.3361489 -9.52148438 183.22729492 C-9.54289066 162.20569221 -9.55131755 141.18415044 -9.53903532 120.16253835 C-9.53776111 117.92073493 -9.53650363 115.6789315 -9.53526306 113.43712807 C-9.53464596 112.3340846 -9.53402886 111.23104112 -9.53339306 110.09457209 C-9.52993888 102.32016095 -9.53577012 94.54578844 -9.54518127 86.77138329 C-9.55640026 77.29504913 -9.55336357 67.81884751 -9.5320583 58.34252854 C-9.52154545 53.50711728 -9.51743002 48.67192697 -9.53065491 43.83651733 C-9.54258014 39.40931508 -9.53601405 34.98253846 -9.5147447 30.55537478 C-9.5102791 28.95445464 -9.51254398 27.35349849 -9.52224785 25.75260153 C-9.60579614 10.82304391 -9.60579614 10.82304391 -5 4 C-2.4375 1.4375 -2.4375 1.4375 0 0 Z " fill="#C9C8C3" transform="translate(285,160)"/>
<path d="M0 0 C2.86724686 0.57344937 3.8614515 0.8614515 6 3 C5.9765625 6.2578125 5.9765625 6.2578125 5.625 10.125 C5.45871094 12.04699219 5.45871094 12.04699219 5.2890625 14.0078125 C5.14597656 15.48894531 5.14597656 15.48894531 5 17 C5.598125 16.67 6.19625 16.34 6.8125 16 C9 15 9 15 12 15 C12 14.01 12 13.02 12 12 C10.68 11.67 9.36 11.34 8 11 C8.66 9.02 9.32 7.04 10 5 C14.69023454 5.56606279 19.34500026 6.18537505 24 7 C24 6.34 24 5.68 24 5 C27.89450661 4.77745676 30.43264353 5.49795517 34 7 C34.99 7 35.98 7 37 7 C37.495 7.99 37.495 7.99 38 9 C38.66 8.01 39.32 7.02 40 6 C42.77078439 5.74729002 45.29813311 5.67242023 48.0625 5.75 C49.21190063 5.76643555 49.21190063 5.76643555 50.38452148 5.78320312 C55.63966309 5.88570986 60.79517376 6.24293437 66 7 C66 8.98 66 10.96 66 13 C65.030625 13.309375 64.06125 13.61875 63.0625 13.9375 C60.15934208 14.69523342 60.15934208 14.69523342 59 16 C59.639375 16.185625 60.27875 16.37125 60.9375 16.5625 C63 18 63 18 63.75 21.625 C63.8325 22.73875 63.915 23.8525 64 25 C63.41992188 25.06058594 62.83984375 25.12117188 62.2421875 25.18359375 C57.79907137 25.66016561 53.40094577 26.21008666 49 27 C49.495 29.475 49.495 29.475 50 32 C49.34 32 48.68 32 48 32 C48 33.65 48 35.3 48 37 C53.49241222 40.54493926 57.56174759 40.12723947 63.75 39.3125 C64.61238281 39.22033203 65.47476563 39.12816406 66.36328125 39.03320312 C71.18507516 38.65922235 71.18507516 38.65922235 75 36 C77.3828125 35.5859375 77.3828125 35.5859375 80.125 35.375 C81.03507812 35.30023438 81.94515625 35.22546875 82.8828125 35.1484375 C83.58148438 35.09945312 84.28015625 35.05046875 85 35 C86.30892449 39.402746 86.30892449 39.402746 85.0625 41.8125 C81.76781888 43.70943762 78.75761536 43.18480076 75 43 C75 43.66 75 44.32 75 45 C75.62648438 44.9278125 76.25296875 44.855625 76.8984375 44.78125 C78.12433594 44.64203125 78.12433594 44.64203125 79.375 44.5 C80.59316406 44.36078125 80.59316406 44.36078125 81.8359375 44.21875 C84 44 84 44 86 44 C87.85804549 43.73416092 89.7119263 43.43865656 91.5625 43.125 C93.04943359 42.88136719 93.04943359 42.88136719 94.56640625 42.6328125 C95.36949219 42.42398438 96.17257812 42.21515625 97 42 C97.495 41.01 97.495 41.01 98 40 C100.11737732 39.21066478 102.27054932 38.51582879 104.4375 37.875 C105.61183594 37.52179688 106.78617187 37.16859375 107.99609375 36.8046875 C111 36 111 36 113 36 C113 35.34 113 34.68 113 34 C113.99 34 114.98 34 116 34 C115.68074659 36.87328071 115.15851969 38.75877438 113.5625 41.1875 C110.30658569 43.49046378 107.4420966 43.87272551 103.53515625 44.41015625 C100.92069169 44.86878382 100.92069169 44.86878382 98.69799805 46.47973633 C95.74288236 48.14488024 93.65131258 48.55684101 90.296875 48.9140625 C89.2346875 49.03523438 88.1725 49.15640625 87.078125 49.28125 C85.97984375 49.3946875 84.8815625 49.508125 83.75 49.625 C81.55689854 49.86360132 79.36416292 50.10559849 77.171875 50.3515625 C76.2034668 50.45291504 75.23505859 50.55426758 74.23730469 50.65869141 C72.03371284 50.76882659 72.03371284 50.76882659 71 52 C68.5625 52.1875 68.5625 52.1875 66 52 C65.34 51.34 64.68 50.68 64 50 C63.505 50.99 63.505 50.99 63 52 C53.5884957 53.50584069 44.00343227 53.07875773 34.5 53 C31.23958699 52.97344117 27.97922996 52.95348191 24.71875 52.9375 C23.97298706 52.92920166 23.22722412 52.92090332 22.4588623 52.91235352 C18.60277934 52.81896942 18.60277934 52.81896942 15 54 C15 53.34 15 52.68 15 52 C12.23735711 51.40267181 9.83967231 51 7 51 C6.67 49.68 6.34 48.36 6 47 C5.67 50.63 5.34 54.26 5 58 C6.051875 57.814375 7.10375 57.62875 8.1875 57.4375 C11.76149635 57.02736927 13.57226477 57.29887234 17 58 C19.6068127 58.21881019 22.20220189 58.41012853 24.8125 58.5625 C25.85180664 58.62727539 25.85180664 58.62727539 26.91210938 58.69335938 C28.60788686 58.79861453 30.30392052 58.89972863 32 59 C33.125 63.75 33.125 63.75 32 66 C30.20841511 66.02696365 28.41671527 66.04637917 26.625 66.0625 C25.62726563 66.07410156 24.62953125 66.08570313 23.6015625 66.09765625 C21 66 21 66 19 65 C17.35822222 64.79724185 15.71118573 64.63557474 14.0625 64.5 C11.10840763 64.25636352 8.83108535 63.94369512 6 63 C5.01 63.495 5.01 63.495 4 64 C1.6670134 64.04022391 -0.66706666 64.04320247 -3 64 C-4.02000335 60.93998995 -4.14456878 58.80413509 -4.17700195 55.59814453 C-4.18983719 54.49334747 -4.20267242 53.38855042 -4.21589661 52.25027466 C-4.22328354 51.05651215 -4.23067047 49.86274963 -4.23828125 48.6328125 C-4.246353 47.40593719 -4.25442474 46.17906189 -4.26274109 44.91500854 C-4.27657926 42.3175396 -4.2873026 39.7200525 -4.29516602 37.12255859 C-4.3124013 33.14776308 -4.35629437 29.17379436 -4.40039062 25.19921875 C-4.41051552 22.67708946 -4.41903225 20.15495309 -4.42578125 17.6328125 C-4.44328934 16.44309845 -4.46079742 15.2533844 -4.47883606 14.02761841 C-4.45701928 5.74182361 -4.45701928 5.74182361 -1.97338867 1.71044922 C-1.32217041 1.14600098 -0.67095215 0.58155273 0 0 Z " fill="#DFDBD8" transform="translate(310,261)"/>
<path d="M0 0 C5.445 0.495 5.445 0.495 11 1 C11 32.02 11 63.04 11 95 C17.31159586 95.63115959 23.36183654 96.16506332 29.6640625 96.203125 C30.45138763 96.21000336 31.23871277 96.21688171 32.04989624 96.22396851 C34.57497872 96.24101791 37.09986303 96.24742162 39.625 96.25 C40.91809082 96.25250763 40.91809082 96.25250763 42.23730469 96.25506592 C58.7087445 96.25697729 75.10642833 95.70920642 91 91 C93.9375 90.875 93.9375 90.875 96 91 C96 90.34 96 89.68 96 89 C97.134375 88.62875 98.26875 88.2575 99.4375 87.875 C103.800106 86.26526838 107.35094096 83.90376875 111.1171875 81.20703125 C113 80 113 80 115 80 C115.36666667 87.33333333 115.36666667 87.33333333 113.625 90.5 C112 92 112 92 110 92 C109.67 92.99 109.34 93.98 109 95 C107.03125 96.28125 107.03125 96.28125 104.5 97.5 C103.6853125 97.9021875 102.870625 98.304375 102.03125 98.71875 C83.29643381 106.63758983 63.73592753 107.3742108 43.6875 107.3125 C42.75795502 107.30995209 41.82841003 107.30740417 40.87069702 107.30477905 C31.01576522 107.2584241 21.17539902 107.02889692 11.33203125 106.54296875 C10.53455978 106.50496658 9.73708832 106.46696442 8.91545105 106.42781067 C5.738712 106.25335635 3.03355449 106.01118483 0 105 C0 104.34 0 103.68 0 103 C-0.6290625 103.02320313 -1.258125 103.04640625 -1.90625 103.0703125 C-7.67016398 103.19184081 -12.47263742 102.63773706 -18 101 C-18 100.34 -18 99.68 -18 99 C-18.825 98.95875 -19.65 98.9175 -20.5 98.875 C-26.00868402 97.497829 -30.02839008 93.97160992 -34 90 C-34.1953125 87.6171875 -34.1953125 87.6171875 -34.125 84.875 C-34.10695313 83.96492187 -34.08890625 83.05484375 -34.0703125 82.1171875 C-34.04710937 81.41851563 -34.02390625 80.71984375 -34 80 C-33.33355469 80.45890625 -32.66710937 80.9178125 -31.98046875 81.390625 C-21.63568649 88.27750102 -12.23587794 90.94103052 0 94 C0 62.98 0 31.96 0 0 Z " fill="#F25D81" transform="translate(311,463)"/>
<path d="M0 0 C0.99 0.33 1.98 0.66 3 1 C2.071875 1.495 1.14375 1.99 0.1875 2.5 C-3.68058744 5.10619504 -4.85371956 8.61123965 -6 13 C-6.4766179 16.28540889 -6.59910728 19.5408841 -6.68040466 22.85743713 C-6.71353553 23.84477138 -6.7466664 24.83210563 -6.78080124 25.8493591 C-7.19305474 39.83991487 -7.13437063 53.84161135 -7.11606562 67.83684075 C-7.11168279 72.05392639 -7.11321301 76.27101086 -7.1139679 80.48809814 C-7.11448824 87.76686411 -7.11139306 95.045621 -7.10573006 102.32438469 C-7.09754805 112.84781325 -7.09499303 123.37123749 -7.09374207 133.89466888 C-7.09156199 150.97478499 -7.08493042 168.05489627 -7.07543945 185.13500977 C-7.06623818 201.7111814 -7.05917068 218.28735171 -7.05493164 234.86352539 C-7.05466892 235.88799622 -7.05440619 236.91246706 -7.05413551 237.96798246 C-7.05283032 243.10826245 -7.05156665 248.24854244 -7.05032361 253.38882244 C-7.03998356 295.92588496 -7.02239391 338.46294223 -7 381 C-6.01 381 -5.02 381 -4 381 C-3.505 382.485 -3.505 382.485 -3 384 C3.15647309 388.32052486 9.60541502 390.89414315 17 392 C19.00023941 392.33189365 21.00026319 392.66509138 23 393 C22.99777939 392.2013855 22.99555878 391.402771 22.99327087 390.57995605 C22.97296605 382.9350379 22.95787562 375.29013339 22.94818783 367.64519501 C22.94303936 363.71787842 22.93609433 359.79058469 22.92456055 355.86328125 C22.88170062 340.8506094 22.84041336 325.84744342 23.44140625 310.84375 C23.49988991 309.34418762 23.49988991 309.34418762 23.55955505 307.81433105 C23.87039843 301.12960157 23.87039843 301.12960157 25 300 C30.28975394 300.03918336 36.04917538 300.17662133 40 304 C41.05203772 309.22822468 41.11088545 314.2969961 41.02172852 319.59741211 C41.01212097 320.42748779 41.00251343 321.25756348 40.99261475 322.11279297 C40.95984664 324.83440232 40.9194311 327.55583979 40.87890625 330.27734375 C40.8545834 332.17305408 40.83074095 334.06877064 40.80735779 335.9644928 C40.74473221 340.93754193 40.67560532 345.91047999 40.60510254 350.88342285 C40.53422389 355.96454846 40.46952407 361.04575238 40.40429688 366.12695312 C40.27556224 376.08472395 40.13938466 386.04237255 40 396 C46.27 396.33 52.54 396.66 59 397 C59 397.33 59 397.66 59 398 C72.365 398.495 72.365 398.495 86 399 C86 399.33 86 399.66 86 400 C80.62891965 400.04982449 75.25797695 400.08591866 69.88671875 400.10986328 C68.06345269 400.11985643 66.24020238 400.13345551 64.41699219 400.15087891 C61.78055914 400.17542401 59.14433986 400.18655016 56.5078125 400.1953125 C55.70634796 400.20563507 54.90488342 400.21595764 54.07913208 400.22659302 C47.9370637 400.22778246 43.27252332 399.25450466 37 398 C37 366.98 37 335.96 37 304 C33.37 303.67 29.74 303.34 26 303 C26 334.02 26 365.04 26 397 C12.88609166 394.81434861 3.61112126 391.79756638 -7 384 C-7.36177562 387.07509281 -7.48020044 389.93291333 -7 393 C-2.93621538 397.68898225 2.30571049 399.73493817 8 402 C8 402.66 8 403.32 8 404 C13.94 404.66 19.88 405.32 26 406 C26 406.66 26 407.32 26 408 C33.26 408.33 40.52 408.66 48 409 C48 409.33 48 409.66 48 410 C44.77186442 410.22702385 41.54261311 410.42828723 38.3125 410.625 C37.40048828 410.68945312 36.48847656 410.75390625 35.54882812 410.8203125 C30.76262744 411.09878236 27.39651446 411.131165 23 409 C20.43124559 408.65645838 17.89065164 408.50095147 15.3046875 408.34375 C13 408 13 408 10 406 C8.55463698 405.48302559 7.09446743 405.00634938 5.625 404.5625 C2.07264394 403.43036701 -0.84343635 402.00872233 -4 400 C-4.66 400 -5.32 400 -6 400 C-6.99 403.465 -6.99 403.465 -8 407 C-8.33 407 -8.66 407 -9 407 C-9.09153096 356.81552816 -9.16202625 306.63106475 -9.20426132 256.44652587 C-9.20926422 250.52343248 -9.2144415 244.60033924 -9.21972656 238.67724609 C-9.2207758 237.49805174 -9.22182505 236.31885739 -9.22290608 235.10392988 C-9.24031713 216.00395644 -9.27185869 196.9040311 -9.30861118 177.80408621 C-9.3460011 158.20963556 -9.36823173 138.61521011 -9.37635398 119.02072525 C-9.38184578 106.92730177 -9.39919888 94.83401423 -9.43166587 82.74063259 C-9.45278967 74.45072108 -9.45920487 66.16087997 -9.45400551 57.87094349 C-9.45144042 53.08617953 -9.45540647 48.30165334 -9.4768219 43.51693153 C-9.49628778 39.13581864 -9.49726978 34.75510338 -9.48359558 30.37397218 C-9.48190556 28.78971388 -9.48697952 27.20543077 -9.49953273 25.6212213 C-9.60980543 10.84471376 -9.60980543 10.84471376 -5 4 C-2.4375 1.4375 -2.4375 1.4375 0 0 Z " fill="#D1A0A4" transform="translate(285,160)"/>
<path d="M0 0 C2.86724686 0.57344937 3.8614515 0.8614515 6 3 C5.9765625 6.2578125 5.9765625 6.2578125 5.625 10.125 C5.45871094 12.04699219 5.45871094 12.04699219 5.2890625 14.0078125 C5.14597656 15.48894531 5.14597656 15.48894531 5 17 C5.66 16.67 6.32 16.34 7 16 C12.12063961 15.79517442 16.94288719 16.31428979 22 17 C22.66 17 23.32 17 24 17 C25 20 25 20 24 23 C24.66 23 25.32 23 26 23 C26 22.01 26 21.02 26 20 C27.65 19.34 29.3 18.68 31 18 C31 18.66 31 19.32 31 20 C32.98 20 34.96 20 37 20 C36.01 20.33 35.02 20.66 34 21 C34 21.99 34 22.98 34 24 C32.35 24.33 30.7 24.66 29 25 C29 24.34 29 23.68 29 23 C29.66 23 30.32 23 31 23 C31 22.34 31 21.68 31 21 C30.01 21 29.02 21 28 21 C27.67 21.99 27.34 22.98 27 24 C25.35 24 23.7 24 22 24 C22 23.01 22 22.02 22 21 C21.34 21 20.68 21 20 21 C20 21.99 20 22.98 20 24 C18.88625 23.979375 17.7725 23.95875 16.625 23.9375 C13.16784079 23.73619282 13.16784079 23.73619282 11 25 C12.299375 25.12375 13.59875 25.2475 14.9375 25.375 C17.15234375 25.5859375 17.15234375 25.5859375 19 26 C19.33 26.66 19.66 27.32 20 28 C22.52733235 28.65555119 22.52733235 28.65555119 25 29 C25.38218767 30.65614657 25.71395102 32.32457024 26 34 C25 35 25 35 22.4375 35.0625 C21.633125 35.041875 20.82875 35.02125 20 35 C19.505 32.525 19.505 32.525 19 30 C18.34 30 17.68 30 17 30 C16.67 31.32 16.34 32.64 16 34 C16 32.68 16 31.36 16 30 C14.02 30 12.04 30 10 30 C10 30.66 10 31.32 10 32 C10.99 32 11.98 32 13 32 C13 32.66 13 33.32 13 34 C11.35 34 9.7 34 8 34 C8 34.66 8 35.32 8 36 C10.64 36.33 13.28 36.66 16 37 C16 37.66 16 38.32 16 39 C17.65 39 19.3 39 21 39 C21 40.32 21 41.64 21 43 C16.545 43.495 16.545 43.495 12 44 C12 44.66 12 45.32 12 46 C13.11375 46.185625 13.11375 46.185625 14.25 46.375 C16.81448542 46.9578376 18.69166512 47.78664449 21 49 C19.22978678 49.336611 17.45880326 49.66917293 15.6875 50 C14.70136719 50.185625 13.71523438 50.37125 12.69921875 50.5625 C10 51 10 51 7 51 C6.67 49.68 6.34 48.36 6 47 C5.67 50.63 5.34 54.26 5 58 C6.051875 57.814375 7.10375 57.62875 8.1875 57.4375 C11.76149635 57.02736927 13.57226477 57.29887234 17 58 C19.6068127 58.21881019 22.20220189 58.41012853 24.8125 58.5625 C25.85180664 58.62727539 25.85180664 58.62727539 26.91210938 58.69335938 C28.60788686 58.79861453 30.30392052 58.89972863 32 59 C33.125 63.75 33.125 63.75 32 66 C30.20841511 66.02696365 28.41671527 66.04637917 26.625 66.0625 C25.62726563 66.07410156 24.62953125 66.08570313 23.6015625 66.09765625 C21 66 21 66 19 65 C17.35822222 64.79724185 15.71118573 64.63557474 14.0625 64.5 C11.10840763 64.25636352 8.83108535 63.94369512 6 63 C5.01 63.495 5.01 63.495 4 64 C1.6670134 64.04022391 -0.66706666 64.04320247 -3 64 C-4.02000335 60.93998995 -4.14456878 58.80413509 -4.17700195 55.59814453 C-4.18983719 54.49334747 -4.20267242 53.38855042 -4.21589661 52.25027466 C-4.22328354 51.05651215 -4.23067047 49.86274963 -4.23828125 48.6328125 C-4.246353 47.40593719 -4.25442474 46.17906189 -4.26274109 44.91500854 C-4.27657926 42.3175396 -4.2873026 39.7200525 -4.29516602 37.12255859 C-4.3124013 33.14776308 -4.35629437 29.17379436 -4.40039062 25.19921875 C-4.41051552 22.67708946 -4.41903225 20.15495309 -4.42578125 17.6328125 C-4.44328934 16.44309845 -4.46079742 15.2533844 -4.47883606 14.02761841 C-4.45701928 5.74182361 -4.45701928 5.74182361 -1.97338867 1.71044922 C-1.32217041 1.14600098 -0.67095215 0.58155273 0 0 Z " fill="#E1C4C5" transform="translate(310,261)"/>
<path d="M0 0 C0.99 0.33 1.98 0.66 3 1 C2.071875 1.495 1.14375 1.99 0.1875 2.5 C-3.68074144 5.11282319 -4.87486787 8.59776184 -6 13 C-6.47282844 16.52492044 -6.59807057 20.02410722 -6.68139648 23.57745361 C-6.73113318 25.08598683 -6.73113318 25.08598683 -6.78187466 26.62499547 C-7.1043867 37.33570956 -7.12613827 48.04623953 -7.09765625 58.76074219 C-7.09572913 60.93532273 -7.09426911 63.10990372 -7.0932312 65.28448486 C-7.09009685 69.9356445 -7.08386549 74.58678542 -7.07516479 79.23793793 C-7.06134633 86.72106263 -7.055682 94.20418166 -7.05102539 101.68731689 C-7.04370431 112.30554646 -7.03363617 122.92376853 -7.02050781 133.54199219 C-7.01968 134.21268475 -7.01885219 134.88337732 -7.01799929 135.5743939 C-7.00886443 142.93818685 -6.9992845 150.3019792 -6.98962402 157.66577148 C-6.96593262 175.87613649 -6.94756825 194.08649711 -6.9375 212.296875 C-6.9367107 213.5769021 -6.9359214 214.85692921 -6.93510818 216.17574501 C-6.90367714 271.1211931 -7.3534538 326.0587104 -8 381 C-8.33 381 -8.66 381 -9 381 C-9.09153698 334.12777573 -9.16202931 287.25556092 -9.20426132 240.3832649 C-9.2092642 234.85072463 -9.21444148 229.31818454 -9.21972656 223.78564453 C-9.2207758 222.68420616 -9.22182505 221.5827678 -9.22290608 220.44795251 C-9.2403157 202.60894992 -9.27185647 184.76999884 -9.30861118 166.93102682 C-9.34600509 148.62931056 -9.36823258 130.3276213 -9.37635398 112.02586842 C-9.38184496 100.73088683 -9.39919356 89.43605083 -9.43166587 78.14111406 C-9.45279459 70.39784585 -9.45920376 62.65465301 -9.45400551 54.91135806 C-9.45144118 50.44252906 -9.45539772 45.97395466 -9.4768219 41.50517082 C-9.49629864 37.41271502 -9.49726284 33.32068484 -9.48359558 29.22820938 C-9.48190661 27.74892963 -9.48697147 26.26962324 -9.49953273 24.79039586 C-9.56351606 16.78942019 -9.47802085 10.77872936 -5 4 C-2.4375 1.4375 -2.4375 1.4375 0 0 Z " fill="#B6B4AE" transform="translate(285,160)"/>
<path d="M0 0 C0.66 0 1.32 0 2 0 C3 3 3 3 2 6 C2.66 6 3.32 6 4 6 C4 5.01 4 4.02 4 3 C5.65 2.34 7.3 1.68 9 1 C9 1.66 9 2.32 9 3 C10.98 3 12.96 3 15 3 C14.01 3.33 13.02 3.66 12 4 C12 4.99 12 5.98 12 7 C10.35 7.33 8.7 7.66 7 8 C7 7.34 7 6.68 7 6 C7.66 6 8.32 6 9 6 C9 5.34 9 4.68 9 4 C8.01 4 7.02 4 6 4 C5.67 4.99 5.34 5.98 5 7 C3.35 7 1.7 7 0 7 C0 6.01 0 5.02 0 4 C-0.66 4 -1.32 4 -2 4 C-2 4.99 -2 5.98 -2 7 C-3.11375 6.979375 -4.2275 6.95875 -5.375 6.9375 C-8.83215921 6.73619282 -8.83215921 6.73619282 -11 8 C-9.700625 8.12375 -8.40125 8.2475 -7.0625 8.375 C-4.84765625 8.5859375 -4.84765625 8.5859375 -3 9 C-2.67 9.66 -2.34 10.32 -2 11 C0.52733235 11.65555119 0.52733235 11.65555119 3 12 C3.38218767 13.65614657 3.71395102 15.32457024 4 17 C3 18 3 18 0.4375 18.0625 C-0.366875 18.041875 -1.17125 18.02125 -2 18 C-2.33 16.35 -2.66 14.7 -3 13 C-3.66 13 -4.32 13 -5 13 C-5.33 14.32 -5.66 15.64 -6 17 C-6 15.68 -6 14.36 -6 13 C-7.98 13 -9.96 13 -12 13 C-12 13.66 -12 14.32 -12 15 C-11.01 15 -10.02 15 -9 15 C-9 15.66 -9 16.32 -9 17 C-10.65 17 -12.3 17 -14 17 C-14 17.66 -14 18.32 -14 19 C-11.36 19.33 -8.72 19.66 -6 20 C-6 20.66 -6 21.32 -6 22 C-4.35 22 -2.7 22 -1 22 C-1 23.32 -1 24.64 -1 26 C-3.97 26.33 -6.94 26.66 -10 27 C-10 27.66 -10 28.32 -10 29 C-9.2575 29.12375 -8.515 29.2475 -7.75 29.375 C-5.18551458 29.9578376 -3.30833488 30.78664449 -1 32 C-2.77021322 32.336611 -4.54119674 32.66917293 -6.3125 33 C-7.29863281 33.185625 -8.28476562 33.37125 -9.30078125 33.5625 C-12 34 -12 34 -15 34 C-17.29822325 30.35783305 -17.23128602 27.29174993 -17.1953125 23.046875 C-17.1924826 22.38665344 -17.18965271 21.72643188 -17.18673706 21.04620361 C-17.17558415 18.94728103 -17.15048946 16.84879258 -17.125 14.75 C-17.11496384 13.32292285 -17.1058391 11.89583898 -17.09765625 10.46875 C-17.07566111 6.97902672 -17.04116536 3.48955577 -17 0 C-12.03115187 -2.48442407 -5.33515334 -0.72341062 0 0 Z " fill="#C9CDC4" transform="translate(332,278)"/>
<path d="M0 0 C0.33 0.99 0.66 1.98 1 3 C1.495 2.67 1.99 2.34 2.5 2 C6.09090894 0.56363642 9.14456127 0.87148538 13 1 C13.33 1.99 13.66 2.98 14 4 C9.05 4 4.1 4 -1 4 C-1 4.99 -1 5.98 -1 7 C3.95 7 8.9 7 14 7 C13.67 8.65 13.34 10.3 13 12 C8.05 12 3.1 12 -2 12 C-2 12.66 -2 13.32 -2 14 C3.28 14 8.56 14 14 14 C14 15.32 14 16.64 14 18 C16.3431213 17.74438677 18.67843403 17.40729228 21 17 C21.33 16.34 21.66 15.68 22 15 C27.94 15 33.88 15 40 15 C39.505 17.475 39.505 17.475 39 20 C37.91460937 19.98839844 36.82921875 19.97679688 35.7109375 19.96484375 C34.26562673 19.95545862 32.82031409 19.94635919 31.375 19.9375 C30.66214844 19.92912109 29.94929688 19.92074219 29.21484375 19.91210938 C25.02655562 19.89289704 21.1271538 20.1732673 17 21 C17.33 22.98 17.66 24.96 18 27 C17.34 27.33 16.68 27.66 16 28 C15.34 27.67 14.68 27.34 14 27 C14 24.36 14 21.72 14 19 C8.06 19.33 2.12 19.66 -4 20 C-5.66413655 16.6717269 -4.81867406 13.00266027 -4.5625 9.375 C-4.51029297 8.57320312 -4.45808594 7.77140625 -4.40429688 6.9453125 C-4.27451629 4.96320897 -4.13790265 2.98155501 -4 1 C-2.68 0.67 -1.36 0.34 0 0 Z " fill="#C9C9C6" transform="translate(320,107)"/>
<path d="M0 0 C0.99 0 1.98 0 3 0 C2.68074659 2.87328071 2.15851969 4.75877438 0.5625 7.1875 C-2.69341431 9.49046378 -5.5579034 9.87272551 -9.46484375 10.41015625 C-12.07930831 10.86878382 -12.07930831 10.86878382 -14.30200195 12.47973633 C-17.25711764 14.14488024 -19.34868742 14.55684101 -22.703125 14.9140625 C-23.7653125 15.03523438 -24.8275 15.15640625 -25.921875 15.28125 C-27.02015625 15.3946875 -28.1184375 15.508125 -29.25 15.625 C-31.44310146 15.86360132 -33.63583708 16.10559849 -35.828125 16.3515625 C-36.7965332 16.45291504 -37.76494141 16.55426758 -38.76269531 16.65869141 C-40.96628716 16.76882659 -40.96628716 16.76882659 -42 18 C-44.375 18.3125 -44.375 18.3125 -47 18 C-48.5625 16.125 -48.5625 16.125 -50 14 C-52.08334635 12.7483533 -52.08334635 12.7483533 -54 12 C-53.67 11.34 -53.34 10.68 -53 10 C-50.3828125 9.65625 -50.3828125 9.65625 -47.125 9.5 C-42.25393659 9.29343551 -42.25393659 9.29343551 -38 7 C-38 6.01 -38 5.02 -38 4 C-36.68 4 -35.36 4 -34 4 C-34 4.99 -34 5.98 -34 7 C-32.02 7 -30.04 7 -28 7 C-31.4019487 9.09350689 -34.05272412 9.17942163 -38 9 C-38 9.66 -38 10.32 -38 11 C-37.37351562 10.9278125 -36.74703125 10.855625 -36.1015625 10.78125 C-35.28429687 10.6884375 -34.46703125 10.595625 -33.625 10.5 C-32.81289063 10.4071875 -32.00078125 10.314375 -31.1640625 10.21875 C-29 10 -29 10 -27 10 C-25.14195451 9.73416092 -23.2880737 9.43865656 -21.4375 9.125 C-19.95056641 8.88136719 -19.95056641 8.88136719 -18.43359375 8.6328125 C-17.63050781 8.42398437 -16.82742188 8.21515625 -16 8 C-15.67 7.34 -15.34 6.68 -15 6 C-12.88262268 5.21066478 -10.72945068 4.51582879 -8.5625 3.875 C-7.38816406 3.52179688 -6.21382813 3.16859375 -5.00390625 2.8046875 C-2 2 -2 2 0 2 C0 1.34 0 0.68 0 0 Z " fill="#F0EEEC" transform="translate(423,295)"/>
<path d="M0 0 C0.33 0 0.66 0 1 0 C1 34.65 1 69.3 1 105 C1.99 105 2.98 105 4 105 C4.33 105.99 4.66 106.98 5 108 C7.37225853 109.65892269 7.37225853 109.65892269 10.25 111.125 C11.68085938 111.90230469 11.68085938 111.90230469 13.140625 112.6953125 C15.80950688 113.91308101 18.11173149 114.56781384 21 115 C21 115.66 21 116.32 21 117 C22.485 117.495 22.485 117.495 24 118 C22 119 22 119 19.49609375 118.21484375 C12.80352063 115.4198611 6.84838853 112.29767945 1 108 C0.63822438 111.07509281 0.51979956 113.93291333 1 117 C5.06378462 121.68898225 10.30571049 123.73493817 16 126 C16 126.66 16 127.32 16 128 C21.94 128.66 27.88 129.32 34 130 C34 130.66 34 131.32 34 132 C41.26 132.33 48.52 132.66 56 133 C56 133.33 56 133.66 56 134 C52.77186442 134.22702385 49.54261311 134.42828723 46.3125 134.625 C45.40048828 134.68945312 44.48847656 134.75390625 43.54882812 134.8203125 C38.76262744 135.09878236 35.39651446 135.131165 31 133 C28.43124559 132.65645838 25.89065164 132.50095147 23.3046875 132.34375 C21 132 21 132 18 130 C16.55463698 129.48302559 15.09446743 129.00634938 13.625 128.5625 C10.07264394 127.43036701 7.15656365 126.00872233 4 124 C3.34 124 2.68 124 2 124 C1.01 127.465 1.01 127.465 0 131 C-0.33 131 -0.66 131 -1 131 C-1.03007493 113.82914912 -0.95513345 96.66211079 -0.78125 79.4921875 C-0.75871993 77.17522283 -0.73630202 74.85825706 -0.71398926 72.54129028 C-0.65591402 66.54108573 -0.59635024 60.54089691 -0.53643799 54.54071045 C-0.47518633 48.37871186 -0.41539552 42.21669909 -0.35546875 36.0546875 C-0.23838021 24.03644432 -0.11971352 12.0182173 0 0 Z " fill="#A59995" transform="translate(277,436)"/>
<path d="M0 0 C1.65 0 3.3 0 5 0 C5 19.47 5 38.94 5 59 C3.02 59.495 3.02 59.495 1 60 C0 59 0 59 -0.12025452 56.63987732 C-0.11803391 55.59396927 -0.11581329 54.54806122 -0.11352539 53.47045898 C-0.11344986 52.28931015 -0.11337433 51.10816132 -0.11329651 49.89122009 C-0.10813522 48.6058284 -0.10297394 47.32043671 -0.09765625 45.99609375 C-0.0962413 44.68794205 -0.09482635 43.37979034 -0.09336853 42.03199768 C-0.0895441 38.54837141 -0.07971446 35.06478661 -0.06866455 31.58117676 C-0.05844882 28.02873292 -0.05387056 24.47628241 -0.04882812 20.92382812 C-0.03809212 13.94920168 -0.0210166 6.97460283 0 0 Z " fill="#DB6D89" transform="translate(309,264)"/>
<path d="M0 0 C2.51005664 3.76508495 2.0258295 6.39461609 1.625 10.6875 C1.53992188 11.7403418 1.53992188 11.7403418 1.453125 12.81445312 C1.31195359 14.54380285 1.15728041 16.27204088 1 18 C0.67 18 0.34 18 0 18 C-0.495 12.555 -0.495 12.555 -1 7 C-1.94101562 7.63808594 -2.88203125 8.27617188 -3.8515625 8.93359375 C-5.10901685 9.76876865 -6.36684955 10.6033741 -7.625 11.4375 C-8.24246094 11.85837891 -8.85992187 12.27925781 -9.49609375 12.71289062 C-13.34018266 15.24189649 -16.31675886 16.59820294 -21 17 C-25.37611594 17.43043763 -29.07544995 17.9485672 -33.1875 19.5 C-43.48109439 23.11657455 -55.36125099 22.15771656 -66.125 22.125 C-67.40503906 22.12886719 -68.68507813 22.13273438 -70.00390625 22.13671875 C-77.39294964 22.12915576 -84.65690268 21.83578422 -92 21 C-92 20.34 -92 19.68 -92 19 C-90.79279297 18.9906543 -89.58558594 18.98130859 -88.34179688 18.97167969 C-43.29647001 20.93280079 -43.29647001 20.93280079 -3.2578125 4.34375 C-1.73072967 2.56317698 -1.73072967 2.56317698 0 0 Z " fill="#EEC2CB" transform="translate(425,551)"/>
<path d="M0 0 C0.66 0 1.32 0 2 0 C2.88607327 5.26456965 3.11140332 10.26620836 3.02172852 15.59741211 C3.01212097 16.42748779 3.00251343 17.25756348 2.99261475 18.11279297 C2.95984664 20.83440232 2.9194311 23.55583979 2.87890625 26.27734375 C2.8545834 28.17305408 2.83074095 30.06877064 2.80735779 31.9644928 C2.74473221 36.93754193 2.67560532 41.91047999 2.60510254 46.88342285 C2.53422389 51.96454846 2.46952407 57.04575238 2.40429688 62.12695312 C2.27556224 72.08472395 2.13938466 82.04237255 2 92 C8.27 92.33 14.54 92.66 21 93 C21 93.33 21 93.66 21 94 C34.365 94.495 34.365 94.495 48 95 C48 95.33 48 95.66 48 96 C42.5922885 96.02485162 37.18461079 96.04293147 31.77685547 96.05493164 C29.93993551 96.05993819 28.10301949 96.0667454 26.26611328 96.07543945 C23.61489892 96.08766697 20.96373757 96.09326523 18.3125 96.09765625 C17.09481934 96.10539818 17.09481934 96.10539818 15.85253906 96.11329651 C10.81366683 96.11378432 5.98023654 95.79615313 1 95 C-0.87788672 93.12211328 -0.12008587 90.40834091 -0.12442017 87.91021729 C-0.12082489 87.03484314 -0.11722961 86.15946899 -0.11352539 85.25756836 C-0.11367142 84.3405867 -0.11381744 83.42360504 -0.1139679 82.47883606 C-0.1132684 79.43248164 -0.10547428 76.38618755 -0.09765625 73.33984375 C-0.0957922 71.23377007 -0.09436824 69.12769597 -0.09336853 67.0216217 C-0.08954231 61.46657117 -0.07971114 55.91154659 -0.06866455 50.35650635 C-0.05845267 44.6927526 -0.05387139 39.02899467 -0.04882812 33.36523438 C-0.03808896 22.24347815 -0.0210113 11.12174123 0 0 Z " fill="#DEBFBF" transform="translate(323,464)"/>
<path d="M0 0 C0.33 0 0.66 0 1 0 C1.33 75.24 1.66 150.48 2 228 C1.67 228 1.34 228 1 228 C1 225.36 1 222.72 1 220 C0.52949219 220.37253906 0.05898438 220.74507812 -0.42578125 221.12890625 C-1.35970703 221.83853516 -1.35970703 221.83853516 -2.3125 222.5625 C-2.92738281 223.03816406 -3.54226563 223.51382813 -4.17578125 224.00390625 C-4.77777344 224.33261719 -5.37976563 224.66132812 -6 225 C-6.99 224.67 -7.98 224.34 -9 224 C-8.01 222.02 -8.01 222.02 -7 220 C-6.01 220 -5.02 220 -4 220 C-3.34 219.01 -2.68 218.02 -2 217 C-1.34 217 -0.68 217 0 217 C0 145.39 0 73.78 0 0 Z " fill="#EDEBEC" transform="translate(425,323)"/>
<path d="M0 0 C0.99 0.33 1.98 0.66 3 1 C2.071875 1.495 1.14375 1.99 0.1875 2.5 C-3.68072524 5.11093867 -4.86823868 8.60182548 -6 13 C-6.4764265 16.4591323 -6.58478979 19.887468 -6.6875 23.375 C-6.71565544 24.32359957 -6.74381088 25.27219913 -6.77281952 26.24954414 C-6.96805016 33.50337436 -7.03023937 40.7473166 -7.00585938 48.00341797 C-6.98331835 62.19341824 -7.09289531 76.38096838 -7.21875 90.5703125 C-7.24126691 93.20116088 -7.26368521 95.8320101 -7.28601074 98.46286011 C-7.33824914 104.59958923 -7.39159733 110.73630813 -7.4453826 116.87302387 C-7.50673424 123.87953186 -7.56679028 130.88605078 -7.62675762 137.89257073 C-7.74976821 152.26172607 -7.8743404 166.63086759 -8 181 C-8.33 181 -8.66 181 -9 181 C-9.09348788 159.10334407 -9.16400108 137.2067211 -9.20724869 115.30990601 C-9.22786405 105.14257125 -9.25596508 94.97536058 -9.30175781 84.80810547 C-9.34165693 75.94516192 -9.36744027 67.08230825 -9.37635398 58.21927738 C-9.38156351 53.52738886 -9.39378646 48.83575745 -9.42292023 44.14395142 C-9.45013791 39.72477396 -9.45843218 35.30595872 -9.45243073 30.8867054 C-9.45352813 29.26781303 -9.46144422 27.64890813 -9.4768219 26.03008842 C-9.61450895 10.78350123 -9.61450895 10.78350123 -5 4 C-2.4375 1.4375 -2.4375 1.4375 0 0 Z " fill="#CFCDCC" transform="translate(285,160)"/>
<path d="M0 0 C3.3 0.33 6.6 0.66 10 1 C10 1.66 10 2.32 10 3 C29.8 3 49.6 3 70 3 C70 3.33 70 3.66 70 4 C68.906875 4.309375 67.81375 4.61875 66.6875 4.9375 C64.44592006 5.58337897 62.2130649 6.2623117 60 7 C58.29225402 7.04479334 56.58288979 7.03892626 54.875 7 C49.82274147 6.946181 45.00687456 7.34336071 40 8 C40 7.34 40 6.68 40 6 C39.01 6.33 38.02 6.66 37 7 C33.21227558 7.23190945 29.41908123 7.18516948 25.625 7.1875 C24.06265625 7.20586914 24.06265625 7.20586914 22.46875 7.22460938 C20.95667969 7.22750977 20.95667969 7.22750977 19.4140625 7.23046875 C18.03661865 7.23663208 18.03661865 7.23663208 16.63134766 7.24291992 C13.7681679 6.9785978 11.60499404 6.18775254 9 5 C9 4.34 9 3.68 9 3 C8.14728516 3.12568359 8.14728516 3.12568359 7.27734375 3.25390625 C2.30340729 3.90990121 -2.04161601 4.11310661 -7 3 C-7.66 2.34 -8.32 1.68 -9 1 C-6.03 1 -3.06 1 0 1 C0 0.67 0 0.34 0 0 Z " fill="#D3D0D0" transform="translate(312,590)"/>
<path d="M0 0 C4.29 0.66 8.58 1.32 13 2 C12.67 3.65 12.34 5.3 12 7 C8.37 7 4.74 7 1 7 C1 7.66 1 8.32 1 9 C3.31 9.33 5.62 9.66 8 10 C8 11.32 8 12.64 8 14 C3.30114536 14.57328074 -1.26322436 15 -6 15 C-6.99 15.495 -6.99 15.495 -8 16 C-8 15.34 -8 14.68 -8 14 C-9.32 13.34 -10.64 12.68 -12 12 C-10.02 11.34 -8.04 10.68 -6 10 C-8.475 9.01 -8.475 9.01 -11 8 C-11 7.34 -11 6.68 -11 6 C-11.99 5.67 -12.98 5.34 -14 5 C-12.37585622 4.80522261 -10.75063577 4.61940542 -9.125 4.4375 C-8.22007812 4.33308594 -7.31515625 4.22867187 -6.3828125 4.12109375 C-4 4 -4 4 -2 5 C-1.67 4.01 -1.34 3.02 -1 2 C-0.67 1.34 -0.34 0.68 0 0 Z " fill="#D2CECA" transform="translate(333,299)"/>
<path d="M0 0 C3.74497671 0.93624418 5.21408345 2.55534063 7.5 5.625 C8.13403837 9.64057635 8.10171993 11.66224812 5.9375 15.125 C3.5 16.625 3.5 16.625 0 16.625 C-3.78885375 15.54247036 -5.30401609 14.87505618 -7.5 11.625 C-8.0625 8.6875 -8.0625 8.6875 -7.5 5.625 C-5.20985284 2.6150923 -3.70864386 0.92716097 0 0 Z " fill="#DCD9D5" transform="translate(329.5,233.375)"/>
<path d="M0 0 C-18.14480186 6.47385578 -36.22428771 7.37125517 -55.3125 7.3125 C-56.24204498 7.30995209 -57.17158997 7.30740417 -58.12930298 7.30477905 C-67.98071166 7.25844068 -77.82577663 7.03842291 -87.66796875 6.60546875 C-88.46544022 6.57584549 -89.26291168 6.54622223 -90.08454895 6.51570129 C-93.85372258 6.32522847 -95.7941758 6.13721613 -99 4 C-98.30081451 4.00444122 -97.60162903 4.00888245 -96.8812561 4.01345825 C-90.20575261 4.05397734 -83.53028475 4.08420473 -76.85468483 4.10362434 C-73.4248786 4.11394458 -69.99517619 4.12788064 -66.56542969 4.15087891 C-51.55440179 4.24891231 -36.8737799 4.1022899 -22 2 C-19.98012966 1.80239575 -17.95938535 1.61329321 -15.9375 1.4375 C-12.23263383 1.44086552 -12.23263383 1.44086552 -11 0 C-9.52887696 -0.25910191 -8.04698431 -0.45873776 -6.5625 -0.625 C-5.35787109 -0.76808594 -5.35787109 -0.76808594 -4.12890625 -0.9140625 C-2 -1 -2 -1 0 0 Z " fill="#E56C8B" transform="translate(410,563)"/>
<path d="M0 0 C0.99966797 0.68835938 0.99966797 0.68835938 2.01953125 1.390625 C10.08135563 6.75765773 18.23931501 10.94479081 28 12 C28 12.66 28 13.32 28 14 C28.66 14.33 29.32 14.66 30 15 C28.39504433 14.88557539 26.79101881 14.75805306 25.1875 14.625 C23.84751953 14.52058594 23.84751953 14.52058594 22.48046875 14.4140625 C20 14 20 14 17 12 C13.53500284 10.88625091 10.64751048 10 7 10 C7.65784475 13.1245358 7.65784475 13.1245358 10.07421875 14.09765625 C10.93660156 14.41605469 11.79898437 14.73445312 12.6875 15.0625 C13.58597656 15.39894531 14.48445313 15.73539063 15.41015625 16.08203125 C18.26208962 17.09289753 21.11448726 18.08878545 24 19 C24 19.33 24 19.66 24 20 C15.69848661 20.60374643 9.68913564 18.16648336 2.9375 13.375 C0.68937099 11.36515195 0.06580337 10.3996059 -0.4296875 7.390625 C-0.4367608 4.88667526 -0.30919322 2.48336141 0 0 Z " fill="#B2264A" transform="translate(277,543)"/>
<path d="M0 0 C4.69023454 0.56606279 9.34500026 1.18537505 14 2 C14 1.34 14 0.68 14 0 C18.75207471 -0.43200679 21.78210698 1.01510917 26 3 C25.67 4.65 25.34 6.3 25 8 C19.06 8 13.12 8 7 8 C6.67 7.01 6.34 6.02 6 5 C6 5.66 6 6.32 6 7 C0.25 7.125 0.25 7.125 -2 6 C-1.34 4.02 -0.68 2.04 0 0 Z " fill="#B7B2AF" transform="translate(320,266)"/>
<path d="M0 0 C1.5868619 0.06662397 3.17074416 0.20612004 4.75 0.375 C9.22647017 0.82794113 13.70083298 1.22342002 18.1875 1.5625 C19.84845703 1.68818359 19.84845703 1.68818359 21.54296875 1.81640625 C22.75919922 1.90728516 22.75919922 1.90728516 24 2 C25.125 6.75 25.125 6.75 24 9 C22.20841511 9.02696365 20.41671527 9.04637917 18.625 9.0625 C17.62726563 9.07410156 16.62953125 9.08570313 15.6015625 9.09765625 C13 9 13 9 11 8 C9.33727297 7.79777644 7.66945815 7.63588613 6 7.5 C1.22222222 7.11111111 1.22222222 7.11111111 -1 6 C-1.042721 4.33388095 -1.04063832 2.66617115 -1 1 C-0.67 0.67 -0.34 0.34 0 0 Z " fill="#BCB8B4" transform="translate(318,318)"/>
<path d="M0 0 C0.99 0 1.98 0 3 0 C2.68074659 2.87328071 2.15851969 4.75877438 0.5625 7.1875 C-2.73531913 9.52010378 -5.68541283 9.85867186 -9.625 10.5 C-12.13165195 10.88111023 -12.13165195 10.88111023 -14.4375 12.5625 C-18.62728455 14.91286694 -23.26880586 14.75971168 -28 15 C-27.67 13.35 -27.34 11.7 -27 10 C-26.21753906 9.87882812 -25.43507813 9.75765625 -24.62890625 9.6328125 C-23.11103516 9.38144531 -23.11103516 9.38144531 -21.5625 9.125 C-20.55316406 8.96257812 -19.54382813 8.80015625 -18.50390625 8.6328125 C-17.67761719 8.42398437 -16.85132813 8.21515625 -16 8 C-15.67 7.34 -15.34 6.68 -15 6 C-12.88262268 5.21066478 -10.72945068 4.51582879 -8.5625 3.875 C-7.38816406 3.52179688 -6.21382813 3.16859375 -5.00390625 2.8046875 C-2 2 -2 2 0 2 C0 1.34 0 0.68 0 0 Z " fill="#DFDDDB" transform="translate(423,295)"/>
<path d="M0 0 C-2.06756277 2.7972908 -3.14440371 3.02692273 -6.6875 3.6875 C-7.780625 3.790625 -8.87375 3.89375 -10 4 C-10 4.66 -10 5.32 -10 6 C-12.66545164 6.6512183 -15.33219056 7.29607161 -18 7.9375 C-18.74378906 8.11990234 -19.48757813 8.30230469 -20.25390625 8.49023438 C-20.99511719 8.66748047 -21.73632812 8.84472656 -22.5 9.02734375 C-23.1703125 9.18968506 -23.840625 9.35202637 -24.53125 9.51928711 C-31.5303337 10.88214271 -38.29839243 11.13748195 -45.40625 11.09765625 C-46.3715564 11.0962413 -47.33686279 11.09482635 -48.3314209 11.09336853 C-51.38764665 11.0878108 -54.44379673 11.0752663 -57.5 11.0625 C-59.58333227 11.05747953 -61.6666657 11.05291758 -63.75 11.04882812 C-68.83336209 11.03785524 -73.91666826 11.02062011 -79 11 C-79 10.67 -79 10.34 -79 10 C-70.9226327 9.32184023 -62.94686967 8.89892823 -54.83984375 9.0625 C-52.06059618 9.08588053 -52.06059618 9.08588053 -49.62890625 8.515625 C-46.81170331 7.96306811 -44.08936492 7.8774543 -41.22485352 7.81079102 C-33.0965862 7.58869746 -25.46916861 6.46656607 -17.5625 4.5625 C-16.65693359 4.3449707 -15.75136719 4.12744141 -14.81835938 3.90332031 C-9.56004694 2.57172177 -5.39045791 -0.2913761 0 0 Z " fill="#EEDBDA" transform="translate(417,548)"/>
<path d="M0 0 C0 0.99 0 1.98 0 3 C-1.65 3 -3.3 3 -5 3 C-5 3.66 -5 4.32 -5 5 C-7.68421327 5.8454215 -10.37156768 6.67647233 -13.0625 7.5 C-14.19075195 7.85771484 -14.19075195 7.85771484 -15.34179688 8.22265625 C-20.05887765 9.65207467 -24.0269211 10.146088 -29 10 C-29.9554068 10.24392738 -29.9554068 10.24392738 -30.93011475 10.49278259 C-33.1585797 11.03885935 -35.01921844 11.08381637 -37.30957031 11.02172852 C-38.15013977 11.00163223 -38.99070923 10.98153595 -39.85675049 10.96083069 C-40.75480408 10.93379562 -41.65285767 10.90676056 -42.578125 10.87890625 C-43.96798615 10.84348976 -43.96798615 10.84348976 -45.38592529 10.80735779 C-48.34077893 10.73088117 -51.29535987 10.64678793 -54.25 10.5625 C-56.25519506 10.5092633 -58.26040337 10.45652301 -60.265625 10.40429688 C-65.1772555 10.27528764 -70.08865522 10.13944779 -75 10 C-75 9.67 -75 9.34 -75 9 C-74.12601562 8.98541748 -73.25203125 8.97083496 -72.3515625 8.95581055 C-50.31399588 8.55730311 -50.31399588 8.55730311 -28.375 6.5625 C-26.94027344 6.37917114 -26.94027344 6.37917114 -25.4765625 6.19213867 C-20.483318 5.49808129 -15.82398971 4.44657606 -11 3 C-8.0625 2.875 -8.0625 2.875 -6 3 C-6 2.34 -6 1.68 -6 1 C-3.92446352 0.4465236 -2.15634036 0 0 0 Z " fill="#E77C95" transform="translate(413,551)"/>
<path d="M0 0 C0.33 0.99 0.66 1.98 1 3 C1.495 2.67 1.99 2.34 2.5 2 C6.09090894 0.56363642 9.14456127 0.87148538 13 1 C13.33 1.99 13.66 2.98 14 4 C9.05 4 4.1 4 -1 4 C-1 4.99 -1 5.98 -1 7 C3.95 7 8.9 7 14 7 C13.67 8.65 13.34 10.3 13 12 C4.585 12.495 4.585 12.495 -4 13 C-5.03159626 9.90521121 -4.97482862 8.47368607 -4.5625 5.3125 C-4.46066406 4.50425781 -4.35882813 3.69601563 -4.25390625 2.86328125 C-4.17011719 2.24839844 -4.08632813 1.63351563 -4 1 C-2.68 0.67 -1.36 0.34 0 0 Z " fill="#E0E0DF" transform="translate(320,107)"/>
<path d="M0 0 C16.70842825 -0.18451025 16.70842825 -0.18451025 25 1 C25 2.98 25 4.96 25 7 C23.02 7 21.04 7 19 7 C18.67 6.34 18.34 5.68 18 5 C17.67 5.66 17.34 6.32 17 7 C14.8203125 7.44921875 14.8203125 7.44921875 12.125 7.6875 C11.24070312 7.77386719 10.35640625 7.86023438 9.4453125 7.94921875 C7 8 7 8 4 7 C4 5.35 4 3.7 4 2 C3.34 2 2.68 2 2 2 C1.67 3.65 1.34 5.3 1 7 C0.67 7 0.34 7 0 7 C0 4.69 0 2.38 0 0 Z " fill="#C6C5C1" transform="translate(351,267)"/>
<path d="M0 0 C0.66 0 1.32 0 2 0 C1.979375 0.804375 1.95875 1.60875 1.9375 2.4375 C1.70366379 4.93354885 1.70366379 4.93354885 3 6 C3 4.02 3 2.04 3 0 C5.12534659 0.14069196 7.25027529 0.28770921 9.375 0.4375 C11.15003906 0.55931641 11.15003906 0.55931641 12.9609375 0.68359375 C16 1 16 1 18 2 C18.33 1.34 18.66 0.68 19 0 C19 0.66 19 1.32 19 2 C19.66 2 20.32 2 21 2 C21 2.99 21 3.98 21 5 C21.66 5 22.32 5 23 5 C23 5.66 23 6.32 23 7 C22.41992188 7.06058594 21.83984375 7.12117188 21.2421875 7.18359375 C17.67142301 7.56659654 14.15858154 7.97063305 10.625 8.625 C8 9 8 9 5 8 C3.33637583 7.65179959 1.67004829 7.31595508 0 7 C0 4.69 0 2.38 0 0 Z " fill="#D7D5D1" transform="translate(351,279)"/>
<path d="M0 0 C2.53541298 0.09086451 5.03554784 0.2370945 7.5625 0.4375 C8.62887695 0.51581055 8.62887695 0.51581055 9.71679688 0.59570312 C11.47821999 0.72574107 13.23916173 0.86226897 15 1 C16 4 16 4 15 7 C15.66 7 16.32 7 17 7 C17 6.01 17 5.02 17 4 C18.65 3.34 20.3 2.68 22 2 C22 2.66 22 3.32 22 4 C23.98 4 25.96 4 28 4 C27.01 4.33 26.02 4.66 25 5 C25 5.99 25 6.98 25 8 C23.35 8.33 21.7 8.66 20 9 C20 8.34 20 7.68 20 7 C20.66 7 21.32 7 22 7 C22 6.34 22 5.68 22 5 C21.01 5 20.02 5 19 5 C18.67 5.99 18.34 6.98 18 8 C16.35 8 14.7 8 13 8 C13 7.01 13 6.02 13 5 C12.34 5 11.68 5 11 5 C11 5.99 11 6.98 11 8 C7.37 7.67 3.74 7.34 0 7 C-0.38133299 5.0085944 -0.71325582 3.00720923 -1 1 C-0.67 0.67 -0.34 0.34 0 0 Z " fill="#9C9894" transform="translate(319,277)"/>
<path d="M0 0 C1.48831242 0.00667405 2.97660807 0.01863442 4.46484375 0.03515625 C5.22345703 0.03966797 5.98207031 0.04417969 6.76367188 0.04882812 C8.64326246 0.06064945 10.52281274 0.07858547 12.40234375 0.09765625 C12.40234375 1.08765625 12.40234375 2.07765625 12.40234375 3.09765625 C8.77234375 3.09765625 5.14234375 3.09765625 1.40234375 3.09765625 C1.40234375 4.08765625 1.40234375 5.07765625 1.40234375 6.09765625 C7.34234375 5.60265625 7.34234375 5.60265625 13.40234375 5.09765625 C13.40234375 6.41765625 13.40234375 7.73765625 13.40234375 9.09765625 C8.16889779 10.84213824 2.5227694 10.77619246 -2.72265625 9.09765625 C-3.34140625 8.76765625 -3.96015625 8.43765625 -4.59765625 8.09765625 C-4.64007348 5.7647085 -4.63858562 3.43063058 -4.59765625 1.09765625 C-3.59765625 0.09765625 -3.59765625 0.09765625 0 0 Z " fill="#CBCBCA" transform="translate(346.59765625,108.90234375)"/>
<path d="M0 0 C1.85772162 0.08984301 3.71247985 0.24611861 5.5625 0.4375 C7.08037109 0.59025391 7.08037109 0.59025391 8.62890625 0.74609375 C9.80259766 0.87177734 9.80259766 0.87177734 11 1 C11 1.66 11 2.32 11 3 C13.64 3 16.28 3 19 3 C18.67 4.65 18.34 6.3 18 8 C13.38 8 8.76 8 4 8 C4 7.34 4 6.68 4 6 C3.01 6 2.02 6 1 6 C1 6.66 1 7.32 1 8 C0.34 8 -0.32 8 -1 8 C-1.04241723 5.66705225 -1.04092937 3.33297433 -1 1 C-0.67 0.67 -0.34 0.34 0 0 Z " fill="#B4B0AD" transform="translate(339,289)"/>
<path d="M0 0 C0.33 0 0.66 0 1 0 C1.33 27.72 1.66 55.44 2 84 C1.67 84 1.34 84 1 84 C1 81.36 1 78.72 1 76 C0.52949219 76.37253906 0.05898438 76.74507812 -0.42578125 77.12890625 C-1.35970703 77.83853516 -1.35970703 77.83853516 -2.3125 78.5625 C-3.23482422 79.27599609 -3.23482422 79.27599609 -4.17578125 80.00390625 C-4.77777344 80.33261719 -5.37976563 80.66132812 -6 81 C-6.99 80.67 -7.98 80.34 -9 80 C-8.34 78.68 -7.68 77.36 -7 76 C-6.01 76 -5.02 76 -4 76 C-3.34 75.01 -2.68 74.02 -2 73 C-1.34 73 -0.68 73 0 73 C0 48.91 0 24.82 0 0 Z " fill="#EBE9E9" transform="translate(425,467)"/>
<path d="M0 0 C2.51005664 3.76508495 2.0258295 6.39461609 1.625 10.6875 C1.53992188 11.7403418 1.53992188 11.7403418 1.453125 12.81445312 C1.31195359 14.54380285 1.15728041 16.27204088 1 18 C0.67 18 0.34 18 0 18 C-0.495 12.555 -0.495 12.555 -1 7 C-1.94101562 7.63808594 -2.88203125 8.27617188 -3.8515625 8.93359375 C-5.10901685 9.76876865 -6.36684955 10.6033741 -7.625 11.4375 C-8.24246094 11.85837891 -8.85992187 12.27925781 -9.49609375 12.71289062 C-13.35028476 15.2485426 -16.30942248 16.60080191 -21 17 C-22.05960937 17.10441406 -23.11921875 17.20882812 -24.2109375 17.31640625 C-25.77714844 17.43822266 -25.77714844 17.43822266 -27.375 17.5625 C-28.96441406 17.68818359 -28.96441406 17.68818359 -30.5859375 17.81640625 C-31.38257813 17.87699219 -32.17921875 17.93757812 -33 18 C-29.71885174 15.81256783 -27.12105796 15.15507959 -23.3125 14.1875 C-18.11970421 12.76055405 -13.92495249 11.18350256 -9.55078125 8.05078125 C-8 7 -8 7 -5 6 C-3.57142881 4.59894424 -3.57142881 4.59894424 -2.3125 2.9375 C-1.549375 1.968125 -0.78625 0.99875 0 0 Z " fill="#EFD4D8" transform="translate(425,551)"/>
<path d="M0 0 C-1 2 -1 2 -2.84765625 2.6328125 C-3.57855469 2.79523438 -4.30945313 2.95765625 -5.0625 3.125 C-6.16271484 3.37636719 -6.16271484 3.37636719 -7.28515625 3.6328125 C-7.85105469 3.75398437 -8.41695313 3.87515625 -9 4 C-9 4.66 -9 5.32 -9 6 C-9.61875 6.103125 -10.2375 6.20625 -10.875 6.3125 C-13.36526484 6.87525373 -13.36526484 6.87525373 -15 10 C-14.01 10.66 -13.02 11.32 -12 12 C-13.32 12 -14.64 12 -16 12 C-16 18.6 -16 25.2 -16 32 C-22.75 34.25 -22.75 34.25 -27 34 C-26.67 33.34 -26.34 32.68 -26 32 C-23.35139573 31.40644386 -20.70802678 31.25790731 -18 31 C-18.01047363 30.35450195 -18.02094727 29.70900391 -18.03173828 29.04394531 C-18.07337272 26.11266998 -18.09934975 23.18145696 -18.125 20.25 C-18.14175781 19.23421875 -18.15851563 18.2184375 -18.17578125 17.171875 C-18.18222656 16.1921875 -18.18867188 15.2125 -18.1953125 14.203125 C-18.20578613 13.30239258 -18.21625977 12.40166016 -18.22705078 11.47363281 C-17.98131881 8.79647546 -17.44699944 7.25277713 -16 5 C-10.67942888 0.86177802 -6.61753115 -0.18907232 0 0 Z " fill="#DFDEDB" transform="translate(315,126)"/>
<path d="M0 0 C-0.33 0.66 -0.66 1.32 -1 2 C-4.03671772 3.01223924 -5.95972281 3.07214307 -9.125 3 C-14.17725853 2.946181 -18.99312544 3.34336071 -24 4 C-24 3.34 -24 2.68 -24 2 C-24.99 2.33 -25.98 2.66 -27 3 C-30.82948409 3.23137114 -34.66425566 3.18516398 -38.5 3.1875 C-40.08748047 3.20586914 -40.08748047 3.20586914 -41.70703125 3.22460938 C-42.72152344 3.22654297 -43.73601562 3.22847656 -44.78125 3.23046875 C-45.71001953 3.23457764 -46.63878906 3.23868652 -47.59570312 3.24291992 C-50 3 -50 3 -53 1 C-46.57709082 0.85650095 -40.15415559 0.71421384 -33.73120117 0.57275391 C-31.54792681 0.524528 -29.36465848 0.47602858 -27.18139648 0.42724609 C-24.03631117 0.3570209 -20.89120524 0.28779175 -17.74609375 0.21875 C-16.7760289 0.19687622 -15.80596405 0.17500244 -14.8065033 0.15246582 C-9.86951445 0.04507833 -4.93815005 -0.02387021 0 0 Z " fill="#DDDBDC" transform="translate(376,594)"/>
<path d="M0 0 C0.33 0 0.66 0 1 0 C1 2.31 1 4.62 1 7 C2.98 7 4.96 7 7 7 C7.99 9.31 8.98 11.62 10 14 C6.7 13.67 3.4 13.34 0 13 C0 12.34 0 11.68 0 11 C-3.63 10.67 -7.26 10.34 -11 10 C-11 9.34 -11 8.68 -11 8 C-10.34 8 -9.68 8 -9 8 C-9 7.34 -9 6.68 -9 6 C-8.01 6 -7.02 6 -6 6 C-5.67 5.34 -5.34 4.68 -5 4 C-5 4.99 -5 5.98 -5 7 C-2.96758273 6.36020151 -2.96758273 6.36020151 -1 5 C-0.18828772 2.44480079 -0.18828772 2.44480079 0 0 Z " fill="#DFDBD8" transform="translate(350,279)"/>
<path d="M0 0 C2.97 0 5.94 0 9 0 C9 1.98 9 3.96 9 6 C7.68 6.33 6.36 6.66 5 7 C5.825 7.78375 6.65 8.5675 7.5 9.375 C10 12 10 12 10 14 C7.50638429 12.79618552 5.31856917 11.54571278 3 10 C2.67 11.65 2.34 13.3 2 15 C1.34 15 0.68 15 0 15 C0 10.05 0 5.1 0 0 Z " fill="#AFAFAD" transform="translate(389,234)"/>
<path d="M0 0 C0.99 0.33 1.98 0.66 3 1 C2.67 1.99 2.34 2.98 2 4 C2.99 3.67 3.98 3.34 5 3 C7.26171875 3.12109375 7.26171875 3.12109375 9.6875 3.4375 C10.49574219 3.53933594 11.30398438 3.64117187 12.13671875 3.74609375 C12.75160156 3.82988281 13.36648438 3.91367187 14 4 C14 5.32 14 6.64 14 8 C13.01 8.33 12.02 8.66 11 9 C11.33 9.66 11.66 10.32 12 11 C11.67 11.99 11.34 12.98 11 14 C10.34 14 9.68 14 9 14 C9 12.02 9 10.04 9 8 C8.01 8.20625 7.02 8.4125 6 8.625 C1.62162112 9.27862302 -1.79347412 8.25457789 -6 7 C-5.01 6.67 -4.02 6.34 -3 6 C-3 5.01 -3 4.02 -3 3 C-1.68 3 -0.36 3 1 3 C0.67 2.01 0.34 1.02 0 0 Z " fill="#D5D1CD" transform="translate(325,270)"/>
<path d="M0 0 C0.36666667 7.33333333 0.36666667 7.33333333 -1.375 10.5 C-3 12 -3 12 -5 12 C-5.33 12.99 -5.66 13.98 -6 15 C-7.65 15 -9.3 15 -11 15 C-11 14.01 -11 13.02 -11 12 C-10.34 12 -9.68 12 -9 12 C-8.67 10.68 -8.34 9.36 -8 8 C-8.99 7.34 -9.98 6.68 -11 6 C-9.54550599 4.9944239 -8.08627557 3.99569565 -6.625 3 C-5.40683594 2.1646875 -5.40683594 2.1646875 -4.1640625 1.3125 C-2 0 -2 0 0 0 Z " fill="#F16589" transform="translate(426,543)"/>
<path d="M0 0 C0 0.66 0 1.32 0 2 C-14.67163815 3.06151387 -29.29479376 3.11106651 -44 3 C-44 2.34 -44 1.68 -44 1 C-38.37701642 0.68917608 -32.75368418 0.38623571 -27.12988281 0.09057617 C-25.2170061 -0.01110013 -23.30424234 -0.11492541 -21.39160156 -0.22094727 C-18.64154539 -0.37301423 -15.8911749 -0.51733477 -13.140625 -0.66015625 C-12.28631897 -0.70906509 -11.43201294 -0.75797394 -10.55181885 -0.80836487 C-9.75129089 -0.8484819 -8.95076294 -0.88859894 -8.12597656 -0.92993164 C-7.42426331 -0.96768204 -6.72255005 -1.00543243 -5.99957275 -1.04432678 C-3.86437912 -0.99699354 -2.04609345 -0.59238359 0 0 Z " fill="#BCBAB9" transform="translate(384,591)"/>
<path d="M0 0 C3.74497671 0.93624418 5.21408345 2.55534063 7.5 5.625 C8.13403837 9.64057635 8.10171993 11.66224812 5.9375 15.125 C3.5 16.625 3.5 16.625 0 16.625 C-3.78885375 15.54247036 -5.30401609 14.87505618 -7.5 11.625 C-8.0625 8.6875 -8.0625 8.6875 -7.5 5.625 C-5.20985284 2.6150923 -3.70864386 0.92716097 0 0 Z M-4.5 4.625 C-4.72918242 8.64157143 -4.72918242 8.64157143 -4.5 12.625 C-2.61499729 14.94063087 -2.61499729 14.94063087 0.5 14.875 C3.61499729 14.94063087 3.61499729 14.94063087 5.5 12.625 C5.84490322 8.57238713 5.80163882 7.07745824 3.5 3.625 C-0.80733607 2.99698361 -0.80733607 2.99698361 -4.5 4.625 Z " fill="#8B8782" transform="translate(329.5,233.375)"/>
<path d="M0 0 C0.33 0 0.66 0 1 0 C1 1.65 1 3.3 1 5 C3.64 5 6.28 5 9 5 C8.67 5.99 8.34 6.98 8 8 C4.04 8 0.08 8 -4 8 C-4.33 9.65 -4.66 11.3 -5 13 C-6.32 12.67 -7.64 12.34 -9 12 C-8.01 12 -7.02 12 -6 12 C-6 10.68 -6 9.36 -6 8 C-8.31 7.67 -10.62 7.34 -13 7 C-13 6.34 -13 5.68 -13 5 C-8.34462607 4.16203269 -4.62921525 3.9838308 0 5 C0 3.35 0 1.7 0 0 Z M9 4 C11 5 11 5 11 5 Z " fill="#DEDAD7" transform="translate(347,301)"/>
<path d="M0 0 C-6.95817343 2.5322237 -13.75971802 4.01668592 -21.0625 5.1875 C-22.09955078 5.36474609 -23.13660156 5.54199219 -24.20507812 5.72460938 C-29.88365067 6.6572348 -35.24683286 7.20029033 -41 7 C-40.67 6.01 -40.34 5.02 -40 4 C-37.20841218 3.68678263 -34.41673478 3.37440265 -31.625 3.0625 C-30.80459229 2.9704126 -29.98418457 2.8783252 -29.13891602 2.78344727 C-24.74138469 2.29290158 -20.34448529 1.83638042 -15.9375 1.4375 C-12.23263383 1.44086552 -12.23263383 1.44086552 -11 0 C-9.52887696 -0.25910191 -8.04698431 -0.45873776 -6.5625 -0.625 C-5.35787109 -0.76808594 -5.35787109 -0.76808594 -4.12890625 -0.9140625 C-2 -1 -2 -1 0 0 Z " fill="#E77A95" transform="translate(410,563)"/>
<path d="M0 0 C0.58265625 -0.15339844 1.1653125 -0.30679687 1.765625 -0.46484375 C4.48446137 -1.11603358 6.95731388 -1.09574626 9.75 -1.0625 C10.73484375 -1.05347656 11.7196875 -1.04445313 12.734375 -1.03515625 C13.85585938 -1.01775391 13.85585938 -1.01775391 15 -1 C15 -0.34 15 0.32 15 1 C11.52090109 3.09429787 8.45613039 3.40861894 4.4375 3.6875 C3.30183594 3.77386719 2.16617187 3.86023438 0.99609375 3.94921875 C-2 4 -2 4 -5 3 C-5 3.66 -5 4.32 -5 5 C-5.99 5 -6.98 5 -8 5 C-8 3.35 -8 1.7 -8 0 C-4.86567988 -1.00746004 -3.13816549 -0.78454137 0 0 Z " fill="#BDBCB8" transform="translate(366,301)"/>
<path d="M0 0 C2.05078125 0.03255208 4.1015625 0.06510417 6.15234375 0.09765625 C6.15234375 0.75765625 6.15234375 1.41765625 6.15234375 2.09765625 C4.17234375 2.09765625 2.19234375 2.09765625 0.15234375 2.09765625 C0.15234375 3.41765625 0.15234375 4.73765625 0.15234375 6.09765625 C2.46234375 6.09765625 4.77234375 6.09765625 7.15234375 6.09765625 C7.15234375 6.42765625 7.15234375 6.75765625 7.15234375 7.09765625 C4.84234375 7.42765625 2.53234375 7.75765625 0.15234375 8.09765625 C0.15234375 10.07765625 0.15234375 12.05765625 0.15234375 14.09765625 C3.61734375 13.60265625 3.61734375 13.60265625 7.15234375 13.09765625 C6.82234375 14.08765625 6.49234375 15.07765625 6.15234375 16.09765625 C0 16.1953125 0 16.1953125 -1.84765625 16.09765625 C-2.84765625 15.09765625 -2.84765625 15.09765625 -2.98046875 11.97265625 C-2.97789062 10.69390625 -2.9753125 9.41515625 -2.97265625 8.09765625 C-2.97523438 6.81890625 -2.9778125 5.54015625 -2.98046875 4.22265625 C-2.80731192 0.14837801 -2.80731192 0.14837801 0 0 Z " fill="#8D8C89" transform="translate(376.84765625,234.90234375)"/>
<path d="M0 0 C0.33 -0.33 0.66 -0.66 1 -1 C2.52519276 -0.91062197 4.04681929 -0.75462854 5.5625 -0.5625 C6.38878906 -0.46066406 7.21507812 -0.35882813 8.06640625 -0.25390625 C8.70449219 -0.17011719 9.34257812 -0.08632813 10 0 C8.68 0.33 7.36 0.66 6 1 C6 2.32 6 3.64 6 5 C3.35541621 6.32229189 1.32238699 6.09677194 -1.625 6.0625 C-2.62789063 6.05347656 -3.63078125 6.04445313 -4.6640625 6.03515625 C-5.43492187 6.02355469 -6.20578125 6.01195312 -7 6 C-7.33 5.01 -7.66 4.02 -8 3 C-7.34 3 -6.68 3 -6 3 C-6 2.34 -6 1.68 -6 1 C-6.66 0.67 -7.32 0.34 -8 0 C-5.15266466 -1.42366767 -3.07246902 -0.52297345 0 0 Z " fill="#DFDCD9" transform="translate(352,300)"/>
<path d="M0 0 C0.99580078 0.24556641 0.99580078 0.24556641 2.01171875 0.49609375 C5.62883337 1.10603857 9.15860708 1.10795513 12.8125 1.0625 C13.50537109 1.05798828 14.19824219 1.05347656 14.91210938 1.04882812 C16.60811068 1.03713156 18.30406703 1.01919924 20 1 C20 2.32 20 3.64 20 5 C13.4 5 6.8 5 0 5 C0 3.35 0 1.7 0 0 Z " fill="#AFABA8" transform="translate(343,309)"/>
<path d="M0 0 C0.71027344 0.08378906 1.42054688 0.16757813 2.15234375 0.25390625 C3.53099609 0.40666016 3.53099609 0.40666016 4.9375 0.5625 C5.85402344 0.66691406 6.77054687 0.77132812 7.71484375 0.87890625 C8.84599609 0.93884766 8.84599609 0.93884766 10 1 C10.33 0.67 10.66 0.34 11 0 C12.99958364 -0.04080783 15.00045254 -0.04254356 17 0 C17.33 1.65 17.66 3.3 18 5 C12.39436958 5.82622671 7.57710648 6.06795656 2 5 C2 4.34 2 3.68 2 3 C0.68 3.33 -0.64 3.66 -2 4 C-1.34 2.68 -0.68 1.36 0 0 Z " fill="#DFE0DD" transform="translate(372,120)"/>
<path d="M0 0 C0.66 0 1.32 0 2 0 C2 2.31 2 4.62 2 7 C4.64 7 7.28 7 10 7 C10 5.02 10 3.04 10 1 C10.66 1 11.32 1 12 1 C12 5.95 12 10.9 12 16 C11.34 16 10.68 16 10 16 C10 13.69 10 11.38 10 9 C7.36 9 4.72 9 2 9 C2 11.31 2 13.62 2 16 C1.34 16 0.68 16 0 16 C0 10.72 0 5.44 0 0 Z " fill="#84827E" transform="translate(342,235)"/>
<path d="M0 0 C0.66 1.32 1.32 2.64 2 4 C1.01 5.485 1.01 5.485 0 7 C1.32 7.66 2.64 8.32 4 9 C4 10.65 4 12.3 4 14 C3.67 13.01 3.34 12.02 3 11 C2.39671875 11.01160156 1.7934375 11.02320313 1.171875 11.03515625 C-0.02695312 11.04869141 -0.02695312 11.04869141 -1.25 11.0625 C-2.43335938 11.07990234 -2.43335938 11.07990234 -3.640625 11.09765625 C-5.90691002 11.00385306 -7.8288895 10.63241063 -10 10 C-10.33 8.68 -10.66 7.36 -11 6 C-7.3558226 3.5705484 -5.28758728 3.83820425 -1 4 C-0.67 2.68 -0.34 1.36 0 0 Z " fill="#E6E5E1" transform="translate(369,270)"/>
<path d="M0 0 C0.33 1.32 0.66 2.64 1 4 C0.21753906 4.13277344 -0.56492187 4.26554687 -1.37109375 4.40234375 C-2.88896484 4.66724609 -2.88896484 4.66724609 -4.4375 4.9375 C-5.44683594 5.11152344 -6.45617187 5.28554688 -7.49609375 5.46484375 C-9.9287438 5.74751097 -9.9287438 5.74751097 -11 7 C-13.4375 7.25 -13.4375 7.25 -16 7 C-16.66 6.01 -17.32 5.02 -18 4 C-17.67 3.34 -17.34 2.68 -17 2 C-14.12817413 1.52381188 -11.32879853 1.15832403 -8.4375 0.875 C-7.63119141 0.78863281 -6.82488281 0.70226562 -5.99414062 0.61328125 C-3.99695936 0.40056372 -1.99857263 0.19922145 0 0 Z " fill="#B9B7B5" transform="translate(392,306)"/>
<path d="M0 0 C1.65 0 3.3 0 5 0 C5.33 0.99 5.66 1.98 6 3 C8.37225853 4.65892269 8.37225853 4.65892269 11.25 6.125 C12.20390625 6.64320313 13.1578125 7.16140625 14.140625 7.6953125 C16.80950688 8.91308101 19.11173149 9.56781384 22 10 C22 10.66 22 11.32 22 12 C22.99 12.33 23.98 12.66 25 13 C23 14 23 14 20.49609375 13.21484375 C13.80352063 10.4198611 7.84838853 7.29767945 2 3 C1.67 5.64 1.34 8.28 1 11 C0.67 11 0.34 11 0 11 C0 7.37 0 3.74 0 0 Z " fill="#B58487" transform="translate(276,541)"/>
<path d="M0 0 C5.94 0.33 11.88 0.66 18 1 C17.67 2.32 17.34 3.64 17 5 C14.54159395 5.02691685 12.08348118 5.04679802 9.625 5.0625 C8.92632812 5.07087891 8.22765625 5.07925781 7.5078125 5.08789062 C2.2265625 5.11328125 2.2265625 5.11328125 0 4 C0 2.68 0 1.36 0 0 Z " fill="#272827" transform="translate(316,120)"/>
<path d="M0 0 C0.99 0.33 1.98 0.66 3 1 C3 1.66 3 2.32 3 3 C7.62 3 12.24 3 17 3 C17 4.32 17 5.64 17 7 C13.7 7 10.4 7 7 7 C7 6.01 7 5.02 7 4 C6.29230469 4.16113281 5.58460938 4.32226562 4.85546875 4.48828125 C1.95420419 5.00820691 -0.74234913 5.16741029 -3.6875 5.1875 C-4.64011719 5.20167969 -5.59273438 5.21585937 -6.57421875 5.23046875 C-9 5 -9 5 -11 3 C-7.7 3 -4.4 3 -1 3 C-0.67 2.01 -0.34 1.02 0 0 Z " fill="#CFCDC9" transform="translate(356,306)"/>
<path d="M0 0 C1.8156735 0.06411688 3.6290486 0.20097477 5.4375 0.375 C6.42621094 0.46523438 7.41492188 0.55546875 8.43359375 0.6484375 C11 1 11 1 13 2 C12.01 3.485 12.01 3.485 11 5 C10.34 4.67 9.68 4.34 9 4 C9 4.99 9 5.98 9 7 C1.25 7.125 1.25 7.125 -1 6 C-1.042721 4.33388095 -1.04063832 2.66617115 -1 1 C-0.67 0.67 -0.34 0.34 0 0 Z " fill="#B9B6B0" transform="translate(318,318)"/>
<path d="M0 0 C7.75 0.75 7.75 0.75 10 3 C10 3.99 10 4.98 10 6 C10.99 6 11.98 6 13 6 C13 6.66 13 7.32 13 8 C11.02 8 9.04 8 7 8 C6.67 7.01 6.34 6.02 6 5 C6 5.66 6 6.32 6 7 C0.25 7.125 0.25 7.125 -2 6 C-1.34 4.02 -0.68 2.04 0 0 Z " fill="#B6B2AD" transform="translate(320,266)"/>
<path d="M0 0 C0.66 0 1.32 0 2 0 C2.33 1.65 2.66 3.3 3 5 C3.598125 4.484375 4.19625 3.96875 4.8125 3.4375 C5.534375 2.963125 6.25625 2.48875 7 2 C7.99 2.33 8.98 2.66 10 3 C7.03 5.475 7.03 5.475 4 8 C5.2065625 9.1446875 5.2065625 9.1446875 6.4375 10.3125 C9 13 9 13 10 16 C7.50638429 14.79618552 5.31856917 13.54571278 3 12 C2.67 12.99 2.34 13.98 2 15 C1.34 15 0.68 15 0 15 C0 10.05 0 5.1 0 0 Z " fill="#77736C" transform="translate(309,232)"/>
<path d="M0 0 C2.97 0 5.94 0 9 0 C9.33 1.32 9.66 2.64 10 4 C11.9837767 5.28436734 11.9837767 5.28436734 14 6 C13.05125 6.309375 12.1025 6.61875 11.125 6.9375 C8.13919592 7.87394742 8.13919592 7.87394742 6 9 C6 8.34 6 7.68 6 7 C3.36 6.67 0.72 6.34 -2 6 C-2 5.34 -2 4.68 -2 4 C-0.35 4 1.3 4 3 4 C3 3.34 3 2.68 3 2 C2.01 2 1.02 2 0 2 C0 1.34 0 0.68 0 0 Z " fill="#D7D3CF" transform="translate(320,291)"/>
<path d="M0 0 C5.61 0 11.22 0 17 0 C16.34 1.32 15.68 2.64 15 4 C13.06257659 4.02703381 11.12504521 4.04641125 9.1875 4.0625 C8.10855469 4.07410156 7.02960938 4.08570312 5.91796875 4.09765625 C3 4 3 4 0 3 C0 2.01 0 1.02 0 0 Z " fill="#484848" transform="translate(317,114)"/>
<path d="M0 0 C0.78375 0.13277344 1.5675 0.26554688 2.375 0.40234375 C17.47868861 2.63209088 32.76085625 2.65894929 48 3 C48 3.33 48 3.66 48 4 C34.8 4 21.6 4 8 4 C8 3.34 8 2.68 8 2 C5.69 2 3.38 2 1 2 C0.67 1.34 0.34 0.68 0 0 Z " fill="#E36A84" transform="translate(322,558)"/>
<path d="M0 0 C2.1796875 0.015625 2.1796875 0.015625 4.875 0.25 C6.20144531 0.35054688 6.20144531 0.35054688 7.5546875 0.453125 C10 1 10 1 13 4 C8.71 3.67 4.42 3.34 0 3 C0 9.93 0 16.86 0 24 C-0.33 24 -0.66 24 -1 24 C-1.02887236 20.18751574 -1.04675492 16.3750593 -1.0625 12.5625 C-1.07087891 11.47388672 -1.07925781 10.38527344 -1.08789062 9.26367188 C-1.09111328 8.22919922 -1.09433594 7.19472656 -1.09765625 6.12890625 C-1.10289307 5.17056885 -1.10812988 4.21223145 -1.11352539 3.22485352 C-1 1 -1 1 0 0 Z " fill="#CDBBB7" transform="translate(310,460)"/>
<path d="M0 0 C1.65 0 3.3 0 5 0 C5 1.32 5 2.64 5 4 C5.66 4 6.32 4 7 4 C7 3.34 7 2.68 7 2 C8.98 2 10.96 2 13 2 C12.67 3.65 12.34 5.3 12 7 C8.71303767 7.79953138 7.28976808 8.09658936 4 7 C4 5.35 4 3.7 4 2 C3.34 2 2.68 2 2 2 C1.67 3.65 1.34 5.3 1 7 C0.67 7 0.34 7 0 7 C0 4.69 0 2.38 0 0 Z " fill="#B0AEAA" transform="translate(351,267)"/>
<path d="M0 0 C1.85772162 0.08984301 3.71247985 0.24611861 5.5625 0.4375 C7.08037109 0.59025391 7.08037109 0.59025391 8.62890625 0.74609375 C9.80259766 0.87177734 9.80259766 0.87177734 11 1 C11 1.33 11 1.66 11 2 C9.35 2.33 7.7 2.66 6 3 C5.67 4.32 5.34 5.64 5 7 C5.99 7 6.98 7 8 7 C8.33 6.34 8.66 5.68 9 5 C9 5.99 9 6.98 9 8 C7.35 8 5.7 8 4 8 C4 7.34 4 6.68 4 6 C3.01 6 2.02 6 1 6 C1 6.66 1 7.32 1 8 C0.34 8 -0.32 8 -1 8 C-1.04241723 5.66705225 -1.04092937 3.33297433 -1 1 C-0.67 0.67 -0.34 0.34 0 0 Z " fill="#CECAC7" transform="translate(339,289)"/>
<path d="M0 0 C5.61 0 11.22 0 17 0 C17 0.99 17 1.98 17 3 C14.28344597 4.35827701 12.09210594 4.1323445 9.0625 4.125 C8.00160156 4.12757812 6.94070313 4.13015625 5.84765625 4.1328125 C3 4 3 4 0 3 C0 2.01 0 1.02 0 0 Z " fill="#1A1A18" transform="translate(343,122)"/>
<path d="M0 0 C-0.33 1.65 -0.66 3.3 -1 5 C-2.98 5 -4.96 5 -7 5 C-7 4.01 -7 3.02 -7 2 C-8.32 2 -9.64 2 -11 2 C-10.67 3.32 -10.34 4.64 -10 6 C-10.66 6 -11.32 6 -12 6 C-12.042721 4.33388095 -12.04063832 2.66617115 -12 1 C-9.19301445 -1.80698555 -3.49996404 -1.25998705 0 0 Z " fill="#CBCAC8" transform="translate(396,297)"/>
<path d="M0 0 C0.99 0.33 1.98 0.66 3 1 C2.071875 1.495 1.14375 1.99 0.1875 2.5 C-3.68337851 5.12747791 -4.91326451 8.56997293 -6 13 C-6.46850839 16.99849476 -6.59938893 20.97710016 -6.6875 25 C-6.72166016 26.06089844 -6.75582031 27.12179688 -6.79101562 28.21484375 C-6.87283825 30.80979001 -6.94219995 33.40442636 -7 36 C-7.33 36 -7.66 36 -8 36 C-8.11651725 31.62522526 -8.18736 27.25085173 -8.25 22.875 C-8.28351563 21.6375 -8.31703125 20.4 -8.3515625 19.125 C-8.4736449 7.77133661 -8.4736449 7.77133661 -4 3 C-1.9375 1.0625 -1.9375 1.0625 0 0 Z " fill="#CCCBC7" transform="translate(285,160)"/>
<path d="M0 0 C3.96 0.33 7.92 0.66 12 1 C12 1.66 12 2.32 12 3 C19.26 3.33 26.52 3.66 34 4 C34 4.33 34 4.66 34 5 C30.8141361 5.25748454 27.626706 5.47577773 24.4375 5.6875 C23.09461914 5.79674805 23.09461914 5.79674805 21.72460938 5.90820312 C15.84210199 6.27451311 12.23704978 5.69787413 7 3 C5.69808813 2.57062166 4.38754989 2.16404385 3.0625 1.8125 C2.051875 1.544375 1.04125 1.27625 0 1 C0 0.67 0 0.34 0 0 Z " fill="#D19AA1" transform="translate(299,565)"/>
<path d="M0 0 C0.99 0 1.98 0 3 0 C2.64947365 3.15473719 2.13480924 4.8233534 0.1875 7.375 C-2 9 -2 9 -4.25 8.75 C-5.11625 8.37875 -5.11625 8.37875 -6 8 C-5.67 7.01 -5.34 6.02 -5 5 C-5.66 4.67 -6.32 4.34 -7 4 C-4.69 3.34 -2.38 2.68 0 2 C0 1.34 0 0.68 0 0 Z " fill="#D5D3D2" transform="translate(423,295)"/>
<path d="M0 0 C0.33 1.32 0.66 2.64 1 4 C-1.9331358 4.97771193 -3.88178994 5.13419011 -6.9375 5.125 C-8.21947266 5.12886719 -8.21947266 5.12886719 -9.52734375 5.1328125 C-11.82680852 5.00930254 -13.79640348 4.64420687 -16 4 C-16 3.01 -16 2.02 -16 1 C-14.92878906 1.01160156 -13.85757812 1.02320312 -12.75390625 1.03515625 C-11.35677257 1.04453299 -9.95963701 1.05363331 -8.5625 1.0625 C-7.85544922 1.07087891 -7.14839844 1.07925781 -6.41992188 1.08789062 C-4.61306441 1.09653588 -2.80612397 1.05220011 -1 1 C-0.67 0.67 -0.34 0.34 0 0 Z " fill="#2F2F2F" transform="translate(359,114)"/>
<path d="M0 0 C2.69082872 0.17635452 5.32851446 0.61835921 8 1 C7.01 1.495 7.01 1.495 6 2 C6.33 2.99 6.66 3.98 7 5 C6.67 5.66 6.34 6.32 6 7 C4.02 7 2.04 7 0 7 C-0.38133299 5.0085944 -0.71325582 3.00720923 -1 1 C-0.67 0.67 -0.34 0.34 0 0 Z " fill="#AFABA6" transform="translate(319,277)"/>
<path d="M0 0 C3.63 0 7.26 0 11 0 C2.75437234 4.12281383 -6.89804667 4.36983106 -16 4 C-16.33 3.34 -16.66 2.68 -17 2 C-11.39 2 -5.78 2 0 2 C0 1.34 0 0.68 0 0 Z " fill="#F8CDD3" transform="translate(388,555)"/>
<path d="M0 0 C0.54527344 0.19335938 1.09054687 0.38671875 1.65234375 0.5859375 C7.0438052 2.44760453 12.40921726 3.87655666 18 5 C18 5.66 18 6.32 18 7 C18.66 7.33 19.32 7.66 20 8 C18.39504433 7.88557539 16.79101881 7.75805306 15.1875 7.625 C14.29417969 7.55539062 13.40085937 7.48578125 12.48046875 7.4140625 C10 7 10 7 7 5 C4.67891331 4.29187186 2.34622853 3.61975848 0 3 C0 2.01 0 1.02 0 0 Z " fill="#C8506C" transform="translate(287,550)"/>
<path d="M0 0 C-0.33 0.66 -0.66 1.32 -1 2 C-4.03671772 3.01223924 -5.95972281 3.07214307 -9.125 3 C-14.17725853 2.946181 -18.99312544 3.34336071 -24 4 C-24 3.34 -24 2.68 -24 2 C-21.31306278 1.66148822 -18.62559711 1.329064 -15.9375 1 C-14.80924805 0.85691406 -14.80924805 0.85691406 -13.65820312 0.7109375 C-9.06578683 0.15428098 -4.6257865 -0.09829028 0 0 Z " fill="#E5E3E4" transform="translate(376,594)"/>
<path d="M0 0 C-0.33 1.32 -0.66 2.64 -1 4 C-3.97 4.66 -6.94 5.32 -10 6 C-10 4.35 -10 2.7 -10 1 C-6.61981469 -0.04005702 -3.5219721 -0.08004482 0 0 Z " fill="#BCBAB8" transform="translate(418,300)"/>
<path d="M0 0 C3.5625 0.125 3.5625 0.125 5.5625 1.125 C5.2325 3.105 4.9025 5.085 4.5625 7.125 C4.2325 5.805 3.9025 4.485 3.5625 3.125 C1.5825 3.125 -0.3975 3.125 -2.4375 3.125 C-2.4375 3.785 -2.4375 4.445 -2.4375 5.125 C-1.4475 5.125 -0.4575 5.125 0.5625 5.125 C0.5625 5.785 0.5625 6.445 0.5625 7.125 C-1.0875 6.795 -2.7375 6.465 -4.4375 6.125 C-4.480221 4.45888095 -4.47813832 2.79117115 -4.4375 1.125 C-3.4375 0.125 -3.4375 0.125 0 0 Z " fill="#9D9994" transform="translate(322.4375,287.875)"/>
<path d="M0 0 C0.66 0 1.32 0 2 0 C2 3.96 2 7.92 2 12 C4.64 12 7.28 12 10 12 C10 12.66 10 13.32 10 14 C6.7 14 3.4 14 0 14 C0 9.38 0 4.76 0 0 Z " fill="#93918D" transform="translate(360,237)"/>
<path d="M0 0 C3.96 0.33 7.92 0.66 12 1 C11.67 2.65 11.34 4.3 11 6 C9.35 6 7.7 6 6 6 C6 5.34 6 4.68 6 4 C4.02 4 2.04 4 0 4 C0 2.68 0 1.36 0 0 Z " fill="#B9B5B2" transform="translate(334,300)"/>
<path d="M0 0 C2.12493141 -0.02693575 4.24995912 -0.04636628 6.375 -0.0625 C7.55835938 -0.07410156 8.74171875 -0.08570312 9.9609375 -0.09765625 C13 0 13 0 15 1 C15 1.66 15 2.32 15 3 C10.05 3 5.1 3 0 3 C0 2.01 0 1.02 0 0 Z " fill="#EEEEED" transform="translate(319,111)"/>
<path d="M0 0 C5.64044076 0.93094653 10.16177492 1.82059495 15 5 C17.69254991 5.70670728 17.69254991 5.70670728 20 6 C20 6.33 20 6.66 20 7 C13.44310422 7.47686515 8.69415056 6.35808879 3 3 C1.23828125 1.36328125 1.23828125 1.36328125 0 0 Z " fill="#C64161" transform="translate(281,556)"/>
<path d="M0 0 C1.32 0 2.64 0 4 0 C4 3.63 4 7.26 4 11 C3.67 11 3.34 11 3 11 C3 8.36 3 5.72 3 3 C2.52949219 3.37253906 2.05898438 3.74507812 1.57421875 4.12890625 C0.95160156 4.60199219 0.32898438 5.07507813 -0.3125 5.5625 C-0.92738281 6.03816406 -1.54226563 6.51382813 -2.17578125 7.00390625 C-2.77777344 7.33261719 -3.37976563 7.66132812 -4 8 C-4.99 7.67 -5.98 7.34 -7 7 C-6.34 5.68 -5.68 4.36 -5 3 C-4.01 3 -3.02 3 -2 3 C-1.34 2.01 -0.68 1.02 0 0 Z " fill="#EDC6CE" transform="translate(423,540)"/>
<path d="M0 0 C0.33 0 0.66 0 1 0 C1 1.65 1 3.3 1 5 C3.64 5 6.28 5 9 5 C8.67 5.99 8.34 6.98 8 8 C6.39667209 8.08121924 4.79215974 8.13929134 3.1875 8.1875 C2.29417969 8.22230469 1.40085937 8.25710938 0.48046875 8.29296875 C-2.41647515 7.95081002 -3.22555028 7.24606427 -5 5 C-3.35 5 -1.7 5 0 5 C0 3.35 0 1.7 0 0 Z M9 4 C11 5 11 5 11 5 Z " fill="#E8E4E1" transform="translate(347,301)"/>
<path d="M0 0 C0 0.99 0 1.98 0 3 C1.65 3.33 3.3 3.66 5 4 C5 4.33 5 4.66 5 5 C-0.625 5.25 -0.625 5.25 -4 3 C-4 4.65 -4 6.3 -4 8 C-4.66 7.01 -5.32 6.02 -6 5 C-8.05003955 3.80767387 -8.05003955 3.80767387 -10 3 C-7.28464405 0.28464405 -3.67870689 -1.83935344 0 0 Z " fill="#D8D4D1" transform="translate(337,296)"/>
<path d="M0 0 C1.65 0.33 3.3 0.66 5 1 C5.38218767 2.65614657 5.71395102 4.32457024 6 6 C5 7 5 7 2.4375 7.0625 C1.2309375 7.0315625 1.2309375 7.0315625 0 7 C-1.125 2.25 -1.125 2.25 0 0 Z " fill="#AEAAA7" transform="translate(330,289)"/>
<path d="M0 0 C1.97909398 -0.02686553 3.95828971 -0.04633375 5.9375 -0.0625 C7.03964844 -0.07410156 8.14179688 -0.08570313 9.27734375 -0.09765625 C12 0 12 0 13 1 C15.18019479 1.39666227 17.3696463 1.74315237 19.5625 2.0625 C20.76003906 2.23910156 21.95757812 2.41570313 23.19140625 2.59765625 C24.11824219 2.73042969 25.04507812 2.86320313 26 3 C26 3.33 26 3.66 26 4 C23.16595415 3.88494258 20.33320381 3.75822275 17.5 3.625 C16.70851563 3.5940625 15.91703125 3.563125 15.1015625 3.53125 C9.81871388 3.27143777 5.09256131 2.43666294 0 1 C0 0.67 0 0.34 0 0 Z " fill="#D85B78" transform="translate(293,563)"/>
<path d="M0 0 C0.99 0 1.98 0 3 0 C4.0257259 4.41062136 4.03684712 6.92630576 2 11 C0.68 10.34 -0.64 9.68 -2 9 C-1.34 6.03 -0.68 3.06 0 0 Z " fill="#DBD9D5" transform="translate(356,146)"/>
<path d="M0 0 C0.79664063 0.09796875 1.59328125 0.1959375 2.4140625 0.296875 C3.29578125 0.40386719 4.1775 0.51085937 5.0859375 0.62109375 C10.08571409 1.34196101 15.06505163 2.16659473 20.0390625 3.046875 C20.0390625 3.376875 20.0390625 3.706875 20.0390625 4.046875 C11.8334588 4.34286872 4.11468423 3.48482354 -3.9609375 2.046875 C-1.9609375 0.046875 -1.9609375 0.046875 0 0 Z " fill="#B3B2AE" transform="translate(312.9609375,587.953125)"/>
<path d="M0 0 C0.556875 0.721875 1.11375 1.44375 1.6875 2.1875 C6.28051726 8.25083459 6.28051726 8.25083459 13 11 C13 12.32 13 13.64 13 15 C10.5625 14.1875 10.5625 14.1875 8 13 C7.67 12.01 7.34 11.02 7 10 C6.38125 9.690625 5.7625 9.38125 5.125 9.0625 C2.52125095 7.76062547 1.46920213 6.49764362 0 4 C0 2.68 0 1.36 0 0 Z " fill="#B1B0AC" transform="translate(277,569)"/>
<path d="M0 0 C1.04808041 1.97522846 2.0520411 3.97481509 3 6 C-0.3 5.67 -3.6 5.34 -7 5 C-6.67 3.35 -6.34 1.7 -6 0 C-2.25 -1.125 -2.25 -1.125 0 0 Z " fill="#E6E3DF" transform="translate(357,287)"/>
<path d="M0 0 C0.33 0.66 0.66 1.32 1 2 C1.66 2 2.32 2 3 2 C3.33 3.32 3.66 4.64 4 6 C2.68 5.67 1.36 5.34 0 5 C0 4.34 0 3.68 0 3 C-0.99 3 -1.98 3 -3 3 C-3 3.99 -3 4.98 -3 6 C-4.32 6 -5.64 6 -7 6 C-7 5.01 -7 4.02 -7 3 C-7.66 3 -8.32 3 -9 3 C-9.33 3.99 -9.66 4.98 -10 6 C-10 4.68 -10 3.36 -10 2 C-2.25 0.875 -2.25 0.875 0 2 C0 1.34 0 0.68 0 0 Z " fill="#A7A6A2" transform="translate(369,279)"/>
<path d="M0 0 C2.00720923 0.28674418 4.0085944 0.61866701 6 1 C6 2.32 6 3.64 6 5 C1.545 5.495 1.545 5.495 -3 6 C-1.125 1.125 -1.125 1.125 0 0 Z " fill="#B7B3B0" transform="translate(335,308)"/>
<path d="M0 0 C0 2.97 0 5.94 0 9 C-1.98 9.33 -3.96 9.66 -6 10 C-5.745504 8.51793505 -5.47088238 7.03931385 -5.1875 5.5625 C-5.03667969 4.73878906 -4.88585937 3.91507813 -4.73046875 3.06640625 C-4.48941406 2.38449219 -4.24835938 1.70257813 -4 1 C-1 0 -1 0 0 0 Z " fill="#E0DDD9" transform="translate(341,239)"/>
<path d="M0 0 C2.05078125 0.03255208 4.1015625 0.06510417 6.15234375 0.09765625 C6.15234375 0.75765625 6.15234375 1.41765625 6.15234375 2.09765625 C4.17234375 2.09765625 2.19234375 2.09765625 0.15234375 2.09765625 C0.15234375 3.41765625 0.15234375 4.73765625 0.15234375 6.09765625 C-0.50765625 6.09765625 -1.16765625 6.09765625 -1.84765625 6.09765625 C-1.84765625 9.06765625 -1.84765625 12.03765625 -1.84765625 15.09765625 C-2.17765625 15.09765625 -2.50765625 15.09765625 -2.84765625 15.09765625 C-2.87451037 12.78521833 -2.89398466 10.47269355 -2.91015625 8.16015625 C-2.92175781 6.87238281 -2.93335938 5.58460938 -2.9453125 4.2578125 C-2.81833933 0.14896085 -2.81833933 0.14896085 0 0 Z " fill="#A8A7A4" transform="translate(376.84765625,234.90234375)"/>
<path d="M0 0 C0.33 0 0.66 0 1 0 C1 6.6 1 13.2 1 20 C-5.75 22.25 -5.75 22.25 -10 22 C-9.67 21.34 -9.34 20.68 -9 20 C-6.03 19.67 -3.06 19.34 0 19 C0 12.73 0 6.46 0 0 Z " fill="#CBC9C3" transform="translate(298,138)"/>
<path d="M0 0 C-1.46301048 2.92602095 -3.41022764 3.09705209 -6.4375 4.1875 C-7.42621094 4.55230469 -8.41492188 4.91710937 -9.43359375 5.29296875 C-12 6 -12 6 -14 5 C-14 4.01 -14 3.02 -14 2 C-12.23225581 1.46877637 -10.46065917 0.95035927 -8.6875 0.4375 C-7.70136719 0.14746094 -6.71523438 -0.14257812 -5.69921875 -0.44140625 C-3 -1 -3 -1 0 0 Z " fill="#D6D3D2" transform="translate(408,584)"/>
<path d="M0 0 C4.71403788 0.47939368 8.66579301 0.96834048 13 3 C13 3.33 13 3.66 13 4 C11.39679026 4.19551338 9.79237014 4.38111983 8.1875 4.5625 C7.29417969 4.66691406 6.40085937 4.77132813 5.48046875 4.87890625 C3 5 3 5 0 4 C0 2.68 0 1.36 0 0 Z " fill="#A7A49E" transform="translate(318,306)"/>
<path d="M0 0 C2.64 0.33 5.28 0.66 8 1 C8 2.32 8 3.64 8 5 C5.03 5 2.06 5 -1 5 C-0.67 3.35 -0.34 1.7 0 0 Z " fill="#AAA6A1" transform="translate(323,299)"/>
<path d="M0 0 C1.65 0.33 3.3 0.66 5 1 C5 2.65 5 4.3 5 6 C0.9472484 6.98248524 -2.83861737 7.08159574 -7 7 C-4 5 -4 5 -1 5 C-1 4.01 -1 3.02 -1 2 C-0.01 2 0.98 2 2 2 C1.67 3.32 1.34 4.64 1 6 C1.66 6 2.32 6 3 6 C3 4.35 3 2.7 3 1 C2.01 0.67 1.02 0.34 0 0 Z " fill="#D0CCC9" transform="translate(338,320)"/>
<path d="M0 0 C-0.99 0.66 -1.98 1.32 -3 2 C-3 2.33 -3 2.66 -3 3 C-8.94 3 -14.88 3 -21 3 C-21 2.67 -21 2.34 -21 2 C-18.25162151 1.46892686 -15.50187625 0.94984119 -12.75 0.4375 C-11.97269531 0.28603516 -11.19539063 0.13457031 -10.39453125 -0.02148438 C-9.64042969 -0.16005859 -8.88632812 -0.29863281 -8.109375 -0.44140625 C-7.07248535 -0.63778687 -7.07248535 -0.63778687 -6.01464844 -0.83813477 C-3.78712058 -1.01710362 -2.12493038 -0.65206197 0 0 Z " fill="#F2C3CA" transform="translate(398,567)"/>
<path d="M0 0 C0.33 0 0.66 0 1 0 C1.31991247 3.51903714 1.37169764 5.42015168 -0.5625 8.4375 C-3 10 -3 10 -6.5625 9.9375 C-9.79520311 9.0558537 -11.0564631 8.6294911 -13 6 C-12.67 5.01 -12.34 4.02 -12 3 C-11.62875 3.66 -11.2575 4.32 -10.875 5 C-9.10182098 7.31961569 -9.10182098 7.31961569 -5.9375 7.375 C-2.88138759 7.28930236 -2.88138759 7.28930236 -1 5 C-0.35232207 2.42938689 -0.35232207 2.42938689 0 0 Z " fill="#6F6B67" transform="translate(336,240)"/>
<path d="M0 0 C0 3 0 3 -2 6 C-1.38125 6.226875 -0.7625 6.45375 -0.125 6.6875 C2.61410209 8.37929835 3.05024472 9.99244161 4 13 C3.01 13.33 2.02 13.66 1 14 C1 12.68 1 11.36 1 10 C-0.28118697 8.45039499 -0.28118697 8.45039499 -2 7.25 C-2.99 6.5075 -3.98 5.765 -5 5 C-3.35 3.35 -1.7 1.7 0 0 Z " fill="#CFCBC4" transform="translate(317,236)"/>
<path d="M0 0 C4 1.33333333 8 2.66666667 12 4 C12 4.66 12 5.32 12 6 C12.99 6.33 13.98 6.66 15 7 C13 8 13 8 10.21484375 7.109375 C9.13332031 6.66078125 8.05179687 6.2121875 6.9375 5.75 C5.85339844 5.31171875 4.76929688 4.8734375 3.65234375 4.421875 C1 3 1 3 0 0 Z " fill="#BA9B9A" transform="translate(286,547)"/>
<path d="M0 0 C0.33 1.32 0.66 2.64 1 4 C-1.31 4.66 -3.62 5.32 -6 6 C-6 5.34 -6 4.68 -6 4 C-7.32 3.34 -8.64 2.68 -10 2 C-6.7 1.34 -3.4 0.68 0 0 Z " fill="#C1BDB9" transform="translate(331,309)"/>
<path d="M0 0 C0 0.66 0 1.32 0 2 C-0.66 2 -1.32 2 -2 2 C-2 2.66 -2 3.32 -2 4 C-1.34 4.33 -0.68 4.66 0 5 C-0.66 5 -1.32 5 -2 5 C-2 5.99 -2 6.98 -2 8 C-3.32 8.33 -4.64 8.66 -6 9 C-6.75 6.75 -6.75 6.75 -7 4 C-4.69139139 0.94933862 -3.89789797 0 0 0 Z " fill="#D6D2CF" transform="translate(341,282)"/>
<path d="M0 0 C2.97 0 5.94 0 9 0 C9.33 2.31 9.66 4.62 10 7 C9.01 7 8.02 7 7 7 C6.67 5.68 6.34 4.36 6 3 C4.68 2.67 3.36 2.34 2 2 C2 2.66 2 3.32 2 4 C1.34 4 0.68 4 0 4 C0 2.68 0 1.36 0 0 Z " fill="#C6C5C1" transform="translate(356,267)"/>
<path d="M0 0 C4.62 0 9.24 0 14 0 C13.67 1.32 13.34 2.64 13 4 C8.71 3.01 4.42 2.02 0 1 C0 0.67 0 0.34 0 0 Z " fill="#646463" transform="translate(320,121)"/>
<path d="M0 0 C0.99 0.33 1.98 0.66 3 1 C2.34 1 1.68 1 1 1 C1 1.99 1 2.98 1 4 C6.28 4 11.56 4 17 4 C17 4.66 17 5.32 17 6 C8.585 6.495 8.585 6.495 0 7 C-1.04449911 3.86650268 -0.93423645 3.01031744 0 0 Z " fill="#BCBCBC" transform="translate(316,113)"/>
<path d="M0 0 C2.31 0 4.62 0 7 0 C7 1.32 7 2.64 7 4 C4.36 4 1.72 4 -1 4 C-0.67 2.68 -0.34 1.36 0 0 Z " fill="#BEBAB7" transform="translate(349,302)"/>
<path d="M0 0 C2.64 0 5.28 0 8 0 C8 1.65 8 3.3 8 5 C5.125 5.625 5.125 5.625 2 6 C1.34 5.34 0.68 4.68 0 4 C0.99 4 1.98 4 3 4 C3 3.34 3 2.68 3 2 C2.01 2 1.02 2 0 2 C0 1.34 0 0.68 0 0 Z " fill="#CCC9C3" transform="translate(320,291)"/>
<path d="M0 0 C0.86625 0.495 1.7325 0.99 2.625 1.5 C6.10749623 3.0477761 8.24759458 3.26802896 12 3 C11.67 3.99 11.34 4.98 11 6 C4.67741935 6.36476427 4.67741935 6.36476427 1.5625 4.6875 C0 3 0 3 0 0 Z " fill="#D1CDC9" transform="translate(323,246)"/>
<path d="M0 0 C0.66 0.66 1.32 1.32 2 2 C5.08347826 2.16681109 5.08347826 2.16681109 8 2 C8 3.32 8 4.64 8 6 C5.36 6 2.72 6 0 6 C0 4.02 0 2.04 0 0 Z " fill="#E5E4E0" transform="translate(344,236)"/>
<path d="M0 0 C0.66 0 1.32 0 2 0 C1.979375 0.804375 1.95875 1.60875 1.9375 2.4375 C1.70366379 4.93354885 1.70366379 4.93354885 3 6 C3 4.02 3 2.04 3 0 C3.99 0.66 4.98 1.32 6 2 C6 3.32 6 4.64 6 6 C4.02 6.33 2.04 6.66 0 7 C0 4.69 0 2.38 0 0 Z " fill="#A19E9B" transform="translate(351,279)"/>
<path d="M0 0 C3.63 0 7.26 0 11 0 C10.67 0.99 10.34 1.98 10 3 C6.37 3 2.74 3 -1 3 C-0.67 2.01 -0.34 1.02 0 0 Z " fill="#C4C0BC" transform="translate(344,311)"/>
<path d="M0 0 C0.66 0 1.32 0 2 0 C2 0.66 2 1.32 2 2 C3.98 2 5.96 2 8 2 C7.01 2.33 6.02 2.66 5 3 C5 3.99 5 4.98 5 6 C3.35 6.33 1.7 6.66 0 7 C0 6.34 0 5.68 0 5 C0.66 5 1.32 5 2 5 C2 4.34 2 3.68 2 3 C0.68 2.67 -0.64 2.34 -2 2 C-1.34 1.34 -0.68 0.68 0 0 Z " fill="#A8A4A0" transform="translate(339,279)"/>
<path d="M0 0 C4.38462134 0.50109958 6.8000997 1.98295115 10 5 C10 5.66 10 6.32 10 7 C7.50638429 5.79618552 5.31856917 4.54571278 3 3 C2.67 3.99 2.34 4.98 2 6 C1.34 6 0.68 6 0 6 C0 4.02 0 2.04 0 0 Z " fill="#87837B" transform="translate(309,241)"/>
<path d="M0 0 C1.258125 0.12375 2.51625 0.2475 3.8125 0.375 C4.87404297 0.47941406 4.87404297 0.47941406 5.95703125 0.5859375 C8 1 8 1 11 3 C12.9896995 3.39013716 14.99019869 3.73202649 17 4 C17 4.33 17 4.66 17 5 C15.741875 5.04125 14.48375 5.0825 13.1875 5.125 C12.47980469 5.14820313 11.77210938 5.17140625 11.04296875 5.1953125 C9 5 9 5 6 3 C4.01200182 2.29835358 2.01301483 1.62627128 0 1 C0 0.67 0 0.34 0 0 Z " fill="#BAA39F" transform="translate(289,563)"/>
<path d="M0 0 C3.3 0 6.6 0 10 0 C9.67 0.99 9.34 1.98 9 3 C6.36 3 3.72 3 1 3 C0.67 2.01 0.34 1.02 0 0 Z " fill="#F0EEEA" transform="translate(358,306)"/>
<path d="M0 0 C0.33 0 0.66 0 1 0 C1 4.62 1 9.24 1 14 C0.01 13.67 -0.98 13.34 -2 13 C-1.48041715 8.62065881 -0.94324258 4.31196609 0 0 Z " fill="#CDC7C0" transform="translate(308,233)"/>
<path d="M0 0 C2.64 0 5.28 0 8 0 C8 1.98 8 3.96 8 6 C7.01 6.33 6.02 6.66 5 7 C5.33 5.35 5.66 3.7 6 2 C4.02 2 2.04 2 0 2 C0 1.34 0 0.68 0 0 Z " fill="#838381" transform="translate(390,234)"/>
<path d="M0 0 C4.571279 0.54855348 8.67435795 1.41744803 13 3 C13 3.33 13 3.66 13 4 C11.39592672 4.02708567 9.7917215 4.04643483 8.1875 4.0625 C6.84751953 4.07990234 6.84751953 4.07990234 5.48046875 4.09765625 C3 4 3 4 0 3 C0 2.01 0 1.02 0 0 Z " fill="#131313" transform="translate(317,114)"/>
<path d="M0 0 C2.51005664 3.76508495 2.0258295 6.39461609 1.625 10.6875 C1.56828125 11.38939453 1.5115625 12.09128906 1.453125 12.81445312 C1.31195359 14.54380285 1.15728041 16.27204088 1 18 C0.67 18 0.34 18 0 18 C-0.06058594 17.22914063 -0.12117188 16.45828125 -0.18359375 15.6640625 C-0.26738281 14.66117188 -0.35117187 13.65828125 -0.4375 12.625 C-0.51871094 11.62726562 -0.59992188 10.62953125 -0.68359375 9.6015625 C-0.84965626 7.02072387 -0.84965626 7.02072387 -2 5 C-1.0625 2.375 -1.0625 2.375 0 0 Z " fill="#EBE4E2" transform="translate(425,551)"/>
<path d="M0 0 C0 0.66 0 1.32 0 2 C-1.58086048 2.36504603 -3.16483907 2.71660506 -4.75 3.0625 C-5.63171875 3.25972656 -6.5134375 3.45695313 -7.421875 3.66015625 C-9.98679028 3.99825872 -11.57091639 3.81158635 -14 3 C-4.58997722 -0.44419134 -4.58997722 -0.44419134 0 0 Z " fill="#F5DDDE" transform="translate(406,565)"/>
<path d="M0 0 C1.43655854 -0.08131463 2.8744483 -0.13933559 4.3125 -0.1875 C5.51326172 -0.23970703 5.51326172 -0.23970703 6.73828125 -0.29296875 C9.47851584 0.06198392 10.29171079 0.89366282 12 3 C7.83861737 3.08159574 4.0527516 2.98248524 0 2 C0 1.34 0 0.68 0 0 Z " fill="#DDABB3" transform="translate(311,461)"/>
<path d="M0 0 C1.65 0 3.3 0 5 0 C4.67 0.99 4.34 1.98 4 3 C4.99 3.33 5.98 3.66 7 4 C6 5 6 5 3.5625 5.25 C2.716875 5.1675 1.87125 5.085 1 5 C0.34 4.01 -0.32 3.02 -1 2 C-0.67 1.34 -0.34 0.68 0 0 Z " fill="#D0CECC" transform="translate(375,308)"/>
<path d="M0 0 C0 1.32 0 2.64 0 4 C-2.64 4.33 -5.28 4.66 -8 5 C-8.33 4.34 -8.66 3.68 -9 3 C-2.25 0 -2.25 0 0 0 Z " fill="#B7B5B3" transform="translate(406,303)"/>
<path d="M0 0 C2 0 4 0 6 0 C5.67 1.65 5.34 3.3 5 5 C3.35 5 1.7 5 0 5 C-0.33 4.01 -0.66 3.02 -1 2 C-0.67 1.34 -0.34 0.68 0 0 Z " fill="#A29E9B" transform="translate(340,269)"/>
<path d="M0 0 C0.66 0.66 1.32 1.32 2 2 C0.35 2.33 -1.3 2.66 -3 3 C-3.33 3.99 -3.66 4.98 -4 6 C-4.66 6 -5.32 6 -6 6 C-6.33 5.01 -6.66 4.02 -7 3 C-6.34 3 -5.68 3 -5 3 C-5 2.34 -5 1.68 -5 1 C-5.66 0.67 -6.32 0.34 -7 0 C-4.29393021 -1.35303489 -2.8671629 -0.7884698 0 0 Z " fill="#D7D3D0" transform="translate(351,300)"/>
<path d="M0 0 C0.99 0 1.98 0 3 0 C3 1.65 3 3.3 3 5 C2.34 5 1.68 5 1 5 C1 5.99 1 6.98 1 8 C0.34 8 -0.32 8 -1 8 C-1.04241723 5.66705225 -1.04092937 3.33297433 -1 1 C-0.67 0.67 -0.34 0.34 0 0 Z " fill="#ABA7A3" transform="translate(339,289)"/>
<path d="M0 0 C1.85772162 0.08984301 3.71247985 0.24611861 5.5625 0.4375 C7.08037109 0.59025391 7.08037109 0.59025391 8.62890625 0.74609375 C9.80259766 0.87177734 9.80259766 0.87177734 11 1 C11.33 2.32 11.66 3.64 12 5 C11.34 5 10.68 5 10 5 C10 4.34 10 3.68 10 3 C7.03 3 4.06 3 1 3 C0.34 4.32 -0.32 5.64 -1 7 C-1.04254356 5.00045254 -1.04080783 2.99958364 -1 1 C-0.67 0.67 -0.34 0.34 0 0 Z " fill="#C5C3BD" transform="translate(318,286)"/>
<path d="M0 0 C4.27343092 -0.36629408 6.48812804 0.59185923 10 3 C9.34 3.66 8.68 4.32 8 5 C8 4.34 8 3.68 8 3 C7.34 3 6.68 3 6 3 C5.34 4.32 4.68 5.64 4 7 C3.67 5.35 3.34 3.7 3 2 C2.01 2 1.02 2 0 2 C0 1.34 0 0.68 0 0 Z " fill="#C4C0BC" transform="translate(334,266)"/>
<path d="M0 0 C0.33 0 0.66 0 1 0 C1 2.31 1 4.62 1 7 C-0.43655854 7.08131463 -1.8744483 7.13933559 -3.3125 7.1875 C-4.51326172 7.23970703 -4.51326172 7.23970703 -5.73828125 7.29296875 C-8 7 -8 7 -11 4 C-7.7 4.33 -4.4 4.66 -1 5 C-0.67 3.35 -0.34 1.7 0 0 Z " fill="#BEAFA8" transform="translate(309,548)"/>
<path d="M0 0 C1.98 0 3.96 0 6 0 C6 1.32 6 2.64 6 4 C3.69 4 1.38 4 -1 4 C-0.67 2.68 -0.34 1.36 0 0 Z " fill="#BAB8B4" transform="translate(357,310)"/>
<path d="M0 0 C0.99 0 1.98 0 3 0 C3 1.98 3 3.96 3 6 C1.35 5.67 -0.3 5.34 -2 5 C-2 4.01 -2 3.02 -2 2 C-1.34 2 -0.68 2 0 2 C0 1.34 0 0.68 0 0 Z " fill="#AFADAA" transform="translate(373,268)"/>
<path d="M0 0 C3.63 0 7.26 0 11 0 C7.3750203 1.81248985 5.62740416 2.31888915 1.75 2.625 C0.85796875 2.69976563 -0.0340625 2.77453125 -0.953125 2.8515625 C-1.62859375 2.90054688 -2.3040625 2.94953125 -3 3 C-2.01 2.67 -1.02 2.34 0 2 C0 1.34 0 0.68 0 0 Z " fill="#F1C6CF" transform="translate(388,555)"/>
<path d="M0 0 C0.66 0.33 1.32 0.66 2 1 C1.01 2.485 1.01 2.485 0 4 C-0.66 3.67 -1.32 3.34 -2 3 C-2 3.99 -2 4.98 -2 6 C-2.99 6 -3.98 6 -5 6 C-5 5.34 -5 4.68 -5 4 C-5.66 3.67 -6.32 3.34 -7 3 C-4.69631264 1.93347808 -2.35981813 0.93578995 0 0 Z " fill="#AFACA7" transform="translate(329,319)"/>
<path d="M0 0 C0.625 1.875 0.625 1.875 1 4 C-1 6 -1 6 -3.625 6.125 C-4.40875 6.08375 -5.1925 6.0425 -6 6 C-6 5.34 -6 4.68 -6 4 C-4.68 3.67 -3.36 3.34 -2 3 C-2 2.34 -2 1.68 -2 1 C-1.34 0.67 -0.68 0.34 0 0 Z " fill="#E6E4E2" transform="translate(383,299)"/>
<path d="M0 0 C1.32 0 2.64 0 4 0 C4 0.99 4 1.98 4 3 C5.98 3 7.96 3 10 3 C8.375 4.125 8.375 4.125 6 5 C2.75 4.125 2.75 4.125 0 3 C0 2.01 0 1.02 0 0 Z " fill="#E6E5E4" transform="translate(385,299)"/>
<path d="M0 0 C1.65 0 3.3 0 5 0 C5 2.31 5 4.62 5 7 C4.67 7 4.34 7 4 7 C4 5.35 4 3.7 4 2 C3.34 2 2.68 2 2 2 C1.67 3.65 1.34 5.3 1 7 C0.67 7 0.34 7 0 7 C0 4.69 0 2.38 0 0 Z " fill="#9D9996" transform="translate(351,267)"/>
<path d="M0 0 C0 0.99 0 1.98 0 3 C-4.52092968 4.45606519 -7.51648796 3.27032841 -12 2 C-12 1.67 -12 1.34 -12 1 C-10.37512529 0.83211627 -8.75009558 0.66573213 -7.125 0.5 C-6.22007812 0.4071875 -5.31515625 0.314375 -4.3828125 0.21875 C-2 0 -2 0 0 0 Z " fill="#3D3E3B" transform="translate(360,122)"/>
<path d="M0 0 C5.61 0 11.22 0 17 0 C17 0.33 17 0.66 17 1 C16.31292969 1.06058594 15.62585938 1.12117187 14.91796875 1.18359375 C13.56638672 1.30927734 13.56638672 1.30927734 12.1875 1.4375 C10.84751953 1.55931641 10.84751953 1.55931641 9.48046875 1.68359375 C6.87256441 1.93489767 6.87256441 1.93489767 4 3 C2.68 2.01 1.36 1.02 0 0 Z " fill="#CAB7B4" transform="translate(316,570)"/>
<path d="M0 0 C0.66 0 1.32 0 2 0 C2 0.99 2 1.98 2 3 C2.66 3 3.32 3 4 3 C4 3.99 4 4.98 4 6 C2.02 6 0.04 6 -2 6 C-1.34 4.02 -0.68 2.04 0 0 Z " fill="#8E8B85" transform="translate(320,266)"/>
<path d="M0 0 C2.64 0 5.28 0 8 0 C7.67 0.99 7.34 1.98 7 3 C4.69 3 2.38 3 0 3 C0 2.01 0 1.02 0 0 Z " fill="#FCFCFB" transform="translate(377,237)"/>
<path d="M0 0 C0.66 0 1.32 0 2 0 C2 2.64 2 5.28 2 8 C1.01 8.495 1.01 8.495 0 9 C0 7.35 0 5.7 0 4 C-0.66 3.67 -1.32 3.34 -2 3 C-1.34 2.01 -0.68 1.02 0 0 Z " fill="#D95376" transform="translate(424,543)"/>
<path d="M0 0 C0.33 1.32 0.66 2.64 1 4 C-0.32 4.33 -1.64 4.66 -3 5 C-3.33 4.01 -3.66 3.02 -4 2 C-4.66 1.67 -5.32 1.34 -6 1 C-4.02 0.67 -2.04 0.34 0 0 Z " fill="#C7C5C3" transform="translate(392,306)"/>
<path d="M0 0 C1.32 0 2.64 0 4 0 C3.67 1.65 3.34 3.3 3 5 C2.01 5.33 1.02 5.66 0 6 C0 4.02 0 2.04 0 0 Z " fill="#ABAAA3" transform="translate(317,297)"/>
<path d="M0 0 C0.99 0.33 1.98 0.66 3 1 C3 1.99 3 2.98 3 4 C3.99 4 4.98 4 6 4 C6 4.66 6 5.32 6 6 C4.02 6 2.04 6 0 6 C0 4.02 0 2.04 0 0 Z " fill="#A09C98" transform="translate(327,268)"/>
<path d="M0 0 C0.66 0.99 1.32 1.98 2 3 C1.360625 3.268125 0.72125 3.53625 0.0625 3.8125 C-2.33131686 4.88667752 -2.33131686 4.88667752 -3 8 C-3.99 7.67 -4.98 7.34 -6 7 C-4.02 4.69 -2.04 2.38 0 0 Z " fill="#DF6585" transform="translate(423,550)"/>
<path d="M0 0 C1.32 0 2.64 0 4 0 C4 0.66 4 1.32 4 2 C4.66 2.33 5.32 2.66 6 3 C5.01 3 4.02 3 3 3 C3 3.66 3 4.32 3 5 C2.01 5 1.02 5 0 5 C0 3.35 0 1.7 0 0 Z " fill="#C2C1BD" transform="translate(358,301)"/>
<path d="M0 0 C0.99 0 1.98 0 3 0 C2.67 1.65 2.34 3.3 2 5 C0.68 5.33 -0.64 5.66 -2 6 C-1.34 4.02 -0.68 2.04 0 0 Z " fill="#C5C2C3" transform="translate(423,295)"/>
<path d="M0 0 C1.98 0 3.96 0 6 0 C5.34 1.32 4.68 2.64 4 4 C2.35 4 0.7 4 -1 4 C-0.67 2.68 -0.34 1.36 0 0 Z " fill="#9F9C98" transform="translate(352,292)"/>
<path d="M0 0 C2.64 0.33 5.28 0.66 8 1 C6.68 1.33 5.36 1.66 4 2 C4 3.32 4 4.64 4 6 C3.34 6 2.68 6 2 6 C2 5.01 2 4.02 2 3 C1.34 2.67 0.68 2.34 0 2 C0 1.34 0 0.68 0 0 Z " fill="#C4C3BF" transform="translate(355,279)"/>
<path d="M0 0 C0.763125 0.20625 1.52625 0.4125 2.3125 0.625 C2.3125 1.615 2.3125 2.605 2.3125 3.625 C1.714375 3.41875 1.11625 3.2125 0.5 3 C-1.97200846 2.31828085 -1.97200846 2.31828085 -4.6875 4.625 C-5.0175 3.635 -5.3475 2.645 -5.6875 1.625 C-2.6875 -0.375 -2.6875 -0.375 0 0 Z " fill="#CAC7C0" transform="translate(317.6875,232.375)"/>
<path d="M0 0 C3 1 6 2 9 3 C6 5 6 5 4 5 C4 4.34 4 3.68 4 3 C2.68 2.67 1.36 2.34 0 2 C0 1.34 0 0.68 0 0 Z " fill="#B3B1AD" transform="translate(291,583)"/>
<path d="M0 0 C2.97 0 5.94 0 9 0 C8.67 0.99 8.34 1.98 8 3 C6.35 3 4.7 3 3 3 C3 2.34 3 1.68 3 1 C2.01 0.67 1.02 0.34 0 0 Z " fill="#D8D4CF" transform="translate(319,304)"/>
<path d="M0 0 C1.98 0.66 3.96 1.32 6 2 C6 2.66 6 3.32 6 4 C4.02 4 2.04 4 0 4 C0 2.68 0 1.36 0 0 Z " fill="#AFABA8" transform="translate(334,300)"/>
<path d="M0 0 C2.125 0.375 2.125 0.375 4 1 C4 2.98 4 4.96 4 7 C3.34 6.01 2.68 5.02 2 4 C-0.05003955 2.80767387 -0.05003955 2.80767387 -2 2 C-1.34 1.34 -0.68 0.68 0 0 Z " fill="#DFDBD8" transform="translate(329,297)"/>
<path d="M0 0 C1.4540625 0.0309375 1.4540625 0.0309375 2.9375 0.0625 C2.9375 0.7225 2.9375 1.3825 2.9375 2.0625 C2.15375 2.145 1.37 2.2275 0.5625 2.3125 C-2.20999104 2.79056339 -2.20999104 2.79056339 -3.375 5.125 C-3.7153125 6.0840625 -3.7153125 6.0840625 -4.0625 7.0625 C-4.10504356 5.06295254 -4.10330783 3.06208364 -4.0625 1.0625 C-3.0625 0.0625 -3.0625 0.0625 0 0 Z " fill="#EAE7E2" transform="translate(329.0625,236.9375)"/>
<path d="M0 0 C2.475 0.495 2.475 0.495 5 1 C4.34 2.32 3.68 3.64 3 5 C2.34 5 1.68 5 1 5 C0.67 5.66 0.34 6.32 0 7 C0 4.69 0 2.38 0 0 Z " fill="#E3DFDC" transform="translate(344,244)"/>
<path d="M0 0 C4.29 0.33 8.58 0.66 13 1 C13 1.33 13 1.66 13 2 C6.565 2.495 6.565 2.495 0 3 C0 2.01 0 1.02 0 0 Z " fill="#C4C4C2" transform="translate(316,124)"/>
<path d="M0 0 C4.95 0.99 4.95 0.99 10 2 C10 2.33 10 2.66 10 3 C6.7 3 3.4 3 0 3 C0 2.01 0 1.02 0 0 Z " fill="#0F0F0F" transform="translate(343,115)"/>
<path d="M0 0 C0.66 0.33 1.32 0.66 2 1 C1.01 1.66 0.02 2.32 -1 3 C-1 3.99 -1 4.98 -1 6 C-1.99 6 -2.98 6 -4 6 C-3.67 4.35 -3.34 2.7 -3 1 C-2.01 0.67 -1.02 0.34 0 0 Z " fill="#CBC9C8" transform="translate(399,304)"/>
<path d="M0 0 C-1.7015625 0.4021875 -1.7015625 0.4021875 -3.4375 0.8125 C-4.613125 1.204375 -5.78875 1.59625 -7 2 C-7.33 2.99 -7.66 3.98 -8 5 C-8.33 3.35 -8.66 1.7 -9 0 C-2.25 -1.125 -2.25 -1.125 0 0 Z " fill="#B0ACA8" transform="translate(334,279)"/>
<path d="M0 0 C0.99 0 1.98 0 3 0 C3 0.99 3 1.98 3 3 C3.66 3 4.32 3 5 3 C5 3.99 5 4.98 5 6 C3.68 6 2.36 6 1 6 C1.33 4.35 1.66 2.7 2 1 C1.34 0.67 0.68 0.34 0 0 Z " fill="#D0CCC8" transform="translate(344,268)"/>
<path d="M0 0 C0 0.66 0 1.32 0 2 C-5.625 3.125 -5.625 3.125 -9 2 C-5.62902617 0.50178941 -3.79557881 0 0 0 Z " fill="#D8D6D3" transform="translate(297,157)"/>
</svg>
