<?xml version="1.0" encoding="UTF-8"?>
<svg version="1.1" xmlns="http://www.w3.org/2000/svg" width="701" height="693">
<path d="M0 0 C231.33 0 462.66 0 701 0 C701 228.69 701 457.38 701 693 C469.67 693 238.34 693 0 693 C0 464.31 0 235.62 0 0 Z " fill="#F8F8F8" transform="translate(0,0)"/>
<path d="M0 0 C0.99 0.33 1.98 0.66 3 1 C2.96970703 1.70568115 2.93941406 2.4113623 2.90820312 3.13842773 C2.23065671 19.39042081 1.88875782 35.59025911 2.03710938 51.85522461 C2.0826653 58.97640463 1.93710893 65.93507724 1 73 C1.66 73 2.32 73 3 73 C3.125 79.75 3.125 79.75 2 82 C1.99553299 83.82235354 2.06029449 85.64501274 2.15625 87.46484375 C2.20998779 88.63740723 2.26372559 89.8099707 2.3190918 91.01806641 C2.3787915 92.31147949 2.43849121 93.60489258 2.5 94.9375 C3.06345936 108.67770654 2.98397385 122.37848606 2.6875 136.125 C2.67025879 137.07736542 2.65301758 138.02973083 2.63525391 139.01095581 C2.58391576 141.7394427 2.51896395 144.46724074 2.44921875 147.1953125 C2.4344902 148.01178757 2.41976166 148.82826263 2.40458679 149.66947937 C2.22987511 155.43961993 2.22987511 155.43961993 0.99780273 158.44311523 C-0.56442598 162.4463502 -0.35975197 166.45338345 -0.4140625 170.71484375 C-0.43351929 171.67085983 -0.45297607 172.62687592 -0.47302246 173.61186218 C-0.53342929 176.720318 -0.57974228 179.82878962 -0.625 182.9375 C-0.6621404 185.07015775 -0.69973982 187.20280756 -0.73779297 189.33544922 C-0.94402646 201.43102616 -1.09274246 213.52765415 -1.125 225.625 C-1.12967285 226.83019287 -1.1343457 228.03538574 -1.13916016 229.27709961 C-1.13706543 230.37417236 -1.1349707 231.47124512 -1.1328125 232.6015625 C-1.13168457 233.53307129 -1.13055664 234.46458008 -1.12939453 235.42431641 C-1.06533481 238.04077736 -1.06533481 238.04077736 -0.42919922 240.71240234 C0 243 0 243 -1 245 C4.99320151 246.45933748 10.85845775 247.41509121 17 248 C15 250 15 250 11.1875 250.1875 C7.89950568 250.15570122 5.32908617 249.66581723 2 249 C2 252.96 2 256.92 2 261 C0.02 261.33 -1.96 261.66 -4 262 C-4.33 261.34 -4.66 260.68 -5 260 C-3.68 260 -2.36 260 -1 260 C-1.14026283 257.68715544 -1.28735558 255.37472409 -1.4375 253.0625 C-1.51871094 251.77472656 -1.59992188 250.48695313 -1.68359375 249.16015625 C-1.64919188 246.13976043 -1.64919188 246.13976043 -3 245 C-3.09911344 242.89962638 -3.12632367 240.79585647 -3.12698364 238.69314575 C-3.12854363 238.02590418 -3.13010362 237.3586626 -3.13171089 236.67120159 C-3.13572512 234.41635855 -3.13252887 232.16158192 -3.12939453 229.90673828 C-3.13074903 228.29477906 -3.13252923 226.68282014 -3.13470459 225.07086182 C-3.13929137 220.66267096 -3.13747953 216.25450335 -3.1343255 211.84631205 C-3.13178675 207.18830206 -3.13414565 202.53029401 -3.13571167 197.87228394 C-3.13753796 189.99476774 -3.13512447 182.11726087 -3.13037109 174.23974609 C-3.12560567 166.25276067 -3.12548264 158.26579395 -3.13037109 150.27880859 C-3.17576092 74.07565323 -3.17576092 74.07565323 -2.5546875 43.1796875 C-2.52556463 41.703738 -2.52556463 41.703738 -2.49585342 40.19797134 C-2.29401948 30.39382166 -1.97922006 20.59721497 -1.52783203 10.80126953 C-1.47214208 9.51721883 -1.47214208 9.51721883 -1.41532707 8.20722771 C-1.1184506 2.23690121 -1.1184506 2.23690121 0 0 Z " fill="#E3E3E3" transform="translate(325,235)"/>
<path d="M0 0 C3.96 0.33 7.92 0.66 12 1 C12 1.66 12 2.32 12 3 C9.36 3.33 6.72 3.66 4 4 C4 4.66 4 5.32 4 6 C6.64 6 9.28 6 12 6 C12.89674777 8.51089376 13.13172674 9.64535109 12.1875 12.1875 C11 14 11 14 9 15 C9 15.66 9 16.32 9 17 C9.99 17.33 10.98 17.66 12 18 C11.01 18 10.02 18 9 18 C9.99 20.97 10.98 23.94 12 27 C11 28 11 28 8.05859375 28.09765625 C6.86363281 28.08605469 5.66867187 28.07445312 4.4375 28.0625 C2.64119141 28.04896484 2.64119141 28.04896484 0.80859375 28.03515625 C-0.11824219 28.02355469 -1.04507812 28.01195312 -2 28 C-4.0234375 24.3203125 -4.0234375 24.3203125 -3.8125 21.4375 C-2.95027053 18.85081159 -2.07804617 17.71664683 0 16 C0 16.66 0 17.32 0 18 C0.66 17.67 1.32 17.34 2 17 C1.67 16.01 1.34 15.02 1 14 C0.34 14 -0.32 14 -1 14 C-1 11 -1 11 0.5 9.3125 C0.995 8.879375 1.49 8.44625 2 8 C1.01 8.33 0.02 8.66 -1 9 C-1 8.01 -1 7.02 -1 6 C-0.34 6 0.32 6 1 6 C0.34 5.34 -0.32 4.68 -1 4 C-0.67 2.68 -0.34 1.36 0 0 Z " fill="#D1D1D1" transform="translate(335,269)"/>
<path d="M0 0 C0.99 0.33 1.98 0.66 3 1 C2.96970703 1.70568115 2.93941406 2.4113623 2.90820312 3.13842773 C2.23065671 19.39042081 1.88875782 35.59025911 2.03710938 51.85522461 C2.0826653 58.97640463 1.93710893 65.93507724 1 73 C1.66 73 2.32 73 3 73 C3.125 79.75 3.125 79.75 2 82 C1.99553299 83.82235354 2.06029449 85.64501274 2.15625 87.46484375 C2.20982666 88.63781006 2.26340332 89.81077637 2.31860352 91.01928711 C2.37846436 92.31229736 2.4383252 93.60530762 2.5 94.9375 C3.35760255 115.29895518 2.63438227 135.64078853 2 156 C1.67 156 1.34 156 1 156 C-0.29424428 140.423301 -0.13146026 124.82471976 -0.10139394 109.20815921 C-0.09506691 105.35785525 -0.09454931 101.50755018 -0.09336853 97.65724182 C-0.09028241 90.39398572 -0.08210636 83.13074499 -0.07201904 75.8674956 C-0.06077259 67.58672901 -0.05532613 59.30596162 -0.05032361 51.02518928 C-0.03992091 34.01678402 -0.02237513 17.00839364 0 0 Z " fill="#D0D0D0" transform="translate(325,235)"/>
<path d="M0 0 C1.65 0 3.3 0 5 0 C4.34 1.98 3.68 3.96 3 6 C5.31 6 7.62 6 10 6 C9.67 6.99 9.34 7.98 9 9 C5.4375 10.1875 5.4375 10.1875 2 11 C2.33 11.99 2.66 12.98 3 14 C1.68 14 0.36 14 -1 14 C-1 14.66 -1 15.32 -1 16 C-0.01 16.33 0.98 16.66 2 17 C1.67 17.99 1.34 18.98 1 20 C1.99 19.67 2.98 19.34 4 19 C3.67 20.32 3.34 21.64 3 23 C0.36 23 -2.28 23 -5 23 C-5.66 20.03 -6.32 17.06 -7 14 C-6.01 14 -5.02 14 -4 14 C-3.67 11.69 -3.34 9.38 -3 7 C-5.64 6.67 -8.28 6.34 -11 6 C-11 5.34 -11 4.68 -11 4 C-5.555 3.01 -5.555 3.01 0 2 C0 1.34 0 0.68 0 0 Z " fill="#E3E3E3" transform="translate(350,269)"/>
<path d="M0 0 C2.43407502 3.65111253 2.22060316 5.33850033 2.16015625 9.6796875 C2.1523539 10.65435471 2.1523539 10.65435471 2.14439392 11.64871216 C2.12660363 13.72437024 2.09546304 15.79953174 2.0625 17.875 C2.03478476 19.94327976 2.01005078 22.01148331 1.99131775 24.0798645 C1.97353204 25.96200812 1.94612156 27.84405348 1.91821289 29.72607422 C1.90444242 32.94224441 1.90444242 32.94224441 2.56420898 35.80908203 C3 38 3 38 2 40 C7.99320151 41.45933748 13.85845775 42.41509121 20 43 C18 45 18 45 14.1875 45.1875 C10.89950568 45.15570122 8.32908617 44.66581723 5 44 C5 47.96 5 51.92 5 56 C2.03 56.495 2.03 56.495 -1 57 C-1.33 56.34 -1.66 55.68 -2 55 C-0.68 55 0.64 55 2 55 C1.85973717 52.68715544 1.71264442 50.37472409 1.5625 48.0625 C1.48128906 46.77472656 1.40007812 45.48695313 1.31640625 44.16015625 C1.35080812 41.13976043 1.35080812 41.13976043 0 40 C-0.08868299 37.04294679 -0.11520296 34.10934944 -0.09765625 31.15234375 C-0.0962413 30.2659169 -0.09482635 29.37949005 -0.09336853 28.46620178 C-0.08775215 25.62326746 -0.07519691 22.78041069 -0.0625 19.9375 C-0.05748711 18.01497509 -0.05292384 16.09244896 -0.04882812 14.16992188 C-0.03777741 9.44658451 -0.02050183 4.72330542 0 0 Z " fill="#E1E1E1" transform="translate(322,440)"/>
<path d="M0 0 C0.66 0.99 1.32 1.98 2 3 C2.33 2.34 2.66 1.68 3 1 C3.66 1 4.32 1 5 1 C5 1.66 5 2.32 5 3 C6.32 2.67 7.64 2.34 9 2 C9 3.65 9 5.3 9 7 C7.68 6.67 6.36 6.34 5 6 C4.67 6.99 4.34 7.98 4 9 C3.34 8.67 2.68 8.34 2 8 C1.0925 8.350625 0.185 8.70125 -0.75 9.0625 C-4.66793142 10.19267252 -6.28840401 9.48463839 -10 8 C-10.99 8 -11.98 8 -13 8 C-13 5.69 -13 3.38 -13 1 C-8.56151204 -0.10962199 -4.54854894 -0.2982655 0 0 Z " fill="#C6C6C6" transform="translate(342,254)"/>
<path d="M0 0 C2.31 0 4.62 0 7 0 C6.01 0.33 5.02 0.66 4 1 C4 1.66 4 2.32 4 3 C10.27 3 16.54 3 23 3 C22.34 3.99 21.68 4.98 21 6 C17.83984375 6.2578125 17.83984375 6.2578125 13.9375 6.125 C9.72368059 6.02103491 5.61688526 5.92134431 1.4375 6.5625 C-4.69199107 7.41119876 -10.87130695 6.56666436 -17 6 C-14.33610311 3.33610311 -12.59676491 3.01857923 -8.86328125 2.90234375 C-7.69152344 2.91394531 -6.51976562 2.92554688 -5.3125 2.9375 C-3.54326172 2.95103516 -3.54326172 2.95103516 -1.73828125 2.96484375 C-0.83464844 2.97644531 0.06898438 2.98804688 1 3 C0.67 2.01 0.34 1.02 0 0 Z " fill="#E5E5E5" transform="translate(334,498)"/>
<path d="M0 0 C3.96 0.33 7.92 0.66 12 1 C12 1.66 12 2.32 12 3 C9.36 3.33 6.72 3.66 4 4 C4 4.66 4 5.32 4 6 C5.65 6.33 7.3 6.66 9 7 C8.34 7.66 7.68 8.32 7 9 C4.99363529 8.70740515 2.99285937 8.37366113 1 8 C0.01 8.495 0.01 8.495 -1 9 C-1 8.01 -1 7.02 -1 6 C-0.34 6 0.32 6 1 6 C0.34 5.34 -0.32 4.68 -1 4 C-0.67 2.68 -0.34 1.36 0 0 Z " fill="#C1C1C1" transform="translate(335,269)"/>
<path d="M0 0 C0 0.66 0 1.32 0 2 C0.66 2 1.32 2 2 2 C1.85892253 3.45880109 1.71197585 4.91703551 1.5625 6.375 C1.48128906 7.18710937 1.40007812 7.99921875 1.31640625 8.8359375 C1 11 1 11 0 13 C-1.65 12.67 -3.3 12.34 -5 12 C-5 10.35 -5 8.7 -5 7 C-4.67 7.66 -4.34 8.32 -4 9 C-3.34 8.67 -2.68 8.34 -2 8 C-2.33 7.01 -2.66 6.02 -3 5 C-3.66 5 -4.32 5 -5 5 C-5 4.01 -5 3.02 -5 2 C-2 0 -2 0 0 0 Z " fill="#C2C2C2" transform="translate(339,278)"/>
<path d="M0 0 C3.3 0 6.6 0 10 0 C10 2 10 4 10 6 C6.7 6 3.4 6 0 6 C0 4.02 0 2.04 0 0 Z " fill="#606060" transform="translate(332,197)"/>
<path d="M0 0 C1.7015625 0.4640625 1.7015625 0.4640625 3.4375 0.9375 C7.92461414 2.06931233 12.39707347 2.59511294 17 3 C15 5 15 5 11.1875 5.1875 C7.89950568 5.15570122 5.32908617 4.66581723 2 4 C2 7.96 2 11.92 2 16 C1.34 16 0.68 16 0 16 C0 10.72 0 5.44 0 0 Z " fill="#D1D1D1" transform="translate(325,480)"/>
<path d="M0 0 C2.31 0 4.62 0 7 0 C6.01 0.33 5.02 0.66 4 1 C4 1.66 4 2.32 4 3 C9.28 3 14.56 3 20 3 C20 3.33 20 3.66 20 4 C10.43 4 0.86 4 -9 4 C-9 3.67 -9 3.34 -9 3 C-5.7 3 -2.4 3 1 3 C0.67 2.01 0.34 1.02 0 0 Z " fill="#D2D2D2" transform="translate(334,498)"/>
<path d="M0 0 C0.99 0 1.98 0 3 0 C3.33 2.31 3.66 4.62 4 7 C2.52168779 7.19412181 1.04230684 7.38012131 -0.4375 7.5625 C-1.26121094 7.66691406 -2.08492188 7.77132813 -2.93359375 7.87890625 C-3.61550781 7.91886719 -4.29742187 7.95882813 -5 8 C-6 7 -6 7 -6.0625 3.9375 C-6.041875 2.968125 -6.02125 1.99875 -6 1 C-5.7525 1.639375 -5.505 2.27875 -5.25 2.9375 C-4.18437567 5.18741541 -4.18437567 5.18741541 -1.875 5.75 C-1.25625 5.8325 -0.6375 5.915 0 6 C0 4.02 0 2.04 0 0 Z " fill="#C2C2C2" transform="translate(359,255)"/>
<path d="M0 0 C0.66 0 1.32 0 2 0 C2 0.66 2 1.32 2 2 C3.32 1.67 4.64 1.34 6 1 C6 2.65 6 4.3 6 6 C4.68 5.67 3.36 5.34 2 5 C1.67 5.99 1.34 6.98 1 8 C-0.32 7.34 -1.64 6.68 -3 6 C-2 4 -1 2 0 0 Z " fill="#C7C7C7" transform="translate(345,255)"/>
<path d="M0 0 C3.3 0 6.6 0 10 0 C10 0.33 10 0.66 10 1 C7.69 1.33 5.38 1.66 3 2 C5.31 2.33 7.62 2.66 10 3 C10 3.66 10 4.32 10 5 C6.7 5 3.4 5 0 5 C0 3.35 0 1.7 0 0 Z " fill="#4A4A4A" transform="translate(344,198)"/>
<path d="M0 0 C1.51400391 0.01740234 1.51400391 0.01740234 3.05859375 0.03515625 C4.07050781 0.04417969 5.08242188 0.05320313 6.125 0.0625 C7.29869141 0.07990234 7.29869141 0.07990234 8.49609375 0.09765625 C8.49609375 0.42765625 8.49609375 0.75765625 8.49609375 1.09765625 C4.04109375 1.59265625 4.04109375 1.59265625 -0.50390625 2.09765625 C-0.83390625 3.41765625 -1.16390625 4.73765625 -1.50390625 6.09765625 C-2.16390625 6.09765625 -2.82390625 6.09765625 -3.50390625 6.09765625 C-3.50390625 5.43765625 -3.50390625 4.77765625 -3.50390625 4.09765625 C-5.81390625 4.09765625 -8.12390625 4.09765625 -10.50390625 4.09765625 C-10.50390625 3.76765625 -10.50390625 3.43765625 -10.50390625 3.09765625 C-9.36953125 2.78828125 -8.23515625 2.47890625 -7.06640625 2.16015625 C-3.95255196 1.23146287 -3.00914825 0.11736148 0 0 Z " fill="#BCBCBC" transform="translate(345.50390625,196.90234375)"/>
<path d="M0 0 C0.66 0 1.32 0 2 0 C2 1.65 2 3.3 2 5 C5.27773504 4.24849977 5.27773504 4.24849977 7 1 C6.67 2.98 6.34 4.96 6 7 C4.68 7.33 3.36 7.66 2 8 C-0.1519437 4.77208445 -0.20086443 3.71599191 0 0 Z " fill="#A6A6A6" transform="translate(336,256)"/>
<path d="M0 0 C0.33 0.99 0.66 1.98 1 3 C0 4 0 4 -1.84765625 4.09765625 C-3.8984375 4.06510417 -5.94921875 4.03255208 -8 4 C-8 3.34 -8 2.68 -8 2 C-5.36 1.34 -2.72 0.68 0 0 Z " fill="#DEDEDE" transform="translate(347,271)"/>
<path d="M0 0 C0.99 0.33 1.98 0.66 3 1 C3 1.99 3 2.98 3 4 C3.99 4.33 4.98 4.66 6 5 C6 5.66 6 6.32 6 7 C2 7 2 7 0 6 C0 4.02 0 2.04 0 0 Z " fill="#9D9D9D" transform="translate(329,256)"/>
<path d="M0 0 C1.32 0.33 2.64 0.66 4 1 C3.67 2.32 3.34 3.64 3 5 C3.66 5 4.32 5 5 5 C5 5.66 5 6.32 5 7 C2.525 6.01 2.525 6.01 0 5 C0 3.35 0 1.7 0 0 Z " fill="#D8D8D8" transform="translate(365,255)"/>
<path d="M0 0 C2.64 0 5.28 0 8 0 C8 0.66 8 1.32 8 2 C5.36 2.33 2.72 2.66 0 3 C0 2.01 0 1.02 0 0 Z " fill="#CCCCCC" transform="translate(339,270)"/>
<path d="M0 0 C2.475 0.495 2.475 0.495 5 1 C4.625 3.4375 4.625 3.4375 4 6 C3.01 6.495 3.01 6.495 2 7 C2 5.02 2 3.04 2 1 C1.34 0.67 0.68 0.34 0 0 Z " fill="#EDEDED" transform="translate(360,254)"/>
<path d="M0 0 C2.64 0.33 5.28 0.66 8 1 C6 3 6 3 2.875 3.125 C1.451875 3.063125 1.451875 3.063125 0 3 C0 2.01 0 1.02 0 0 Z " fill="#E4E4E4" transform="translate(344,210)"/>
</svg>
