<?xml version="1.0" encoding="UTF-8"?>
<svg version="1.1" xmlns="http://www.w3.org/2000/svg" width="699" height="699">
<path d="M0 0 C230.67 0 461.34 0 699 0 C699 230.67 699 461.34 699 699 C468.33 699 237.66 699 0 699 C0 468.33 0 237.66 0 0 Z " fill="#F7F7F7" transform="translate(0,0)"/>
<path d="M0 0 C10 1 10 1 14 2 C16.88085938 1.95117188 16.88085938 1.95117188 19.76171875 1.90234375 C23.61166333 2.0703169 27.2815834 3.03596607 31 4 C31.33 5.98 31.66 7.96 32 10 C32.763125 9.67 33.52625 9.34 34.3125 9 C37.78480146 7.70798085 39.48619861 7.82873287 43 9 C52.44922448 9.40044322 52.44922448 9.40044322 61 6 C63.32961443 5.64159778 65.66365343 5.31151288 68 5 C70.36272222 4.40817249 72.66965548 3.71337077 75 3 C74.25 7.75 74.25 7.75 72 10 C68.875 10.125 68.875 10.125 66 10 C66 10.66 66 11.32 66 12 C64.35 12.33 62.7 12.66 61 13 C61 13.66 61 14.32 61 15 C66.09456694 15.61752327 68.77383028 13.55164964 73 11 C73.66 11 74.32 11 75 11 C75.125 13.375 75.125 13.375 75 16 C71.60834429 19.39165571 66.69780136 19.30242108 62.08984375 20.12109375 C61.07019531 20.41113281 60.05054688 20.70117188 59 21 C58.505 22.485 58.505 22.485 58 24 C58.94875 23.979375 59.8975 23.95875 60.875 23.9375 C64 24 64 24 66 25 C66.495 23.515 66.495 23.515 67 22 C68.84765625 21.26953125 68.84765625 21.26953125 71.0625 20.8125 C71.79597656 20.65394531 72.52945313 20.49539063 73.28515625 20.33203125 C73.85105469 20.22246094 74.41695313 20.11289062 75 20 C75 21.32 75 22.64 75 24 C72.30437346 26.67083917 69.87571341 27.46425436 66.1875 28.0625 C62.01345273 28.79836907 58.05297775 29.76648503 54 31 C54 30.34 54 29.68 54 29 C50.7 30.32 47.4 31.64 44 33 C44 35.31 44 37.62 44 40 C43.01 39.67 42.02 39.34 41 39 C41 39.66 41 40.32 41 41 C35.375 41.25 35.375 41.25 32 39 C32 39.66 32 40.32 32 41 C23.42 41 14.84 41 6 41 C5.67 40.34 5.34 39.68 5 39 C2.525 39.495 2.525 39.495 0 40 C0 26.8 0 13.6 0 0 Z " fill="#D0D0D0" transform="translate(322,296)"/>
<path d="M0 0 C0 1.32 0 2.64 0 4 C-0.804375 4.2475 -1.60875 4.495 -2.4375 4.75 C-5.171081 5.72238859 -5.171081 5.72238859 -5.8125 8.125 C-5.9053125 9.053125 -5.9053125 9.053125 -6 10 C-5.01 10.33 -4.02 10.66 -3 11 C-3.55859375 12.89453125 -3.55859375 12.89453125 -5 15 C-8.22265625 16.01171875 -8.22265625 16.01171875 -12.0625 16.6875 C-16.35674383 17.1160921 -16.35674383 17.1160921 -20 19 C-21.51928038 19.07179964 -23.04167482 19.08392007 -24.5625 19.0625 C-25.38878906 19.05347656 -26.21507812 19.04445313 -27.06640625 19.03515625 C-28.02353516 19.01775391 -28.02353516 19.01775391 -29 19 C-29 19.66 -29 20.32 -29 21 C-20.585 20.505 -20.585 20.505 -12 20 C-12.33 21.98 -12.66 23.96 -13 26 C-14.24716797 26.07347656 -14.24716797 26.07347656 -15.51953125 26.1484375 C-16.60621094 26.22320312 -17.69289063 26.29796875 -18.8125 26.375 C-20.43091797 26.47941406 -20.43091797 26.47941406 -22.08203125 26.5859375 C-25.18626186 26.81195733 -25.18626186 26.81195733 -28 29 C-28.66 28.67 -29.32 28.34 -30 28 C-31.49579604 27.79907217 -32.99696724 27.63663934 -34.5 27.5 C-38.77777778 27.11111111 -38.77777778 27.11111111 -41 26 C-41 26.99 -41 27.98 -41 29 C-41.99 29.33 -42.98 29.66 -44 30 C-44.33 29.01 -44.66 28.02 -45 27 C-45.99 27.66 -46.98 28.32 -48 29 C-48.66 28.67 -49.32 28.34 -50 28 C-52.16338091 27.79504812 -54.33109005 27.63435725 -56.5 27.5 C-62.77777778 27.11111111 -62.77777778 27.11111111 -65 26 C-65 24.68 -65 23.36 -65 22 C-59.97703996 20.86983399 -56.02125926 21.22083908 -51 22 C-51 21.34 -51 20.68 -51 20 C-54.96 19.67 -58.92 19.34 -63 19 C-63.33 17.35 -63.66 15.7 -64 14 C-61.39583333 13.47916667 -58.79166667 12.95833333 -56.1875 12.4375 C-55.465625 12.293125 -54.74375 12.14875 -54 12 C-56.97 11.67 -59.94 11.34 -63 11 C-63.38133299 9.0085944 -63.71325582 7.00720923 -64 5 C-63 4 -63 4 -60.1875 3.875 C-57 4 -57 4 -55.2890625 4.46875 C-51.9545172 5.24263765 -48.59375287 5.41112632 -45.1875 5.625 C-44.50107422 5.6765625 -43.81464844 5.728125 -43.10742188 5.78125 C-38.61231477 6.07043381 -34.42730164 6.01100238 -30 5 C-29.34 4.01 -28.68 3.02 -28 2 C-27.34 2 -26.68 2 -26 2 C-26 2.66 -26 3.32 -26 4 C-25.01 3.34 -24.02 2.68 -23 2 C-21.2984375 2.2784375 -21.2984375 2.2784375 -19.5625 2.5625 C-14.59674493 3.37474246 -10.40764687 2.05365589 -5.63671875 0.69140625 C-3 0 -3 0 0 0 Z " fill="#DADADA" transform="translate(395,417)"/>
<path d="M0 0 C0.61294922 0.03552979 1.22589844 0.07105957 1.85742188 0.10766602 C13.23562881 0.74487113 24.35243707 1.11966905 35.71484375 0.19140625 C39.65443191 -0.0381298 43.13274961 0.27489055 47 1 C47 2.32 47 3.64 47 5 C45.02 5.66 43.04 6.32 41 7 C43.97 7.33 46.94 7.66 50 8 C50.495 10.475 50.495 10.475 51 13 C48.11584117 14.44207941 45.58278472 14.09394887 42.375 14.0625 C41.18648438 14.05347656 39.99796875 14.04445313 38.7734375 14.03515625 C37.85820312 14.02355469 36.94296875 14.01195312 36 14 C36 14.66 36 15.32 36 16 C36.99 16 37.98 16 39 16 C39 16.66 39 17.32 39 18 C39.99 17.34 40.98 16.68 42 16 C47.10102242 14.88263318 51.89731442 14.82245717 57 16 C56.74609375 17.890625 56.74609375 17.890625 56 20 C48.2420467 24.91520445 36.76108976 23.23236682 28 23 C24.88742431 23 22.89234315 23.17361624 20 24 C19.67 23.01 19.34 22.02 19 21 C18.34 21.33 17.68 21.66 17 22 C14.89768123 22.09751547 12.79207377 22.12976687 10.6875 22.125 C9.55699219 22.12757813 8.42648437 22.13015625 7.26171875 22.1328125 C4.37846404 22.01541051 1.8009145 21.66212988 -1 21 C-1 19.35 -1 17.7 -1 16 C0.32 15.67 1.64 15.34 3 15 C3 15.66 3 16.32 3 17 C4.65 16.34 6.3 15.68 8 15 C6.865625 14.855625 5.73125 14.71125 4.5625 14.5625 C1 14 1 14 0 13 C0 11.02 0 9.04 0 7 C4.29 7.66 8.58 8.32 13 9 C13 9.66 13 10.32 13 11 C13.99 10.34 14.98 9.68 16 9 C18.0847168 8.68115234 18.0847168 8.68115234 20.44921875 8.5859375 C21.72055664 8.52792969 21.72055664 8.52792969 23.01757812 8.46875 C23.89865234 8.4378125 24.77972656 8.406875 25.6875 8.375 C26.58017578 8.33632813 27.47285156 8.29765625 28.39257812 8.2578125 C30.5948462 8.16359782 32.79710722 8.07798412 35 8 C31.87501115 6.95833705 29.51231153 6.81477155 26.23046875 6.71875 C25.09416016 6.68136719 23.95785156 6.64398438 22.78710938 6.60546875 C21.59923828 6.57066406 20.41136719 6.53585937 19.1875 6.5 C16.84754448 6.43076296 14.50769114 6.35796221 12.16796875 6.28125 C11.12922607 6.25095703 10.0904834 6.22066406 9.02026367 6.18945312 C5.95671725 5.99728499 3.01679255 5.55665161 0 5 C0 3.35 0 1.7 0 0 Z " fill="#DADADA" transform="translate(322,393)"/>
<path d="M0 0 C-0.75 4.75 -0.75 4.75 -3 7 C-6.125 7.125 -6.125 7.125 -9 7 C-9 7.66 -9 8.32 -9 9 C-10.65 9.33 -12.3 9.66 -14 10 C-14 10.66 -14 11.32 -14 12 C-8.90543306 12.61752327 -6.22616972 10.55164964 -2 8 C-1.34 8 -0.68 8 0 8 C0.125 10.375 0.125 10.375 0 13 C-3.39165571 16.39165571 -8.30219864 16.30242108 -12.91015625 17.12109375 C-13.92980469 17.41113281 -14.94945312 17.70117188 -16 18 C-16.495 19.485 -16.495 19.485 -17 21 C-16.05125 20.979375 -15.1025 20.95875 -14.125 20.9375 C-11 21 -11 21 -9 22 C-8.505 20.515 -8.505 20.515 -8 19 C-6.15234375 18.26953125 -6.15234375 18.26953125 -3.9375 17.8125 C-3.20402344 17.65394531 -2.47054687 17.49539063 -1.71484375 17.33203125 C-1.14894531 17.22246094 -0.58304687 17.11289062 0 17 C0 18.32 0 19.64 0 21 C-2.69562654 23.67083917 -5.12428659 24.46425436 -8.8125 25.0625 C-12.98654727 25.79836907 -16.94702225 26.76648503 -21 28 C-21 27.34 -21 26.68 -21 26 C-21.99 26.33 -22.98 26.66 -24 27 C-24 25.68 -24 24.36 -24 23 C-25.670625 23.2475 -25.670625 23.2475 -27.375 23.5 C-31.3342038 23.99836132 -35.17582869 24.02009637 -39.16015625 23.96484375 C-42.48147085 24.00596044 -45.75311891 24.28107793 -49.0625 24.5625 C-54.5810219 24.99674435 -59.53773352 24.84759307 -65 24 C-65 23.67 -65 23.34 -65 23 C-61.7 22.67 -58.4 22.34 -55 22 C-58.3 21.34 -61.6 20.68 -65 20 C-65 19.67 -65 19.34 -65 19 C-63.60427948 18.97263293 -62.20839779 18.95344011 -60.8125 18.9375 C-60.03519531 18.92589844 -59.25789063 18.91429687 -58.45703125 18.90234375 C-56 19 -56 19 -53.6484375 19.4921875 C-44.58903223 21.22924161 -34.86859688 20.33713612 -26 18 C-26 17.34 -26 16.68 -26 16 C-28.39541268 15.80414865 -30.79092774 15.61807893 -33.1875 15.4375 C-33.86103516 15.38142578 -34.53457031 15.32535156 -35.22851562 15.26757812 C-39.017131 14.99036237 -42.31827794 15.03488839 -46 16 C-46 15.34 -46 14.68 -46 14 C-47.32 13.67 -48.64 13.34 -50 13 C-50 12.01 -50 11.02 -50 10 C-51.175625 10.165 -52.35125 10.33 -53.5625 10.5 C-58.51889348 11.11515522 -63.20274628 11.59908457 -68 10 C-68 8.68 -68 7.36 -68 6 C-67.49726563 6.1546875 -66.99453125 6.309375 -66.4765625 6.46875 C-62.47113535 7.32795835 -58.39375143 7.39676839 -54.3125 7.60546875 C-49.2034389 7.89828055 -49.2034389 7.89828055 -47 9 C-47 8.34 -47 7.68 -47 7 C-44 6 -44 6 -42 6 C-41.360625 5.835 -40.72125 5.67 -40.0625 5.5 C-36.94742866 4.74483119 -35.04711287 4.98429571 -32 6 C-22.55077552 6.40044322 -22.55077552 6.40044322 -14 3 C-11.66842508 2.65458149 -9.33491639 2.32205743 -7 2 C-1.70588235 0 -1.70588235 0 0 0 Z " fill="#D2D2D2" transform="translate(397,299)"/>
<path d="M0 0 C2.43718285 3.65577427 2.29880388 5.58669902 2.3125 9.9375 C2.32925781 11.16339844 2.34601563 12.38929688 2.36328125 13.65234375 C1.98432293 17.14446505 1.37989475 18.49451713 -1 21 C-3.96175123 20.38722388 -5.38058783 19.74627478 -8 18 C-8 19.65 -8 21.3 -8 23 C-9.5778125 23.2165625 -9.5778125 23.2165625 -11.1875 23.4375 C-14.15460549 23.87526966 -17.06794366 24.37804866 -20 25 C-19.01 24.67 -18.02 24.34 -17 24 C-16.26676204 21.98491642 -16.26676204 21.98491642 -16 20 C-22.13617868 19.87216294 -28.12371096 20.04123699 -34 22 C-34 21.34 -34 20.68 -34 20 C-34.99 20 -35.98 20 -37 20 C-37 19.34 -37 18.68 -37 18 C-32.05 17.67 -27.1 17.34 -22 17 C-22.33 15.35 -22.66 13.7 -23 12 C-26.3 12 -29.6 12 -33 12 C-32.34 11.01 -31.68 10.02 -31 9 C-28.375 8.8125 -28.375 8.8125 -26 9 C-25.67 7.68 -25.34 6.36 -25 5 C-23.35 5.33 -21.7 5.66 -20 6 C-19.34 4.68 -18.68 3.36 -18 2 C-17.34 2 -16.68 2 -16 2 C-15.67 2.66 -15.34 3.32 -15 4 C-14.67 3.34 -14.34 2.68 -14 2 C-9.68858786 0.55692403 -4.52231787 -0.68519968 0 0 Z " fill="#E7E7E7" transform="translate(395,389)"/>
<path d="M0 0 C0.61294922 0.03552979 1.22589844 0.07105957 1.85742188 0.10766602 C13.23562881 0.74487113 24.35243707 1.11966905 35.71484375 0.19140625 C39.65443191 -0.0381298 43.13274961 0.27489055 47 1 C47 2.32 47 3.64 47 5 C45.02 5.66 43.04 6.32 41 7 C43.97 7.33 46.94 7.66 50 8 C50.495 10.475 50.495 10.475 51 13 C48.39048764 14.30475618 46.47298715 14.11301572 43.5546875 14.09765625 C42.47832031 14.09443359 41.40195312 14.09121094 40.29296875 14.08789062 C39.16503906 14.07951172 38.03710938 14.07113281 36.875 14.0625 C35.17150391 14.05573242 35.17150391 14.05573242 33.43359375 14.04882812 C30.62234362 14.03701615 27.8111977 14.02054507 25 14 C24.67 13.34 24.34 12.68 24 12 C23.01 12.66 22.02 13.32 21 14 C21.33 12.68 21.66 11.36 22 10 C26.29 9.34 30.58 8.68 35 8 C31.87501115 6.95833705 29.51231153 6.81477155 26.23046875 6.71875 C25.09416016 6.68136719 23.95785156 6.64398438 22.78710938 6.60546875 C21.59923828 6.57066406 20.41136719 6.53585937 19.1875 6.5 C16.84754448 6.43076296 14.50769114 6.35796221 12.16796875 6.28125 C11.12922607 6.25095703 10.0904834 6.22066406 9.02026367 6.18945312 C5.95671725 5.99728499 3.01679255 5.55665161 0 5 C0 3.35 0 1.7 0 0 Z " fill="#D5D5D5" transform="translate(322,393)"/>
<path d="M0 0 C-0.75 4.75 -0.75 4.75 -3 7 C-6.125 7.125 -6.125 7.125 -9 7 C-9 7.66 -9 8.32 -9 9 C-10.65 9.33 -12.3 9.66 -14 10 C-14 10.66 -14 11.32 -14 12 C-8.90543306 12.61752327 -6.22616972 10.55164964 -2 8 C-1.34 8 -0.68 8 0 8 C0.125 10.375 0.125 10.375 0 13 C-3.39165571 16.39165571 -8.30219864 16.30242108 -12.91015625 17.12109375 C-13.92980469 17.41113281 -14.94945312 17.70117188 -16 18 C-16.33 18.99 -16.66 19.98 -17 21 C-16.05125 20.979375 -15.1025 20.95875 -14.125 20.9375 C-11 21 -11 21 -9 22 C-8.67 21.01 -8.34 20.02 -8 19 C-6.15234375 18.26953125 -6.15234375 18.26953125 -3.9375 17.8125 C-2.83728516 17.57466797 -2.83728516 17.57466797 -1.71484375 17.33203125 C-1.14894531 17.22246094 -0.58304687 17.11289062 0 17 C0 18.32 0 19.64 0 21 C-2.69562654 23.67083917 -5.12428659 24.46425436 -8.8125 25.0625 C-12.98654727 25.79836907 -16.94702225 26.76648503 -21 28 C-21 27.34 -21 26.68 -21 26 C-21.66 26 -22.32 26 -23 26 C-23 24.68 -23 23.36 -23 22 C-25.64 22 -28.28 22 -31 22 C-31 21.34 -31 20.68 -31 20 C-27.04 19.505 -27.04 19.505 -23 19 C-22.67 17.35 -22.34 15.7 -22 14 C-22.99 13.67 -23.98 13.34 -25 13 C-25 12.34 -25 11.68 -25 11 C-22.36 10.67 -19.72 10.34 -17 10 C-17.33 8.68 -17.66 7.36 -18 6 C-19.98 6.33 -21.96 6.66 -24 7 C-23.34 6.34 -22.68 5.68 -22 5 C-20.33333333 5 -18.66666667 5 -17 5 C-16.01 4.34 -15.02 3.68 -14 3 C-11.66842508 2.65458149 -9.33491639 2.32205743 -7 2 C-1.70588235 0 -1.70588235 0 0 0 Z " fill="#DEDEDE" transform="translate(397,299)"/>
<path d="M0 0 C0.66 0.66 1.32 1.32 2 2 C4.81402683 2.37239227 4.81402683 2.37239227 8.1015625 2.4140625 C9.31328125 2.45273437 10.525 2.49140625 11.7734375 2.53125 C13.04445313 2.5621875 14.31546875 2.593125 15.625 2.625 C16.90375 2.66367187 18.1825 2.70234375 19.5 2.7421875 C22.66652017 2.83671049 25.8330304 2.92226357 29 3 C28.51421457 6.12290635 28.0013988 8.99580359 27 12 C26.34 11.67 25.68 11.34 25 11 C25 11.66 25 12.32 25 13 C19.375 13.25 19.375 13.25 16 11 C16 11.66 16 12.32 16 13 C7.42 13 -1.16 13 -10 13 C-10 10.69 -10 8.38 -10 6 C-8.35 5.34 -6.7 4.68 -5 4 C-6.65 3.67 -8.3 3.34 -10 3 C-10 2.34 -10 1.68 -10 1 C-6.7 1.33 -3.4 1.66 0 2 C0 1.34 0 0.68 0 0 Z " fill="#D4D4D4" transform="translate(338,324)"/>
<path d="M0 0 C1.98 0 3.96 0 6 0 C7 1 7 1 7.12025452 2.82862854 C7.11803391 3.62582809 7.11581329 4.42302765 7.11352539 5.24438477 C7.11341209 6.59567223 7.11341209 6.59567223 7.11329651 7.97425842 C7.10813522 8.95341721 7.10297394 9.93257599 7.09765625 10.94140625 C7.0962413 11.93881332 7.09482635 12.9362204 7.09336853 13.96385193 C7.08775114 17.16343124 7.07519571 20.36294169 7.0625 23.5625 C7.05748724 25.72591045 7.05292395 27.88932199 7.04882812 30.05273438 C7.03777607 35.36851325 7.02102104 40.68425171 7 46 C4.69 45.67 2.38 45.34 0 45 C0 30.15 0 15.3 0 0 Z " fill="#3F3F3F" transform="translate(321,421)"/>
<path d="M0 0 C0 1.32 0 2.64 0 4 C-0.78375 4.226875 -1.5675 4.45375 -2.375 4.6875 C-5.20271537 5.76446304 -5.20271537 5.76446304 -6.1875 8.5 C-6.455625 9.325 -6.72375 10.15 -7 11 C-9.46144516 13.46144516 -10.28893702 13.28860849 -13.68359375 13.4140625 C-14.61107422 13.45273437 -15.53855469 13.49140625 -16.49414062 13.53125 C-17.95110352 13.57765625 -17.95110352 13.57765625 -19.4375 13.625 C-20.40494141 13.66367187 -21.37238281 13.70234375 -22.36914062 13.7421875 C-25.91515006 13.87999217 -29.45110851 14 -33 14 C-33.33 13.01 -33.66 12.02 -34 11 C-31.36 11 -28.72 11 -26 11 C-26 9.02 -26 7.04 -26 5 C-26.99 5.33 -27.98 5.66 -29 6 C-29 5.01 -29 4.02 -29 3 C-28.01 2.67 -27.02 2.34 -26 2 C-26 2.66 -26 3.32 -26 4 C-25.01 3.34 -24.02 2.68 -23 2 C-21.2984375 2.2784375 -21.2984375 2.2784375 -19.5625 2.5625 C-14.59674493 3.37474246 -10.40764687 2.05365589 -5.63671875 0.69140625 C-3 0 -3 0 0 0 Z " fill="#E8E8E8" transform="translate(395,417)"/>
<path d="M0 0 C2.14648188 3.21972282 2.24848373 4.07652238 2.23046875 7.78125 C2.22853516 8.70550781 2.22660156 9.62976563 2.22460938 10.58203125 C2.21236328 11.54496094 2.20011719 12.50789063 2.1875 13.5 C2.18685547 14.46292969 2.18621094 15.42585938 2.18554688 16.41796875 C2.14060834 23.57817497 2.14060834 23.57817497 1 27 C1.66 27 2.32 27 3 27 C2.67 74.52 2.34 122.04 2 171 C1.67 171 1.34 171 1 171 C0.8670784 155.79180752 0.73663778 140.58359501 0.60884857 125.37535858 C0.5494087 118.3076836 0.48926081 111.24001618 0.42724609 104.17236328 C0.12299324 69.44782381 -0.08145511 34.72619377 0 0 Z " fill="#E6E6E6" transform="translate(301,255)"/>
<path d="M0 0 C0.64960693 0.03029297 1.29921387 0.06058594 1.96850586 0.09179688 C4.95807645 0.22999376 7.94778269 0.36501581 10.9375 0.5 C12.46987305 0.57154297 12.46987305 0.57154297 14.03320312 0.64453125 C20.02973966 0.91274694 25.99753012 1.05007274 32 1 C32 2.65 32 4.3 32 6 C27.79168132 6.02914348 23.58338878 6.04684712 19.375 6.0625 C17.59029297 6.07506836 17.59029297 6.07506836 15.76953125 6.08789062 C14.61582031 6.09111328 13.46210938 6.09433594 12.2734375 6.09765625 C10.68668213 6.10551147 10.68668213 6.10551147 9.06787109 6.11352539 C5.96637654 5.99875578 3.04652343 5.57696282 0 5 C0 3.35 0 1.7 0 0 Z " fill="#BBBBBB" transform="translate(322,393)"/>
<path d="M0 0 C3.1875 0.125 3.1875 0.125 4.93359375 0.59765625 C8.08632766 1.33529763 11.2089428 1.47824166 14.4375 1.6875 C15.70078125 1.77128906 16.9640625 1.85507812 18.265625 1.94140625 C19.22984375 2.00199219 20.1940625 2.06257813 21.1875 2.125 C21.5175 3.775 21.8475 5.425 22.1875 7.125 C13.9375 7.125 5.6875 7.125 -2.8125 7.125 C-3.1425 5.145 -3.4725 3.165 -3.8125 1.125 C-2.8125 0.125 -2.8125 0.125 0 0 Z " fill="#C6C6C6" transform="translate(334.8125,420.875)"/>
<path d="M0 0 C0.99 0 1.98 0 3 0 C3 6.93 3 13.86 3 21 C2.67 20.01 2.34 19.02 2 18 C0.68445015 18.4495045 -0.62738358 18.90989716 -1.9375 19.375 C-2.66839844 19.63023437 -3.39929688 19.88546875 -4.15234375 20.1484375 C-6.18682116 20.85271413 -6.18682116 20.85271413 -7 23 C-9.64 22.67 -12.28 22.34 -15 22 C-14.67 20.68 -14.34 19.36 -14 18 C-13.01257813 17.85304688 -12.02515625 17.70609375 -11.0078125 17.5546875 C-9.72648437 17.33039063 -8.44515625 17.10609375 -7.125 16.875 C-5.84882813 16.66617187 -4.57265625 16.45734375 -3.2578125 16.2421875 C0.29064602 15.32316479 0.29064602 15.32316479 1.4453125 11.8828125 C1.62835938 10.93148438 1.81140625 9.98015625 2 9 C1.40832031 9.3609375 0.81664062 9.721875 0.20703125 10.09375 C-0.58316406 10.5578125 -1.37335938 11.021875 -2.1875 11.5 C-2.96480469 11.9640625 -3.74210937 12.428125 -4.54296875 12.90625 C-7.24103386 14.10729647 -9.0806982 14.20741043 -12 14 C-12 12.68 -12 11.36 -12 10 C-10.35 10 -8.7 10 -7 10 C-7 9.34 -7 8.68 -7 8 C-5.88625 7.773125 -4.7725 7.54625 -3.625 7.3125 C0.16038373 6.39376342 0.16038373 6.39376342 1.4375 3.375 C1.623125 2.59125 1.80875 1.8075 2 1 C1.34 0.67 0.68 0.34 0 0 Z " fill="#EFEFEF" transform="translate(395,298)"/>
<path d="M0 0 C-0.25 1.88671875 -0.25 1.88671875 -1 4 C-8.69885063 8.93653154 -19.41248544 6.82687205 -28 6 C-27.67 4.68 -27.34 3.36 -27 2 C-26.25234375 1.93941406 -25.5046875 1.87882812 -24.734375 1.81640625 C-23.74953125 1.73261719 -22.7646875 1.64882813 -21.75 1.5625 C-20.28820312 1.44068359 -20.28820312 1.44068359 -18.796875 1.31640625 C-16.42713948 1.04832165 -14.28811657 0.64587973 -12 0 C-7.73533089 -1.15261327 -4.33570115 -0.76512373 0 0 Z " fill="#B2B2B2" transform="translate(379,409)"/>
<path d="M0 0 C0 0.66 0 1.32 0 2 C-3.62281613 3.49174782 -7.28417146 4.76139049 -11 6 C-11.99 6.495 -11.99 6.495 -13 7 C-13.66 6.67 -14.32 6.34 -15 6 C-16.49579604 5.79907217 -17.99696724 5.63663934 -19.5 5.5 C-23.77777778 5.11111111 -23.77777778 5.11111111 -26 4 C-26 4.99 -26 5.98 -26 7 C-26.99 7.33 -27.98 7.66 -29 8 C-29 5.69 -29 3.38 -29 1 C-19.29821771 0.2390759 -9.73524288 -0.13500337 0 0 Z " fill="#BABABA" transform="translate(380,439)"/>
<path d="M0 0 C0.99 0.33 1.98 0.66 3 1 C4.33783393 0.68521554 5.67203709 0.35412344 7 0 C7.33 0.33 7.66 0.66 8 1 C10.35313555 1.07271741 12.70833668 1.08370868 15.0625 1.0625 C16.35285156 1.05347656 17.64320313 1.04445313 18.97265625 1.03515625 C19.97167969 1.02355469 20.97070312 1.01195312 22 1 C22.33 2.32 22.66 3.64 23 5 C21.81921875 5.13277344 20.6384375 5.26554687 19.421875 5.40234375 C17.86456738 5.5805898 16.30727658 5.75898293 14.75 5.9375 C13.58404297 6.06801758 13.58404297 6.06801758 12.39453125 6.20117188 C11.64042969 6.28818359 10.88632812 6.37519531 10.109375 6.46484375 C9.41811523 6.543396 8.72685547 6.62194824 8.01464844 6.70288086 C5.96711124 6.96629472 5.96711124 6.96629472 3.88378906 7.56079102 C1.61789033 8.08908959 0.18978093 7.70385816 -2 7 C-2 5.02 -2 3.04 -2 1 C-1.34 0.67 -0.68 0.34 0 0 Z " fill="#A1A1A1" transform="translate(357,304)"/>
<path d="M0 0 C0.99 0 1.98 0 3 0 C3 13.2 3 26.4 3 40 C2.01 40 1.02 40 0 40 C0 26.8 0 13.6 0 0 Z " fill="#282828" transform="translate(322,296)"/>
<path d="M0 0 C0.92232422 0.00451172 1.84464844 0.00902344 2.79492188 0.01367188 C5.05085048 0.02536062 7.30663967 0.04174545 9.5625 0.0625 C9.1875 2 9.1875 2 8.5625 4.0625 C6.10974859 5.2888757 4.5119219 5.17665314 1.7734375 5.16015625 C0.83242188 5.15693359 -0.10859375 5.15371094 -1.078125 5.15039062 C-2.06296875 5.14201172 -3.0478125 5.13363281 -4.0625 5.125 C-5.05507813 5.12048828 -6.04765625 5.11597656 -7.0703125 5.11132812 C-9.5261016 5.09952145 -11.98177104 5.083054 -14.4375 5.0625 C-14.7675 4.4025 -15.0975 3.7425 -15.4375 3.0625 C-16.4275 3.7225 -17.4175 4.3825 -18.4375 5.0625 C-18.1075 3.7425 -17.7775 2.4225 -17.4375 1.0625 C-11.58861957 0.04355924 -5.92830831 -0.05548453 0 0 Z " fill="#BDBDBD" transform="translate(361.4375,401.9375)"/>
<path d="M0 0 C0.33 1.32 0.66 2.64 1 4 C6.94 4 12.88 4 19 4 C19 4.99 19 5.98 19 7 C20.65 7 22.3 7 24 7 C23.01 8.485 23.01 8.485 22 10 C20.12060547 10.34057617 20.12060547 10.34057617 17.8671875 10.29296875 C17.06152344 10.28330078 16.25585938 10.27363281 15.42578125 10.26367188 C14.58402344 10.23853516 13.74226563 10.21339844 12.875 10.1875 C12.02550781 10.17396484 11.17601562 10.16042969 10.30078125 10.14648438 C8.20025163 10.11108219 6.10004707 10.05727401 4 10 C4 9.34 4 8.68 4 8 C2.68 8 1.36 8 0 8 C0 5.36 0 2.72 0 0 Z " fill="#DCDCDC" transform="translate(328,305)"/>
<path d="M0 0 C0 1.32 0 2.64 0 4 C-3.05023838 5.13497242 -5.47376857 6.01195981 -8.75 5.9375 C-9.4925 5.958125 -10.235 5.97875 -11 6 C-11.99 7.485 -11.99 7.485 -13 9 C-15.6015625 9.29296875 -15.6015625 9.29296875 -18.625 9.1875 C-20.12933594 9.14689453 -20.12933594 9.14689453 -21.6640625 9.10546875 C-22.43492187 9.07066406 -23.20578125 9.03585937 -24 9 C-24 7.68 -24 6.36 -24 5 C-22.73542969 4.72285156 -21.47085937 4.44570313 -20.16796875 4.16015625 C-18.50779395 3.79435502 -16.84763871 3.42846498 -15.1875 3.0625 C-14.35412109 2.88009766 -13.52074219 2.69769531 -12.66210938 2.50976562 C-11.85966797 2.33251953 -11.05722656 2.15527344 -10.23046875 1.97265625 C-9.12288208 1.72914429 -9.12288208 1.72914429 -7.99291992 1.48071289 C-1.85424073 0 -1.85424073 0 0 0 Z " fill="#CACACA" transform="translate(395,417)"/>
<path d="M0 0 C3.04712124 1.14267047 4.04750315 2.03250629 5.5 4.9375 C5.1875 7.6875 5.1875 7.6875 4.5 9.9375 C3.84 9.9375 3.18 9.9375 2.5 9.9375 C2.5 10.5975 2.5 11.2575 2.5 11.9375 C-0.375 12.125 -0.375 12.125 -3.5 11.9375 C-5.81282587 8.46826119 -5.92478586 7.01544425 -5.5 2.9375 C-3.8566884 0.25630739 -3.15525569 -0.07888139 0 0 Z " fill="#ADADAD" transform="translate(337.5,278.0625)"/>
<path d="M0 0 C0.268125 0.804375 0.53625 1.60875 0.8125 2.4375 C1.204375 3.283125 1.59625 4.12875 2 5 C2.99 5.33 3.98 5.66 5 6 C4.25 10.75 4.25 10.75 2 13 C-0.0625 12.75 -0.0625 12.75 -2 12 C-2.33 11.34 -2.66 10.68 -3 10 C-2.34 9.01 -1.68 8.02 -1 7 C-4.63 7.33 -8.26 7.66 -12 8 C-12.33 6.35 -12.66 4.7 -13 3 C-12.01 2.67 -11.02 2.34 -10 2 C-10 2.66 -10 3.32 -10 4 C-9.34 4 -8.68 4 -8 4 C-8 3.34 -8 2.68 -8 2 C-2.25 0 -2.25 0 0 0 Z " fill="#D4D4D4" transform="translate(392,397)"/>
<path d="M0 0 C1.42078842 0.02874749 2.84145446 0.06397467 4.26196289 0.10424805 C5.38472374 0.13254951 5.38472374 0.13254951 6.53016663 0.16142273 C8.11653922 0.20337572 9.70284003 0.24812005 11.2890625 0.29541016 C13.7206382 0.36556343 16.15223613 0.41991392 18.58422852 0.47338867 C20.12266715 0.51603935 21.66108012 0.55962803 23.19946289 0.60424805 C24.2948362 0.62628044 24.2948362 0.62628044 25.41233826 0.64875793 C30.56823029 0.82457794 30.56823029 0.82457794 32.79711914 3.0534668 C30.52157751 4.19123761 29.08202398 4.23467943 26.55102539 4.3347168 C25.29515625 4.39079102 25.29515625 4.39079102 24.01391602 4.44799805 C23.13799805 4.48280273 22.26208008 4.51760742 21.35961914 4.5534668 C19.63159243 4.6224346 17.90371183 4.69519465 16.17602539 4.7722168 C15.02469116 4.81765625 15.02469116 4.81765625 13.85009766 4.86401367 C11.59828643 4.99323673 11.59828643 4.99323673 8.79711914 6.0534668 C8.79711914 5.3934668 8.79711914 4.7334668 8.79711914 4.0534668 C7.89219727 4.10567383 7.89219727 4.10567383 6.96899414 4.15893555 C0.35972634 4.38279784 0.35972634 4.38279784 -2.76538086 2.5534668 C-3.23975586 2.0584668 -3.71413086 1.5634668 -4.20288086 1.0534668 C-3.20288086 0.0534668 -3.20288086 0.0534668 0 0 Z " fill="#EDEDED" transform="translate(326.202880859375,397.946533203125)"/>
<path d="M0 0 C1.23492187 0.07863281 2.46984375 0.15726562 3.7421875 0.23828125 C6.7457146 0.637133 8.58062173 1.12123699 11.125 2.6875 C10.75 4.625 10.75 4.625 10.125 6.6875 C9.135 7.1825 9.135 7.1825 8.125 7.6875 C7.465 7.3575 6.805 7.0275 6.125 6.6875 C3.96161909 6.48254812 1.79390995 6.32185725 -0.375 6.1875 C-6.65277778 5.79861111 -6.65277778 5.79861111 -8.875 4.6875 C-8.875 3.3675 -8.875 2.0475 -8.875 0.6875 C-5.88159525 -0.80920238 -3.31278989 -0.23072445 0 0 Z " fill="#D4D4D4" transform="translate(338.875,438.3125)"/>
<path d="M0 0 C1.485 0.2475 1.485 0.2475 3 0.5 C6.31895654 0.98651371 9.51239342 0.961546 12.8671875 0.90234375 C16.67559414 1.07672134 20.32126852 2.0462548 24 3 C23.67 3.99 23.34 4.98 23 6 C20.31300008 6.22366479 17.62656203 6.42927009 14.9375 6.625 C13.80924805 6.72167969 13.80924805 6.72167969 12.65820312 6.8203125 C7.60470937 7.17033804 3.78976864 6.66655961 -1 5 C-0.67 3.35 -0.34 1.7 0 0 Z " fill="#B7B7B7" transform="translate(329,297)"/>
<path d="M0 0 C2.31 0 4.62 0 7 0 C7 0.66 7 1.32 7 2 C5.35 2 3.7 2 2 2 C2 2.66 2 3.32 2 4 C3.65 4 5.3 4 7 4 C7 4.66 7 5.32 7 6 C5.35 6 3.7 6 2 6 C2 6.99 2 7.98 2 9 C3.65 9 5.3 9 7 9 C6.67 9.99 6.34 10.98 6 12 C1.05 12 -3.9 12 -9 12 C-9 8.37 -9 4.74 -9 1 C-8.34 1 -7.68 1 -7 1 C-7 3.97 -7 6.94 -7 10 C-5.02 10 -3.04 10 -1 10 C-1.020625 8.906875 -1.04125 7.81375 -1.0625 6.6875 C-1 3 -1 3 0 0 Z " fill="#B7B7B7" transform="translate(367,278)"/>
<path d="M0 0 C0 3.33333333 0 6.66666667 0 10 C-0.99 9.67 -1.98 9.34 -3 9 C-3.99 10.485 -3.99 10.485 -5 12 C-5.66 10.35 -6.32 8.7 -7 7 C-7.66 8.32 -8.32 9.64 -9 11 C-10.65 10.67 -12.3 10.34 -14 10 C-14 9.01 -14 8.02 -14 7 C-12.35 7 -10.7 7 -9 7 C-9 6.34 -9 5.68 -9 5 C-10.65 5 -12.3 5 -14 5 C-14 4.34 -14 3.68 -14 3 C-12.35 3 -10.7 3 -9 3 C-8.67 2.34 -8.34 1.68 -8 1 C-5.29120665 -0.35439668 -2.99066732 -0.06501451 0 0 Z " fill="#DDDDDD" transform="translate(383,277)"/>
<path d="M0 0 C1.32 0 2.64 0 4 0 C4.11352035 14.37342318 4.02565369 28.65916354 3 43 C2.67 43 2.34 43 2 43 C1.67 37.39 1.34 31.78 1 26 C0.67 26 0.34 26 0 26 C0 17.42 0 8.84 0 0 Z " fill="#070707" transform="translate(323,422)"/>
<path d="M0 0 C0.56203125 0.17402344 1.1240625 0.34804688 1.703125 0.52734375 C4.24556755 1.05053346 6.18452337 0.90204838 8.75 0.5625 C9.54921875 0.46066406 10.3484375 0.35882813 11.171875 0.25390625 C11.77515625 0.17011719 12.3784375 0.08632813 13 0 C13.33 0.66 13.66 1.32 14 2 C13.34 2 12.68 2 12 2 C12 2.66 12 3.32 12 4 C11.01 4 10.02 4 9 4 C9 5.65 9 7.3 9 9 C7.4221875 9.2165625 7.4221875 9.2165625 5.8125 9.4375 C2.84539451 9.87526966 -0.06794366 10.37804866 -3 11 C-2.01 10.67 -1.02 10.34 0 10 C0.73323796 7.98491642 0.73323796 7.98491642 1 6 C0.01 6 -0.98 6 -2 6 C-1.49396008 3.83125748 -1.00016187 2.00032373 0 0 Z " fill="#ECECEC" transform="translate(378,403)"/>
<path d="M0 0 C0.66 0 1.32 0 2 0 C2 2.31 2 4.62 2 7 C1.01 7 0.02 7 -1 7 C-0.67 8.98 -0.34 10.96 0 13 C-1.65 12.67 -3.3 12.34 -5 12 C-5 11.34 -5 10.68 -5 10 C-8.3 10 -11.6 10 -15 10 C-14.34 9.01 -13.68 8.02 -13 7 C-10.375 6.8125 -10.375 6.8125 -8 7 C-7.67 5.68 -7.34 4.36 -7 3 C-5.35 3.33 -3.7 3.66 -2 4 C-1.34 2.68 -0.68 1.36 0 0 Z " fill="#D7D7D7" transform="translate(377,391)"/>
<path d="M0 0 C0.99 0.33 1.98 0.66 3 1 C2.34 1 1.68 1 1 1 C1 1.99 1 2.98 1 4 C1.99 3.34 2.98 2.68 4 2 C6.0847168 1.77294922 6.0847168 1.77294922 8.44921875 1.8046875 C9.72055664 1.81435547 9.72055664 1.81435547 11.01757812 1.82421875 C12.33918945 1.84935547 12.33918945 1.84935547 13.6875 1.875 C15.02651367 1.88853516 15.02651367 1.88853516 16.39257812 1.90234375 C18.59532314 1.92590252 20.79752588 1.95879671 23 2 C23 3.32 23 4.64 23 6 C15.41 6 7.82 6 0 6 C-0.33 4.35 -0.66 2.7 -1 1 C-0.67 0.67 -0.34 0.34 0 0 Z " fill="#C1C1C1" transform="translate(332,430)"/>
<path d="M0 0 C0.125 2.375 0.125 2.375 0 5 C-2.73149663 7.73149663 -5.11240684 7.85057854 -8.875 8.625 C-10.72738281 9.01558594 -10.72738281 9.01558594 -12.6171875 9.4140625 C-16 10 -16 10 -20 10 C-20 8.68 -20 7.36 -20 6 C-17 4 -17 4 -13.25 4.125 C-7.88087677 4.30331037 -4.81835059 0 0 0 Z " fill="#DBDBDB" transform="translate(397,307)"/>
<path d="M0 0 C2.31 0 4.62 0 7 0 C7 0.99 7 1.98 7 3 C7.99 3 8.98 3 10 3 C10 2.01 10 1.02 10 0 C12.64 0 15.28 0 18 0 C18.33 1.65 18.66 3.3 19 5 C18.01 4.67 17.02 4.34 16 4 C16 4.66 16 5.32 16 6 C10.375 6.25 10.375 6.25 7 4 C7 4.66 7 5.32 7 6 C4.69 6 2.38 6 0 6 C0 4.02 0 2.04 0 0 Z " fill="#ABABAB" transform="translate(347,331)"/>
<path d="M0 0 C1.32 1.65 2.64 3.3 4 5 C3.01 5.495 3.01 5.495 2 6 C2 6.66 2 7.32 2 8 C0.35 7.67 -1.3 7.34 -3 7 C-3 7.66 -3 8.32 -3 9 C-3.66 9 -4.32 9 -5 9 C-5 9.66 -5 10.32 -5 11 C-4.34 11.33 -3.68 11.66 -3 12 C-5.31 12.33 -7.62 12.66 -10 13 C-10 10.69 -10 8.38 -10 6 C-8.35 5.34 -6.7 4.68 -5 4 C-6.65 3.67 -8.3 3.34 -10 3 C-10 2.34 -10 1.68 -10 1 C-6.7 1.33 -3.4 1.66 0 2 C0 1.34 0 0.68 0 0 Z " fill="#D5D5D5" transform="translate(338,324)"/>
<path d="M0 0 C0.57524414 0.16749756 1.15048828 0.33499512 1.74316406 0.50756836 C4.01603339 1.00349842 5.79746603 1.03653641 8.109375 0.87890625 C8.86347656 0.83056641 9.61757813 0.78222656 10.39453125 0.73242188 C11.17183594 0.67634766 11.94914062 0.62027344 12.75 0.5625 C13.54277344 0.51029297 14.33554687 0.45808594 15.15234375 0.40429688 C17.10193997 0.27510676 19.05102886 0.13830035 21 0 C20.67 1.32 20.34 2.64 20 4 C19.34 4 18.68 4 18 4 C18 4.66 18 5.32 18 6 C15.24849263 5.91288896 12.50018367 5.80600385 9.75 5.6875 C8.97269531 5.66494141 8.19539063 5.64238281 7.39453125 5.61914062 C3.06020907 5.41539044 0.21958895 5.22824376 -3 2 C-2.01 2 -1.02 2 0 2 C0 1.34 0 0.68 0 0 Z " fill="#DADADA" transform="translate(332,302)"/>
<path d="M0 0 C0.99 0 1.98 0 3 0 C3 0.66 3 1.32 3 2 C4.794375 1.9690625 4.794375 1.9690625 6.625 1.9375 C10.18004869 1.93117429 13.50555624 2.30111125 17 3 C17 4.32 17 5.64 17 7 C14.93757383 7.02717692 12.87504297 7.0464758 10.8125 7.0625 C9.66394531 7.07410156 8.51539063 7.08570313 7.33203125 7.09765625 C4.40699414 7.01192832 1.83683709 6.67849023 -1 6 C-1.042721 4.33388095 -1.04063832 2.66617115 -1 1 C-0.67 0.67 -0.34 0.34 0 0 Z " fill="#BFBFBF" transform="translate(322,408)"/>
<path d="M0 0 C-0.75 4.75 -0.75 4.75 -3 7 C-6.125 7.125 -6.125 7.125 -9 7 C-9 7.66 -9 8.32 -9 9 C-11.31 9 -13.62 9 -16 9 C-16 7.35 -16 5.7 -16 4 C-14 3 -14 3 -10.6875 2.5625 C-7.02953425 2.00450522 -3.61408379 0 0 0 Z " fill="#DCDCDC" transform="translate(397,299)"/>
<path d="M0 0 C6.6 0 13.2 0 20 0 C19.34 1.32 18.68 2.64 18 4 C15.36 4 12.72 4 10 4 C10 4.99 10 5.98 10 7 C9.01 7 8.02 7 7 7 C7 6.01 7 5.02 7 4 C5.68 4.33 4.36 4.66 3 5 C2.87625 4.360625 2.7525 3.72125 2.625 3.0625 C2.315625 2.0415625 2.315625 2.0415625 2 1 C1.34 0.67 0.68 0.34 0 0 Z " fill="#D2D2D2" transform="translate(347,327)"/>
<path d="M0 0 C1.33783393 -0.31478446 2.67203709 -0.64587656 4 -1 C6.25 -0.5625 6.25 -0.5625 8 0 C8 0.66 8 1.32 8 2 C0.26216508 5.43903774 -8.84520206 4.48269053 -17 3 C-17 2.34 -17 1.68 -17 1 C-11.0268981 -0.28602372 -6.05701097 -1.32958777 0 0 Z " fill="#AAAAAA" transform="translate(363,315)"/>
<path d="M0 0 C0.84256348 0.23771118 0.84256348 0.23771118 1.70214844 0.48022461 C4.09674429 1.02188362 6.31438553 1.20641474 8.765625 1.31640625 C9.65507812 1.35830078 10.54453125 1.40019531 11.4609375 1.44335938 C12.38132812 1.48267578 13.30171875 1.52199219 14.25 1.5625 C15.18585938 1.60568359 16.12171875 1.64886719 17.0859375 1.69335938 C19.39048641 1.7991805 21.69513839 1.90126557 24 2 C23.67 3.32 23.34 4.64 23 6 C21.35 6 19.7 6 18 6 C18 5.34 18 4.68 18 4 C16.2365625 4.2475 16.2365625 4.2475 14.4375 4.5 C9.48110652 5.11515522 4.79725372 5.59908457 0 4 C0 2.68 0 1.36 0 0 Z " fill="#B6B6B6" transform="translate(329,305)"/>
<path d="M0 0 C6.28371307 -0.10064005 12.32809949 0.24058331 18.5625 1 C19.78936523 1.14308594 19.78936523 1.14308594 21.04101562 1.2890625 C23.02788675 1.52144509 25.01402794 1.76005516 27 2 C27 2.66 27 3.32 27 4 C17.80685498 5.39569705 9.28157192 6.4551617 0 5 C0 4.67 0 4.34 0 4 C3.3 3.67 6.6 3.34 10 3 C6.7 2.34 3.4 1.68 0 1 C0 0.67 0 0.34 0 0 Z " fill="#D9D9D9" transform="translate(332,318)"/>
<path d="M0 0 C-4.15757526 0.7846834 -8.08763924 1.12834605 -12.31640625 1.1328125 C-13.49267578 1.13410156 -14.66894531 1.13539063 -15.88085938 1.13671875 C-17.09580078 1.13285156 -18.31074219 1.12898437 -19.5625 1.125 C-20.78130859 1.12886719 -22.00011719 1.13273438 -23.25585938 1.13671875 C-24.43083984 1.13542969 -25.60582031 1.13414062 -26.81640625 1.1328125 C-28.41657593 1.13112061 -28.41657593 1.13112061 -30.04907227 1.12939453 C-32.80983647 1.00833844 -35.31322771 0.62506173 -38 0 C-38 -0.33 -38 -0.66 -38 -1 C-4.82567516 -2.99974402 -4.82567516 -2.99974402 0 0 Z " fill="#E0E0E0" transform="translate(376,247)"/>
<path d="M0 0 C0.66 0.33 1.32 0.66 2 1 C2 1.99 2 2.98 2 4 C2.99 4 3.98 4 5 4 C5.33 2.68 5.66 1.36 6 0 C6.66 0 7.32 0 8 0 C8 3.63 8 7.26 8 11 C7.01 10.67 6.02 10.34 5 10 C5 9.01 5 8.02 5 7 C3.68 7 2.36 7 1 7 C1 8.32 1 9.64 1 11 C0.34 11 -0.32 11 -1 11 C-1.02688151 9.35425434 -1.04634123 7.70838587 -1.0625 6.0625 C-1.07410156 5.14597656 -1.08570313 4.22945313 -1.09765625 3.28515625 C-1 1 -1 1 0 0 Z " fill="#B0B0B0" transform="translate(346,279)"/>
<path d="M0 0 C1.32 0 2.64 0 4 0 C4 0.66 4 1.32 4 2 C10.27 2 16.54 2 23 2 C23 2.33 23 2.66 23 3 C21.35 3 19.7 3 18 3 C18 3.66 18 4.32 18 5 C12.25 6.125 12.25 6.125 10 5 C8.29636178 4.77377919 6.58671299 4.59111527 4.875 4.4375 C3.96492188 4.35371094 3.05484375 4.26992188 2.1171875 4.18359375 C1.41851562 4.12300781 0.71984375 4.06242187 0 4 C0 2.68 0 1.36 0 0 Z " fill="#BCBCBC" transform="translate(328,321)"/>
<path d="M0 0 C2.64 0 5.28 0 8 0 C7.67 1.65 7.34 3.3 7 5 C4.36 5 1.72 5 -1 5 C-1 5.66 -1 6.32 -1 7 C1.64 7 4.28 7 7 7 C7 8.65 7 10.3 7 12 C6.67 10.68 6.34 9.36 6 8 C4.80375 8.185625 3.6075 8.37125 2.375 8.5625 C-1.28283707 9.0311197 -4.37862166 8.81481013 -8 8 C-8 7.34 -8 6.68 -8 6 C-4.04 5.01 -0.08 4.02 4 3 C4 2.34 4 1.68 4 1 C2.68 0.67 1.36 0.34 0 0 Z " fill="#D5D5D5" transform="translate(367,314)"/>
<path d="M0 0 C3.63 0 7.26 0 11 0 C11 1.65 11 3.3 11 5 C6.05 5 1.1 5 -4 5 C-3.67 4.01 -3.34 3.02 -3 2 C-2.01 2 -1.02 2 0 2 C0 1.34 0 0.68 0 0 Z " fill="#B3B3B3" transform="translate(343,394)"/>
<path d="M0 0 C0 1.32 0 2.64 0 4 C-9.41002278 7.62870159 -9.41002278 7.62870159 -14 6 C-14 4.68 -14 3.36 -14 2 C-4.58997722 -0.29612756 -4.58997722 -0.29612756 0 0 Z " fill="#CCCCCC" transform="translate(395,389)"/>
<path d="M0 0 C-0.18359375 1.890625 -0.18359375 1.890625 -1 4 C-3.28515625 5.046875 -3.28515625 5.046875 -6.0625 5.75 C-7.44115234 6.11351562 -7.44115234 6.11351562 -8.84765625 6.484375 C-9.55792969 6.65453125 -10.26820313 6.8246875 -11 7 C-10.67 5.35 -10.34 3.7 -10 2 C-11.32 2.33 -12.64 2.66 -14 3 C-14 2.01 -14 1.02 -14 0 C-9.02936879 -0.91297308 -4.97063121 -0.91297308 0 0 Z " fill="#CACACA" transform="translate(379,409)"/>
<path d="M0 0 C2.9375 0.375 2.9375 0.375 6 1 C6.99 1 7.98 1 9 1 C9.99 1.66 10.98 2.32 12 3 C5.51650193 4.18135474 -0.86214507 4.11322974 -7.4375 4.0625 C-8.55060547 4.05798828 -9.66371094 4.05347656 -10.81054688 4.04882812 C-13.54042101 4.03711193 -16.27018174 4.02070699 -19 4 C-19 3.67 -19 3.34 -19 3 C-9.43224118 1.92194267 -9.43224118 1.92194267 -5 2.0625 C-1.88232786 2.34381131 -1.88232786 2.34381131 0 0 Z " fill="#C7C7C7" transform="translate(360,260)"/>
<path d="M0 0 C0.91007812 0.10183594 1.82015625 0.20367187 2.7578125 0.30859375 C3.45648438 0.39238281 4.15515625 0.47617187 4.875 0.5625 C4.875 1.8825 4.875 3.2025 4.875 4.5625 C0.585 4.5625 -3.705 4.5625 -8.125 4.5625 C-7.795 3.2425 -7.465 1.9225 -7.125 0.5625 C-4.50184968 -0.74907516 -2.89466564 -0.33399988 0 0 Z " fill="#A2A2A2" transform="translate(364.125,393.4375)"/>
<path d="M0 0 C0.66 0 1.32 0 2 0 C2 0.99 2 1.98 2 3 C2.66 3 3.32 3 4 3 C4 2.34 4 1.68 4 1 C5.32 0.67 6.64 0.34 8 0 C7.0022242 2.99332739 6.2477975 3.94766315 4 6 C5.2375 6.928125 5.2375 6.928125 6.5 7.875 C7.325 8.57625 8.15 9.2775 9 10 C9 10.66 9 11.32 9 12 C5.64404172 11.40072174 3.62198774 10.15377564 1 8 C0.67 8.66 0.34 9.32 0 10 C0 6.7 0 3.4 0 0 Z " fill="#BABABA" transform="translate(322,278)"/>
<path d="M0 0 C2.125 0.375 2.125 0.375 4 1 C3.2734375 2.91796875 3.2734375 2.91796875 2 5 C-0.0234375 5.86328125 -0.0234375 5.86328125 -2.375 6.3125 C-3.14585937 6.47363281 -3.91671875 6.63476562 -4.7109375 6.80078125 C-7.0798979 7.00695357 -8.74765803 6.71478432 -11 6 C-10.01 6 -9.02 6 -8 6 C-8 4.68 -8 3.36 -8 2 C-7.05125 2.04125 -6.1025 2.0825 -5.125 2.125 C-1.89755144 2.34973818 -1.89755144 2.34973818 0 0 Z " fill="#D4D4D4" transform="translate(388,427)"/>
<path d="M0 0 C2.31 0 4.62 0 7 0 C7.33 1.98 7.66 3.96 8 6 C5.36 6 2.72 6 0 6 C0 5.34 0 4.68 0 4 C-0.66 4 -1.32 4 -2 4 C-2 3.34 -2 2.68 -2 2 C-1.34 2 -0.68 2 0 2 C0 1.34 0 0.68 0 0 Z " fill="#C6C6C6" transform="translate(335,331)"/>
<path d="M0 0 C0.33 0.99 0.66 1.98 1 3 C-6.28571429 7.57142857 -6.28571429 7.57142857 -11 7 C-11 5.68 -11 4.36 -11 3 C-9.35 3 -7.7 3 -6 3 C-6 2.34 -6 1.68 -6 1 C-4.02 0.67 -2.04 0.34 0 0 Z " fill="#F0F0F0" transform="translate(394,305)"/>
<path d="M0 0 C1.258125 -0.020625 2.51625 -0.04125 3.8125 -0.0625 C4.52019531 -0.07410156 5.22789062 -0.08570313 5.95703125 -0.09765625 C8 0 8 0 11 1 C11 1.99 11 2.98 11 4 C6.05 4 1.1 4 -4 4 C-3.01 3.67 -2.02 3.34 -1 3 C-0.67 2.01 -0.34 1.02 0 0 Z " fill="#BCBCBC" transform="translate(336,440)"/>
<path d="M0 0 C0 1.65 0 3.3 0 5 C-3.63 5 -7.26 5 -11 5 C-11 3.68 -11 2.36 -11 1 C-9.54182203 0.83197949 -8.0834516 0.66562857 -6.625 0.5 C-5.81289063 0.4071875 -5.00078125 0.314375 -4.1640625 0.21875 C-2 0 -2 0 0 0 Z " fill="#AAAAAA" transform="translate(369,422)"/>
<path d="M0 0 C1.98 0 3.96 0 6 0 C6.33 0.66 6.66 1.32 7 2 C5.02 2 3.04 2 1 2 C0.67 3.65 0.34 5.3 0 7 C-3 8 -3 8 -5.1875 7.0625 C-5.785625 6.711875 -6.38375 6.36125 -7 6 C-6.34 6 -5.68 6 -5 6 C-5 5.34 -5 4.68 -5 4 C-5.66 3.67 -6.32 3.34 -7 3 C-5.02 3 -3.04 3 -1 3 C-0.67 2.01 -0.34 1.02 0 0 Z " fill="#D9D9D9" transform="translate(349,408)"/>
<path d="M0 0 C1.32 0 2.64 0 4 0 C3.67 1.32 3.34 2.64 3 4 C-2.94 4 -8.88 4 -15 4 C-14.67 3.01 -14.34 2.02 -14 1 C-12.35 1 -10.7 1 -9 1 C-9 1.66 -9 2.32 -9 3 C-8.236875 2.814375 -7.47375 2.62875 -6.6875 2.4375 C-4 2 -4 2 -1 3 C-0.67 2.01 -0.34 1.02 0 0 Z " fill="#A9A9A9" transform="translate(351,423)"/>
<path d="M0 0 C3.19588316 0.03448795 6.13691725 0.34672931 9.25 1.125 C8.26 2.61 8.26 2.61 7.25 4.125 C6.72921875 3.96128906 6.2084375 3.79757812 5.671875 3.62890625 C2.5743125 2.98441341 -0.33841094 3.03088411 -3.5 3.0625 C-5.25570313 3.07603516 -5.25570313 3.07603516 -7.046875 3.08984375 C-7.93890625 3.10144531 -8.8309375 3.11304688 -9.75 3.125 C-9.75 2.465 -9.75 1.805 -9.75 1.125 C-8.5434375 1.1559375 -8.5434375 1.1559375 -7.3125 1.1875 C-3.89323672 1.10410333 -3.84016704 0.12800557 0 0 Z " fill="#E0E0E0" transform="translate(342.75,310.875)"/>
<path d="M0 0 C0.99 0 1.98 0 3 0 C3 6.93 3 13.86 3 21 C2.67 20.01 2.34 19.02 2 18 C1.01 18.33 0.02 18.66 -1 19 C-1 18.34 -1 17.68 -1 17 C-2.32 16.67 -3.64 16.34 -5 16 C-3.02 15.34 -1.04 14.68 1 14 C1.33 12.35 1.66 10.7 2 9 C1.34 9 0.68 9 0 9 C0.66666667 6.33333333 1.33333333 3.66666667 2 1 C1.34 0.67 0.68 0.34 0 0 Z " fill="#E4E4E4" transform="translate(395,298)"/>
<path d="M0 0 C2.79192205 -0.05380578 5.5828141 -0.09357669 8.375 -0.125 C9.1690625 -0.14175781 9.963125 -0.15851563 10.78125 -0.17578125 C12.85492015 -0.19335473 14.92883241 -0.10335168 17 0 C17.66 0.66 18.32 1.32 19 2 C16.703463 3.1482685 15.41686833 3.11561175 12.8671875 3.09765625 C12.06152344 3.09443359 11.25585938 3.09121094 10.42578125 3.08789062 C9.58402344 3.07951172 8.74226563 3.07113281 7.875 3.0625 C7.02550781 3.05798828 6.17601562 3.05347656 5.30078125 3.04882812 C3.20049091 3.03702874 1.1002367 3.01909306 -1 3 C-0.67 2.01 -0.34 1.02 0 0 Z " fill="#E1E1E1" transform="translate(340,399)"/>
<path d="M0 0 C3.63 0 7.26 0 11 0 C11 0.33 11 0.66 11 1 C8.36 1 5.72 1 3 1 C3.33 1.66 3.66 2.32 4 3 C4.039992 4.99960012 4.04346799 7.00047242 4 9 C2.35 8.67 0.7 8.34 -1 8 C-0.67 5.36 -0.34 2.72 0 0 Z " fill="#D3D3D3" transform="translate(358,427)"/>
<path d="M0 0 C2.97 0 5.94 0 9 0 C8.01 0.495 8.01 0.495 7 1 C6.31867549 2.66072849 5.65257873 4.327767 5 6 C4.34 6.66 3.68 7.32 3 8 C3 7.34 3 6.68 3 6 C1.68 6 0.36 6 -1 6 C-0.67 4.02 -0.34 2.04 0 0 Z " fill="#EBEBEB" transform="translate(383,422)"/>
<path d="M0 0 C0.33 1.32 0.66 2.64 1 4 C-2.3 4 -5.6 4 -9 4 C-9 2.68 -9 1.36 -9 0 C-5.52176885 -1.15941038 -3.54104422 -0.70820884 0 0 Z " fill="#BFBFBF" transform="translate(380,422)"/>
<path d="M0 0 C1.32 0.33 2.64 0.66 4 1 C4 1.66 4 2.32 4 3 C6.64 3 9.28 3 12 3 C12 3.99 12 4.98 12 6 C5.375 6.25 5.375 6.25 2 4 C2 4.66 2 5.32 2 6 C1.34 6 0.68 6 0 6 C0 4.02 0 2.04 0 0 Z " fill="#BDBDBD" transform="translate(322,400)"/>
<path d="M0 0 C2 3 2 3 2 5 C5.3 5 8.6 5 12 5 C9 8 9 8 5.3125 8.1875 C4.219375 8.125625 3.12625 8.06375 2 8 C1.34 9.32 0.68 10.64 0 12 C0 8.04 0 4.08 0 0 Z " fill="#E6E6E6" transform="translate(330,423)"/>
<path d="M0 0 C1.66611905 -0.042721 3.33382885 -0.04063832 5 0 C6 1 6 1 6.0625 3.5625 C6.041875 4.366875 6.02125 5.17125 6 6 C4.34385343 6.38218767 2.67542976 6.71395102 1 7 C0 6 0 6 -0.0625 2.9375 C-0.041875 1.968125 -0.02125 0.99875 0 0 Z " fill="#F0F0F0" transform="translate(334,281)"/>
<path d="M0 0 C2.31 0 4.62 0 7 0 C6.67 1.65 6.34 3.3 6 5 C3.69 5 1.38 5 -1 5 C-0.67 3.35 -0.34 1.7 0 0 Z " fill="#B8B8B8" transform="translate(366,322)"/>
<path d="M0 0 C0.33 1.32 0.66 2.64 1 4 C-6.75 5.125 -6.75 5.125 -9 4 C-9 3.34 -9 2.68 -9 2 C-9.66 1.67 -10.32 1.34 -11 1 C-9.54182203 0.83197949 -8.0834516 0.66562857 -6.625 0.5 C-5.81289063 0.4071875 -5.00078125 0.314375 -4.1640625 0.21875 C-2 0 -2 0 0 0 Z " fill="#BABABA" transform="translate(379,305)"/>
<path d="M0 0 C2.31 0 4.62 0 7 0 C6.34 1.65 5.68 3.3 5 5 C5.66 5.33 6.32 5.66 7 6 C4.69 6 2.38 6 0 6 C0 4.02 0 2.04 0 0 Z " fill="#ADADAD" transform="translate(347,331)"/>
<path d="M0 0 C1.32 0 2.64 0 4 0 C4 0.66 4 1.32 4 2 C5.98 2 7.96 2 10 2 C10 2.99 10 3.98 10 5 C6.7 5 3.4 5 0 5 C0 3.35 0 1.7 0 0 Z " fill="#BBBBBB" transform="translate(328,313)"/>
<path d="M0 0 C-0.33 1.32 -0.66 2.64 -1 4 C-2.65 4 -4.3 4 -6 4 C-6 3.34 -6 2.68 -6 2 C-7.918125 2.2475 -7.918125 2.2475 -9.875 2.5 C-11.94627065 2.76726073 -13.91103575 3 -16 3 C-16 2.34 -16 1.68 -16 1 C-13.89594609 0.83191581 -11.79175242 0.66558052 -9.6875 0.5 C-8.51574219 0.4071875 -7.34398437 0.314375 -6.13671875 0.21875 C-4.094806 0.07635011 -2.0468721 0 0 0 Z " fill="#9D9D9D" transform="translate(353,307)"/>
<path d="M0 0 C1.79206547 0.14084796 3.58364917 0.28783701 5.375 0.4375 C6.87160156 0.55931641 6.87160156 0.55931641 8.3984375 0.68359375 C11 1 11 1 13 2 C13 2.66 13 3.32 13 4 C8.71 4 4.42 4 0 4 C0 2.68 0 1.36 0 0 Z " fill="#EDEDED" transform="translate(331,435)"/>
<path d="M0 0 C0.125 2.375 0.125 2.375 0 5 C-2 7 -2 7 -4.625 7.125 C-5.40875 7.08375 -6.1925 7.0425 -7 7 C-6.61402985 4.20171644 -6.19863427 3.1794116 -4.0625 1.25 C-2 0 -2 0 0 0 Z " fill="#CBCBCB" transform="translate(397,307)"/>
<path d="M0 0 C4.95 0.99 4.95 0.99 10 2 C9.67 2.99 9.34 3.98 9 5 C6.36 5 3.72 5 1 5 C0.67 3.35 0.34 1.7 0 0 Z " fill="#A8A8A8" transform="translate(343,298)"/>
<path d="M0 0 C0.80824219 0.10183594 1.61648438 0.20367187 2.44921875 0.30859375 C3.06410156 0.39238281 3.67898438 0.47617187 4.3125 0.5625 C3.9825 1.5525 3.6525 2.5425 3.3125 3.5625 C3.3125 2.9025 3.3125 2.2425 3.3125 1.5625 C2.6525 1.5625 1.9925 1.5625 1.3125 1.5625 C1.3125 2.2225 1.3125 2.8825 1.3125 3.5625 C-1.3275 3.5625 -3.9675 3.5625 -6.6875 3.5625 C-7.0175 2.5725 -7.3475 1.5825 -7.6875 0.5625 C-4.59271121 -0.46909626 -3.16118607 -0.41232862 0 0 Z " fill="#ABABAB" transform="translate(361.6875,402.4375)"/>
<path d="M0 0 C0.33 0 0.66 0 1 0 C1.33 1.65 1.66 3.3 2 5 C3.65 5.33 5.3 5.66 7 6 C6.01 7.485 6.01 7.485 5 9 C3.68 9 2.36 9 1 9 C1 10.65 1 12.3 1 14 C0.67 14 0.34 14 0 14 C-0.91297308 9.02936879 -0.91297308 4.97063121 0 0 Z " fill="#ECECEC" transform="translate(327,321)"/>
<path d="M0 0 C8.57142857 -0.28571429 8.57142857 -0.28571429 12 2 C11.67 2.66 11.34 3.32 11 4 C7.37 3.67 3.74 3.34 0 3 C0 2.01 0 1.02 0 0 Z " fill="#DCDCDC" transform="translate(364,311)"/>
<path d="M0 0 C-0.875 4.875 -0.875 4.875 -2 6 C-3.66617115 6.04063832 -5.33388095 6.042721 -7 6 C-7 4.68 -7 3.36 -7 2 C-2.25 0 -2.25 0 0 0 Z " fill="#C4C4C4" transform="translate(397,299)"/>
<path d="M0 0 C0.66 0 1.32 0 2 0 C2 2.97 2 5.94 2 9 C3.65 9 5.3 9 7 9 C7 9.66 7 10.32 7 11 C4.69 11 2.38 11 0 11 C0 7.37 0 3.74 0 0 Z " fill="#9E9E9E" transform="translate(358,279)"/>
<path d="M0 0 C0.33 1.32 0.66 2.64 1 4 C1.66 4 2.32 4 3 4 C3.66 5.65 4.32 7.3 5 9 C4.01 8.67 3.02 8.34 2 8 C1.34 8.99 0.68 9.98 0 11 C-1 10 -1 10 -1.1328125 7.96875 C-1.13023437 7.1540625 -1.12765625 6.339375 -1.125 5.5 C-1.12757813 4.6853125 -1.13015625 3.870625 -1.1328125 3.03125 C-1 1 -1 1 0 0 Z " fill="#C9C9C9" transform="translate(378,278)"/>
<path d="M0 0 C2 1 2 1 4 4 C-0.62 4 -5.24 4 -10 4 C-10 3.34 -10 2.68 -10 2 C-9.04287109 1.90912109 -9.04287109 1.90912109 -8.06640625 1.81640625 C-6.82697266 1.69072266 -6.82697266 1.69072266 -5.5625 1.5625 C-4.73878906 1.48128906 -3.91507812 1.40007812 -3.06640625 1.31640625 C-1.01337975 1.21069185 -1.01337975 1.21069185 0 0 Z " fill="#EBEBEB" transform="translate(376,434)"/>
<path d="M0 0 C0.66 0 1.32 0 2 0 C2 0.66 2 1.32 2 2 C2.99 1.34 3.98 0.68 5 0 C7.1875 0.375 7.1875 0.375 9 1 C8.34 1.66 7.68 2.32 7 3 C6.01 3 5.02 3 4 3 C4 4.32 4 5.64 4 7 C3.34 7 2.68 7 2 7 C2 5.68 2 4.36 2 3 C1.01 3.33 0.02 3.66 -1 4 C-1 1 -1 1 0 0 Z " fill="#DCDCDC" transform="translate(367,419)"/>
<path d="M0 0 C0.99 0.33 1.98 0.66 3 1 C3 1.66 3 2.32 3 3 C6.465 2.505 6.465 2.505 10 2 C8.875 3.5 8.875 3.5 7 5 C3.46049143 5.45185216 1.66673285 5.42109443 -1.375 3.5 C-1.91125 3.005 -2.4475 2.51 -3 2 C-2.01 2 -1.02 2 0 2 C0 1.34 0 0.68 0 0 Z " fill="#E7E7E7" transform="translate(332,302)"/>
<path d="M0 0 C4.62 0 9.24 0 14 0 C14 0.66 14 1.32 14 2 C10.6828589 3.4216319 7.55780196 4.39009109 4 5 C3.67 4.34 3.34 3.68 3 3 C4.65 3 6.3 3 8 3 C8 2.34 8 1.68 8 1 C5.36 1 2.72 1 0 1 C0 0.67 0 0.34 0 0 Z " fill="#C7C7C7" transform="translate(366,439)"/>
<path d="M0 0 C7.42857143 -0.28571429 7.42857143 -0.28571429 11 2 C10.01 2.33 9.02 2.66 8 3 C7.67 3.66 7.34 4.32 7 5 C3.37 5 -0.26 5 -4 5 C-4 4.67 -4 4.34 -4 4 C-1.03 4 1.94 4 5 4 C5 3.34 5 2.68 5 2 C3.68 1.67 2.36 1.34 1 1 C0.67 1.66 0.34 2.32 0 3 C0 2.01 0 1.02 0 0 Z " fill="#C4C4C4" transform="translate(332,394)"/>
<path d="M0 0 C3.07531556 0.33246655 4.61832506 0.63104756 6.875 2.8125 C8 5 8 5 7.6875 7.25 C7.460625 7.8275 7.23375 8.405 7 9 C6.34 8.67 5.68 8.34 5 8 C4.896875 7.360625 4.79375 6.72125 4.6875 6.0625 C4.3471875 5.0415625 4.3471875 5.0415625 4 4 C1.50965614 2.70339566 1.50965614 2.70339566 -1 2 C-0.67 1.34 -0.34 0.68 0 0 Z " fill="#C0C0C0" transform="translate(335,278)"/>
<path d="M0 0 C0.85078125 0.04833984 1.7015625 0.09667969 2.578125 0.14648438 C3.46757812 0.20255859 4.35703125 0.25863281 5.2734375 0.31640625 C6.170625 0.36861328 7.0678125 0.42082031 7.9921875 0.47460938 C10.21127762 0.60444975 12.42993621 0.73941964 14.6484375 0.87890625 C14.6484375 1.20890625 14.6484375 1.53890625 14.6484375 1.87890625 C12.6684375 1.87890625 10.6884375 1.87890625 8.6484375 1.87890625 C8.3184375 2.53890625 7.9884375 3.19890625 7.6484375 3.87890625 C7.6484375 3.21890625 7.6484375 2.55890625 7.6484375 1.87890625 C5.87723947 2.02024124 4.10648463 2.16713833 2.3359375 2.31640625 C0.85673828 2.43822266 0.85673828 2.43822266 -0.65234375 2.5625 C-3.44531849 2.79703184 -3.44531849 2.79703184 -6.3515625 3.87890625 C-6.3515625 2.88890625 -6.3515625 1.89890625 -6.3515625 0.87890625 C-3.94721244 -0.32326878 -2.66774881 -0.16006493 0 0 Z " fill="#D7D7D7" transform="translate(339.3515625,430.12109375)"/>
<path d="M0 0 C0.99 0 1.98 0 3 0 C3 0.66 3 1.32 3 2 C5.31 2 7.62 2 10 2 C10 2.33 10 2.66 10 3 C7.69 3 5.38 3 3 3 C2.67 3.99 2.34 4.98 2 6 C1.01 6 0.02 6 -1 6 C-1.042721 4.33388095 -1.04063832 2.66617115 -1 1 C-0.67 0.67 -0.34 0.34 0 0 Z " fill="#D1D1D1" transform="translate(322,408)"/>
<path d="M0 0 C0.66 0.33 1.32 0.66 2 1 C1.34 2.32 0.68 3.64 0 5 C2.64 5 5.28 5 8 5 C8 5.33 8 5.66 8 6 C4.7 6 1.4 6 -2 6 C-2 4.35 -2 2.7 -2 1 C-1.34 0.67 -0.68 0.34 0 0 Z M-9 6 C-6.69 6 -4.38 6 -2 6 C-2 6.33 -2 6.66 -2 7 C-4.31 7 -6.62 7 -9 7 C-9 6.67 -9 6.34 -9 6 Z " fill="#CCCCCC" transform="translate(356,393)"/>
<path d="M0 0 C0.98484375 0.01804687 1.9696875 0.03609375 2.984375 0.0546875 C4.10585938 0.08949219 4.10585938 0.08949219 5.25 0.125 C5.25 0.785 5.25 1.445 5.25 2.125 C2.27148438 2.46679688 2.27148438 2.46679688 -0.70703125 2.80859375 C-2.94396393 3.09670735 -2.94396393 3.09670735 -5.75 4.125 C-7.9375 3.1875 -7.9375 3.1875 -9.75 2.125 C-6.40060119 0.09941119 -3.88037449 -0.09238987 0 0 Z " fill="#CFCFCF" transform="translate(341.75,308.875)"/>
<path d="M0 0 C1.98 0 3.96 0 6 0 C5.67 1.32 5.34 2.64 5 4 C4.34 3.67 3.68 3.34 3 3 C3 3.99 3 4.98 3 6 C2.01 6.33 1.02 6.66 0 7 C0 4.69 0 2.38 0 0 Z " fill="#C6C6C6" transform="translate(351,440)"/>
<path d="M0 0 C2.97 0 5.94 0 9 0 C8.34 1.32 7.68 2.64 7 4 C5.68 4 4.36 4 3 4 C2.67 3.34 2.34 2.68 2 2 C1.01 2.66 0.02 3.32 -1 4 C-0.67 2.68 -0.34 1.36 0 0 Z " fill="#B4B4B4" transform="translate(344,403)"/>
<path d="M0 0 C-0.66 2.97 -1.32 5.94 -2 9 C-4.15473199 7.4198632 -6.10646634 5.89353366 -8 4 C-2.25 0 -2.25 0 0 0 Z " fill="#E5E5E5" transform="translate(334,278)"/>
<path d="M0 0 C3.3 0 6.6 0 10 0 C10 0.99 10 1.98 10 3 C9.01 3 8.02 3 7 3 C7 2.34 7 1.68 7 1 C6.34 1 5.68 1 5 1 C5 1.66 5 2.32 5 3 C3.02 3 1.04 3 -1 3 C-0.67 2.01 -0.34 1.02 0 0 Z " fill="#B9B9B9" transform="translate(337,432)"/>
<path d="M0 0 C-0.33 0.99 -0.66 1.98 -1 3 C-3.97 3 -6.94 3 -10 3 C-10 2.01 -10 1.02 -10 0 C-6.30581799 -1.231394 -3.7943739 -0.64432764 0 0 Z " fill="#AAAAAA" transform="translate(338,395)"/>
<path d="M0 0 C2.97 0 5.94 0 9 0 C9 0.99 9 1.98 9 3 C7.88625 2.979375 6.7725 2.95875 5.625 2.9375 C2.16784079 2.73619282 2.16784079 2.73619282 0 4 C0 2.68 0 1.36 0 0 Z " fill="#B9B9B9" transform="translate(364,431)"/>
<path d="M0 0 C0.99 0.33 1.98 0.66 3 1 C5.14255793 0.61067144 5.14255793 0.61067144 7 0 C7.33 0.99 7.66 1.98 8 3 C6.02 3 4.04 3 2 3 C1.67 3.99 1.34 4.98 1 6 C0.87625 5.360625 0.7525 4.72125 0.625 4.0625 C0.315625 3.0415625 0.315625 3.0415625 0 2 C-0.66 1.67 -1.32 1.34 -2 1 C-1.34 0.67 -0.68 0.34 0 0 Z " fill="#C4C4C4" transform="translate(357,304)"/>
<path d="M0 0 C1.5625 1.8125 1.5625 1.8125 3 4 C2.67 4.99 2.34 5.98 2 7 C0.35 7 -1.3 7 -3 7 C-1.125 1.125 -1.125 1.125 0 0 Z " fill="#DADADA" transform="translate(346,404)"/>
<path d="M0 0 C0.66 0.66 1.32 1.32 2 2 C2.99 2 3.98 2 5 2 C4.67 3.32 4.34 4.64 4 6 C2.35 6 0.7 6 -1 6 C-1.042721 4.33388095 -1.04063832 2.66617115 -1 1 C-0.67 0.67 -0.34 0.34 0 0 Z " fill="#B8B8B8" transform="translate(364,409)"/>
<path d="M0 0 C0 0.99 0 1.98 0 3 C-1.32 3 -2.64 3 -4 3 C-4 3.66 -4 4.32 -4 5 C-4.66 5 -5.32 5 -6 5 C-6.33 3.68 -6.66 2.36 -7 1 C-4.53721199 -0.231394 -2.7204945 -0.07159196 0 0 Z " fill="#F0F0F0" transform="translate(388,396)"/>
<path d="M0 0 C2.64 0 5.28 0 8 0 C8 1.32 8 2.64 8 4 C6.02 4 4.04 4 2 4 C2.66 3.67 3.32 3.34 4 3 C4 2.34 4 1.68 4 1 C2.68 0.67 1.36 0.34 0 0 Z " fill="#C1C1C1" transform="translate(367,314)"/>
<path d="M0 0 C0.66 0 1.32 0 2 0 C2 1.32 2 2.64 2 4 C3.65 3.67 5.3 3.34 7 3 C7 3.99 7 4.98 7 6 C5.00045254 6.04254356 2.99958364 6.04080783 1 6 C0 5 0 5 -0.0625 2.4375 C-0.041875 1.633125 -0.02125 0.82875 0 0 Z " fill="#ABABAB" transform="translate(355,306)"/>
<path d="M0 0 C2.97 0 5.94 0 9 0 C5.66189518 1.66905241 2.53842155 2.8741386 -1 4 C-0.67 2.68 -0.34 1.36 0 0 Z " fill="#E2E2E2" transform="translate(339,502)"/>
<path d="M0 0 C0.99 0.33 1.98 0.66 3 1 C2.67 2.65 2.34 4.3 2 6 C0.35 6 -1.3 6 -3 6 C-3.33 5.01 -3.66 4.02 -4 3 C-2.68 3 -1.36 3 0 3 C0 2.01 0 1.02 0 0 Z " fill="#D8D8D8" transform="translate(385,406)"/>
<path d="M0 0 C0.99 0 1.98 0 3 0 C3 1.65 3 3.3 3 5 C1.35 4.67 -0.3 4.34 -2 4 C-1.34 2.68 -0.68 1.36 0 0 Z " fill="#C2C2C2" transform="translate(338,402)"/>
<path d="M0 0 C3.3 0 6.6 0 10 0 C10 0.33 10 0.66 10 1 C7.69 1.33 5.38 1.66 3 2 C3 3.32 3 4.64 3 6 C2.01 5.67 1.02 5.34 0 5 C0 3.35 0 1.7 0 0 Z " fill="#D5D5D5" transform="translate(341,402)"/>
<path d="M0 0 C-0.99 0.495 -0.99 0.495 -2 1 C-2 1.66 -2 2.32 -2 3 C-3.98 3.33 -5.96 3.66 -8 4 C-7.625 2.0625 -7.625 2.0625 -7 0 C-4.3333581 -1.33332095 -2.83319697 -0.67102033 0 0 Z " fill="#B2B2B2" transform="translate(364,394)"/>
<path d="M0 0 C1.98 0 3.96 0 6 0 C6.33 1.65 6.66 3.3 7 5 C4.11424181 4.60196439 3.17810487 4.20990931 1.25 1.9375 C0.8375 1.298125 0.425 0.65875 0 0 Z " fill="#A9A9A9" transform="translate(336,331)"/>
<path d="M0 0 C0.99 0 1.98 0 3 0 C3 1.65 3 3.3 3 5 C2.01 5.495 2.01 5.495 1 6 C1 5.01 1 4.02 1 3 C-0.98 3.33 -2.96 3.66 -5 4 C-5 3.34 -5 2.68 -5 2 C-3.35 2 -1.7 2 0 2 C0 1.34 0 0.68 0 0 Z " fill="#E7E7E7" transform="translate(374,278)"/>
<path d="M0 0 C-0.33 1.65 -0.66 3.3 -1 5 C-2.32 5 -3.64 5 -5 5 C-5 3.68 -5 2.36 -5 1 C-2 0 -2 0 0 0 Z " fill="#B3B3B3" transform="translate(376,421)"/>
<path d="M0 0 C1.65 0 3.3 0 5 0 C5.33 1.32 5.66 2.64 6 4 C5.01 4.66 4.02 5.32 3 6 C2.34 5.34 1.68 4.68 1 4 C1.66 4 2.32 4 3 4 C3 3.01 3 2.02 3 1 C2.01 0.67 1.02 0.34 0 0 Z " fill="#C8C8C8" transform="translate(344,440)"/>
<path d="M0 0 C2.97 0 5.94 0 9 0 C9 0.99 9 1.98 9 3 C7.35 3 5.7 3 4 3 C4 2.34 4 1.68 4 1 C2.68 0.67 1.36 0.34 0 0 Z " fill="#ACACAC" transform="translate(357,440)"/>
<path d="M0 0 C3.3 0 6.6 0 10 0 C8.515 1.485 8.515 1.485 7 3 C3.9582904 2.71483972 2.60954198 1.73969465 0 0 Z " fill="#F2F2F2" transform="translate(332,428)"/>
<path d="M0 0 C2.31 0 4.62 0 7 0 C6.34 1.32 5.68 2.64 5 4 C4.34 4 3.68 4 3 4 C3 3.34 3 2.68 3 2 C2.01 2 1.02 2 0 2 C0 1.34 0 0.68 0 0 Z " fill="#DDDDDD" transform="translate(358,407)"/>
<path d="M0 0 C1.32 0.66 2.64 1.32 4 2 C4 2.66 4 3.32 4 4 C-0.455 4.495 -0.455 4.495 -5 5 C-4.67 4.01 -4.34 3.02 -4 2 C-2.02 2.495 -2.02 2.495 0 3 C0 2.01 0 1.02 0 0 Z " fill="#969696" transform="translate(357,331)"/>
<path d="M0 0 C0.99 0 1.98 0 3 0 C3.33 1.65 3.66 3.3 4 5 C2.35 5 0.7 5 -1 5 C-0.67 3.35 -0.34 1.7 0 0 Z " fill="#AEAEAE" transform="translate(329,297)"/>
<path d="M0 0 C1.65 0 3.3 0 5 0 C5.33 0.66 5.66 1.32 6 2 C5.01 3.485 5.01 3.485 4 5 C3.01 4.67 2.02 4.34 1 4 C0.3125 1.9375 0.3125 1.9375 0 0 Z " fill="#E5E5E5" transform="translate(334,281)"/>
<path d="M0 0 C0 0.99 0 1.98 0 3 C-2.64 3 -5.28 3 -8 3 C-8 2.34 -8 1.68 -8 1 C-2.25 0 -2.25 0 0 0 Z " fill="#A2A2A2" transform="translate(354,395)"/>
<path d="M0 0 C1.32 0.66 2.64 1.32 4 2 C3 3 3 3 0.93359375 3.09765625 C0.10988281 3.08605469 -0.71382813 3.07445312 -1.5625 3.0625 C-2.38878906 3.05347656 -3.21507812 3.04445313 -4.06640625 3.03515625 C-4.70449219 3.02355469 -5.34257812 3.01195312 -6 3 C-6 2.34 -6 1.68 -6 1 C-4.7934375 1.0309375 -4.7934375 1.0309375 -3.5625 1.0625 C-1.06645115 1.29633621 -1.06645115 1.29633621 0 0 Z " fill="#EFEFEF" transform="translate(339,311)"/>
<path d="M0 0 C0.66 0 1.32 0 2 0 C2.33 0.66 2.66 1.32 3 2 C5.02463255 2.65213292 5.02463255 2.65213292 7 3 C7 3.66 7 4.32 7 5 C4.69 4.67 2.38 4.34 0 4 C0 2.68 0 1.36 0 0 Z " fill="#A7A7A7" transform="translate(329,305)"/>
<path d="M0 0 C2.03833424 1.2739589 4.03852126 2.61061923 6 4 C6 4.66 6 5.32 6 6 C3.11424181 5.60196439 2.17810487 5.20990931 0.25 2.9375 C-0.1625 2.298125 -0.575 1.65875 -1 1 C-0.67 0.67 -0.34 0.34 0 0 Z " fill="#CBCBCB" transform="translate(325,284)"/>
<path d="M0 0 C0 1.65 0 3.3 0 5 C-1.65 4.67 -3.3 4.34 -5 4 C-5 3.01 -5 2.02 -5 1 C-1.125 0 -1.125 0 0 0 Z " fill="#ADADAD" transform="translate(362,431)"/>
<path d="M0 0 C1.98 0 3.96 0 6 0 C6 0.99 6 1.98 6 3 C4.02 3.33 2.04 3.66 0 4 C0.66 3.67 1.32 3.34 2 3 C2 2.34 2 1.68 2 1 C1.34 0.67 0.68 0.34 0 0 Z " fill="#ADADAD" transform="translate(342,411)"/>
<path d="M0 0 C2.97 0.495 2.97 0.495 6 1 C6 1.66 6 2.32 6 3 C4.02 3.33 2.04 3.66 0 4 C0 2.68 0 1.36 0 0 Z " fill="#B0B0B0" transform="translate(365,314)"/>
</svg>
