<?xml version="1.0" encoding="UTF-8"?>
<svg version="1.1" xmlns="http://www.w3.org/2000/svg" width="698" height="691">
<path d="M0 0 C230.34 0 460.68 0 698 0 C698 228.03 698 456.06 698 691 C467.66 691 237.32 691 0 691 C0 462.97 0 234.94 0 0 Z " fill="#F8F8F8" transform="translate(0,0)"/>
<path d="M0 0 C0.99 0 1.98 0 3 0 C3 6.27 3 12.54 3 19 C5.02125 18.979375 7.0425 18.95875 9.125 18.9375 C13.55557481 18.89229005 17.64667264 19.15976812 22 20 C22 20.66 22 21.32 22 22 C23.32 21.67 24.64 21.34 26 21 C26 22.32 26 23.64 26 25 C24.68 25 23.36 25 22 25 C21.67 25.99 21.34 26.98 21 28 C19.35 28.33 17.7 28.66 16 29 C15.34 30.98 14.68 32.96 14 35 C16.64 35.33 19.28 35.66 22 36 C22 36.33 22 36.66 22 37 C19.69 37.66 17.38 38.32 15 39 C16.32 39.99 17.64 40.98 19 42 C17.35 42.66 15.7 43.32 14 44 C14.33 45.32 14.66 46.64 15 48 C13.02 48 11.04 48 9 48 C8.67 53.28 8.34 58.56 8 64 C4 65 4 65 2 64 C2.00523682 64.8156543 2.01047363 65.63130859 2.01586914 66.47167969 C2.03312271 69.55810271 2.04555146 72.64450079 2.05493164 75.73095703 C2.06231093 77.6995611 2.07503058 79.66814286 2.08789062 81.63671875 C2.1059579 88.75522631 1.8811958 95.73337771 1.11889648 102.81347656 C1.06004272 103.89580566 1.06004272 103.89580566 1 105 C1.33 105.33 1.66 105.66 2 106 C3.05739078 112.26957965 3.17086221 116.99820449 1 123 C0.77452319 126.34115636 0.72958565 129.66069727 1 133 C1.33 133.33 1.66 133.66 2 134 C2.25386802 137.90999424 2.18523307 141.83274702 2.1875 145.75 C2.19974609 146.84828125 2.21199219 147.9465625 2.22460938 149.078125 C2.22654297 150.1403125 2.22847656 151.2025 2.23046875 152.296875 C2.23457764 153.26979492 2.23868652 154.24271484 2.24291992 155.24511719 C1.98365104 158.18540869 1.17129907 160.30824561 0 163 C-0.2759478 164.92903132 -0.48449903 166.8689032 -0.625 168.8125 C-0.69976562 169.78832031 -0.77453125 170.76414062 -0.8515625 171.76953125 C-0.90054687 172.50558594 -0.94953125 173.24164063 -1 174 C-0.34 174 0.32 174 1 174 C1 173.01 1 172.02 1 171 C2.8125 169.9375 2.8125 169.9375 5 169 C5.99 169.33 6.98 169.66 8 170 C7.34 170 6.68 170 6 170 C6 170.66 6 171.32 6 172 C7.65 172 9.3 172 11 172 C11 189.82 11 207.64 11 226 C18.239375 225.814375 18.239375 225.814375 25.625 225.625 C27.89238037 225.57400146 27.89238037 225.57400146 30.20556641 225.52197266 C31.40874512 225.4863623 32.61192383 225.45075195 33.8515625 225.4140625 C35.07697754 225.3826416 36.30239258 225.3512207 37.56494141 225.31884766 C41.00519389 224.9995179 43.75221732 224.1286059 47 223 C48.32 223 49.64 223 51 223 C51 224.65 51 226.3 51 228 C44.84731528 231.56347783 40.37407781 232.58096904 33.3203125 232.5390625 C32.42633759 232.55085541 31.53236267 232.56264832 30.61129761 232.57479858 C27.78235055 232.6098453 24.95414587 232.61921245 22.125 232.625 C19.2746524 232.64133712 16.42463325 232.66329948 13.57443237 232.69662476 C11.80720527 232.71628087 10.03982669 232.72558681 8.27249146 232.72354126 C3.6572551 232.54703682 3.6572551 232.54703682 0 235 C-0.46162427 237.43252661 -0.46162427 237.43252661 -0.625 240.125 C-0.69976562 241.03507813 -0.77453125 241.94515625 -0.8515625 242.8828125 C-0.90054687 243.58148438 -0.94953125 244.28015625 -1 245 C-1.66 245 -2.32 245 -3 245 C-3.0684215 214.51054216 -3.1215206 184.02109837 -3.15319599 153.53158178 C-3.15694816 149.93291963 -3.16083112 146.33425763 -3.16479492 142.7355957 C-3.16558185 142.01915971 -3.16636878 141.30272372 -3.16717956 140.56457754 C-3.18023742 128.96051673 -3.20389334 117.35650045 -3.23145839 105.75246606 C-3.25950204 93.84776406 -3.27617405 81.9430854 -3.28226548 70.03835171 C-3.2860143 63.35075415 -3.29541047 56.66323771 -3.31719017 49.97567177 C-3.33751383 43.68437172 -3.3438421 37.3932146 -3.33932304 31.10188484 C-3.34015009 28.78995742 -3.3461401 26.47802534 -3.35761642 24.16612625 C-3.37249579 21.01477411 -3.36897 17.86396486 -3.36076355 14.71260071 C-3.36950207 13.79333732 -3.3782406 12.87407394 -3.38724393 11.92695409 C-3.35396991 7.21439105 -3.26802423 3.71557026 0 0 Z " fill="#E0E0E0" transform="translate(326,235)"/>
<path d="M0 0 C1.98 0 3.96 0 6 0 C6 17.49 6 34.98 6 53 C13.239375 52.814375 13.239375 52.814375 20.625 52.625 C22.89238037 52.57400146 22.89238037 52.57400146 25.20556641 52.52197266 C27.01033447 52.46855713 27.01033447 52.46855713 28.8515625 52.4140625 C30.07697754 52.3826416 31.30239258 52.3512207 32.56494141 52.31884766 C36.00519389 51.9995179 38.75221732 51.1286059 42 50 C43.32 50 44.64 50 46 50 C46.1875 52.375 46.1875 52.375 46 55 C40.34291158 58.77139228 33.00608218 58.1508669 26.37890625 58.1328125 C25.2008567 58.13424759 25.2008567 58.13424759 23.99900818 58.13571167 C22.35619017 58.13638691 20.7133694 58.13457887 19.07055664 58.13037109 C16.54502502 58.12496258 14.01966716 58.13036399 11.49414062 58.13671875 C9.89322877 58.13605884 8.29231703 58.13477949 6.69140625 58.1328125 C5.55560875 58.13584885 5.55560875 58.13584885 4.39686584 58.13894653 C-0.88501452 58.11498548 -0.88501452 58.11498548 -2 57 C-2.04080783 55.00041636 -2.04254356 52.99954746 -2 51 C-1.34 51 -0.68 51 0 51 C0 34.17 0 17.34 0 0 Z " fill="#1B2128" transform="translate(331,408)"/>
<path d="M0 0 C0.66 0 1.32 0 2 0 C2 6.27 2 12.54 2 19 C4.02125 18.979375 6.0425 18.95875 8.125 18.9375 C12.55557481 18.89229005 16.64667264 19.15976812 21 20 C21 20.66 21 21.32 21 22 C22.32 21.67 23.64 21.34 25 21 C25 22.32 25 23.64 25 25 C23.68 25 22.36 25 21 25 C20.67 25.99 20.34 26.98 20 28 C18.35 28.33 16.7 28.66 15 29 C14.34 30.98 13.68 32.96 13 35 C15.64 35.33 18.28 35.66 21 36 C21 36.33 21 36.66 21 37 C18.69 37.66 16.38 38.32 14 39 C15.32 39.99 16.64 40.98 18 42 C16.35 42.66 14.7 43.32 13 44 C13.33 45.32 13.66 46.64 14 48 C12.02 48 10.04 48 8 48 C7.67 53.28 7.34 58.56 7 64 C5.68 63.67 4.36 63.34 3 63 C3 53.43 3 43.86 3 34 C2.34 34 1.68 34 1 34 C0.67 34.66 0.34 35.32 0 36 C0 24.12 0 12.24 0 0 Z " fill="#CCCCCC" transform="translate(327,235)"/>
<path d="M0 0 C-0.66 0 -1.32 0 -2 0 C-2 0.66 -2 1.32 -2 2 C-0.35 2 1.3 2 3 2 C3 2.33 3 2.66 3 3 C1.02 3 -0.96 3 -3 3 C-3 19.83 -3 36.66 -3 54 C-3.66 54 -4.32 54 -5 54 C-4.67 55.98 -4.34 57.96 -4 60 C9.2 60 22.4 60 36 60 C35.505 60.99 35.505 60.99 35 62 C33.77369873 62.01981934 32.54739746 62.03963867 31.28393555 62.06005859 C26.73831492 62.13607619 22.19301601 62.22479947 17.64770508 62.31738281 C15.67967069 62.35568847 13.7115659 62.39053855 11.7434082 62.421875 C8.91592228 62.46749111 6.08892166 62.52549098 3.26171875 62.5859375 C2.38037766 62.59748871 1.49903656 62.60903992 0.59098816 62.62094116 C-0.22963608 62.64081085 -1.05026031 62.66068054 -1.89575195 62.68115234 C-2.61745071 62.69447601 -3.33914948 62.70779968 -4.0827179 62.7215271 C-6.32601629 62.90726155 -6.32601629 62.90726155 -9 65 C-9 44.87 -9 24.74 -9 4 C-8.34 4 -7.68 4 -7 4 C-7 3.01 -7 2.02 -7 1 C-3.375 -1.125 -3.375 -1.125 0 0 Z " fill="#C7C8C9" transform="translate(334,405)"/>
<path d="M0 0 C2.97 0 5.94 0 9 0 C9.33 0.99 9.66 1.98 10 3 C9.67 3.33 9.34 3.66 9 4 C10.32 4.33 11.64 4.66 13 5 C13 5.99 13 6.98 13 8 C11.02 8.33 9.04 8.66 7 9 C9.475 9.99 9.475 9.99 12 11 C12 12.32 12 13.64 12 15 C15.63 15 19.26 15 23 15 C23 15.66 23 16.32 23 17 C18.05 17.33 13.1 17.66 8 18 C11.3 18.33 14.6 18.66 18 19 C18 19.66 18 20.32 18 21 C16.51886719 21.09087891 16.51886719 21.09087891 15.0078125 21.18359375 C13.72648437 21.26738281 12.44515625 21.35117187 11.125 21.4375 C9.84882813 21.51871094 8.57265625 21.59992188 7.2578125 21.68359375 C4.11699848 21.79206027 4.11699848 21.79206027 2 23 C1.34786708 25.02463255 1.34786708 25.02463255 1 27 C-0.98 27 -2.96 27 -5 27 C-5 22.38 -5 17.76 -5 13 C-3.02 13 -1.04 13 1 13 C1 12.01 1 11.02 1 10 C-0.32 9.67 -1.64 9.34 -3 9 C-0.69 8.34 1.62 7.68 4 7 C2.68 6.01 1.36 5.02 0 4 C0.99 3.34 1.98 2.68 3 2 C2.01 1.34 1.02 0.68 0 0 Z " fill="#CACACA" transform="translate(340,270)"/>
<path d="M0 0 C0.495 0.99 0.495 0.99 1 2 C-2.65731714 3.64846229 -5.7549702 4.30876162 -9.75 4.5625 C-13.18688444 4.51235954 -13.18688444 4.51235954 -16 6 C-20.12674244 6.5516092 -24.28717033 6.8048768 -28.4375 7.125 C-29.58927734 7.22425781 -30.74105469 7.32351563 -31.92773438 7.42578125 C-38.76454441 7.96093711 -45.20793092 7.99065143 -52 7 C-51.34 6.01 -50.68 5.02 -50 4 C-46.375 3.8125 -46.375 3.8125 -43 4 C-42.67 3.01 -42.34 2.02 -42 1 C-41.67 1.66 -41.34 2.32 -41 3 C-38.47266765 3.65555119 -38.47266765 3.65555119 -36 4 C-36 3.34 -36 2.68 -36 2 C-36.66 1.67 -37.32 1.34 -38 1 C-27.27592816 0.88186457 -16.69240075 1.12842148 -6 2 C-6 1.67 -6 1.34 -6 1 C-4.02 0.67 -2.04 0.34 0 0 Z " fill="#D2D2D2" transform="translate(372,497)"/>
<path d="M0 0 C0.1875 2.375 0.1875 2.375 0 5 C-5.67853647 8.78569098 -13.01036365 8.14362635 -19.65625 8.09765625 C-20.44398804 8.0962413 -21.23172607 8.09482635 -22.04333496 8.09336853 C-24.52893064 8.08782612 -27.01443211 8.07528485 -29.5 8.0625 C-31.19791535 8.05747754 -32.89583214 8.05291595 -34.59375 8.04882812 C-38.72920229 8.03787564 -42.86458524 8.02065166 -47 8 C-47 7.67 -47 7.34 -47 7 C-45.20909747 6.80533668 -43.41723495 6.61948787 -41.625 6.4375 C-40.12839844 6.28087891 -40.12839844 6.28087891 -38.6015625 6.12109375 C-36 6 -36 6 -34 7 C-34 6.01 -34 5.02 -34 4 C-33.16976318 3.97812622 -33.16976318 3.97812622 -32.32275391 3.95581055 C-18.85508263 3.78738768 -18.85508263 3.78738768 -5.875 0.62109375 C-4 0 -4 0 0 0 Z " fill="#384048" transform="translate(377,458)"/>
<path d="M0 0 C2.97 0 5.94 0 9 0 C9.33 0.99 9.66 1.98 10 3 C9.67 3.33 9.34 3.66 9 4 C10.32 4.33 11.64 4.66 13 5 C13 5.99 13 6.98 13 8 C11.02 8.33 9.04 8.66 7 9 C9.475 9.99 9.475 9.99 12 11 C12 12.32 12 13.64 12 15 C15.63 15 19.26 15 23 15 C23 15.66 23 16.32 23 17 C15.63740707 17.22424141 9.12950371 16.90120099 2 15 C1.87753906 14.36578125 1.75507813 13.7315625 1.62890625 13.078125 C1.19303909 10.80283433 1.19303909 10.80283433 -1.0625 9.75 C-1.701875 9.5025 -2.34125 9.255 -3 9 C-0.69 8.34 1.62 7.68 4 7 C2.68 6.01 1.36 5.02 0 4 C0.99 3.34 1.98 2.68 3 2 C2.01 1.34 1.02 0.68 0 0 Z " fill="#DBDBDB" transform="translate(340,270)"/>
<path d="M0 0 C0.97066406 -0.01417969 1.94132812 -0.02835938 2.94140625 -0.04296875 C5.4375 0.1875 5.4375 0.1875 7.4375 2.1875 C7.625 4.75 7.625 4.75 7.4375 7.1875 C6.4375 8.1875 6.4375 8.1875 3.875 8.25 C3.070625 8.229375 2.26625 8.20875 1.4375 8.1875 C0.7775 6.8675 0.1175 5.5475 -0.5625 4.1875 C-1.5525 4.1875 -2.5425 4.1875 -3.5625 4.1875 C-3.5625 4.8475 -3.5625 5.5075 -3.5625 6.1875 C-2.5725 6.5175 -1.5825 6.8475 -0.5625 7.1875 C-0.5625 7.8475 -0.5625 8.5075 -0.5625 9.1875 C-2.8725 8.5275 -5.1825 7.8675 -7.5625 7.1875 C-7.8925 5.2075 -8.2225 3.2275 -8.5625 1.1875 C-5.47951949 0.15983983 -3.23119574 0.02151262 0 0 Z " fill="#BEBEBE" transform="translate(336.5625,253.8125)"/>
<path d="M0 0 C0.99 0 1.98 0 3 0 C3 9.57 3 19.14 3 29 C2.01 29 1.02 29 0 29 C0 19.43 0 9.86 0 0 Z " fill="#4D4D4D" transform="translate(330,269)"/>
<path d="M0 0 C4.29 0.33 8.58 0.66 13 1 C13 1.33 13 1.66 13 2 C10.69 2.66 8.38 3.32 6 4 C7.32 4.99 8.64 5.98 10 7 C8.35 7.66 6.7 8.32 5 9 C5.33 10.32 5.66 11.64 6 13 C4.02 13 2.04 13 0 13 C0 8.71 0 4.42 0 0 Z " fill="#C5C5C5" transform="translate(335,270)"/>
<path d="M0 0 C2.69540315 -0.26686213 5.15847464 -0.34818073 7.8515625 -0.29296875 C8.62559418 -0.28872391 9.39962585 -0.28447906 10.19711304 -0.28010559 C12.67342677 -0.26328998 15.14893158 -0.22563395 17.625 -0.1875 C19.30207159 -0.17245682 20.97915592 -0.15876778 22.65625 -0.14648438 C26.77114581 -0.11337721 30.88543569 -0.06157637 35 0 C34.67 0.66 34.34 1.32 34 2 C31.65844727 2.42651367 31.65844727 2.42651367 28.56640625 2.66796875 C27.44169922 2.75626953 26.31699219 2.84457031 25.15820312 2.93554688 C23.97162109 3.01869141 22.78503906 3.10183594 21.5625 3.1875 C20.41072266 3.28224609 19.25894531 3.37699219 18.07226562 3.47460938 C11.24336921 3.98203163 4.78227956 3.98051223 -2 3 C-1.34 2.01 -0.68 1.02 0 0 Z " fill="#E4E4E4" transform="translate(322,501)"/>
<path d="M0 0 C0.66 0.33 1.32 0.66 2 1 C2.05821935 4.89577024 2.0936703 8.79142802 2.125 12.6875 C2.14175781 13.79029297 2.15851563 14.89308594 2.17578125 16.02929688 C2.18222656 17.09599609 2.18867188 18.16269531 2.1953125 19.26171875 C2.20578613 20.24100342 2.21625977 21.22028809 2.22705078 22.22924805 C1.98597685 25.17112772 1.23055542 27.33237726 0 30 C-0.33 30 -0.66 30 -1 30 C-0.67 20.1 -0.34 10.2 0 0 Z " fill="#D2D2D2" transform="translate(326,368)"/>
<path d="M0 0 C3.29164717 -0.02952761 6.58325938 -0.04697292 9.875 -0.0625 C11.25171875 -0.07506836 11.25171875 -0.07506836 12.65625 -0.08789062 C18.8335647 -0.10964173 24.86721835 0.26069892 31 1 C31 1.33 31 1.66 31 2 C24.61417116 2.99919439 18.5714163 3.01520779 12.125 2.6875 C11.17625 2.65205078 10.2275 2.61660156 9.25 2.58007812 C8.34507812 2.53689453 7.44015625 2.49371094 6.5078125 2.44921875 C5.68941895 2.41143311 4.87102539 2.37364746 4.02783203 2.3347168 C2 2 2 2 0 0 Z " fill="#E3E6E9" transform="translate(330,467)"/>
<path d="M0 0 C0.33 0 0.66 0 1 0 C2.04518445 9.68662016 2.10371911 19.27345227 2 29 C2.99 29 3.98 29 5 29 C5 29.66 5 30.32 5 31 C3.35 31 1.7 31 0 31 C0 20.77 0 10.54 0 0 Z " fill="#EAEAE8" transform="translate(338,429)"/>
<path d="M0 0 C3.3 0 6.6 0 10 0 C10 2 10 4 10 6 C6.7 6 3.4 6 0 6 C0 4.02 0 2.04 0 0 Z " fill="#616161" transform="translate(333,197)"/>
<path d="M0 0 C1 1 1 1 1.125 3.5 C1 6 1 6 0 7 C-2.5 7.125 -2.5 7.125 -5 7 C-6 6 -6 6 -6.0625 2.9375 C-6.041875 1.968125 -6.02125 0.99875 -6 0 C-3.49749232 -1.25125384 -2.59701335 -0.83774624 0 0 Z " fill="#B9B9B9" transform="translate(343,255)"/>
<path d="M0 0 C1.134375 0.020625 2.26875 0.04125 3.4375 0.0625 C3.4375 0.3925 3.4375 0.7225 3.4375 1.0625 C6.7375 1.3925 10.0375 1.7225 13.4375 2.0625 C13.4375 2.7225 13.4375 3.3825 13.4375 4.0625 C11.47985617 4.25706705 9.52134679 4.44294247 7.5625 4.625 C6.47195313 4.72941406 5.38140625 4.83382813 4.2578125 4.94140625 C1.4375 5.0625 1.4375 5.0625 -0.5625 4.0625 C-0.5625 3.4025 -0.5625 2.7425 -0.5625 2.0625 C-1.8825 1.7325 -3.2025 1.4025 -4.5625 1.0625 C-3.5625 0.0625 -3.5625 0.0625 0 0 Z " fill="#E2E2E2" transform="translate(344.5625,286.9375)"/>
<path d="M0 0 C0.99 0.33 1.98 0.66 3 1 C2.67 6.28 2.34 11.56 2 17 C0.35 17 -1.3 17 -3 17 C-3.33 16.34 -3.66 15.68 -4 15 C-2.68 15 -1.36 15 0 15 C0 10.05 0 5.1 0 0 Z " fill="#DBDBDB" transform="translate(325,480)"/>
<path d="M0 0 C0.66 0 1.32 0 2 0 C2.33 1.65 2.66 3.3 3 5 C3.99 5.33 4.98 5.66 6 6 C6 4.02 6 2.04 6 0 C6.99 0 7.98 0 9 0 C9.33 2.31 9.66 4.62 10 7 C6.7 7 3.4 7 0 7 C0 4.69 0 2.38 0 0 Z " fill="#C6C6C6" transform="translate(354,255)"/>
<path d="M0 0 C0.33 1.32 0.66 2.64 1 4 C3.97 4.33 6.94 4.66 10 5 C10 5.33 10 5.66 10 6 C9.31292969 6.06058594 8.62585938 6.12117188 7.91796875 6.18359375 C6.56638672 6.30927734 6.56638672 6.30927734 5.1875 6.4375 C3.84751953 6.55931641 3.84751953 6.55931641 2.48046875 6.68359375 C-0.12743559 6.93489767 -0.12743559 6.93489767 -3 8 C-3 7.01 -3 6.02 -3 5 C-3.99 4.67 -4.98 4.34 -6 4 C-6 3.34 -6 2.68 -6 2 C-4.02 2 -2.04 2 0 2 C0 1.34 0 0.68 0 0 Z " fill="#CDCDCD" transform="translate(341,281)"/>
<path d="M0 0 C2.475 0.495 2.475 0.495 5 1 C5.33 3.31 5.66 5.62 6 8 C4.02 8 2.04 8 0 8 C0 5.36 0 2.72 0 0 Z " fill="#BDBDBD" transform="translate(335,275)"/>
<path d="M0 0 C1.65 0 3.3 0 5 0 C5 0.66 5 1.32 5 2 C8.63 2 12.26 2 16 2 C16 2.66 16 3.32 16 4 C14.083412 4.02712153 12.1667127 4.04645097 10.25 4.0625 C8.64898437 4.07990234 8.64898437 4.07990234 7.015625 4.09765625 C4.46631499 4.01510087 2.42066409 3.74617558 0 3 C0 2.01 0 1.02 0 0 Z " fill="#E5E5E5" transform="translate(347,283)"/>
<path d="M0 0 C3.3 0 6.6 0 10 0 C10 0.33 10 0.66 10 1 C7.69 1.33 5.38 1.66 3 2 C5.31 2.33 7.62 2.66 10 3 C10 3.66 10 4.32 10 5 C6.7 5 3.4 5 0 5 C0 3.35 0 1.7 0 0 Z " fill="#4A4A4A" transform="translate(345,198)"/>
<path d="M0 0 C1.51400391 0.01740234 1.51400391 0.01740234 3.05859375 0.03515625 C4.07050781 0.04417969 5.08242188 0.05320313 6.125 0.0625 C7.29869141 0.07990234 7.29869141 0.07990234 8.49609375 0.09765625 C8.49609375 0.42765625 8.49609375 0.75765625 8.49609375 1.09765625 C4.04109375 1.59265625 4.04109375 1.59265625 -0.50390625 2.09765625 C-0.83390625 3.41765625 -1.16390625 4.73765625 -1.50390625 6.09765625 C-2.16390625 6.09765625 -2.82390625 6.09765625 -3.50390625 6.09765625 C-3.50390625 5.43765625 -3.50390625 4.77765625 -3.50390625 4.09765625 C-5.81390625 4.09765625 -8.12390625 4.09765625 -10.50390625 4.09765625 C-10.50390625 3.76765625 -10.50390625 3.43765625 -10.50390625 3.09765625 C-9.36953125 2.78828125 -8.23515625 2.47890625 -7.06640625 2.16015625 C-3.95255196 1.23146287 -3.00914825 0.11736148 0 0 Z " fill="#BCBCBC" transform="translate(346.50390625,196.90234375)"/>
<path d="M0 0 C2.475 0.495 2.475 0.495 5 1 C5 2.98 5 4.96 5 7 C3.35 7 1.7 7 0 7 C0 4.69 0 2.38 0 0 Z " fill="#DADADA" transform="translate(366,255)"/>
<path d="M0 0 C0.66 0 1.32 0 2 0 C2 0.66 2 1.32 2 2 C3.32 1.67 4.64 1.34 6 1 C6 2.32 6 3.64 6 5 C4.02 5.33 2.04 5.66 0 6 C0 4.02 0 2.04 0 0 Z " fill="#BFBFBF" transform="translate(346,255)"/>
<path d="M0 0 C2.97 0.33 5.94 0.66 9 1 C9 1.66 9 2.32 9 3 C6.03 3 3.06 3 0 3 C0 2.01 0 1.02 0 0 Z " fill="#D4D4D4" transform="translate(343,280)"/>
<path d="M0 0 C0.99 0.33 1.98 0.66 3 1 C3 1.99 3 2.98 3 4 C3.99 4.33 4.98 4.66 6 5 C6 5.66 6 6.32 6 7 C3.03 6.505 3.03 6.505 0 6 C0 4.02 0 2.04 0 0 Z " fill="#9B9B9B" transform="translate(330,256)"/>
<path d="M0 0 C0 1.32 0 2.64 0 4 C-2.31 4.33 -4.62 4.66 -7 5 C-6.34 4.67 -5.68 4.34 -5 4 C-5.33 3.01 -5.66 2.02 -6 1 C-3.92446352 0.4465236 -2.15634036 0 0 0 Z " fill="#0F1317" transform="translate(376,459)"/>
<path d="M0 0 C2.475 0.495 2.475 0.495 5 1 C4.01 1.495 4.01 1.495 3 2 C3 2.99 3 3.98 3 5 C3.66 5.33 4.32 5.66 5 6 C3.35 6 1.7 6 0 6 C0 4.02 0 2.04 0 0 Z " fill="#BEBEBE" transform="translate(335,285)"/>
<path d="M0 0 C1.134375 0.020625 2.26875 0.04125 3.4375 0.0625 C3.1075 1.7125 2.7775 3.3625 2.4375 5.0625 C1.4475 4.7325 0.4575 4.4025 -0.5625 4.0625 C-0.5625 3.4025 -0.5625 2.7425 -0.5625 2.0625 C-1.8825 1.7325 -3.2025 1.4025 -4.5625 1.0625 C-3.5625 0.0625 -3.5625 0.0625 0 0 Z " fill="#D8D8D8" transform="translate(344.5625,286.9375)"/>
<path d="M0 0 C2.64 0.33 5.28 0.66 8 1 C8 1.66 8 2.32 8 3 C2.25 4.125 2.25 4.125 0 3 C0 2.01 0 1.02 0 0 Z " fill="#E4E4E4" transform="translate(345,210)"/>
<path d="M0 0 C1.32 0 2.64 0 4 0 C4 2.31 4 4.62 4 7 C3.01 7.33 2.02 7.66 1 8 C1 7.01 1 6.02 1 5 C1.66 5 2.32 5 3 5 C3 3.68 3 2.36 3 1 C1.68 1.33 0.36 1.66 -1 2 C-0.67 1.34 -0.34 0.68 0 0 Z " fill="#E1E1E1" transform="translate(349,255)"/>
</svg>
