<?xml version="1.0" encoding="UTF-8"?>
<svg version="1.1" xmlns="http://www.w3.org/2000/svg" width="692" height="697">
<path d="M0 0 C228.36 0 456.72 0 692 0 C692 230.01 692 460.02 692 697 C463.64 697 235.28 697 0 697 C0 466.99 0 236.98 0 0 Z " fill="#F8F8F8" transform="translate(0,0)"/>
<path d="M0 0 C0.99 0 1.98 0 3 0 C3 5.94 3 11.88 3 18 C8.22452424 18.87863728 8.22452424 18.87863728 13.3125 19 C14.529375 19 15.74625 19 17 19 C18 20 18 20 18.125 23 C18 26 18 26 17 27 C14.8589527 27.23595215 12.71139964 27.41421886 10.5625 27.5625 C9.38816406 27.64628906 8.21382813 27.73007812 7.00390625 27.81640625 C5.3379239 27.91822832 3.66909105 28 2 28 C2.33 29.65 2.66 31.3 3 33 C4.32 33.33 5.64 33.66 7 34 C7 35.32 7 36.64 7 38 C7.66 38 8.32 38 9 38 C9 36.68 9 35.36 9 34 C13.29 34.33 17.58 34.66 22 35 C22 35.66 22 36.32 22 37 C21.43410156 37.12117188 20.86820312 37.24234375 20.28515625 37.3671875 C19.55167969 37.53476562 18.81820313 37.70234375 18.0625 37.875 C16.96615234 38.11863281 16.96615234 38.11863281 15.84765625 38.3671875 C13.79299706 38.82961523 13.79299706 38.82961523 13 41 C13.66 41.33 14.32 41.66 15 42 C14.34 42.66 13.68 43.32 13 44 C13.99 44.99 14.98 45.98 16 47 C15.01 47.495 15.01 47.495 14 48 C14.33 50.64 14.66 53.28 15 56 C14.236875 56.020625 13.47375 56.04125 12.6875 56.0625 C9.58610882 56.79660949 9.58610882 56.79660949 8.1875 60.5625 C7.795625 61.696875 7.40375 62.83125 7 64 C5.68 64 4.36 64 3 64 C2.25414231 78.90723549 1.89193458 93.76487915 2.03710938 108.69018555 C2.04548828 109.86234619 2.05386719 111.03450684 2.0625 112.2421875 C2.07410156 113.2822998 2.08570313 114.32241211 2.09765625 115.39404297 C2 118 2 118 1 121 C0.77042289 123.55406892 0.59833008 126.0847735 0.47265625 128.64453125 C0.43133072 129.46113724 0.39000519 130.27774323 0.34742737 131.11909485 C-0.25564428 144.23836508 -0.35257969 157.37847976 -0.53222656 170.5090332 C-0.58329353 174.18379557 -0.63852559 177.85849538 -0.69335938 181.53320312 C-0.79954403 188.6887475 -0.90127309 195.84434851 -1 203 C-0.34 202.67 0.32 202.34 1 202 C1 191.77 1 181.54 1 171 C3.97 170.67 6.94 170.34 10 170 C14.36213399 174.36213399 14.02537944 178.73626613 14.11352539 184.65014648 C14.11336897 186.39047027 14.10783352 188.13079971 14.09765625 189.87109375 C14.0962413 190.793423 14.09482635 191.71575226 14.09336853 192.66603088 C14.08780506 195.58988798 14.07525942 198.51366635 14.0625 201.4375 C14.05748028 203.42903535 14.0529182 205.4205719 14.04882812 207.41210938 C14.03784762 212.27476956 14.02060839 217.13737147 14 222 C16.64 222.33 19.28 222.66 22 223 C22 223.66 22 224.32 22 225 C36.52377027 224.31945745 36.52377027 224.31945745 51 223 C50.505 225.97 50.505 225.97 50 229 C38.80387215 232.98007636 27.38895052 234.27795835 15.5625 234.3125 C14.64460693 234.31781738 13.72671387 234.32313477 12.78100586 234.32861328 C6.258512 234.258512 6.258512 234.258512 4 232 C3.01 232 2.02 232 1 232 C-0.28446919 234.56893838 -0.32977144 236.76576337 -0.5625 239.625 C-0.64628906 240.62789062 -0.73007812 241.63078125 -0.81640625 242.6640625 C-0.87699219 243.43492187 -0.93757813 244.20578125 -1 245 C-1.33 245 -1.66 245 -2 245 C-2.13225309 222.31588942 -2.26269838 199.63176903 -2.39115143 176.9476366 C-2.45087146 166.4083642 -2.51113033 155.86909544 -2.57275391 145.32983398 C-3.10252599 54.62934236 -3.10252599 54.62934236 -3 11 C-2.34 11 -1.68 11 -1 11 C-1.01160156 10.37351563 -1.02320313 9.74703125 -1.03515625 9.1015625 C-1.04417969 8.28429687 -1.05320312 7.46703125 -1.0625 6.625 C-1.07410156 5.81289062 -1.08570313 5.00078125 -1.09765625 4.1640625 C-1 2 -1 2 0 0 Z " fill="#CFC9CA" transform="translate(323,237)"/>
<path d="M0 0 C0.66 0 1.32 0 2 0 C2 5.94 2 11.88 2 18 C7.22452424 18.87863728 7.22452424 18.87863728 12.3125 19 C13.529375 19 14.74625 19 16 19 C17 20 17 20 17.125 23 C17 26 17 26 16 27 C13.8589527 27.23595215 11.71139964 27.41421886 9.5625 27.5625 C8.38816406 27.64628906 7.21382813 27.73007812 6.00390625 27.81640625 C4.3379239 27.91822832 2.66909105 28 1 28 C1.33 29.65 1.66 31.3 2 33 C3.32 33.33 4.64 33.66 6 34 C6 35.32 6 36.64 6 38 C6.66 38 7.32 38 8 38 C8 36.68 8 35.36 8 34 C12.29 34.33 16.58 34.66 21 35 C21 35.66 21 36.32 21 37 C20.43410156 37.12117188 19.86820312 37.24234375 19.28515625 37.3671875 C18.55167969 37.53476562 17.81820313 37.70234375 17.0625 37.875 C15.96615234 38.11863281 15.96615234 38.11863281 14.84765625 38.3671875 C12.79299706 38.82961523 12.79299706 38.82961523 12 41 C12.66 41.33 13.32 41.66 14 42 C13.34 42.66 12.68 43.32 12 44 C12.99 44.99 13.98 45.98 15 47 C14.01 47.495 14.01 47.495 13 48 C13.33 50.64 13.66 53.28 14 56 C13.236875 56.020625 12.47375 56.04125 11.6875 56.0625 C8.58610882 56.79660949 8.58610882 56.79660949 7.1875 60.5625 C6.795625 61.696875 6.40375 62.83125 6 64 C4.68 64 3.36 64 2 64 C1.25414231 78.90723549 0.89193458 93.76487915 1.03710938 108.69018555 C1.04548828 109.86234619 1.05386719 111.03450684 1.0625 112.2421875 C1.07410156 113.2822998 1.08570313 114.32241211 1.09765625 115.39404297 C1 118 1 118 0 121 C-0.14573058 122.47965926 -0.24663268 123.96403843 -0.31640625 125.44921875 C-0.35830078 126.29677734 -0.40019531 127.14433594 -0.44335938 128.01757812 C-0.48267578 128.89865234 -0.52199219 129.77972656 -0.5625 130.6875 C-0.60568359 131.58017578 -0.64886719 132.47285156 -0.69335938 133.39257812 C-0.79935353 135.59490108 -0.90142051 137.79733473 -1 140 C-1.33 140 -1.66 140 -2 140 C-2.26954703 42.63851129 -2.26954703 42.63851129 0 0 Z " fill="#D4D4D4" transform="translate(324,237)"/>
<path d="M0 0 C1.98 0 3.96 0 6 0 C6 17.49 6 34.98 6 53 C8.64 53 11.28 53 14 53 C13.01 53.99 12.02 54.98 11 56 C11.99 56.66 12.98 57.32 14 58 C11.70839681 58.02692484 9.41670454 58.04636124 7.125 58.0625 C5.84882813 58.07410156 4.57265625 58.08570313 3.2578125 58.09765625 C0 58 0 58 -2 57 C-2 55.02 -2 53.04 -2 51 C-1.34 51 -0.68 51 0 51 C0 34.17 0 17.34 0 0 Z " fill="#D8829E" transform="translate(328,410)"/>
<path d="M0 0 C0.33 0 0.66 0 1 0 C1.10809093 10.60492124 1.07437377 21.20127796 0.77514648 31.80249023 C0.13122936 54.94018724 -0.08734246 78.06562187 -0.0625 101.2109375 C-0.06179544 101.93972713 -0.06109087 102.66851676 -0.06036496 103.41939092 C-0.04906961 114.73794623 -0.02566355 126.05646958 0 137.375 C0.02732235 149.4453074 0.05068998 161.5156039 0.0625 173.5859375 C0.0632893 174.30666663 0.0640786 175.02739576 0.06489182 175.76996517 C0.08847267 198.85843081 -0.14968758 221.92538165 -1 245 C-1.33 245 -1.66 245 -2 245 C-2.13225309 222.31588942 -2.26269838 199.63176903 -2.39115143 176.9476366 C-2.45087146 166.4083642 -2.51113033 155.86909544 -2.57275391 145.32983398 C-3.10252599 54.62934236 -3.10252599 54.62934236 -3 11 C-2.34 11 -1.68 11 -1 11 C-1.01160156 10.37351563 -1.02320313 9.74703125 -1.03515625 9.1015625 C-1.04417969 8.28429687 -1.05320312 7.46703125 -1.0625 6.625 C-1.07410156 5.81289062 -1.08570313 5.00078125 -1.09765625 4.1640625 C-1 2 -1 2 0 0 Z " fill="#E2E2E2" transform="translate(323,237)"/>
<path d="M0 0 C0.33 0 0.66 0 1 0 C1.97058832 5.66568337 2.13123058 11.12994803 2.09765625 16.87109375 C2.09553383 18.25458763 2.09553383 18.25458763 2.09336853 19.66603088 C2.08780506 22.58988798 2.07525942 25.51366635 2.0625 28.4375 C2.05748028 30.42903535 2.0529182 32.4205719 2.04882812 34.41210938 C2.03784762 39.27476956 2.02060839 44.13737147 2 49 C5.96 49.495 5.96 49.495 10 50 C10 50.66 10 51.32 10 52 C24.52377027 51.31945745 24.52377027 51.31945745 39 50 C38.67 51.98 38.34 53.96 38 56 C33.19174364 57.75261325 28.46069513 58.76513428 23.4375 59.625 C22.3247168 59.82609375 22.3247168 59.82609375 21.18945312 60.03125 C17.41384143 60.69021696 13.84964394 61.16770726 10 61 C9.505 59.515 9.505 59.515 9 58 C5.99152582 56.77479736 5.99152582 56.77479736 3 56 C3 55.01 3 54.02 3 53 C2.01 52.67 1.02 52.34 0 52 C0 34.84 0 17.68 0 0 Z " fill="#F8B4CC" transform="translate(335,410)"/>
<path d="M0 0 C0.99 0 1.98 0 3 0 C3 1.32 3 2.64 3 4 C3.66 4 4.32 4 5 4 C5 2.68 5 1.36 5 0 C9.29 0.33 13.58 0.66 18 1 C18 1.66 18 2.32 18 3 C17.43410156 3.12117188 16.86820312 3.24234375 16.28515625 3.3671875 C15.18494141 3.61855469 15.18494141 3.61855469 14.0625 3.875 C13.33160156 4.03742188 12.60070312 4.19984375 11.84765625 4.3671875 C9.79299706 4.82961523 9.79299706 4.82961523 9 7 C9.66 7.33 10.32 7.66 11 8 C10.34 8.66 9.68 9.32 9 10 C9.99 10.99 10.98 11.98 12 13 C11.01 13.495 11.01 13.495 10 14 C10.33 16.64 10.66 19.28 11 22 C10.236875 22.061875 9.47375 22.12375 8.6875 22.1875 C5.15155377 23.256507 4.76052677 24.87906619 3 28 C2.01 28 1.02 28 0 28 C0 18.76 0 9.52 0 0 Z " fill="#D2C7CB" transform="translate(327,271)"/>
<path d="M0 0 C0.33 0.66 0.66 1.32 1 2 C0.01 2.495 0.01 2.495 -1 3 C1.97 3.495 1.97 3.495 5 4 C5 4.66 5 5.32 5 6 C4.01 6 3.02 6 2 6 C2 6.99 2 7.98 2 9 C3.32 9 4.64 9 6 9 C6 9.99 6 10.98 6 12 C5.34 12 4.68 12 4 12 C4 12.66 4 13.32 4 14 C4.94875 13.814375 5.8975 13.62875 6.875 13.4375 C10 13 10 13 12 14 C12 14.66 12 15.32 12 16 C10.35 16 8.7 16 7 16 C7 16.66 7 17.32 7 18 C5.68 18 4.36 18 3 18 C3.33 18.99 3.66 19.98 4 21 C2.35 21 0.7 21 -1 21 C-1 21.99 -1 22.98 -1 24 C-2.32 24 -3.64 24 -5 24 C-5.12375 23.195625 -5.2475 22.39125 -5.375 21.5625 C-5.58125 20.716875 -5.7875 19.87125 -6 19 C-6.66 18.67 -7.32 18.34 -8 18 C-8.07427838 14.65747276 -8.06546953 12.1964086 -7 9 C-7.99 8.67 -8.98 8.34 -10 8 C-9.34 7.34 -8.68 6.68 -8 6 C-8 4.68 -8 3.36 -8 2 C-5.36 1.34 -2.72 0.68 0 0 Z " fill="#DCDCDC" transform="translate(345,273)"/>
<path d="M0 0 C3.3 0 6.6 0 10 0 C10 2.31 10 4.62 10 7 C7.69 7 5.38 7 3 7 C3 7.66 3 8.32 3 9 C3.5775 9.12375 4.155 9.2475 4.75 9.375 C7.02335767 10.00648824 8.9253529 10.88858191 11 12 C11 13.65 11 15.3 11 17 C10.67 15.68 10.34 14.36 10 13 C4.06 13 -1.88 13 -8 13 C-8.33 21.25 -8.66 29.5 -9 38 C-9.33 38 -9.66 38 -10 38 C-10.02886537 33.68751391 -10.04675255 29.37505238 -10.0625 25.0625 C-10.07087891 23.83080078 -10.07925781 22.59910156 -10.08789062 21.33007812 C-10.09111328 20.16025391 -10.09433594 18.99042969 -10.09765625 17.78515625 C-10.10289307 16.70113525 -10.10812988 15.61711426 -10.11352539 14.50024414 C-10 12 -10 12 -9 11 C-7.48530552 10.76807135 -5.96245438 10.58784762 -4.4375 10.4375 C-3.61121094 10.35371094 -2.78492188 10.26992187 -1.93359375 10.18359375 C-1.29550781 10.12300781 -0.65742188 10.06242188 0 10 C-0.2784375 8.9171875 -0.2784375 8.9171875 -0.5625 7.8125 C-1.01995307 4.87173027 -0.73516357 2.85896942 0 0 Z " fill="#E8E8E8" transform="translate(330,199)"/>
<path d="M0 0 C2.97 0.495 2.97 0.495 6 1 C6 18.82 6 36.64 6 55 C6.99 55.33 7.98 55.66 9 56 C7.68 56 6.36 56 5 56 C5 38.51 5 21.02 5 3 C3.02 3 1.04 3 -1 3 C-1 19.83 -1 36.66 -1 54 C-1.33 54 -1.66 54 -2 54 C-2.05058145 46.63105185 -2.08568333 39.26214822 -2.10986328 31.89306641 C-2.11994011 29.38458585 -2.13360179 26.87611708 -2.15087891 24.36767578 C-2.17505337 20.76852512 -2.18646612 17.16952933 -2.1953125 13.5703125 C-2.20563507 12.44319855 -2.21595764 11.31608459 -2.22659302 10.15481567 C-2.22674408 9.11388763 -2.22689514 8.07295959 -2.22705078 7.00048828 C-2.231492 6.08115509 -2.23593323 5.1618219 -2.24050903 4.21463013 C-2 2 -2 2 0 0 Z " fill="#D7B7C1" transform="translate(329,407)"/>
<path d="M0 0 C0.66 0 1.32 0 2 0 C2.16827952 7.47462111 2.32816002 14.94938791 2.48217773 22.42431641 C2.53557642 24.96765215 2.59090411 27.51094814 2.64819336 30.05419922 C2.73016331 33.70792064 2.80521541 37.3617284 2.87890625 41.015625 C2.90594131 42.15429016 2.93297638 43.29295532 2.96083069 44.46612549 C2.98092697 45.52692322 3.00102325 46.58772095 3.02172852 47.68066406 C3.04171402 48.61332092 3.06169952 49.54597778 3.08229065 50.50689697 C3.00541105 52.83606511 2.66531754 54.77506773 2 57 C0.68 57 -0.64 57 -2 57 C-2 55.02 -2 53.04 -2 51 C-1.34 51 -0.68 51 0 51 C0 34.17 0 17.34 0 0 Z " fill="#C08699" transform="translate(328,410)"/>
<path d="M0 0 C2.47923801 -0.02685095 4.9581884 -0.04676547 7.4375 -0.0625 C8.14455078 -0.07087891 8.85160156 -0.07925781 9.58007812 -0.08789062 C11.38693559 -0.09653588 13.19387603 -0.05220011 15 0 C16 1 16 1 16.125 4 C16 7 16 7 15 8 C12.81707226 8.23481693 10.62796826 8.41363323 8.4375 8.5625 C7.23996094 8.64628906 6.04242188 8.73007812 4.80859375 8.81640625 C3.88175781 8.87699219 2.95492188 8.93757813 2 9 C0 3.375 0 3.375 0 0 Z " fill="#B8B8B8" transform="translate(325,256)"/>
<path d="M0 0 C-10.92367907 7.34149963 -29.34836337 4.10054486 -42 4 C-42.33 2.68 -42.66 1.36 -43 0 C-42.67 0.66 -42.34 1.32 -42 2 C-39.47266765 2.65555119 -39.47266765 2.65555119 -37 3 C-37.33 2.01 -37.66 1.02 -38 0 C-37.12263184 0.00523682 -36.24526367 0.01047363 -35.34130859 0.01586914 C-32.06493463 0.03298097 -28.78860865 0.04548412 -25.51220703 0.05493164 C-24.09813687 0.0599392 -22.68407184 0.06674718 -21.27001953 0.07543945 C-19.22947927 0.08766256 -17.18900788 0.0932642 -15.1484375 0.09765625 C-13.92302246 0.10289307 -12.69760742 0.10812988 -11.43505859 0.11352539 C-8.00323495 0.07809396 -8.00323495 0.07809396 -4.67822266 -0.56860352 C-2 -1 -2 -1 0 0 Z " fill="#D0D0D0" transform="translate(369,500)"/>
<path d="M0 0 C0.33 0 0.66 0 1 0 C1.97058832 5.66568337 2.13123058 11.12994803 2.09765625 16.87109375 C2.09553383 18.25458763 2.09553383 18.25458763 2.09336853 19.66603088 C2.08780506 22.58988798 2.07525942 25.51366635 2.0625 28.4375 C2.05748028 30.42903535 2.0529182 32.4205719 2.04882812 34.41210938 C2.03784762 39.27476956 2.02060839 44.13737147 2 49 C5.96 49.495 5.96 49.495 10 50 C10 50.66 10 51.32 10 52 C17.26 51.67 24.52 51.34 32 51 C30 53 30 53 27.34204102 53.24291992 C26.24045654 53.23881104 25.13887207 53.23470215 24.00390625 53.23046875 C22.80572266 53.22853516 21.60753906 53.22660156 20.37304688 53.22460938 C19.11556641 53.21236328 17.85808594 53.20011719 16.5625 53.1875 C15.30888672 53.18685547 14.05527344 53.18621094 12.76367188 53.18554688 C3.42109545 53.14036515 3.42109545 53.14036515 0 52 C0 34.84 0 17.68 0 0 Z " fill="#E7D3D9" transform="translate(335,410)"/>
<path d="M0 0 C3.32471807 4.43295742 3.36267783 5.43648457 3.29296875 10.734375 C3.28330078 12.02988281 3.27363281 13.32539063 3.26367188 14.66015625 C3.23860783 16.02344354 3.21321302 17.38672479 3.1875 18.75 C3.17244518 20.12889184 3.15875817 21.50779935 3.14648438 22.88671875 C3.11111909 26.25820915 3.06175904 29.62890654 3 33 C4.32 33.33 5.64 33.66 7 34 C6.21625 34.0825 5.4325 34.165 4.625 34.25 C3.75875 34.4975 2.8925 34.745 2 35 C1.34 36.32 0.68 37.64 0 39 C0 26.13 0 13.26 0 0 Z " fill="#D2C4C8" transform="translate(324,266)"/>
<path d="M0 0 C1.32 0 2.64 0 4 0 C4 17.49 4 34.98 4 53 C6.64 53 9.28 53 12 53 C11.01 53.99 10.02 54.98 9 56 C9.99 56.66 10.98 57.32 12 58 C7.38 58 2.76 58 -2 58 C-2 57.67 -2 57.34 -2 57 C-0.35 57 1.3 57 3 57 C2.75317223 55.92489922 2.75317223 55.92489922 2.50135803 54.82807922 C2.00718473 52.0405279 1.91516844 49.57634645 1.97827148 46.75073242 C1.99836777 45.73005173 2.01846405 44.70937103 2.03916931 43.65776062 C2.06620438 42.5680043 2.09323944 41.47824799 2.12109375 40.35546875 C2.14470474 39.2305452 2.16831573 38.10562164 2.19264221 36.9466095 C2.26910318 33.36010568 2.35320341 29.77382737 2.4375 26.1875 C2.49073825 23.75326618 2.54347852 21.31902141 2.59570312 18.88476562 C2.72469458 12.9230381 2.8599555 6.96147757 3 1 C2.01 0.67 1.02 0.34 0 0 Z " fill="#D58FA5" transform="translate(330,410)"/>
<path d="M0 0 C2.31 0 4.62 0 7 0 C7 0.66 7 1.32 7 2 C7.94875 1.814375 8.8975 1.62875 9.875 1.4375 C13 1 13 1 15 2 C15 2.66 15 3.32 15 4 C13.35 4 11.7 4 10 4 C10 4.66 10 5.32 10 6 C8.68 6 7.36 6 6 6 C6.33 6.99 6.66 7.98 7 9 C5.35 9 3.7 9 2 9 C2 9.99 2 10.98 2 12 C0.68 12 -0.64 12 -2 12 C-2.33 9.36 -2.66 6.72 -3 4 C-0.69 4 1.62 4 4 4 C4 3.34 4 2.68 4 2 C2.68 2 1.36 2 0 2 C0 1.34 0 0.68 0 0 Z " fill="#E7E7E7" transform="translate(342,285)"/>
<path d="M0 0 C2.475 0.99 2.475 0.99 5 2 C4.01 3.485 4.01 3.485 3 5 C3.99 5.99 4.98 6.98 6 8 C5.01 8.495 5.01 8.495 4 9 C4.33 11.64 4.66 14.28 5 17 C3.02 17.33 1.04 17.66 -1 18 C-1.02684312 15.18743719 -1.04676188 12.37512759 -1.0625 9.5625 C-1.07087891 8.76005859 -1.07925781 7.95761719 -1.08789062 7.13085938 C-1.0965143 5.08704779 -1.0522815 3.04316098 -1 1 C-0.67 0.67 -0.34 0.34 0 0 Z " fill="#C0BFC0" transform="translate(333,276)"/>
<path d="M0 0 C0.99 0 1.98 0 3 0 C3 9.24 3 18.48 3 28 C2.01 28 1.02 28 0 28 C0 18.76 0 9.52 0 0 Z " fill="#B797A2" transform="translate(327,271)"/>
<path d="M0 0 C7 1 7 1 8 2 C10.18292774 2.23481693 12.37203174 2.41363323 14.5625 2.5625 C16.35880859 2.68818359 16.35880859 2.68818359 18.19140625 2.81640625 C19.11824219 2.87699219 20.04507812 2.93757813 21 3 C17.76261984 5.15825344 16.8575839 5.24989882 13.125 5.1875 C11.86042969 5.17783203 11.86042969 5.17783203 10.5703125 5.16796875 C8 5 8 5 3 4 C2.67 7.96 2.34 11.92 2 16 C0.35 16.33 -1.3 16.66 -3 17 C-3.33 16.34 -3.66 15.68 -4 15 C-2.68 15 -1.36 15 0 15 C0 10.05 0 5.1 0 0 Z " fill="#D7D7D7" transform="translate(322,482)"/>
<path d="M0 0 C1.98 0 3.96 0 6 0 C5.67 1.65 5.34 3.3 5 5 C6.32 5.33 7.64 5.66 9 6 C8.67 6.99 8.34 7.98 8 9 C5.03 9 2.06 9 -1 9 C-0.01 8.67 0.98 8.34 2 8 C2 7.34 2 6.68 2 6 C-0.31 6 -2.62 6 -5 6 C-3.625 4.5 -3.625 4.5 -2 3 C-1.34 3 -0.68 3 0 3 C0 2.01 0 1.02 0 0 Z " fill="#E9E9E9" transform="translate(348,271)"/>
<path d="M0 0 C3.3 0 6.6 0 10 0 C10 1.98 10 3.96 10 6 C6.7 6 3.4 6 0 6 C0 4.02 0 2.04 0 0 Z " fill="#7C7C7C" transform="translate(330,199)"/>
<path d="M0 0 C2.97 0.495 2.97 0.495 6 1 C5.34 3.97 4.68 6.94 4 10 C5.98 10 7.96 10 10 10 C10 10.66 10 11.32 10 12 C7.69 12 5.38 12 3 12 C2.67 12.99 2.34 13.98 2 15 C0.7619986 11.42355152 1.25073929 8.66305234 2 5 C1.01 4.67 0.02 4.34 -1 4 C-0.34 3.34 0.32 2.68 1 2 C0.67 1.34 0.34 0.68 0 0 Z " fill="#D2D0D1" transform="translate(336,277)"/>
<path d="M0 0 C1.23556641 0.01740234 1.23556641 0.01740234 2.49609375 0.03515625 C3.32238281 0.04417969 4.14867187 0.05320313 5 0.0625 C5.63808594 0.07410156 6.27617187 0.08570313 6.93359375 0.09765625 C6.93359375 2.07765625 6.93359375 4.05765625 6.93359375 6.09765625 C3.63359375 6.09765625 0.33359375 6.09765625 -3.06640625 6.09765625 C-3.06640625 0.14491523 -3.06640625 0.14491523 0 0 Z " fill="#6C6C6C" transform="translate(345.06640625,198.90234375)"/>
<path d="M0 0 C1.27230469 0.00902344 2.54460937 0.01804687 3.85546875 0.02734375 C5.31919922 0.04474609 5.31919922 0.04474609 6.8125 0.0625 C6.8125 0.3925 6.8125 0.7225 6.8125 1.0625 C3.73632812 1.35546875 3.73632812 1.35546875 0.66015625 1.6484375 C0.05042969 1.78507812 -0.55929687 1.92171875 -1.1875 2.0625 C-1.5175 2.7225 -1.8475 3.3825 -2.1875 4.0625 C-1.1975 4.3925 -0.2075 4.7225 0.8125 5.0625 C-7.75892857 5.34821429 -7.75892857 5.34821429 -11.1875 3.0625 C-9.07664535 -1.15920929 -4.12352068 -0.03783046 0 0 Z " fill="#EEA7BF" transform="translate(349.1875,462.9375)"/>
<path d="M0 0 C2.31 0 4.62 0 7 0 C7 0.66 7 1.32 7 2 C7.66 2 8.32 2 9 2 C9.33 2.99 9.66 3.98 10 5 C8.35 5 6.7 5 5 5 C5 5.99 5 6.98 5 8 C3.68 8 2.36 8 1 8 C0.67 5.36 0.34 2.72 0 0 Z " fill="#DDDCDC" transform="translate(339,289)"/>
<path d="M0 0 C0 0.33 0 0.66 0 1 C-2.72827365 1.50534727 -5.45744694 2.00443845 -8.1875 2.5 C-8.95642578 2.64308594 -9.72535156 2.78617187 -10.51757812 2.93359375 C-14.39421773 3.63238715 -18.041471 4.19039017 -22 4 C-22.33 3.01 -22.66 2.02 -23 1 C-20.29272088 0.63521072 -17.58476283 0.28290562 -14.875 -0.0625 C-14.11445313 -0.16626953 -13.35390625 -0.27003906 -12.5703125 -0.37695312 C-8.13800459 -0.93099161 -4.41342179 -1.00817782 0 0 Z " fill="#EECCD8" transform="translate(367,467)"/>
<path d="M0 0 C5.94 0.33 11.88 0.66 18 1 C18 1.66 18 2.32 18 3 C12.92507042 3.8458216 8.14439234 4.42869936 3 4 C2.01 2.68 1.02 1.36 0 0 Z " fill="#D7C0C8" transform="translate(326,467)"/>
<path d="M0 0 C4.29 0.33 8.58 0.66 13 1 C13 1.66 13 2.32 13 3 C10.35541621 4.32229189 8.32238699 4.09677194 5.375 4.0625 C4.37210937 4.05347656 3.36921875 4.04445313 2.3359375 4.03515625 C1.56507813 4.02355469 0.79421875 4.01195312 0 4 C0 2.68 0 1.36 0 0 Z " fill="#C4C4C4" transform="translate(332,271)"/>
<path d="M0 0 C2.31 0.33 4.62 0.66 7 1 C6.67 2.98 6.34 4.96 6 7 C4.35 7.33 2.7 7.66 1 8 C0.67 5.36 0.34 2.72 0 0 Z " fill="#A8A8A8" transform="translate(325,256)"/>
<path d="M0 0 C-0.33 1.98 -0.66 3.96 -1 6 C-2.98 6 -4.96 6 -7 6 C-7 4.35 -7 2.7 -7 1 C-4 0 -4 0 0 0 Z " fill="#EBAEC3" transform="translate(374,460)"/>
<path d="M0 0 C0.66 0 1.32 0 2 0 C2.33 2.64 2.66 5.28 3 8 C-0.28696233 8.79953138 -1.71023192 9.09658936 -5 8 C-4.01 7.34 -3.02 6.68 -2 6 C-0.78715124 2.94570927 -0.78715124 2.94570927 0 0 Z " fill="#C4C4C4" transform="translate(332,256)"/>
<path d="M0 0 C3.96 0 7.92 0 12 0 C12.33 0.99 12.66 1.98 13 3 C9.04 3 5.08 3 1 3 C0.67 2.01 0.34 1.02 0 0 Z " fill="#C5C5C5" transform="translate(331,500)"/>
<path d="M0 0 C1.32 0.66 2.64 1.32 4 2 C4 2.66 4 3.32 4 4 C3.34 4 2.68 4 2 4 C2 4.66 2 5.32 2 6 C2.66 6 3.32 6 4 6 C4 6.66 4 7.32 4 8 C2.35 7.67 0.7 7.34 -1 7 C-1.04254356 5.00045254 -1.04080783 2.99958364 -1 1 C-0.67 0.67 -0.34 0.34 0 0 Z " fill="#DADADA" transform="translate(364,256)"/>
<path d="M0 0 C3.3 0 6.6 0 10 0 C9.67 0.99 9.34 1.98 9 3 C6.03 3 3.06 3 0 3 C0 2.01 0 1.02 0 0 Z " fill="#606060" transform="translate(330,199)"/>
<path d="M0 0 C2.97 0.495 2.97 0.495 6 1 C6 2.32 6 3.64 6 5 C4.02 5.33 2.04 5.66 0 6 C0 4.02 0 2.04 0 0 Z " fill="#C0C0C0" transform="translate(343,257)"/>
<path d="M0 0 C0.99 0 1.98 0 3 0 C3 1.98 3 3.96 3 6 C3.66 6.33 4.32 6.66 5 7 C3.35 7 1.7 7 0 7 C0 4.69 0 2.38 0 0 Z " fill="#CFCFCF" transform="translate(351,257)"/>
<path d="M0 0 C0.99 0.33 1.98 0.66 3 1 C3 3.31 3 5.62 3 8 C1.02 8.33 -0.96 8.66 -3 9 C-3 8.01 -3 7.02 -3 6 C-1.35 6 0.3 6 2 6 C2 4.68 2 3.36 2 2 C1.34 2 0.68 2 0 2 C0 1.34 0 0.68 0 0 Z " fill="#E0E0E0" transform="translate(347,256)"/>
<path d="M0 0 C1.98 0 3.96 0 6 0 C6 1.32 6 2.64 6 4 C3.03 3.505 3.03 3.505 0 3 C0 2.01 0 1.02 0 0 Z " fill="#E4E4E4" transform="translate(348,271)"/>
<path d="M0 0 C2.64 0.33 5.28 0.66 8 1 C8 1.66 8 2.32 8 3 C2.25 4.125 2.25 4.125 0 3 C0 2.01 0 1.02 0 0 Z " fill="#E4E4E4" transform="translate(342,212)"/>
<path d="M0 0 C-3.51187196 2.40814077 -5.72656908 3.36629408 -10 3 C-10 2.34 -10 1.68 -10 1 C-8.71073008 0.63720544 -7.41846728 0.28503302 -6.125 -0.0625 C-5.40570313 -0.25972656 -4.68640625 -0.45695312 -3.9453125 -0.66015625 C-2 -1 -2 -1 0 0 Z " fill="#DBDBDB" transform="translate(369,500)"/>
<path d="M0 0 C1.65 0 3.3 0 5 0 C3.515 1.485 3.515 1.485 2 3 C2.99 3.66 3.98 4.32 5 5 C2.69 4.67 0.38 4.34 -2 4 C-1.34 2.68 -0.68 1.36 0 0 Z " fill="#E197AF" transform="translate(337,463)"/>
<path d="M0 0 C-1.1875 1.5625 -1.1875 1.5625 -3 3 C-5.6875 2.6875 -5.6875 2.6875 -8 2 C-6.14210462 -1.71579076 -3.44525918 -1.06921837 0 0 Z " fill="#EC9DB7" transform="translate(346,464)"/>
</svg>
