<?xml version="1.0" encoding="UTF-8"?>
<svg version="1.1" xmlns="http://www.w3.org/2000/svg" width="702" height="698">
<path d="M0 0 C231.66 0 463.32 0 702 0 C702 230.34 702 460.68 702 698 C470.34 698 238.68 698 0 698 C0 467.66 0 237.32 0 0 Z " fill="#F5F5F5" transform="translate(0,0)"/>
<path d="M0 0 C0.33 0 0.66 0 1 0 C1.11570103 13.63839645 1.20461767 27.27667672 1.25906086 40.91546345 C1.28518708 47.24809886 1.32064122 53.58039924 1.37719727 59.9128418 C1.43140777 66.02068067 1.46139773 72.12819672 1.47438622 78.23625755 C1.48364572 80.56996941 1.50172678 82.90366302 1.52865028 85.23723793 C1.56479373 88.4988018 1.56995136 91.75902101 1.56762695 95.02075195 C1.58560333 95.99179367 1.60357971 96.96283539 1.62210083 97.96330261 C1.60313558 100.41244528 1.55272715 102.61421392 1 105 C-2.0314143 107.64942543 -4.66684118 108.38090309 -8.625 108.73046875 C-9.4910083 108.81119629 -10.3570166 108.89192383 -11.24926758 108.97509766 C-12.15700928 109.04519043 -13.06475098 109.1152832 -14 109.1875 C-14.93030029 109.26790527 -15.86060059 109.34831055 -16.8190918 109.43115234 C-23.8936571 110.00614084 -30.90218584 110.23703275 -38 110 C-37.97679687 111.31355469 -37.95359375 112.62710938 -37.9296875 113.98046875 C-37.91092349 115.71614013 -37.89272396 117.45181768 -37.875 119.1875 C-37.85824219 120.05181641 -37.84148437 120.91613281 -37.82421875 121.80664062 C-37.81455078 123.06831055 -37.81455078 123.06831055 -37.8046875 124.35546875 C-37.78897705 125.51018677 -37.78897705 125.51018677 -37.77294922 126.68823242 C-38.03920032 129.39912671 -38.89313806 131.52392304 -40 134 C-46.63855742 134.05064489 -53.27706514 134.08571023 -59.91577148 134.10986328 C-62.17490501 134.11993058 -64.43402547 134.13358538 -66.69311523 134.15087891 C-69.93736999 134.17509508 -73.18145271 134.18647575 -76.42578125 134.1953125 C-77.43836502 134.20563507 -78.45094879 134.21595764 -79.49421692 134.22659302 C-80.43496567 134.22674408 -81.37571442 134.22689514 -82.3449707 134.22705078 C-83.17325882 134.231492 -84.00154694 134.23593323 -84.85493469 134.24050903 C-87 134 -87 134 -90 132 C-90.70052461 129.336937 -90.77744818 126.75964263 -91 124 C-87.59292702 121.72861802 -86.19561604 121.70621182 -82.1796875 121.5859375 C-80.42785156 121.52805054 -80.42785156 121.52805054 -78.640625 121.46899414 C-76.77664063 121.42246704 -76.77664063 121.42246704 -74.875 121.375 C-72.98394531 121.31590454 -72.98394531 121.31590454 -71.0546875 121.25561523 C-62.73775308 121.01328652 -54.44247487 120.95054247 -46.125 121.16015625 C-43.11574042 121.0059317 -41.50990975 120.60006747 -39 119 C-39.33 118.01 -39.66 117.02 -40 116 C-39.72230092 113.6593935 -39.39460023 111.32375692 -39 109 C-38.09757568 108.91435791 -37.19515137 108.82871582 -36.26538086 108.74047852 C-32.89009037 108.419363 -29.51494799 108.09676674 -26.13989258 107.77319336 C-24.68421936 107.63393541 -23.22849093 107.49525328 -21.77270508 107.35717773 C-19.66993364 107.15763416 -17.56737511 106.95596195 -15.46484375 106.75390625 C-14.202771 106.63345947 -12.94069824 106.5130127 -11.64038086 106.38891602 C-8.07799921 106.00833296 -4.54502403 105.51531077 -1 105 C-1.00222061 103.69930069 -1.00444122 102.39860138 -1.00672913 101.05848694 C-1.0269581 88.82968235 -1.04197096 76.60088113 -1.05181217 64.37206364 C-1.05704162 58.08437976 -1.06414039 51.79670934 -1.07543945 45.5090332 C-1.08626614 39.44662277 -1.09227637 33.38422531 -1.09487724 27.32180595 C-1.09673189 25.00323723 -1.10035325 22.68466926 -1.10573006 20.36610603 C-1.11293758 17.13085492 -1.11399106 13.89565817 -1.11352539 10.66040039 C-1.11712067 9.69151886 -1.12071594 8.72263733 -1.12442017 7.72439575 C-1.1230455 6.84794907 -1.12167084 5.97150238 -1.12025452 5.0684967 C-1.12117631 4.30248673 -1.1220981 3.53647676 -1.12304783 2.74725437 C-1 1 -1 1 0 0 Z " fill="#E3E3E3" transform="translate(414,442)"/>
<path d="M0 0 C1.29088531 0.00022659 1.29088531 0.00022659 2.60784912 0.00045776 C3.52777649 0.01078033 4.44770386 0.02110291 5.39550781 0.03173828 C6.34427795 0.03456818 7.2930481 0.03739807 8.27056885 0.04031372 C11.29671921 0.0514963 14.32257211 0.07659749 17.34863281 0.10205078 C19.40201395 0.11208306 21.45539973 0.12120848 23.50878906 0.12939453 C28.53885135 0.15142938 33.56869167 0.18594616 38.59863281 0.22705078 C39.09363281 1.71205078 39.09363281 1.71205078 39.59863281 3.22705078 C39.26863281 3.88705078 38.93863281 4.54705078 38.59863281 5.22705078 C39.25863281 5.22705078 39.91863281 5.22705078 40.59863281 5.22705078 C41.09363281 8.19705078 41.09363281 8.19705078 41.59863281 11.22705078 C24.76863281 11.22705078 7.93863281 11.22705078 -9.40136719 11.22705078 C-9.07136719 8.25705078 -8.74136719 5.28705078 -8.40136719 2.22705078 C-4.76233231 0.40753334 -3.759376 -0.02211398 0 0 Z " fill="#909594" transform="translate(333.4013671875,138.77294921875)"/>
<path d="M0 0 C15.51 0 31.02 0 47 0 C48.125 6.75 48.125 6.75 46 11 C41.75001434 11.02902996 37.50005419 11.04680887 33.25 11.0625 C31.44015625 11.07506836 31.44015625 11.07506836 29.59375 11.08789062 C27.85351562 11.09272461 27.85351562 11.09272461 26.078125 11.09765625 C25.00981445 11.10289307 23.94150391 11.10812988 22.84082031 11.11352539 C20.37610765 11.01503008 18.34754533 10.71565464 16 10 C17.15173355 7.53199953 18.04783565 5.95216435 20 4 C13.4 3.01 6.8 2.02 0 1 C0 0.67 0 0.34 0 0 Z " fill="#727477" transform="translate(328,565)"/>
<path d="M0 0 C0.99 0.33 1.98 0.66 3 1 C3 2.98 3 4.96 3 7 C2.34 7 1.68 7 1 7 C1 10.96 1 14.92 1 19 C-3.21629134 21.10814567 -5.39790775 21.17700355 -10 21 C-10 21.66 -10 22.32 -10 23 C-15.99568382 23.02480236 -21.99133746 23.04290845 -27.98706055 23.05493164 C-30.02482626 23.05994639 -32.0625884 23.0667598 -34.1003418 23.07543945 C-37.03695561 23.08763052 -39.97352166 23.09325702 -42.91015625 23.09765625 C-43.81459976 23.10281754 -44.71904327 23.10797882 -45.65089417 23.11329651 C-50.54547861 23.1137262 -55.17450111 22.8305951 -60 22 C-59.67 20.35 -59.34 18.7 -59 17 C-57.54176788 16.9729957 -56.08339325 16.95360213 -54.625 16.9375 C-53.81289063 16.92589844 -53.00078125 16.91429687 -52.1640625 16.90234375 C-50 17 -50 17 -48 18 C-46.58026727 18.08934406 -45.15642209 18.11758978 -43.73388672 18.11352539 C-42.85312469 18.11344986 -41.97236267 18.11337433 -41.06491089 18.11329651 C-40.11278717 18.10813522 -39.16066345 18.10297394 -38.1796875 18.09765625 C-37.20589142 18.0962413 -36.23209534 18.09482635 -35.22879028 18.09336853 C-32.11082927 18.08775973 -28.9929394 18.07520573 -25.875 18.0625 C-23.76432395 18.05748613 -21.65364678 18.05292303 -19.54296875 18.04882812 C-14.36195479 18.03778745 -9.18098248 18.02104073 -4 18 C-3.34 16.35 -2.68 14.7 -2 13 C-4.64 13 -7.28 13 -10 13 C-10 12.34 -10 11.68 -10 11 C-5.545 10.505 -5.545 10.505 -1 10 C-0.67 6.7 -0.34 3.4 0 0 Z " fill="#B7B7B7" transform="translate(375,565)"/>
<path d="M0 0 C3.70826651 -0.05837668 7.4164137 -0.09372277 11.125 -0.125 C12.69507813 -0.15013672 12.69507813 -0.15013672 14.296875 -0.17578125 C19.59269336 -0.20929909 24.0571059 -0.17213685 29 2 C29.06058594 2.73605469 29.12117188 3.47210938 29.18359375 4.23046875 C29.26738281 5.20628906 29.35117187 6.18210938 29.4375 7.1875 C29.51871094 8.15042969 29.59992188 9.11335937 29.68359375 10.10546875 C29.94685549 12.98693774 29.94685549 12.98693774 30.59375 15.71875 C31.08994285 18.50506368 30.48066173 19.64836078 29 22 C28.34 22 27.68 22 27 22 C26.67 22.66 26.34 23.32 26 24 C24.35 23.67 22.7 23.34 21 23 C21 22.34 21 21.68 21 21 C19.35 21 17.7 21 16 21 C16 20.67 16 20.34 16 20 C19.96 20 23.92 20 28 20 C27.34 18.68 26.68 17.36 26 16 C26.33 15.34 26.66 14.68 27 14 C26.34 14 25.68 14 25 14 C25 12.68 25 11.36 25 10 C14.44 9.67 3.88 9.34 -7 9 C-7 8.67 -7 8.34 -7 8 C-5.44539063 7.97873047 -5.44539063 7.97873047 -3.859375 7.95703125 C-2.48953943 7.91011907 -1.11974913 7.86187173 0.25 7.8125 C1.27287109 7.80379883 1.27287109 7.80379883 2.31640625 7.79492188 C6.2206252 7.6243492 7.7141295 7.29351169 10.484375 4.44921875 C10.98453125 3.64097656 11.4846875 2.83273438 12 2 C8.04 1.67 4.08 1.34 0 1 C0 0.67 0 0.34 0 0 Z " fill="#D4D4D4" transform="translate(347,130)"/>
<path d="M0 0 C2.51874467 0.23388343 4.9964705 0.52753705 7.5 0.875 C8.95827363 1.06815958 10.41660678 1.26087039 11.875 1.453125 C12.58269531 1.54787109 13.29039062 1.64261719 14.01953125 1.74023438 C17.67336127 2.21948427 21.33604665 2.60743357 25 3 C23.35 5.31 21.7 7.62 20 10 C21.32 10.33 22.64 10.66 24 11 C20.56257082 11.05802698 17.12526747 11.09360486 13.6875 11.125 C12.71103516 11.14175781 11.73457031 11.15851562 10.72851562 11.17578125 C9.79072266 11.18222656 8.85292969 11.18867187 7.88671875 11.1953125 C7.02264404 11.20578613 6.15856934 11.21625977 5.26831055 11.22705078 C3 11 3 11 0 9 C-0.77019559 6.30981684 -0.82103589 3.81868476 -1 1 C-0.67 0.67 -0.34 0.34 0 0 Z " fill="#C4C7C8" transform="translate(324,565)"/>
<path d="M0 0 C10.23 0 20.46 0 31 0 C31.33 0.99 31.66 1.98 32 3 C31.67 3.66 31.34 4.32 31 5 C31.66 5 32.32 5 33 5 C33.495 7.97 33.495 7.97 34 11 C26.08 11 18.16 11 10 11 C10 10.34 10 9.68 10 9 C15.445 8.505 15.445 8.505 21 8 C21 6.35 21 4.7 21 3 C20.07058594 2.93941406 19.14117187 2.87882813 18.18359375 2.81640625 C5.90509666 1.98418278 5.90509666 1.98418278 0 1 C0 0.67 0 0.34 0 0 Z " fill="#6B716F" transform="translate(341,139)"/>
<path d="M0 0 C10.56 0 21.12 0 32 0 C32 0.33 32 0.66 32 1 C30.35 1 28.7 1 27 1 C27 1.66 27 2.32 27 3 C29.64 3 32.28 3 35 3 C30.375 8.75 30.375 8.75 27 11 C23.15110517 11.20993972 19.68766192 11.18005182 16 10 C17.15173355 7.53199953 18.04783565 5.95216435 20 4 C13.4 3.01 6.8 2.02 0 1 C0 0.67 0 0.34 0 0 Z " fill="#8B8D90" transform="translate(328,565)"/>
<path d="M0 0 C0.78246094 -0.02578125 1.56492187 -0.0515625 2.37109375 -0.078125 C4.5625 0.25 4.5625 0.25 6.3359375 1.56640625 C8.15955814 4.06952884 7.76273449 6.24648259 7.5625 9.25 C4.32654766 11.20801273 2.34325464 11.39062853 -1.375 10.875 C-4.76729571 10.42409207 -8.01314589 10.18874143 -11.4375 10.25 C-11.4375 7.61 -11.4375 4.97 -11.4375 2.25 C-10.7775 1.92 -10.1175 1.59 -9.4375 1.25 C-9.1075 1.91 -8.7775 2.57 -8.4375 3.25 C-7.7775 3.25 -7.1175 3.25 -6.4375 3.25 C-6.4375 2.59 -6.4375 1.93 -6.4375 1.25 C-4.11063547 0.08656773 -2.59028587 0.05104012 0 0 Z " fill="#BFBFBF" transform="translate(334.4375,321.75)"/>
<path d="M0 0 C3 0 6 0 9 0 C10.2375 -0.061875 10.2375 -0.061875 11.5 -0.125 C14 0 14 0 16 2 C15.835 2.804375 15.67 3.60875 15.5 4.4375 C14.64354576 7.22774618 14.64354576 7.22774618 17 10 C13.95460197 11.52269902 11.29587348 10.47939978 8 10 C7.67 10.33 7.34 10.66 7 11 C4 11.125 4 11.125 1 11 C0 10 0 10 -0.09765625 7.71484375 C-0.08605469 6.79832031 -0.07445312 5.88179688 -0.0625 4.9375 C-0.05347656 4.01839844 -0.04445313 3.09929687 -0.03515625 2.15234375 C-0.02355469 1.44207031 -0.01195312 0.73179687 0 0 Z " fill="#BCBCBC" transform="translate(363,322)"/>
<path d="M0 0 C3.09799981 2.19126816 3.80352112 3.41056336 5 7 C-0.78357065 9.01167675 -5.90218999 9.22084624 -12 9 C-12 9.66 -12 10.32 -12 11 C-12.99 11 -13.98 11 -15 11 C-14.93993922 9.54052295 -14.8511311 8.08220728 -14.75 6.625 C-14.70359375 5.81289062 -14.6571875 5.00078125 -14.609375 4.1640625 C-14 2 -14 2 -12.265625 0.734375 C-8.20395793 -0.58216536 -4.21024549 -0.58144821 0 0 Z " fill="#BEC2C1" transform="translate(339,139)"/>
<path d="M0 0 C0 0.33 0 0.66 0 1 C-10.06979989 2.35067975 -19.82241303 3.31860272 -30 3 C-29.98839844 3.77085937 -29.97679687 4.54171875 -29.96484375 5.3359375 C-29.95582031 6.33882812 -29.94679688 7.34171875 -29.9375 8.375 C-29.92589844 9.37273438 -29.91429687 10.37046875 -29.90234375 11.3984375 C-30 14 -30 14 -31 16 C-47.17 16 -63.34 16 -80 16 C-80 15.67 -80 15.34 -80 15 C-75.68769818 14.82792895 -71.37517217 14.66251999 -67.0625 14.5 C-65.15114258 14.42736938 -65.15114258 14.42736938 -63.20117188 14.35327148 C-54.82856218 14.05250681 -46.4995192 13.94910486 -38.125 14.16015625 C-35.11574042 14.0059317 -33.50990975 13.60006747 -31 12 C-31.495 10.515 -31.495 10.515 -32 9 C-31.72230092 6.6593935 -31.39460023 4.32375692 -31 2 C-27.52147832 1.65970492 -24.04210091 1.3290613 -20.5625 1 C-19.58861328 0.90460937 -18.61472656 0.80921875 -17.61132812 0.7109375 C-11.70951151 0.15825902 -5.92744322 -0.09807559 0 0 Z " fill="#D2D3D4" transform="translate(406,549)"/>
<path d="M0 0 C1.45792884 -0.05399736 2.91642712 -0.09279177 4.375 -0.125 C5.18710937 -0.14820313 5.99921875 -0.17140625 6.8359375 -0.1953125 C9 0 9 0 11 2 C10.67 2.99 10.34 3.98 10 5 C22.87 4.67 35.74 4.34 49 4 C49 4.66 49 5.32 49 6 C43.00431618 6.02480236 37.00866254 6.04290845 31.01293945 6.05493164 C28.97517374 6.05994639 26.9374116 6.0667598 24.8996582 6.07543945 C21.96304439 6.08763052 19.02647834 6.09325702 16.08984375 6.09765625 C15.18540024 6.10281754 14.28095673 6.10797882 13.34910583 6.11329651 C8.45452139 6.1137262 3.82549889 5.8305951 -1 5 C-0.67 3.35 -0.34 1.7 0 0 Z " fill="#DDDDDD" transform="translate(316,582)"/>
<path d="M0 0 C7.26 0.99 14.52 1.98 22 3 C20.35 5.31 18.7 7.62 17 10 C18.32 10.33 19.64 10.66 21 11 C9.47835991 11.3690205 9.47835991 11.3690205 4 9 C4 8.67 4 8.34 4 8 C6.97 8 9.94 8 13 8 C13 7.01 13 6.02 13 5 C8.71 4.01 4.42 3.02 0 2 C0 1.34 0 0.68 0 0 Z " fill="#A5A8AB" transform="translate(327,565)"/>
<path d="M0 0 C0.99 0.33 1.98 0.66 3 1 C3 3.64 3 6.28 3 9 C-3.625 10 -3.625 10 -7 10 C-7 7.36 -7 4.72 -7 2 C-6.34 1.67 -5.68 1.34 -5 1 C-4.67 1.66 -4.34 2.32 -4 3 C-3.34 3 -2.68 3 -2 3 C-2 2.34 -2 1.68 -2 1 C-1.34 0.67 -0.68 0.34 0 0 Z " fill="#D5D5D5" transform="translate(330,322)"/>
<path d="M0 0 C3.98347226 -0.07480519 7.96666594 -0.12890718 11.95068359 -0.16479492 C13.96336248 -0.18709408 15.97584584 -0.22523653 17.98828125 -0.26367188 C25.05619791 -0.31694763 30.60189903 -0.10928121 37 3 C31.76873803 4.74375399 26.14298981 3.69200172 20.69384766 3.33081055 C18.50866499 3.18806603 16.32293881 3.06126806 14.13671875 2.93554688 C12.74733394 2.84732354 11.35800831 2.7581622 9.96875 2.66796875 C8.70482422 2.58828857 7.44089844 2.5086084 6.13867188 2.42651367 C3 2 3 2 0 0 Z " fill="#D2D2D2" transform="translate(374,162)"/>
<path d="M0 0 C0.99 0.33 1.98 0.66 3 1 C3 2.98 3 4.96 3 7 C2.34 7 1.68 7 1 7 C1 10.96 1 14.92 1 19 C-3 21 -3 21 -5.25 20.625 C-6.11625 20.315625 -6.11625 20.315625 -7 20 C-6.01 20 -5.02 20 -4 20 C-3.01 16.535 -3.01 16.535 -2 13 C-4.64 13 -7.28 13 -10 13 C-10 12.34 -10 11.68 -10 11 C-5.545 10.505 -5.545 10.505 -1 10 C-0.67 6.7 -0.34 3.4 0 0 Z " fill="#BFC1C3" transform="translate(375,565)"/>
<path d="M0 0 C-3.42094242 2.28062828 -4.68187222 2.21925007 -8.6875 2.125 C-10.17830078 2.09792969 -10.17830078 2.09792969 -11.69921875 2.0703125 C-12.45847656 2.04710937 -13.21773438 2.02390625 -14 2 C-14 2.66 -14 3.32 -14 4 C-21.92 4 -29.84 4 -38 4 C-38 3.34 -38 2.68 -38 2 C-33.3919646 1.71321339 -28.78381063 1.42844243 -24.17553711 1.14550781 C-22.60909695 1.04905174 -21.04269011 0.95205281 -19.47631836 0.85449219 C-17.21997564 0.71405295 -14.96351878 0.5755906 -12.70703125 0.4375 C-12.01100296 0.39375244 -11.31497467 0.35000488 -10.59785461 0.30493164 C-7.05949975 0.09036324 -3.54492801 -0.04802612 0 0 Z " fill="#898B8A" transform="translate(365,146)"/>
<path d="M0 0 C10.56 0 21.12 0 32 0 C32 0.33 32 0.66 32 1 C30.35 1 28.7 1 27 1 C27 1.66 27 2.32 27 3 C17.71854592 3.22823248 9.13029973 2.90427108 0 1 C0 0.67 0 0.34 0 0 Z " fill="#7F8285" transform="translate(328,565)"/>
<path d="M0 0 C3.5625 0.4375 3.5625 0.4375 5.9375 2.25 C7.5625 4.4375 7.5625 4.4375 8.5625 7.4375 C1.13392857 9.86607143 1.13392857 9.86607143 -2.4375 8.4375 C-0.7875 8.1075 0.8625 7.7775 2.5625 7.4375 C2.5625 6.4475 2.5625 5.4575 2.5625 4.4375 C-0.4075 4.1075 -3.3775 3.7775 -6.4375 3.4375 C-3.4375 0.4375 -3.4375 0.4375 0 0 Z " fill="#B1B7B5" transform="translate(335.4375,138.5625)"/>
<path d="M0 0 C1.65 0 3.3 0 5 0 C5.66 0.66 6.32 1.32 7 2 C6.835 2.804375 6.67 3.60875 6.5 4.4375 C5.64354576 7.22774618 5.64354576 7.22774618 8 10 C5.13822943 11.43088528 3.06624227 10.59991697 0 10 C0 6.7 0 3.4 0 0 Z " fill="#8A8A8A" transform="translate(372,322)"/>
<path d="M0 0 C0.66 0 1.32 0 2 0 C5.10169492 4.13559322 5.10169492 4.13559322 4.75 7.125 C4.5025 7.74375 4.255 8.3625 4 9 C3.67 9.99 3.34 10.98 3 12 C2.34 12 1.68 12 1 12 C0.67 12.66 0.34 13.32 0 14 C-1.65 13.67 -3.3 13.34 -5 13 C-5 12.34 -5 11.68 -5 11 C-6.65 11 -8.3 11 -10 11 C-10 10.67 -10 10.34 -10 10 C-6.04 10 -2.08 10 2 10 C1.34 8.68 0.68 7.36 0 6 C0.33 5.34 0.66 4.68 1 4 C0.34 4 -0.32 4 -1 4 C-0.67 2.68 -0.34 1.36 0 0 Z " fill="#A1A7A5" transform="translate(373,140)"/>
<path d="M0 0 C1.76923828 0.01353516 1.76923828 0.01353516 3.57421875 0.02734375 C4.47785156 0.03894531 5.38148438 0.05054688 6.3125 0.0625 C5.9825 1.0525 5.6525 2.0425 5.3125 3.0625 C-3.9275 3.3925 -13.1675 3.7225 -22.6875 4.0625 C-23.0175 3.4025 -23.3475 2.7425 -23.6875 2.0625 C-22.71167969 2.00191406 -21.73585938 1.94132813 -20.73046875 1.87890625 C-19.45816406 1.79511719 -18.18585938 1.71132813 -16.875 1.625 C-15.61042969 1.54378906 -14.34585937 1.46257813 -13.04296875 1.37890625 C-8.49289126 0.94985354 -4.65617134 -0.04610071 0 0 Z " fill="#AFAFAF" transform="translate(396.6875,540.9375)"/>
<path d="M0 0 C2.4375 0.5 2.4375 0.5 4 1 C4 2.32 4 3.64 4 5 C2.22950311 5.05410687 0.45853151 5.09284119 -1.3125 5.125 C-2.79169922 5.15980469 -2.79169922 5.15980469 -4.30078125 5.1953125 C-7 5 -7 5 -10 3 C-7.28751999 -0.82938354 -4.40203167 -0.3089145 0 0 Z " fill="#C8C6C7" transform="translate(367,132)"/>
<path d="M0 0 C4.24994263 -0.05805933 8.49978324 -0.09361654 12.75 -0.125 C13.9565625 -0.14175781 15.163125 -0.15851563 16.40625 -0.17578125 C17.56640625 -0.18222656 18.7265625 -0.18867188 19.921875 -0.1953125 C20.99018555 -0.20578613 22.05849609 -0.21625977 23.15917969 -0.22705078 C25.97979105 -0.00161519 27.60787463 0.54151006 30 2 C29 3 29 3 26.97802734 3.03759766 C25.67019287 2.97644775 25.67019287 2.97644775 24.3359375 2.9140625 C22.89927734 2.84832031 22.89927734 2.84832031 21.43359375 2.78125 C19.91958984 2.70390625 19.91958984 2.70390625 18.375 2.625 C16.89580078 2.55925781 16.89580078 2.55925781 15.38671875 2.4921875 C10.19748763 2.24277185 5.12639824 1.84721988 0 1 C0 0.67 0 0.34 0 0 Z " fill="#5F6462" transform="translate(341,139)"/>
<path d="M0 0 C1.45792884 -0.05399736 2.91642712 -0.09279177 4.375 -0.125 C5.18710937 -0.14820313 5.99921875 -0.17140625 6.8359375 -0.1953125 C9 0 9 0 11 2 C10.67 2.99 10.34 3.98 10 5 C6.37 5 2.74 5 -1 5 C-0.67 3.35 -0.34 1.7 0 0 Z " fill="#D6D6D6" transform="translate(316,582)"/>
<path d="M0 0 C0.66 0 1.32 0 2 0 C2 1.32 2 2.64 2 4 C2.99 4 3.98 4 5 4 C5 2.68 5 1.36 5 0 C5.99 0.33 6.98 0.66 8 1 C8 3.97 8 6.94 8 10 C7.34 10 6.68 10 6 10 C6 8.68 6 7.36 6 6 C4.68 6 3.36 6 2 6 C2 7.32 2 8.64 2 10 C1.34 10 0.68 10 0 10 C0 6.7 0 3.4 0 0 Z " fill="#A9A9A9" transform="translate(344,322)"/>
<path d="M0 0 C2.31 0 4.62 0 7 0 C6.67 1.98 6.34 3.96 6 6 C4.68 6 3.36 6 2 6 C2 6.99 2 7.98 2 9 C3.32 9.33 4.64 9.66 6 10 C4.02 10 2.04 10 0 10 C0 6.7 0 3.4 0 0 Z " fill="#919191" transform="translate(363,322)"/>
<path d="M0 0 C0.66 0 1.32 0 2 0 C2 2.64 2 5.28 2 8 C3.32 8 4.64 8 6 8 C6 8.99 6 9.98 6 11 C3.69 11 1.38 11 -1 11 C-1.02688151 9.35425434 -1.04634123 7.70838587 -1.0625 6.0625 C-1.07410156 5.14597656 -1.08570313 4.22945313 -1.09765625 3.28515625 C-1 1 -1 1 0 0 Z " fill="#ACACAC" transform="translate(355,322)"/>
<path d="M0 0 C1.60294922 0.01353516 1.60294922 0.01353516 3.23828125 0.02734375 C4.04652344 0.03894531 4.85476563 0.05054688 5.6875 0.0625 C5.6875 0.7225 5.6875 1.3825 5.6875 2.0625 C1.85025828 2.96663673 -1.68752274 3.16826898 -5.625 3.125 C-6.69363281 3.11597656 -7.76226562 3.10695313 -8.86328125 3.09765625 C-9.67152344 3.08605469 -10.47976563 3.07445312 -11.3125 3.0625 C-11.3125 2.4025 -11.3125 1.7425 -11.3125 1.0625 C-7.47525828 0.15836327 -3.93747726 -0.04326898 0 0 Z " fill="#575A5E" transform="translate(366.3125,564.9375)"/>
<path d="M0 0 C16.8929385 -0.55353075 16.8929385 -0.55353075 24 3 C20.79984144 4.06671952 19.11455706 3.94845472 15.8125 3.5625 C14.91144531 3.46066406 14.01039063 3.35882813 13.08203125 3.25390625 C12.39496094 3.17011719 11.70789063 3.08632812 11 3 C11 2.34 11 1.68 11 1 C7.37 1 3.74 1 0 1 C0 0.67 0 0.34 0 0 Z " fill="#E3E3E3" transform="translate(387,162)"/>
<path d="M0 0 C0.99 0 1.98 0 3 0 C4.0257259 4.41062136 4.03684712 6.92630576 2 11 C0.68 10.67 -0.64 10.34 -2 10 C-1.01 9.67 -0.02 9.34 1 9 C0.34 8.34 -0.32 7.68 -1 7 C-0.625 3.375 -0.625 3.375 0 0 Z " fill="#8B8D8F" transform="translate(372,565)"/>
<path d="M0 0 C0.99 0.33 1.98 0.66 3 1 C3 3.64 3 6.28 3 9 C1.02 8.34 -0.96 7.68 -3 7 C-2.34 5.68 -1.68 4.36 -1 3 C-0.34 3 0.32 3 1 3 C0.67 2.01 0.34 1.02 0 0 Z " fill="#E4E4E4" transform="translate(330,322)"/>
<path d="M0 0 C2.375 -0.125 2.375 -0.125 5 0 C5.66 0.66 6.32 1.32 7 2 C6.625 4.125 6.625 4.125 6 6 C4.35 5.67 2.7 5.34 1 5 C0.67 3.35 0.34 1.7 0 0 Z " fill="#9A9A9A" transform="translate(372,322)"/>
<path d="M0 0 C4.29 0 8.58 0 13 0 C13 0.66 13 1.32 13 2 C12.34 2 11.68 2 11 2 C10.67 2.66 10.34 3.32 10 4 C8.35 3.67 6.7 3.34 5 3 C5 2.34 5 1.68 5 1 C3.35 1 1.7 1 0 1 C0 0.67 0 0.34 0 0 Z " fill="#BDBFBF" transform="translate(363,150)"/>
<path d="M0 0 C1.65 0 3.3 0 5 0 C5.33 0.99 5.66 1.98 6 3 C5.67 3.66 5.34 4.32 5 5 C5.66 5 6.32 5 7 5 C7 6.32 7 7.64 7 9 C6.01 9 5.02 9 4 9 C3.67 8.01 3.34 7.02 3 6 C3.33 5.34 3.66 4.68 4 4 C3.01 3.67 2.02 3.34 1 3 C1.66 2.67 2.32 2.34 3 2 C2.01 1.34 1.02 0.68 0 0 Z " fill="#858B89" transform="translate(367,139)"/>
<path d="M0 0 C-1.2065625 1.0828125 -1.2065625 1.0828125 -2.4375 2.1875 C-5.02292072 5.02515689 -5.68042813 6.27166147 -6 10 C-6.66 10 -7.32 10 -8 10 C-7.93993922 8.54052295 -7.8511311 7.08220728 -7.75 5.625 C-7.70359375 4.81289062 -7.6571875 4.00078125 -7.609375 3.1640625 C-7 1 -7 1 -5.140625 -0.3515625 C-3 -1 -3 -1 0 0 Z " fill="#CCCFCE" transform="translate(332,140)"/>
<path d="M0 0 C0.33 0 0.66 0 1 0 C1 2.64 1 5.28 1 8 C-1.35438733 9.42944945 -2.48032433 10.08661261 -5.25 9.625 C-5.8275 9.41875 -6.405 9.2125 -7 9 C-6.01 9 -5.02 9 -4 9 C-3.67 7.35 -3.34 5.7 -3 4 C-2.34 4 -1.68 4 -1 4 C-0.67 2.68 -0.34 1.36 0 0 Z " fill="#D0D0D1" transform="translate(375,576)"/>
<path d="M0 0 C1.65 0.33 3.3 0.66 5 1 C4.67 2.32 4.34 3.64 4 5 C2.35 4.67 0.7 4.34 -1 4 C-0.67 2.68 -0.34 1.36 0 0 Z " fill="#E4E4E4" transform="translate(335,325)"/>
<path d="M0 0 C2.64 0 5.28 0 8 0 C7.67 0.99 7.34 1.98 7 3 C4.36 3 1.72 3 -1 3 C-0.67 2.01 -0.34 1.02 0 0 Z " fill="#C5C5C5" transform="translate(319,583)"/>
<path d="M0 0 C1.32 0.33 2.64 0.66 4 1 C4 2.98 4 4.96 4 7 C1.69 7.33 -0.62 7.66 -3 8 C-1.68 7.67 -0.36 7.34 1 7 C1.15149298 3.37114676 1.15149298 3.37114676 0 0 Z " fill="#ABABAB" transform="translate(338,324)"/>
<path d="M0 0 C0.66 0.33 1.32 0.66 2 1 C2 3.31 2 5.62 2 8 C1.01 8.495 1.01 8.495 0 9 C0 7.02 0 5.04 0 3 C-1.65 3 -3.3 3 -5 3 C-4.360625 2.690625 -3.72125 2.38125 -3.0625 2.0625 C-1.06389179 1.1654837 -1.06389179 1.1654837 0 0 Z " fill="#C8C8C8" transform="translate(370,323)"/>
<path d="M0 0 C3.63 0 7.26 0 11 0 C11 0.33 11 0.66 11 1 C6.87831311 2.62950412 4.29299643 3.26264601 0 2 C0 1.34 0 0.68 0 0 Z " fill="#DEE0E0" transform="translate(326,150)"/>
<path d="M0 0 C1.63001953 0.01353516 1.63001953 0.01353516 3.29296875 0.02734375 C4.12441406 0.03894531 4.95585937 0.05054688 5.8125 0.0625 C5.8125 0.3925 5.8125 0.7225 5.8125 1.0625 C4.89017578 1.15337891 4.89017578 1.15337891 3.94921875 1.24609375 C3.14097656 1.32988281 2.33273437 1.41367187 1.5 1.5 C0.69949219 1.58121094 -0.10101563 1.66242187 -0.92578125 1.74609375 C-3.34837179 2.01515693 -3.34837179 2.01515693 -6.1875 3.0625 C-7.1775 2.4025 -8.1675 1.7425 -9.1875 1.0625 C-5.90230525 -0.03256492 -3.45086585 -0.03710608 0 0 Z " fill="#E9E9E9" transform="translate(319.1875,580.9375)"/>
<path d="M0 0 C1.43655854 -0.08131463 2.8744483 -0.13933559 4.3125 -0.1875 C5.51326172 -0.23970703 5.51326172 -0.23970703 6.73828125 -0.29296875 C9.47851584 0.06198392 10.29171079 0.89366282 12 3 C7.53160785 3.21278058 4.17737474 2.59138085 0 1 C0 0.67 0 0.34 0 0 Z " fill="#AFB1B3" transform="translate(331,573)"/>
<path d="M0 0 C2.64 0 5.28 0 8 0 C6.8125 1.5625 6.8125 1.5625 5 3 C2.3125 2.6875 2.3125 2.6875 0 2 C0 1.34 0 0.68 0 0 Z " fill="#DADADA" transform="translate(350,150)"/>
<path d="M0 0 C3.68754757 0.49831724 5.60490662 1.10067643 8 4 C4.79604584 4 2.90600261 3.25664978 0 2 C0 1.34 0 0.68 0 0 Z " fill="#A5ACAA" transform="translate(335,139)"/>
</svg>
