<?xml version="1.0" encoding="UTF-8"?>
<svg version="1.1" xmlns="http://www.w3.org/2000/svg" width="701" height="698">
<path d="M0 0 C231.33 0 462.66 0 701 0 C701 230.34 701 460.68 701 698 C469.67 698 238.34 698 0 698 C0 467.66 0 237.32 0 0 Z " fill="#F6F6F6" transform="translate(0,0)"/>
<path d="M0 0 C0.66 0 1.32 0 2 0 C2.21120123 65.05106196 2.23325633 130.07711442 0.99351501 195.11924744 C0.07682258 243.28721309 -0.34807435 291.44956127 -0.625 339.625 C-0.63534623 341.41266888 -0.6456955 343.20033775 -0.65604782 344.98800659 C-0.78118042 366.65861919 -0.89626777 388.32927432 -1 410 C-1.99 410.33 -2.98 410.66 -4 411 C-4.06760543 371.37162751 -3.88595069 331.74745709 -3.62907338 292.12015009 C-3.59712996 287.18757432 -3.5657932 282.2549948 -3.53457451 277.3224144 C-3.43056186 260.89981286 -3.325091 244.4772216 -3.21774632 228.0546415 C-3.21203506 227.18083344 -3.20632379 226.30702538 -3.20043945 225.40673828 C-3.19472053 224.53181185 -3.18900161 223.65688542 -3.1831094 222.75544606 C-3.09028136 208.53942266 -3.00111009 194.32337891 -2.91354198 180.10732223 C-2.82259937 165.35086521 -2.72879355 150.59442864 -2.63215441 135.83800781 C-2.57837001 127.61650373 -2.52569385 119.39499638 -2.4761219 111.17346573 C-2.11955732 52.27915847 -2.11955732 52.27915847 -1.52905273 29.00732422 C-1.51030535 28.24457381 -1.49155796 27.48182339 -1.47224247 26.69595933 C-1.24522268 17.7729746 -0.78035403 8.89321679 0 0 Z " fill="#DEDEDE" transform="translate(474,166)"/>
<path d="M0 0 C0.66 0.33 1.32 0.66 2 1 C2 118.81 2 236.62 2 358 C1.67 358 1.34 358 1 358 C0.22142017 349.80646046 -0.19270243 341.66757143 -0.32066345 333.43955994 C-0.3418353 332.24492744 -0.36300716 331.05029495 -0.38482058 329.81946146 C-0.44038896 326.56356971 -0.4917096 323.30765501 -0.53974696 320.05164428 C-0.57045783 317.97735621 -0.60241833 315.90308995 -0.63451946 313.82882297 C-1.10315132 283.11939685 -1.05551315 252.41606064 -0.90999538 221.70434237 C-0.8736977 213.98986226 -0.84487427 206.27535816 -0.81623887 198.56084644 C-0.76505039 184.81943249 -0.70848098 171.07804676 -0.64819336 157.33666992 C-0.58987394 144.04110799 -0.53429703 130.74553892 -0.48217773 117.44995117 C-0.47892802 116.621183 -0.4756783 115.79241483 -0.4723301 114.93853248 C-0.45603257 110.77809045 -0.43978651 106.61764822 -0.42356598 102.45720589 C-0.29034834 68.3047691 -0.14825914 34.15237481 0 0 Z " fill="#CFCFCF" transform="translate(351,171)"/>
<path d="M0 0 C0.66 0.33 1.32 0.66 2 1 C2.02302017 31.54716279 2.04061491 62.09432352 2.05106533 92.64149297 C2.05231541 96.28215418 2.0536098 99.92281538 2.05493164 103.56347656 C2.05519395 104.28799365 2.05545626 105.01251073 2.05572652 105.75898288 C2.06002856 117.35255292 2.06788453 128.94611778 2.0771528 140.53968479 C2.08664404 152.51581665 2.09208753 164.49194589 2.09408849 176.46808136 C2.09531455 183.16112091 2.09828655 189.85414755 2.10573006 196.54718399 C2.14334586 231.70988011 1.79436663 266.84592302 1 302 C0.67 302 0.34 302 0 302 C-0.78101247 296.48361185 -1.14456032 291.15777387 -1.12939453 285.59106445 C-1.13112419 284.77470048 -1.13285385 283.95833651 -1.13463593 283.11723423 C-1.13901777 280.36589643 -1.13601617 277.61462 -1.1328125 274.86328125 C-1.13383521 272.83594749 -1.13517863 270.80861388 -1.1368103 268.78128052 C-1.13956319 263.15028254 -1.13493219 257.51931136 -1.12857056 251.88831711 C-1.1249962 248.3086921 -1.12337676 244.72907116 -1.12231445 241.14944458 C-1.09308942 160.76563385 -0.49992224 80.3819455 0 0 Z " fill="#E1E1E1" transform="translate(354,281)"/>
<path d="M0 0 C0.66 0 1.32 0 2 0 C2.02386544 16.15714618 2.04123189 32.31428625 2.05181217 48.47144604 C2.0568657 55.98153987 2.06371328 63.49162237 2.07543945 71.00170898 C2.13769873 111.67947514 1.82712592 152.32989049 1 193 C0.67 193 0.34 193 0 193 C-0.33 177.82 -0.66 162.64 -1 147 C-1.33 147 -1.66 147 -2 147 C-2.02356892 135.28710075 -2.04113487 123.57420749 -2.05181217 111.86128902 C-2.05694656 106.4176898 -2.06386312 100.97410722 -2.07543945 95.53051758 C-2.12045852 73.7459926 -2.11419222 51.97015222 -1.55859375 30.19140625 C-1.53906206 29.39853651 -1.51953037 28.60566677 -1.49940681 27.78877068 C-1.26340418 18.50154457 -0.82308549 9.25704676 0 0 Z " fill="#E6E6E6" transform="translate(474,166)"/>
<path d="M0 0 C0 0.33 0 0.66 0 1 C-11.58158708 4.62584641 -22.80690834 7.80584888 -35 6 C-37.88487812 6.76204328 -40.34134535 7.67067267 -43 9 C-45.82771783 9.06982019 -48.64101392 8.99703129 -51.46875 8.9375 C-53.99511297 8.82047338 -53.99511297 8.82047338 -56 10 C-62.89581377 10.886209 -69.82156784 11.43470492 -76.75 12 C-78.32974609 12.13027588 -78.32974609 12.13027588 -79.94140625 12.26318359 C-87.29238755 12.86707894 -94.64446143 13.45408112 -102 14 C-102 13.34 -102 12.68 -102 12 C-102.99 11.67 -103.98 11.34 -105 11 C-104.67 10.01 -104.34 9.02 -104 8 C-102.32550781 8.05220703 -102.32550781 8.05220703 -100.6171875 8.10546875 C-90.60713423 8.31471171 -81.06923567 7.6475314 -71.17260742 6.1418457 C-64.23758992 5.10470143 -57.37475648 4.54428809 -50.36889648 4.29125977 C-46.89009237 4.47161702 -46.89009237 4.47161702 -44 3 C-41.69616573 2.69814048 -39.38403824 2.45927137 -37.0703125 2.24609375 C-36.36534637 2.18092056 -35.66038025 2.11574738 -34.93405151 2.04859924 C-33.43280017 1.9111019 -31.93133582 1.77591418 -30.4296875 1.64282227 C-28.16857037 1.44138164 -25.9085411 1.23005166 -23.6484375 1.01757812 C-15.75583753 0.2946843 -7.93311383 -0.22221307 0 0 Z " fill="#D9D9D9" transform="translate(453,581)"/>
<path d="M0 0 C3.4375 0.6875 3.4375 0.6875 5.625 2.546875 C8.30141231 7.1844515 7.98217489 11.36651576 7.875 16.625 C7.88208984 17.60146484 7.88917969 18.57792969 7.89648438 19.58398438 C7.84700364 25.19814525 7.67792878 30.44707122 3.4375 34.6875 C-3.64821429 35.14464286 -3.64821429 35.14464286 -6.5625 33.6875 C-8.20233879 30.40782242 -7.74095638 27.31611311 -7.5625 23.6875 C-6.9025 23.6875 -6.2425 23.6875 -5.5625 23.6875 C-5.2325 26.6575 -4.9025 29.6275 -4.5625 32.6875 C-2.2525 32.6875 0.0575 32.6875 2.4375 32.6875 C2.4375 32.0275 2.4375 31.3675 2.4375 30.6875 C0.4575 30.3575 -1.5225 30.0275 -3.5625 29.6875 C-3.5625 28.0375 -3.5625 26.3875 -3.5625 24.6875 C-2.5725 25.0175 -1.5825 25.3475 -0.5625 25.6875 C-0.8925 26.6775 -1.2225 27.6675 -1.5625 28.6875 C-0.9025 28.6875 -0.2425 28.6875 0.4375 28.6875 C0.4375 27.3675 0.4375 26.0475 0.4375 24.6875 C1.7575 24.3575 3.0775 24.0275 4.4375 23.6875 C4.4375 20.0575 4.4375 16.4275 4.4375 12.6875 C3.4475 13.3475 2.4575 14.0075 1.4375 14.6875 C-1.25 14.3125 -1.25 14.3125 -3.5625 13.6875 C-3.5625 16.3275 -3.5625 18.9675 -3.5625 21.6875 C-5.8725 22.0175 -8.1825 22.3475 -10.5625 22.6875 C-12.47675531 16.94473406 -10.1028236 9.83560663 -7.4921875 4.5 C-5.28868941 1.46471787 -3.66606986 0.70748717 0 0 Z " fill="#D6D6D6" transform="translate(383.5625,226.3125)"/>
<path d="M0 0 C0.33 0 0.66 0 1 0 C1.03089869 10.70832245 1.05108149 21.41664 1.0625 32.125 C1.06335602 32.92205982 1.06421204 33.71911964 1.06509399 34.54033279 C1.09368191 64.70453726 0.72272434 94.84355819 0 125 C-0.33 125 -0.66 125 -1 125 C-1.95833263 118.5602001 -2.1481494 112.28733197 -2.14526367 105.78222656 C-2.14862228 104.68533005 -2.1519809 103.58843353 -2.15544128 102.45829773 C-2.16489869 98.85239515 -2.16689128 95.24653919 -2.16796875 91.640625 C-2.17118321 89.12815329 -2.17454742 86.61568177 -2.17805481 84.10321045 C-2.18403175 78.84793801 -2.18593896 73.59267736 -2.18530273 68.33740234 C-2.18470039 62.26609614 -2.19529024 56.19487833 -2.2110464 50.12359452 C-2.22569323 44.27057933 -2.22929106 38.41759924 -2.22869301 32.56456757 C-2.22987464 30.07822049 -2.23430665 27.59187279 -2.24202538 25.10553741 C-2.25179144 21.63701438 -2.24896134 18.16872183 -2.24291992 14.70019531 C-2.24853943 13.67051132 -2.25415894 12.64082733 -2.25994873 11.5799408 C-2.25575424 10.63520401 -2.25155975 9.69046722 -2.24723816 8.71710205 C-2.24778293 7.89787891 -2.24832769 7.07865578 -2.24888897 6.2346077 C-1.97430208 3.76927552 -1.232732 2.13502252 0 0 Z " fill="#E9E9E9" transform="translate(355,458)"/>
<path d="M0 0 C0.66 0.33 1.32 0.66 2 1 C2 4.63 2 8.26 2 12 C0.35 12.33 -1.3 12.66 -3 13 C-3 14.32 -3 15.64 -3 17 C-3.66 17 -4.32 17 -5 17 C-5 16.01 -5 15.02 -5 14 C-5.66 13.67 -6.32 13.34 -7 13 C-7 14.65 -7 16.3 -7 18 C-5.02 18.33 -3.04 18.66 -1 19 C-1 19.66 -1 20.32 -1 21 C-3.31 21 -5.62 21 -8 21 C-9.4783226 18.04335481 -9.06032783 15.25770263 -9 12 C-9.66 12 -10.32 12 -11 12 C-11 13.98 -11 15.96 -11 18 C-11.33 18 -11.66 18 -12 18 C-12.66 15.69 -13.32 13.38 -14 11 C-10.535 10.505 -10.535 10.505 -7 10 C-7.33 7.36 -7.66 4.72 -8 2 C-4.71303767 1.20046862 -3.28976808 0.90341064 0 2 C0 1.34 0 0.68 0 0 Z " fill="#E7E7E7" transform="translate(387,238)"/>
<path d="M0 0 C0 1.65 0 3.3 0 5 C0.66 5 1.32 5 2 5 C2 3.35 2 1.7 2 0 C4.475 0.495 4.475 0.495 7 1 C7 2.98 7 4.96 7 7 C2.71 7 -1.58 7 -6 7 C-6.33 5.68 -6.66 4.36 -7 3 C-7 4.65 -7 6.3 -7 8 C-9.31 8 -11.62 8 -14 8 C-14.33 7.34 -14.66 6.68 -15 6 C-15.33 6.66 -15.66 7.32 -16 8 C-16.66 8 -17.32 8 -18 8 C-18.04254356 6.00045254 -18.04080783 3.99958364 -18 2 C-14.62004998 -1.37995002 -4.6341369 -0.10074211 0 0 Z " fill="#D6D6D6" transform="translate(416,265)"/>
<path d="M0 0 C0 0.33 0 0.66 0 1 C-12.67300974 2.99889743 -25.28236261 4.47779417 -38.08569336 5.35302734 C-39.1041333 5.42473145 -40.12257324 5.49643555 -41.171875 5.5703125 C-42.0803418 5.62977051 -42.98880859 5.68922852 -43.92480469 5.75048828 C-45.98769125 5.78181153 -45.98769125 5.78181153 -47 7 C-48.55948542 7.15686249 -50.12542668 7.25076639 -51.69140625 7.31640625 C-52.63564453 7.35830078 -53.57988281 7.40019531 -54.55273438 7.44335938 C-56.04256836 7.50233398 -56.04256836 7.50233398 -57.5625 7.5625 C-58.55958984 7.60568359 -59.55667969 7.64886719 -60.58398438 7.69335938 C-63.0558415 7.79980298 -65.5278031 7.90181928 -68 8 C-68 6.68 -68 5.36 -68 4 C-66.32550781 4.05220703 -66.32550781 4.05220703 -64.6171875 4.10546875 C-54.59982214 4.31486456 -45.06019281 3.633685 -35.1550293 2.14404297 C-29.16613612 1.25652528 -23.23428358 0.62388666 -17.1875 0.3125 C-16.48939209 0.27648682 -15.79128418 0.24047363 -15.07202148 0.20336914 C-10.04637641 -0.01976442 -5.03012533 -0.02463333 0 0 Z " fill="#CCCCCC" transform="translate(417,585)"/>
<path d="M0 0 C2.64 0 5.28 0 8 0 C7.67 1.65 7.34 3.3 7 5 C7.66 5 8.32 5 9 5 C9 3.35 9 1.7 9 0 C11.475 0.495 11.475 0.495 14 1 C13.8125 2.875 13.8125 2.875 13 5 C9.50290316 6.72994684 6.30424358 7.35944526 2.4375 7.6875 C1.50808594 7.77386719 0.57867187 7.86023438 -0.37890625 7.94921875 C-2.84151112 7.99692943 -4.6480529 7.64283153 -7 7 C-9.18703385 7.37907282 -9.18703385 7.37907282 -11 8 C-11 5.69 -11 3.38 -11 1 C-7.7 1 -4.4 1 -1 1 C-1 2.32 -1 3.64 -1 5 C-0.34 5 0.32 5 1 5 C0.67 3.35 0.34 1.7 0 0 Z " fill="#CCCCCC" transform="translate(409,247)"/>
<path d="M0 0 C-3.41662695 2.2777513 -4.57439461 2.19525983 -8.5625 2.0625 C-12.43090293 1.83191303 -12.43090293 1.83191303 -16 3 C-22.89581377 3.886209 -29.82156784 4.43470492 -36.75 5 C-37.80316406 5.08685059 -38.85632813 5.17370117 -39.94140625 5.26318359 C-47.29238755 5.86707894 -54.64446143 6.45408112 -62 7 C-62 6.34 -62 5.68 -62 5 C-61.42967041 4.94465088 -60.85934082 4.88930176 -60.27172852 4.83227539 C-57.70151247 4.58026257 -55.13202369 4.32147272 -52.5625 4.0625 C-51.21575195 3.93198242 -51.21575195 3.93198242 -49.84179688 3.79882812 C-48.98779297 3.71181641 -48.13378906 3.62480469 -47.25390625 3.53515625 C-46.06776733 3.41732788 -46.06776733 3.41732788 -44.85766602 3.29711914 C-42.98896652 3.18448501 -42.98896652 3.18448501 -42 2 C-39.07146327 1.68419422 -36.15904962 1.42720005 -33.22265625 1.2109375 C-31.900131 1.10962021 -31.900131 1.10962021 -30.55088806 1.0062561 C-28.68229241 0.86449281 -26.81351511 0.72510723 -24.94458008 0.58789062 C-22.07765308 0.37611931 -19.21172078 0.1533911 -16.34570312 -0.0703125 C-14.53390405 -0.20639495 -12.72205645 -0.34183313 -10.91015625 -0.4765625 C-10.0486647 -0.54420807 -9.18717316 -0.61185364 -8.29957581 -0.68154907 C-2.22948231 -1.11474115 -2.22948231 -1.11474115 0 0 Z " fill="#E1E1E1" transform="translate(413,588)"/>
<path d="M0 0 C3.05023923 5.24641148 3.05023923 5.24641148 2.8125 8.8125 C2 11 2 11 0 12 C-3.5 12.25 -3.5 12.25 -7 12 C-9.16551116 8.75173326 -9.55156953 7.76905843 -9 4 C-6.32031823 0.3278435 -4.49792702 -0.49976967 0 0 Z " fill="#E7E7E7" transform="translate(386,265)"/>
<path d="M0 0 C1.65322266 0.01740234 1.65322266 0.01740234 3.33984375 0.03515625 C4.99693359 0.04869141 4.99693359 0.04869141 6.6875 0.0625 C7.54214844 0.07410156 8.39679688 0.08570313 9.27734375 0.09765625 C9.60734375 2.73765625 9.93734375 5.37765625 10.27734375 8.09765625 C5.98734375 8.09765625 1.69734375 8.09765625 -2.72265625 8.09765625 C-3.10328846 5.77157055 -3.4353557 3.43710361 -3.72265625 1.09765625 C-2.72265625 0.09765625 -2.72265625 0.09765625 0 0 Z " fill="#D8D5D6" transform="translate(412.72265625,227.90234375)"/>
<path d="M0 0 C0 0.99 0 1.98 0 3 C0.99 2.67 1.98 2.34 3 2 C3 4.31 3 6.62 3 9 C-6.1 11.45 -6.1 11.45 -9 10 C-8.67 8.68 -8.34 7.36 -8 6 C-7.34 6.33 -6.68 6.66 -6 7 C-6 4.69 -6 2.38 -6 0 C-3 -1 -3 -1 0 0 Z " fill="#DADADA" transform="translate(388,230)"/>
<path d="M0 0 C2.45103548 0.98041419 3.76758786 1.6513818 5.25 3.875 C6 6 6 6 6 10 C2.7 10 -0.6 10 -4 10 C-3.67 8.35 -3.34 6.7 -3 5 C-2.34 5 -1.68 5 -1 5 C-0.67 3.35 -0.34 1.7 0 0 Z " fill="#CFCFCF" transform="translate(428,299)"/>
<path d="M0 0 C6.72 0.72 6.72 0.72 8 2 C8.25 4.4375 8.25 4.4375 8 7 C5 9 5 9 1.8125 8.625 C0.4203125 8.315625 0.4203125 8.315625 -1 8 C-1.04241723 5.66705225 -1.04092937 3.33297433 -1 1 C-0.67 0.67 -0.34 0.34 0 0 Z " fill="#D5F4C9" transform="translate(437,244)"/>
<path d="M0 0 C0.33 0 0.66 0 1 0 C1 3.96 1 7.92 1 12 C0.67 11.34 0.34 10.68 0 10 C-3.02934491 9.34227572 -3.02934491 9.34227572 -6 9 C-6 8.34 -6 7.68 -6 7 C-6.66 7 -7.32 7 -8 7 C-8 5.35 -8 3.7 -8 2 C-4.71303767 1.20046862 -3.28976808 0.90341064 0 2 C0 1.34 0 0.68 0 0 Z " fill="#F2F2F2" transform="translate(387,238)"/>
<path d="M0 0 C1.9375 1.3125 1.9375 1.3125 3 3 C3 3.99 3 4.98 3 6 C2.34 6 1.68 6 1 6 C0.67 5.01 0.34 4.02 0 3 C-1.32 3.33 -2.64 3.66 -4 4 C-4.33 5.98 -4.66 7.96 -5 10 C-5.66 10 -6.32 10 -7 10 C-6.67 8.02 -6.34 6.04 -6 4 C-6.99 4.495 -6.99 4.495 -8 5 C-8.73075648 7.3140622 -9.40138258 9.64828869 -10 12 C-10.33 12 -10.66 12 -11 12 C-11.48192771 4.77108434 -11.48192771 4.77108434 -9.4375 1.5 C-6.08965651 -0.56021138 -3.85985753 -0.49125459 0 0 Z " fill="#CFCFCF" transform="translate(387,227)"/>
<path d="M0 0 C0 0.33 0 0.66 0 1 C-9.8411503 3.83879336 -19.8041439 4.20301483 -30 4 C-27.12547767 1.12547767 -23.93771268 1.28037613 -20.0625 0.875 C-19.30138916 0.79008301 -18.54027832 0.70516602 -17.75610352 0.61767578 C-11.82672725 -0.00501836 -5.96161838 -0.23176918 0 0 Z " fill="#D0D0D0" transform="translate(453,581)"/>
<path d="M0 0 C1.2065625 0.0309375 1.2065625 0.0309375 2.4375 0.0625 C2.4375 3.0325 2.4375 6.0025 2.4375 9.0625 C0.4575 9.0625 -1.5225 9.0625 -3.5625 9.0625 C-3.66015625 2.91015625 -3.66015625 2.91015625 -3.5625 1.0625 C-2.5625 0.0625 -2.5625 0.0625 0 0 Z " fill="#DAEBC1" transform="translate(430.5625,244.9375)"/>
<path d="M0 0 C0.66 0.99 1.32 1.98 2 3 C1.34 3 0.68 3 0 3 C0 3.99 0 4.98 0 6 C-6.75 6.125 -6.75 6.125 -9 5 C-8.625 3.0625 -8.625 3.0625 -8 1 C-5.21136993 -0.39431504 -3.07921132 -0.25660094 0 0 Z " fill="#CCCCCC" transform="translate(433,281)"/>
<path d="M0 0 C3.3 0 6.6 0 10 0 C9.67 1.32 9.34 2.64 9 4 C9 3.01 9 2.02 9 1 C8.01 1 7.02 1 6 1 C6 2.65 6 4.3 6 6 C4.02 6.33 2.04 6.66 0 7 C0 4.69 0 2.38 0 0 Z " fill="#E0E0E0" transform="translate(398,248)"/>
<path d="M0 0 C-0.33 0.66 -0.66 1.32 -1 2 C-3.53300993 2.34678112 -5.95398035 2.56448044 -8.5 2.6875 C-9.58571289 2.74828735 -9.58571289 2.74828735 -10.69335938 2.81030273 C-15.91090651 3.05845152 -20.83198511 2.83057382 -26 2 C-26 1.67 -26 1.34 -26 1 C-17.31126982 0.10884819 -8.73139464 -0.11624638 0 0 Z " fill="#E3E3E3" transform="translate(470,579)"/>
<path d="M0 0 C1.2065625 0.0309375 1.2065625 0.0309375 2.4375 0.0625 C2.7675 1.7125 3.0975 3.3625 3.4375 5.0625 C2.7775 5.0625 2.1175 5.0625 1.4375 5.0625 C1.4375 5.7225 1.4375 6.3825 1.4375 7.0625 C-0.2125 6.7325 -1.8625 6.4025 -3.5625 6.0625 C-3.605221 4.39638095 -3.60313832 2.72867115 -3.5625 1.0625 C-2.5625 0.0625 -2.5625 0.0625 0 0 Z " fill="#C3F0B9" transform="translate(441.5625,226.9375)"/>
<path d="M0 0 C1.66611905 -0.042721 3.33382885 -0.04063832 5 0 C6 1 6 1 6.125 3.5 C6 6 6 6 5 7 C3.33382885 7.04063832 1.66611905 7.042721 0 7 C0 4.69 0 2.38 0 0 Z " fill="#CED4D8" transform="translate(427,228)"/>
<path d="M0 0 C1.4540625 0.0309375 1.4540625 0.0309375 2.9375 0.0625 C2.9375 1.7125 2.9375 3.3625 2.9375 5.0625 C0.6275 5.3925 -1.6825 5.7225 -4.0625 6.0625 C-4.105221 4.39638095 -4.10313832 2.72867115 -4.0625 1.0625 C-3.0625 0.0625 -3.0625 0.0625 0 0 Z " fill="#98E985" transform="translate(441.0625,263.9375)"/>
<path d="M0 0 C0.66 0.33 1.32 0.66 2 1 C1.67 1.99 1.34 2.98 1 4 C1.66 4 2.32 4 3 4 C3 2.68 3 1.36 3 0 C3.66 0 4.32 0 5 0 C5.125 5.75 5.125 5.75 4 8 C2.02 8 0.04 8 -2 8 C-1.125 1.125 -1.125 1.125 0 0 Z " fill="#BDBDBD" transform="translate(381,269)"/>
<path d="M0 0 C1.65 0 3.3 0 5 0 C5.33 2.31 5.66 4.62 6 7 C4.02 7 2.04 7 0 7 C0 4.69 0 2.38 0 0 Z " fill="#D4D4D4" transform="translate(403,230)"/>
<path d="M0 0 C-3.2077897 1.86868881 -5.81377217 2.32451551 -9.5 2.5625 C-13.35886271 2.81594502 -13.35886271 2.81594502 -17.140625 3.5546875 C-19.89161646 4.2135384 -22.26484238 3.55946406 -25 3 C-25 2.67 -25 2.34 -25 2 C-16.6030674 0.62707087 -8.51372785 -0.31274919 0 0 Z " fill="#E2E2E2" transform="translate(444,584)"/>
<path d="M0 0 C1.65322266 0.01740234 1.65322266 0.01740234 3.33984375 0.03515625 C4.99693359 0.04869141 4.99693359 0.04869141 6.6875 0.0625 C7.54214844 0.07410156 8.39679688 0.08570313 9.27734375 0.09765625 C9.27734375 0.42765625 9.27734375 0.75765625 9.27734375 1.09765625 C6.63734375 1.09765625 3.99734375 1.09765625 1.27734375 1.09765625 C1.27734375 3.40765625 1.27734375 5.71765625 1.27734375 8.09765625 C-0.04265625 8.09765625 -1.36265625 8.09765625 -2.72265625 8.09765625 C-3.10328846 5.77157055 -3.4353557 3.43710361 -3.72265625 1.09765625 C-2.72265625 0.09765625 -2.72265625 0.09765625 0 0 Z " fill="#E7E7E7" transform="translate(412.72265625,227.90234375)"/>
<path d="M0 0 C0.99 0 1.98 0 3 0 C3 1.32 3 2.64 3 4 C2.34 4 1.68 4 1 4 C1 4.66 1 5.32 1 6 C1.99 6 2.98 6 4 6 C4.33 5.34 4.66 4.68 5 4 C5 4.99 5 5.98 5 7 C2.69 7.33 0.38 7.66 -2 8 C-3 5 -3 5 -1.75 2.3125 C-1.1725 1.549375 -0.595 0.78625 0 0 Z " fill="#BFBFBF" transform="translate(375,241)"/>
<path d="M0 0 C2.97 0.33 5.94 0.66 9 1 C9 1.99 9 2.98 9 4 C6.03 4 3.06 4 0 4 C0 2.68 0 1.36 0 0 Z " fill="#D0D0D0" transform="translate(349,589)"/>
<path d="M0 0 C1.65 0 3.3 0 5 0 C5 1.65 5 3.3 5 5 C3.35 5 1.7 5 0 5 C0 3.35 0 1.7 0 0 Z " fill="#B72859" transform="translate(427,265)"/>
<path d="M0 0 C2.64 0 5.28 0 8 0 C7.67 1.65 7.34 3.3 7 5 C6.34 5 5.68 5 5 5 C4.67 5.66 4.34 6.32 4 7 C3.87625 6.195625 3.7525 5.39125 3.625 4.5625 C3.315625 3.2940625 3.315625 3.2940625 3 2 C2.34 1.67 1.68 1.34 1 1 C0.67 1.66 0.34 2.32 0 3 C0 2.01 0 1.02 0 0 Z " fill="#D6D6D6" transform="translate(409,247)"/>
<path d="M0 0 C1.65 0 3.3 0 5 0 C5 1.65 5 3.3 5 5 C3.35 5 1.7 5 0 5 C0 3.35 0 1.7 0 0 Z " fill="#A1C576" transform="translate(427,247)"/>
<path d="M0 0 C3 0 3 0 5.0625 1.9375 C5.701875 2.618125 6.34125 3.29875 7 4 C7.66 4.33 8.32 4.66 9 5 C9 5.66 9 6.32 9 7 C7.35 7 5.7 7 4 7 C4 6.01 4 5.02 4 4 C3.34 4 2.68 4 2 4 C1.34 2.68 0.68 1.36 0 0 Z " fill="#CCCCCC" transform="translate(310,561)"/>
<path d="M0 0 C0.66 0.99 1.32 1.98 2 3 C0.9275 2.979375 -0.145 2.95875 -1.25 2.9375 C-4.14790424 2.9857984 -6.28612141 3.13155885 -9 4 C-8.67 3.01 -8.34 2.02 -8 1 C-5.21136993 -0.39431504 -3.07921132 -0.25660094 0 0 Z " fill="#AFAFAF" transform="translate(433,281)"/>
<path d="M0 0 C2.475 0.99 2.475 0.99 5 2 C5 2.66 5 3.32 5 4 C5.61875 4.103125 6.2375 4.20625 6.875 4.3125 C9 5 9 5 11 8 C10.236875 7.690625 9.47375 7.38125 8.6875 7.0625 C6.81210323 6.32106407 4.91315348 5.63771783 3 5 C1.3125 2.4375 1.3125 2.4375 0 0 Z " fill="#CDCDCD" transform="translate(279,539)"/>
<path d="M0 0 C1.32 0.33 2.64 0.66 4 1 C3.67 2.98 3.34 4.96 3 7 C2.01 7 1.02 7 0 7 C0 4.69 0 2.38 0 0 Z " fill="#CDCDCD" transform="translate(398,248)"/>
<path d="M0 0 C3.33333333 1.66666667 6.66666667 3.33333333 10 5 C10 5.99 10 6.98 10 8 C6.88349604 6.49946106 3.86850702 4.93818042 1 3 C0.67 2.01 0.34 1.02 0 0 Z " fill="#C4C4C4" transform="translate(267,531)"/>
<path d="M0 0 C1.2065625 0.0309375 1.2065625 0.0309375 2.4375 0.0625 C1.7775 0.7225 1.1175 1.3825 0.4375 2.0625 C0.03985737 4.05071313 -0.30025349 6.05194339 -0.5625 8.0625 C-1.2225 8.0625 -1.8825 8.0625 -2.5625 8.0625 C-2.2325 6.0825 -1.9025 4.1025 -1.5625 2.0625 C-2.2225 1.7325 -2.8825 1.4025 -3.5625 1.0625 C-2.5625 0.0625 -2.5625 0.0625 0 0 Z " fill="#C3C3C3" transform="translate(382.5625,228.9375)"/>
<path d="M0 0 C0 2.31 0 4.62 0 7 C-0.99 7.33 -1.98 7.66 -3 8 C-3 5.69 -3 3.38 -3 1 C-1 0 -1 0 0 0 Z " fill="#F6FAE9" transform="translate(436,245)"/>
<path d="M0 0 C0.99 0.33 1.98 0.66 3 1 C2.34 2.98 1.68 4.96 1 7 C0.34 7 -0.32 7 -1 7 C-1.04254356 5.00045254 -1.04080783 2.99958364 -1 1 C-0.67 0.67 -0.34 0.34 0 0 Z " fill="#C9C9C9" transform="translate(399,266)"/>
<path d="M0 0 C0 2.31 0 4.62 0 7 C-0.99 7 -1.98 7 -3 7 C-3 5.02 -3 3.04 -3 1 C-1 0 -1 0 0 0 Z " fill="#CCCCCC" transform="translate(416,265)"/>
<path d="M0 0 C0.99 0 1.98 0 3 0 C3 1.65 3 3.3 3 5 C1.68 5 0.36 5 -1 5 C-0.67 3.35 -0.34 1.7 0 0 Z " fill="#80E566" transform="translate(439,246)"/>
<path d="M0 0 C2.0625 0.4375 2.0625 0.4375 4 1 C4 1.66 4 2.32 4 3 C4.99 3.33 5.98 3.66 7 4 C5.25 4.75 5.25 4.75 3 5 C0.75 3.0625 0.75 3.0625 -1 1 C-0.67 0.67 -0.34 0.34 0 0 Z " fill="#CACACA" transform="translate(296,551)"/>
<path d="M0 0 C0 1.65 0 3.3 0 5 C-1.32 5 -2.64 5 -4 5 C-4 3.68 -4 2.36 -4 1 C-2 0 -2 0 0 0 Z " fill="#7AE063" transform="translate(442,228)"/>
<path d="M0 0 C0.66 0 1.32 0 2 0 C2 1.32 2 2.64 2 4 C3.32 4.33 4.64 4.66 6 5 C3.69 5 1.38 5 -1 5 C-0.67 3.35 -0.34 1.7 0 0 Z " fill="#CCCCCC" transform="translate(425,304)"/>
<path d="M0 0 C1.5 1.375 1.5 1.375 3 3 C3 3.66 3 4.32 3 5 C1.35 5 -0.3 5 -2 5 C-2 4.01 -2 3.02 -2 2 C-1.34 2 -0.68 2 0 2 C0 1.34 0 0.68 0 0 Z " fill="#EEEEEE" transform="translate(429,302)"/>
<path d="M0 0 C0.99 0.33 1.98 0.66 3 1 C3 2.98 3 4.96 3 7 C2.01 7 1.02 7 0 7 C0 4.69 0 2.38 0 0 Z " fill="#C5C5C5" transform="translate(414,229)"/>
<path d="M0 0 C1.32 0.33 2.64 0.66 4 1 C3.67 2.98 3.34 4.96 3 7 C2.34 7 1.68 7 1 7 C0.67 4.69 0.34 2.38 0 0 Z " fill="#C7C7C7" transform="translate(409,229)"/>
</svg>
